M48
;Layer_Color=9474304
;FILE_FORMAT=2:4
INCH,TZ
;TYPE=PLATED
T2F00S00C0.0118
T4F00S00C0.1181
;TYPE=NON_PLATED
T5F00S00C0.0354
T6F00S00C0.0402
T7F00S00C0.0701
%
T02
X23205Y207
X24500
X25500
X26500
X27500
X28500
X22205
X21205
X18909
X18205
X16205
X14703
X13703
X12703
X11703
X10703
X9703
X8703
X7703
X6703
X5713Y423
X5156Y276
X5370Y1207
X4705
X3705
X4205Y2207
X5205
X5705Y3207
X4705
X3705
X2656Y3189
Y3689
Y4189
Y4689
Y5189
Y5689
Y6189
Y6689
Y7189
Y7689
Y8189
Y8689
Y9189
Y9732
X3156Y9482
Y8939
Y8439
Y7939
Y7439
Y6939
X3205Y6207
X4205
X5205
X6496Y6250
X6145Y7610
X5508Y7490
X5705Y7207
X5156Y7636
X4656Y7689
Y8189
Y8689
Y9189
Y9630
X4254Y9439
Y9939
X4156Y10600
Y10982
Y11482
Y11982
X4744Y12028
X4951Y11811
X5236Y12146
X5453Y12352
X5990Y12451
Y12805
X6289Y13209
X6132Y13484
X5768Y14026
X5705Y15207
X5915Y15994
X5205Y16207
X5148Y15748
X4272Y15207
X3967Y14764
X3455Y15207
X2705
X2156Y14982
Y14482
Y13982
Y13482
Y12982
Y12482
Y11982
Y11482
Y10982
X2656Y10732
Y11232
Y11732
X3156Y11482
Y11982
X3656Y11732
Y11232
Y10732
X3156Y10982
X4656Y10929
X4711Y11427
X5311Y10984
X5665Y10915
X5156Y10679
X4986Y10010
X5335Y9902
X5567Y9508
X5587Y8789
X6207Y8878
X5087Y9079
X4156Y8939
Y8439
Y7939
X3656Y8189
Y7689
X3705Y7207
X4705
Y5207
X5705
Y4207
X4205
X3205
X2156Y4439
Y3939
Y3439
X1656Y3689
Y4189
Y4876
X2156Y4939
Y5439
Y5939
Y6439
Y6939
Y7439
Y7939
Y8439
Y8939
Y9482
X3656Y9732
Y9189
Y8689
X3705Y5207
X1156Y4439
Y3939
Y3439
X831Y3189
X1656Y3189
X831Y2189
X870Y1189
X656Y4876
Y11732
Y12232
X205Y12482
Y11982
Y11482
X1156Y11482
Y11982
Y12482
X705Y13207
X1705
X1205Y14207
X205
X705Y15207
X1705
X1205Y16207
X1656Y11732
X4606Y13189
Y13632
X6118Y12106
X6827Y11339
Y10866
Y10394
Y9921
X6341Y1207
X7370
X8370
X9370
X10370
X11370
X12370
X13370
X14370
X15370
X15205Y2207
X16205
X17014Y2205
X18205Y2207
X19205
X20205
X21205
X22205
X21705Y3207
X20705
X19705
X20205Y4207
X21205
X20976Y4955
X21707Y4951
X22205Y5587
X22205Y4207
X19081Y4203
X18783Y4951
X19707
X19282Y5587
X20205
X20376Y6699
X20876Y7199
Y7724
X21205Y8207
X21526Y8126
Y9126
Y10126
X21205Y10207
X20876Y10626
Y11626
X21205Y12207
X21526Y12126
Y11126
X22352Y11624
X22323Y12844
X21526Y13126
X21171Y13827
X20876Y13626
Y12626
Y9626
Y8626
X19376Y6699
X18376Y6699
X17376Y6699
X16486Y5531
Y5167
X15870Y5335
X14833Y5423
X14823Y4587
X13909Y4587
X13858Y5413
X12864Y5108
X11864
X11821Y5965
X12392
X12298Y6462
X11812Y6723
X12183Y8120
X11555Y8654
Y9154
Y9654
Y10154
X11782Y10404
X11555Y10654
Y11154
X11762Y11467
X11220Y11545
X10896Y11447
X11205Y12207
X12205
X12183Y10904
Y9904
X10128Y9606
X9911Y8937
X9524Y9011
X9130
X8726
X8244Y9173
X8244Y9921
X7772
Y10394
X8244
Y10866
X7772
Y11339
X8244
X9114Y11388
X9097Y10335
X7299Y10394
Y10866
Y11339
X7132Y12451
X7152Y12874
X7437Y12943
X7713Y12766
X7705Y13207
X7697Y13543
X7201Y13410
Y13750
X7398Y14728
X7923Y14833
X7657Y15256
X6978Y15157
X8563Y15453
X8661Y16122
X7933
X9547Y16152
Y15699
X10581Y16152
X12205Y16102
X12967Y16041
X12972Y15709
X13356Y15453
X13701Y15709
X14553Y15532
X15030Y15728
X15689Y15689
Y16063
X16102Y16004
X16850Y16073
X17205
X18012Y16063
X18829Y15650
X19205Y16207
X20205
X21538Y15966
X21348Y15492
X21742
X22136
X22402Y15738
X17980Y14429
X16600
X14980
X12293Y14518
X12283Y14163
X11205Y14207
X10205
X9134Y13878
X8583
X8618Y13071
X9081
X9498
X9803Y12313
X10148Y12313
X10919Y13209
X11705Y13207
X9006Y14596
X8919Y8334
X9205Y8207
X9578Y8334
X10167
X9654Y7638
X9705Y7207
X9636Y6636
X9965Y6622
X9429Y6240
X9085
X8928Y6909
X8705Y7207
X8604Y7638
X8116
X7835Y7382
X7535Y7136
X8120Y6925
X8264Y8334
X7382Y8366
X6880Y8041
X6876Y8868
X7165Y9065
X7299Y9921
X6870Y5846
X6864Y5207
X7864Y5108
X8864
X9864
X10864
X10705Y3207
X11705
X12705
X13705
X14205Y2207
X13205
X12205
X10205
X9205
X8205
X7205
X7705Y3207
X8705
X9705
X15705
X16705
X17705
Y1207
X18705
X19705
X20705
X21705
X16705Y1309
X17904Y5167
X22707Y4951
X23307Y5482
X23661Y5719
X24194Y5817
X23976Y6250
X24518Y6240
X25592Y6249
X26644Y6260
X27042
X27441
X27323Y5965
X27778Y5802
X28091
X28337Y5364
X27559Y5335
Y4951
X27569Y4587
X26593
X26594Y5030
X25592Y4605
X24569Y4587
X24567Y5030
X23593Y4587
X23205Y4207
X23705Y3207
X22705
X23205Y2207
X24205
X25303
X26303
X27205
X27951Y1998
X28205Y2207
X28705Y3207
X27705
Y1207
X28705
X29705
X30705
X30205Y2207
X30705Y3207
X30472Y4016
X31055Y4023
Y4387
Y4751
Y5116
X30882Y5509
X30537Y5588
Y5214
X29656Y5217
X29213Y5433
X29508Y6070
X29183Y6654
X29518Y7164
X30030Y7087
X30287Y7448
X29843Y7746
X29872Y8188
X30911Y8071
X31217
Y7739
X30911
X30882Y7104
Y6631
X31177Y6070
X32137Y6214
X32637Y5714
X32705Y5207
X33137Y5214
X32637Y4714
X32303Y4213
X32018Y4449
X31610Y4043
X32137Y5214
X33137Y6214
Y7214
X32637
Y6714
X32137Y7214
X31591Y7448
X31217Y8403
X30911
X30768Y8986
X30443Y9006
X30105Y9314
X29705Y9207
X28705
X28226Y9020
X28504Y8661
X28400Y8307
X27480Y8317
X27175Y8358
Y9058
Y9561
Y10163
Y10765
X27480Y10647
X28409Y10640
X28524Y11004
X28248Y11329
X28598Y11639
X28681Y12352
X28287Y12756
X28455Y13524
X29050Y13137
X28967Y14028
X29400
Y14461
X28967
X29055Y15649
X28239Y15973
X27549Y15915
Y15148
Y14222
X27016Y14365
X27254Y13701
X27037Y13465
X26810Y13250
X26810Y12571
X27116Y12570
X27175Y11939
Y11367
X27490Y12234
X29498Y12333
X29988Y12874
X30285Y13209
X30305Y14242
X31205Y14207
X32205
X32705Y15207
X31705
X32205Y16207
X31205
X29774Y16112
X29862Y15276
X31705Y13207
X32705
X32205Y12207
X31205
X30705Y11207
X29705
X30205Y10207
X31205
X31561Y10007
X32014
X32368Y10207
X33205
X33382Y8936
Y8637
Y8271
Y7905
Y7539
X32873Y8936
X32705Y9207
X32373Y8936
X32014Y9003
Y9387
X31561
X31207Y9392
X32705Y11207
X28770Y7461
X27933Y7411
X27185Y7372
X27778Y6415
X28366Y6339
X28339Y6897
X29626Y4065
X29380Y3799
X32705Y3207
Y1207
X26705
X25705
X24705
X23705
X22705
X22667Y6161
X22699Y6506
X23159Y7589
X22864Y7913
X22549
X23002Y8406
X23659Y8474
X24156
X24156Y8936
X24134Y9567
Y10059
X24156Y10738
Y11234
X24134Y11929
X23839Y12215
Y12549
X24281Y13652
X24085Y14380
X25166Y14461
X25599
Y14028
X25166
X24634Y15002
X22923Y15276
X23205Y16207
X23453Y13762
X22530Y11890
X22656Y11112
X23659Y10738
X23652Y9823
X22638Y9518
X22653Y8799
X24075Y7480
X25705Y3207
X26142Y17313
X26463Y17248
X26672Y17039
X26801Y18238
X27205Y18207
X28046Y18495
X28425
X28474Y19003
X28937Y19390
X29205Y20207
X30205
X31205
X32205
X32705Y19207
Y17207
X31705
X30705
X29946Y17186
X29951Y16692
X29587
X29282
X28986
X28967Y17598
Y18032
X29400
Y17598
X29941Y18444
X28426Y17135
X28051
X27705Y19207
X26969Y19715
X26959Y20413
X27205Y20207
X27211Y21024
X26388
X24744Y20758
X24724Y19646
X25236
X24203
X24213Y18642
X24577
X24911
X23573
X23091Y18337
X22776
X22667Y17963
X23081
X22894Y17303
X23455Y17057
X24872Y17303
X25207Y17579
X22766Y19134
X22785Y19931
X22795Y20561
X22896Y21043
X21896
X21024Y20492
X20738
X20443
X20167Y20325
X19862Y20197
Y20492
X19518Y20423
Y20148
X19173Y20443
Y19803
Y19163
X18671Y18986
X18474Y18740
X19154Y18209
X19161Y17864
X20010Y17805
X20433Y17402
X20817
X20906Y18120
X20906Y18376
X20797Y19478
X20797Y19734
X21024Y20118
X21309
X22382Y19911
Y19587
X22431Y18474
Y18199
Y17894
X22313Y17490
X21978
X21929Y16988
X21535
X20055Y19459
X18923Y21043
X18317Y20846
X17480Y20325
X17546Y19764
X16073
X16427Y20167
X16526Y19213
X15866Y18750
X15305Y18356
X15315Y17087
X14547
X14006Y16754
X13179Y17067
X12608Y18110
X12382Y17904
X12156Y18415
X12392Y18947
X12972Y18681
X13533Y18346
X13720Y19213
X13730Y19587
X14134
X13927Y20246
X13278Y20551
X13205Y21043
X12205
X11205
X11939Y20246
X11407Y18238
X11309Y17303
X10285Y17028
X9980Y17677
X9537Y17854
X10502Y17835
X9852Y18642
X9685Y19636
X8465Y19646
X8238Y19134
X8465Y18652
X8327Y18110
X8219Y17746
X7354Y17804
X7205Y18207
X7067Y17274
X7598Y17215
X7943Y17067
X7205Y21043
X8986Y20758
X15205Y20207
X17087Y18366
X17618Y18169
X17785Y17323
X6821Y17539
X6398Y18081
X6063Y17756
X5669Y17790
X5380Y18080
X5428Y18858
X5610Y19557
X5866
X6122
X6705Y19207
X6732Y19961
X6742Y20650
X6482Y21043
X5156Y20994
X5205Y20207
X4205
X3205
X3705Y19207
X4705
X4205Y18207
X3205
X1205
Y17207
Y20207
X4705Y17207
X5705
T04
X2205Y2205
X31496
X31496Y19047
X2205
T05
X15512Y19764
X18189
T06
X1687Y12632
Y14132
T07
X6866Y2817
X14866
X24591
X26591
M30
