M48
;Layer_Color=9474304
;FILE_FORMAT=2:4
INCH,TZ
;TYPE=PLATED
T1F00S00C0.0059
;TYPE=NON_PLATED
%
T01
X6049Y10532
X6256
X6453Y10827
Y11024
X6748Y11713
X5433Y12884
X6604Y14951
X6945Y11713
X7142
X7535
X7732Y11713
X7929
X8126
X7831Y12047
X7762Y12421
X8618Y11024
Y10630
Y10433
Y10236
X9449Y10335
X9469Y10728
X9646Y10915
X9469Y11368
X7929Y9547
X7732
X7535
X10364Y7352
X10561Y7156
X10758Y7352
X10955Y7156
X11152Y7352
X11348Y7156
X11545Y7352
X14053Y14776
X14537Y14854
X23868Y14961
X23819Y15482
X23829Y15915
X24341
X25046Y15951
X25728Y15945
X26132Y15659
X26309Y15079
X26932Y14865
Y14615
X27224Y14144
X26836Y13740
X26486Y13848
X26299Y13661
X26445Y13250
X25945Y13228
X25510Y13198
X25254Y13199
X24823Y13238
X24813Y13671
X24459Y13435
X23848Y13189
X23799Y14114
X24803Y15463
X25305Y15472
X25295Y16427
X24724Y16378
X25994Y16427
X27136Y16339
X27234Y16004
X28957Y15906
X29154Y16154
X28376Y15071
X27982Y14370
X28178Y14117
X27982Y13332
X29163Y12864
X28957Y12601
X26476Y12648
X26132Y12490
X25758
X24990
X24547
X26205Y10647
Y9482
Y8317
Y7158
X26089Y6540
X25089
X23907Y6506
X23725Y6868
X27461Y7658
Y8996
Y9987
Y11306
X30325Y13853
X30335Y14626
M30
