G04*
G04 #@! TF.GenerationSoftware,Altium Limited,Altium Designer,20.1.14 (287)*
G04*
G04 Layer_Color=65535*
%FSLAX24Y24*%
%MOIN*%
G70*
G04*
G04 #@! TF.SameCoordinates,36825D0D-408E-4E44-9134-4F5201A7400A*
G04*
G04*
G04 #@! TF.FilePolarity,Positive*
G04*
G01*
G75*
%ADD10C,0.0059*%
%ADD11C,0.0039*%
%ADD12C,0.0098*%
%ADD13C,0.0049*%
%ADD14C,0.0100*%
%ADD15C,0.0079*%
%ADD16C,0.0060*%
%ADD17C,0.0083*%
%ADD18C,0.0060*%
%ADD19C,0.0044*%
%ADD20C,0.0050*%
%ADD21R,0.1575X0.0197*%
%ADD22R,0.1150X0.0289*%
G36*
X8717Y9252D02*
X8913Y9449D01*
Y9252D01*
X8717Y9252D01*
D02*
G37*
G36*
X19360Y20738D02*
X19290D01*
X19151Y21011D01*
Y20738D01*
X19087D01*
Y21157D01*
X19154D01*
X19295Y20877D01*
Y21157D01*
X19360D01*
Y20738D01*
D02*
G37*
G36*
X18872Y21164D02*
X18877D01*
X18883Y21162D01*
X18891Y21161D01*
X18898Y21160D01*
X18907Y21157D01*
X18917Y21154D01*
X18927Y21150D01*
X18937Y21146D01*
X18947Y21140D01*
X18956Y21134D01*
X18967Y21126D01*
X18976Y21118D01*
X18985Y21108D01*
X18986Y21107D01*
X18987Y21105D01*
X18990Y21102D01*
X18992Y21097D01*
X18996Y21092D01*
X19000Y21085D01*
X19004Y21076D01*
X19009Y21067D01*
X19013Y21056D01*
X19017Y21044D01*
X19021Y21031D01*
X19025Y21017D01*
X19027Y21001D01*
X19030Y20985D01*
X19031Y20967D01*
X19032Y20948D01*
Y20946D01*
Y20943D01*
Y20938D01*
X19031Y20931D01*
X19030Y20922D01*
X19029Y20911D01*
X19027Y20900D01*
X19025Y20888D01*
X19023Y20875D01*
X19020Y20861D01*
X19016Y20848D01*
X19011Y20834D01*
X19005Y20820D01*
X18998Y20808D01*
X18991Y20795D01*
X18982Y20783D01*
X18981Y20783D01*
X18980Y20782D01*
X18977Y20778D01*
X18974Y20775D01*
X18970Y20771D01*
X18965Y20767D01*
X18958Y20762D01*
X18951Y20757D01*
X18943Y20752D01*
X18935Y20748D01*
X18925Y20743D01*
X18914Y20739D01*
X18903Y20736D01*
X18891Y20734D01*
X18878Y20732D01*
X18865Y20731D01*
X18862D01*
X18858Y20732D01*
X18853D01*
X18846Y20733D01*
X18839Y20734D01*
X18831Y20736D01*
X18822Y20738D01*
X18813Y20740D01*
X18804Y20744D01*
X18793Y20748D01*
X18784Y20753D01*
X18774Y20759D01*
X18765Y20766D01*
X18756Y20774D01*
X18748Y20783D01*
X18747Y20783D01*
X18746Y20785D01*
X18743Y20789D01*
X18740Y20794D01*
X18736Y20800D01*
X18732Y20807D01*
X18728Y20815D01*
X18723Y20825D01*
X18718Y20836D01*
X18714Y20848D01*
X18710Y20862D01*
X18706Y20876D01*
X18703Y20892D01*
X18700Y20908D01*
X18699Y20926D01*
X18698Y20945D01*
Y20945D01*
Y20948D01*
Y20952D01*
X18699Y20957D01*
Y20964D01*
X18700Y20971D01*
X18700Y20979D01*
X18701Y20989D01*
X18704Y21008D01*
X18707Y21029D01*
X18713Y21049D01*
X18720Y21068D01*
Y21069D01*
X18721Y21070D01*
X18723Y21073D01*
X18724Y21076D01*
X18726Y21080D01*
X18729Y21085D01*
X18736Y21096D01*
X18744Y21107D01*
X18754Y21119D01*
X18765Y21131D01*
X18778Y21140D01*
X18779D01*
X18780Y21141D01*
X18782Y21143D01*
X18784Y21144D01*
X18788Y21146D01*
X18792Y21148D01*
X18797Y21150D01*
X18802Y21152D01*
X18815Y21157D01*
X18830Y21161D01*
X18846Y21163D01*
X18865Y21164D01*
X18868D01*
X18872Y21164D01*
D02*
G37*
G36*
X20499Y1090D02*
X20505Y1089D01*
X20511Y1087D01*
X20525Y1083D01*
X20533Y1080D01*
X20541Y1076D01*
X20550Y1071D01*
X20559Y1066D01*
X20567Y1059D01*
X20575Y1051D01*
X20584Y1042D01*
X20591Y1032D01*
X20592Y1031D01*
X20593Y1029D01*
X20595Y1026D01*
X20597Y1020D01*
X20601Y1014D01*
X20604Y1006D01*
X20608Y997D01*
X20612Y985D01*
X20615Y973D01*
X20619Y959D01*
X20623Y943D01*
X20626Y925D01*
X20628Y906D01*
X20630Y885D01*
X20631Y862D01*
X20632Y838D01*
Y836D01*
Y832D01*
Y825D01*
X20631Y816D01*
X20630Y804D01*
X20629Y791D01*
X20628Y777D01*
X20626Y762D01*
X20621Y729D01*
X20613Y696D01*
X20609Y680D01*
X20604Y666D01*
X20597Y652D01*
X20589Y640D01*
X20588Y639D01*
X20587Y638D01*
X20585Y634D01*
X20581Y631D01*
X20578Y626D01*
X20572Y621D01*
X20566Y615D01*
X20560Y610D01*
X20553Y604D01*
X20544Y599D01*
X20526Y589D01*
X20515Y585D01*
X20504Y582D01*
X20492Y580D01*
X20480Y580D01*
X20476D01*
X20473Y580D01*
X20464Y581D01*
X20454Y583D01*
X20441Y587D01*
X20429Y593D01*
X20416Y600D01*
X20403Y610D01*
X20402Y612D01*
X20399Y616D01*
X20394Y623D01*
X20387Y634D01*
X20381Y647D01*
X20378Y654D01*
X20374Y663D01*
X20372Y672D01*
X20369Y682D01*
X20367Y693D01*
X20365Y704D01*
X20441Y714D01*
Y714D01*
Y712D01*
X20442Y709D01*
X20443Y706D01*
X20445Y697D01*
X20449Y687D01*
X20454Y676D01*
X20462Y667D01*
X20467Y664D01*
X20473Y661D01*
X20479Y660D01*
X20486Y659D01*
X20487D01*
X20490Y660D01*
X20495Y660D01*
X20501Y663D01*
X20508Y666D01*
X20515Y670D01*
X20521Y677D01*
X20528Y686D01*
X20529Y688D01*
X20530Y689D01*
X20531Y692D01*
X20532Y695D01*
X20534Y699D01*
X20536Y704D01*
X20537Y711D01*
X20539Y717D01*
X20541Y726D01*
X20543Y735D01*
X20545Y746D01*
X20546Y757D01*
X20548Y770D01*
X20550Y784D01*
X20550Y799D01*
X20550Y798D01*
X20548Y795D01*
X20544Y791D01*
X20540Y787D01*
X20536Y781D01*
X20530Y777D01*
X20524Y771D01*
X20517Y767D01*
X20516Y766D01*
X20514Y765D01*
X20510Y764D01*
X20505Y762D01*
X20499Y760D01*
X20492Y759D01*
X20484Y758D01*
X20476Y757D01*
X20471D01*
X20468Y758D01*
X20459Y759D01*
X20448Y762D01*
X20435Y768D01*
X20429Y771D01*
X20422Y776D01*
X20414Y781D01*
X20407Y787D01*
X20400Y794D01*
X20394Y801D01*
Y802D01*
X20392Y803D01*
X20390Y806D01*
X20388Y809D01*
X20385Y814D01*
X20382Y819D01*
X20379Y825D01*
X20376Y833D01*
X20372Y841D01*
X20369Y850D01*
X20366Y860D01*
X20363Y870D01*
X20361Y882D01*
X20359Y893D01*
X20359Y906D01*
X20358Y920D01*
Y921D01*
Y924D01*
Y927D01*
X20359Y933D01*
X20359Y940D01*
X20360Y947D01*
X20361Y956D01*
X20362Y966D01*
X20367Y985D01*
X20374Y1006D01*
X20378Y1016D01*
X20383Y1026D01*
X20388Y1036D01*
X20395Y1045D01*
X20396Y1045D01*
X20397Y1047D01*
X20399Y1049D01*
X20402Y1051D01*
X20406Y1055D01*
X20410Y1059D01*
X20421Y1067D01*
X20435Y1076D01*
X20451Y1083D01*
X20460Y1086D01*
X20469Y1088D01*
X20479Y1090D01*
X20489Y1090D01*
X20495D01*
X20499Y1090D01*
D02*
G37*
G36*
X20885Y588D02*
X20806D01*
Y950D01*
X20805Y949D01*
X20804Y947D01*
X20801Y945D01*
X20798Y941D01*
X20794Y937D01*
X20789Y933D01*
X20783Y927D01*
X20777Y921D01*
X20762Y910D01*
X20744Y898D01*
X20725Y886D01*
X20704Y876D01*
Y963D01*
X20705D01*
X20706Y964D01*
X20709Y966D01*
X20716Y969D01*
X20725Y974D01*
X20735Y981D01*
X20747Y988D01*
X20759Y998D01*
X20772Y1010D01*
X20773Y1011D01*
X20773Y1012D01*
X20778Y1016D01*
X20784Y1024D01*
X20792Y1033D01*
X20800Y1045D01*
X20807Y1059D01*
X20815Y1074D01*
X20821Y1090D01*
X20885D01*
Y588D01*
D02*
G37*
G36*
X20276Y773D02*
X20327D01*
Y688D01*
X20276D01*
Y588D01*
X20199D01*
Y688D01*
X20031D01*
Y772D01*
X20209Y1090D01*
X20276D01*
Y773D01*
D02*
G37*
G36*
X19319D02*
X19370D01*
Y688D01*
X19319D01*
Y588D01*
X19243D01*
Y688D01*
X19075D01*
Y772D01*
X19253Y1090D01*
X19319D01*
Y773D01*
D02*
G37*
G36*
X19868Y1090D02*
X19874Y1089D01*
X19880Y1087D01*
X19894Y1083D01*
X19900Y1080D01*
X19909Y1077D01*
X19916Y1072D01*
X19925Y1066D01*
X19932Y1060D01*
X19941Y1052D01*
X19948Y1043D01*
X19955Y1033D01*
X19956Y1032D01*
X19957Y1030D01*
X19959Y1027D01*
X19961Y1022D01*
X19964Y1016D01*
X19967Y1007D01*
X19970Y998D01*
X19974Y987D01*
X19977Y974D01*
X19981Y959D01*
X19984Y943D01*
X19986Y925D01*
X19989Y905D01*
X19991Y884D01*
X19992Y860D01*
X19992Y835D01*
Y834D01*
Y833D01*
Y829D01*
Y821D01*
X19992Y812D01*
Y800D01*
X19990Y787D01*
X19989Y772D01*
X19988Y757D01*
X19983Y724D01*
X19976Y691D01*
X19973Y676D01*
X19967Y661D01*
X19962Y647D01*
X19955Y636D01*
X19954Y635D01*
X19954Y634D01*
X19951Y631D01*
X19948Y627D01*
X19945Y623D01*
X19941Y618D01*
X19929Y608D01*
X19916Y597D01*
X19900Y589D01*
X19891Y585D01*
X19881Y582D01*
X19870Y580D01*
X19859Y580D01*
X19857D01*
X19853Y580D01*
X19849D01*
X19844Y581D01*
X19839Y583D01*
X19825Y587D01*
X19817Y590D01*
X19809Y593D01*
X19801Y598D01*
X19793Y603D01*
X19785Y609D01*
X19777Y617D01*
X19770Y625D01*
X19763Y635D01*
X19762Y636D01*
X19761Y638D01*
X19760Y641D01*
X19757Y647D01*
X19754Y653D01*
X19751Y660D01*
X19748Y670D01*
X19744Y682D01*
X19741Y695D01*
X19738Y709D01*
X19734Y725D01*
X19732Y743D01*
X19729Y764D01*
X19728Y785D01*
X19727Y809D01*
X19726Y835D01*
Y836D01*
Y837D01*
Y841D01*
Y849D01*
X19727Y858D01*
Y870D01*
X19728Y883D01*
X19729Y898D01*
X19731Y913D01*
X19735Y946D01*
X19741Y978D01*
X19746Y994D01*
X19750Y1008D01*
X19757Y1022D01*
X19763Y1033D01*
X19763Y1034D01*
X19764Y1036D01*
X19766Y1039D01*
X19770Y1042D01*
X19773Y1046D01*
X19777Y1051D01*
X19789Y1062D01*
X19802Y1072D01*
X19818Y1081D01*
X19827Y1085D01*
X19837Y1088D01*
X19848Y1090D01*
X19859Y1090D01*
X19865D01*
X19868Y1090D01*
D02*
G37*
G36*
X19550D02*
X19555Y1089D01*
X19561Y1087D01*
X19575Y1083D01*
X19582Y1080D01*
X19590Y1077D01*
X19598Y1072D01*
X19606Y1066D01*
X19613Y1060D01*
X19622Y1052D01*
X19629Y1043D01*
X19636Y1033D01*
X19637Y1032D01*
X19638Y1030D01*
X19640Y1027D01*
X19642Y1022D01*
X19645Y1016D01*
X19648Y1007D01*
X19652Y998D01*
X19655Y987D01*
X19658Y974D01*
X19662Y959D01*
X19665Y943D01*
X19668Y925D01*
X19671Y905D01*
X19672Y884D01*
X19673Y860D01*
X19674Y835D01*
Y834D01*
Y833D01*
Y829D01*
Y821D01*
X19673Y812D01*
Y800D01*
X19671Y787D01*
X19671Y772D01*
X19669Y757D01*
X19664Y724D01*
X19658Y691D01*
X19654Y676D01*
X19648Y661D01*
X19643Y647D01*
X19636Y636D01*
X19636Y635D01*
X19635Y634D01*
X19633Y631D01*
X19629Y627D01*
X19626Y623D01*
X19622Y618D01*
X19610Y608D01*
X19597Y597D01*
X19581Y589D01*
X19572Y585D01*
X19562Y582D01*
X19551Y580D01*
X19540Y580D01*
X19538D01*
X19534Y580D01*
X19531D01*
X19525Y581D01*
X19520Y583D01*
X19506Y587D01*
X19499Y590D01*
X19490Y593D01*
X19483Y598D01*
X19474Y603D01*
X19467Y609D01*
X19458Y617D01*
X19451Y625D01*
X19444Y635D01*
X19443Y636D01*
X19442Y638D01*
X19441Y641D01*
X19438Y647D01*
X19435Y653D01*
X19432Y660D01*
X19429Y670D01*
X19426Y682D01*
X19422Y695D01*
X19419Y709D01*
X19416Y725D01*
X19413Y743D01*
X19410Y764D01*
X19409Y785D01*
X19408Y809D01*
X19407Y835D01*
Y836D01*
Y837D01*
Y841D01*
Y849D01*
X19408Y858D01*
Y870D01*
X19410Y883D01*
X19410Y898D01*
X19412Y913D01*
X19416Y946D01*
X19422Y978D01*
X19427Y994D01*
X19432Y1008D01*
X19438Y1022D01*
X19444Y1033D01*
X19445Y1034D01*
X19445Y1036D01*
X19448Y1039D01*
X19451Y1042D01*
X19454Y1046D01*
X19458Y1051D01*
X19470Y1062D01*
X19483Y1072D01*
X19499Y1081D01*
X19508Y1085D01*
X19518Y1088D01*
X19529Y1090D01*
X19540Y1090D01*
X19546D01*
X19550Y1090D01*
D02*
G37*
G36*
X14998Y21087D02*
X14832D01*
Y20987D01*
X14976D01*
Y20917D01*
X14832D01*
Y20738D01*
X14762D01*
Y21157D01*
X14998D01*
Y21087D01*
D02*
G37*
G36*
X14705D02*
X14539D01*
Y20987D01*
X14683D01*
Y20917D01*
X14539D01*
Y20738D01*
X14469D01*
Y21157D01*
X14705D01*
Y21087D01*
D02*
G37*
G36*
X14255Y21164D02*
X14260D01*
X14266Y21162D01*
X14274Y21161D01*
X14282Y21160D01*
X14290Y21157D01*
X14300Y21154D01*
X14310Y21150D01*
X14320Y21146D01*
X14330Y21140D01*
X14339Y21134D01*
X14350Y21126D01*
X14359Y21118D01*
X14368Y21108D01*
X14369Y21107D01*
X14370Y21105D01*
X14373Y21102D01*
X14375Y21097D01*
X14379Y21092D01*
X14383Y21085D01*
X14387Y21076D01*
X14392Y21067D01*
X14396Y21056D01*
X14400Y21044D01*
X14404Y21031D01*
X14408Y21017D01*
X14410Y21001D01*
X14413Y20985D01*
X14414Y20967D01*
X14415Y20948D01*
Y20946D01*
Y20943D01*
Y20938D01*
X14414Y20931D01*
X14413Y20922D01*
X14412Y20911D01*
X14410Y20900D01*
X14408Y20888D01*
X14406Y20875D01*
X14403Y20861D01*
X14399Y20848D01*
X14394Y20834D01*
X14388Y20820D01*
X14382Y20808D01*
X14374Y20795D01*
X14365Y20783D01*
X14364Y20783D01*
X14363Y20782D01*
X14361Y20778D01*
X14357Y20775D01*
X14353Y20771D01*
X14348Y20767D01*
X14341Y20762D01*
X14334Y20757D01*
X14326Y20752D01*
X14318Y20748D01*
X14308Y20743D01*
X14297Y20739D01*
X14286Y20736D01*
X14275Y20734D01*
X14261Y20732D01*
X14248Y20731D01*
X14245D01*
X14241Y20732D01*
X14236D01*
X14229Y20733D01*
X14222Y20734D01*
X14214Y20736D01*
X14205Y20738D01*
X14196Y20740D01*
X14187Y20744D01*
X14176Y20748D01*
X14167Y20753D01*
X14157Y20759D01*
X14148Y20766D01*
X14139Y20774D01*
X14131Y20783D01*
X14130Y20783D01*
X14129Y20785D01*
X14126Y20789D01*
X14123Y20794D01*
X14119Y20800D01*
X14115Y20807D01*
X14111Y20815D01*
X14106Y20825D01*
X14101Y20836D01*
X14097Y20848D01*
X14093Y20862D01*
X14089Y20876D01*
X14086Y20892D01*
X14083Y20908D01*
X14082Y20926D01*
X14082Y20945D01*
Y20945D01*
Y20948D01*
Y20952D01*
X14082Y20957D01*
Y20964D01*
X14083Y20971D01*
X14083Y20979D01*
X14084Y20989D01*
X14087Y21008D01*
X14090Y21029D01*
X14096Y21049D01*
X14103Y21068D01*
Y21069D01*
X14104Y21070D01*
X14106Y21073D01*
X14107Y21076D01*
X14110Y21080D01*
X14112Y21085D01*
X14119Y21096D01*
X14127Y21107D01*
X14137Y21119D01*
X14148Y21131D01*
X14161Y21140D01*
X14162D01*
X14163Y21141D01*
X14165Y21143D01*
X14167Y21144D01*
X14171Y21146D01*
X14175Y21148D01*
X14180Y21150D01*
X14185Y21152D01*
X14198Y21157D01*
X14213Y21161D01*
X14229Y21163D01*
X14248Y21164D01*
X14251D01*
X14255Y21164D01*
D02*
G37*
%LPC*%
G36*
X18865Y21092D02*
X18862D01*
X18858Y21091D01*
X18855Y21090D01*
X18851Y21090D01*
X18841Y21087D01*
X18830Y21083D01*
X18819Y21076D01*
X18813Y21073D01*
X18807Y21068D01*
X18802Y21062D01*
X18797Y21056D01*
Y21055D01*
X18795Y21054D01*
X18794Y21052D01*
X18793Y21050D01*
X18791Y21046D01*
X18788Y21041D01*
X18786Y21036D01*
X18784Y21029D01*
X18781Y21022D01*
X18779Y21014D01*
X18777Y21005D01*
X18774Y20996D01*
X18773Y20985D01*
X18772Y20973D01*
X18770Y20961D01*
Y20948D01*
Y20947D01*
Y20945D01*
Y20941D01*
X18771Y20936D01*
Y20930D01*
X18772Y20923D01*
X18773Y20915D01*
X18774Y20907D01*
X18777Y20890D01*
X18782Y20872D01*
X18788Y20855D01*
X18793Y20846D01*
X18797Y20839D01*
X18798Y20839D01*
X18798Y20838D01*
X18802Y20834D01*
X18808Y20828D01*
X18816Y20822D01*
X18826Y20815D01*
X18837Y20810D01*
X18851Y20805D01*
X18858Y20804D01*
X18865Y20804D01*
X18869D01*
X18872Y20804D01*
X18879Y20806D01*
X18889Y20808D01*
X18900Y20813D01*
X18911Y20819D01*
X18917Y20823D01*
X18922Y20828D01*
X18928Y20833D01*
X18933Y20839D01*
X18934Y20840D01*
X18934Y20841D01*
X18935Y20843D01*
X18937Y20846D01*
X18939Y20850D01*
X18941Y20855D01*
X18944Y20860D01*
X18946Y20867D01*
X18949Y20874D01*
X18951Y20882D01*
X18953Y20891D01*
X18955Y20901D01*
X18957Y20911D01*
X18958Y20923D01*
X18960Y20936D01*
Y20949D01*
Y20950D01*
Y20952D01*
Y20956D01*
X18959Y20961D01*
Y20967D01*
X18958Y20974D01*
X18958Y20982D01*
X18956Y20990D01*
X18953Y21007D01*
X18949Y21025D01*
X18942Y21042D01*
X18938Y21050D01*
X18934Y21057D01*
Y21057D01*
X18932Y21058D01*
X18929Y21062D01*
X18923Y21068D01*
X18915Y21075D01*
X18905Y21081D01*
X18894Y21086D01*
X18881Y21090D01*
X18873Y21091D01*
X18865Y21092D01*
D02*
G37*
G36*
X20485Y1010D02*
X20481D01*
X20477Y1010D01*
X20473Y1008D01*
X20467Y1005D01*
X20460Y1001D01*
X20455Y996D01*
X20449Y989D01*
X20448Y988D01*
X20447Y985D01*
X20445Y980D01*
X20442Y973D01*
X20439Y963D01*
X20437Y951D01*
X20435Y937D01*
X20435Y920D01*
Y919D01*
Y918D01*
Y915D01*
Y912D01*
X20435Y904D01*
X20437Y893D01*
X20438Y882D01*
X20441Y870D01*
X20445Y859D01*
X20450Y849D01*
X20451Y848D01*
X20453Y846D01*
X20456Y842D01*
X20460Y838D01*
X20467Y834D01*
X20473Y831D01*
X20481Y828D01*
X20489Y827D01*
X20493D01*
X20497Y829D01*
X20502Y830D01*
X20508Y832D01*
X20515Y836D01*
X20521Y841D01*
X20527Y848D01*
X20528Y849D01*
X20530Y852D01*
X20533Y857D01*
X20536Y864D01*
X20538Y873D01*
X20541Y884D01*
X20543Y897D01*
X20543Y912D01*
Y913D01*
Y915D01*
Y917D01*
Y920D01*
X20543Y928D01*
X20541Y939D01*
X20539Y950D01*
X20536Y962D01*
X20531Y974D01*
X20525Y985D01*
X20524Y985D01*
X20522Y988D01*
X20518Y993D01*
X20514Y997D01*
X20508Y1002D01*
X20501Y1007D01*
X20493Y1010D01*
X20485Y1010D01*
D02*
G37*
G36*
X20199Y943D02*
X20105Y773D01*
X20199D01*
Y943D01*
D02*
G37*
G36*
X19243D02*
X19149Y773D01*
X19243D01*
Y943D01*
D02*
G37*
G36*
X19859Y1010D02*
X19859D01*
X19855Y1010D01*
X19851Y1009D01*
X19846Y1007D01*
X19840Y1003D01*
X19833Y997D01*
X19827Y990D01*
X19822Y979D01*
X19821Y978D01*
X19820Y975D01*
X19820Y972D01*
X19819Y969D01*
X19818Y963D01*
X19817Y957D01*
X19816Y950D01*
X19814Y941D01*
X19813Y930D01*
X19812Y919D01*
X19811Y905D01*
X19811Y890D01*
X19810Y873D01*
X19809Y855D01*
Y835D01*
Y833D01*
Y830D01*
Y824D01*
Y816D01*
X19810Y807D01*
Y797D01*
Y786D01*
X19811Y774D01*
X19812Y749D01*
X19814Y737D01*
X19814Y726D01*
X19816Y714D01*
X19817Y705D01*
X19820Y697D01*
X19822Y690D01*
X19823Y688D01*
X19824Y685D01*
X19827Y680D01*
X19832Y675D01*
X19837Y669D01*
X19843Y664D01*
X19851Y661D01*
X19859Y660D01*
X19860D01*
X19863Y660D01*
X19867Y661D01*
X19872Y663D01*
X19878Y667D01*
X19884Y673D01*
X19891Y680D01*
X19896Y690D01*
Y691D01*
X19897Y692D01*
X19897Y694D01*
X19898Y697D01*
X19899Y701D01*
X19900Y706D01*
X19901Y712D01*
X19903Y720D01*
X19904Y728D01*
X19905Y739D01*
X19906Y750D01*
X19907Y764D01*
X19908Y779D01*
X19909Y796D01*
X19910Y814D01*
Y835D01*
Y836D01*
Y840D01*
Y845D01*
Y853D01*
X19909Y862D01*
Y873D01*
Y883D01*
X19908Y895D01*
X19906Y920D01*
X19905Y932D01*
X19903Y943D01*
X19902Y955D01*
X19900Y964D01*
X19898Y972D01*
X19896Y979D01*
X19895Y981D01*
X19894Y984D01*
X19891Y989D01*
X19886Y995D01*
X19881Y1001D01*
X19875Y1006D01*
X19868Y1009D01*
X19859Y1010D01*
D02*
G37*
G36*
X19540D02*
X19540D01*
X19537Y1010D01*
X19532Y1009D01*
X19527Y1007D01*
X19521Y1003D01*
X19515Y997D01*
X19508Y990D01*
X19503Y979D01*
X19502Y978D01*
X19502Y975D01*
X19501Y972D01*
X19500Y969D01*
X19499Y963D01*
X19498Y957D01*
X19497Y950D01*
X19496Y941D01*
X19494Y930D01*
X19493Y919D01*
X19492Y905D01*
X19492Y890D01*
X19491Y873D01*
X19490Y855D01*
Y835D01*
Y833D01*
Y830D01*
Y824D01*
Y816D01*
X19491Y807D01*
Y797D01*
Y786D01*
X19492Y774D01*
X19493Y749D01*
X19495Y737D01*
X19496Y726D01*
X19497Y714D01*
X19499Y705D01*
X19501Y697D01*
X19503Y690D01*
X19504Y688D01*
X19505Y685D01*
X19508Y680D01*
X19513Y675D01*
X19518Y669D01*
X19524Y664D01*
X19532Y661D01*
X19540Y660D01*
X19541D01*
X19544Y660D01*
X19548Y661D01*
X19553Y663D01*
X19559Y667D01*
X19566Y673D01*
X19572Y680D01*
X19577Y690D01*
Y691D01*
X19578Y692D01*
X19578Y694D01*
X19579Y697D01*
X19580Y701D01*
X19582Y706D01*
X19582Y712D01*
X19584Y720D01*
X19585Y728D01*
X19586Y739D01*
X19588Y750D01*
X19588Y764D01*
X19589Y779D01*
X19590Y796D01*
X19591Y814D01*
Y835D01*
Y836D01*
Y840D01*
Y845D01*
Y853D01*
X19590Y862D01*
Y873D01*
Y883D01*
X19589Y895D01*
X19588Y920D01*
X19586Y932D01*
X19585Y943D01*
X19583Y955D01*
X19582Y964D01*
X19579Y972D01*
X19577Y979D01*
X19576Y981D01*
X19575Y984D01*
X19572Y989D01*
X19567Y995D01*
X19562Y1001D01*
X19556Y1006D01*
X19549Y1009D01*
X19540Y1010D01*
D02*
G37*
G36*
X14248Y21092D02*
X14245D01*
X14241Y21091D01*
X14238Y21090D01*
X14234Y21090D01*
X14224Y21087D01*
X14213Y21083D01*
X14202Y21076D01*
X14196Y21073D01*
X14190Y21068D01*
X14185Y21062D01*
X14180Y21056D01*
Y21055D01*
X14178Y21054D01*
X14177Y21052D01*
X14176Y21050D01*
X14174Y21046D01*
X14171Y21041D01*
X14169Y21036D01*
X14167Y21029D01*
X14164Y21022D01*
X14162Y21014D01*
X14160Y21005D01*
X14157Y20996D01*
X14156Y20985D01*
X14155Y20973D01*
X14153Y20961D01*
Y20948D01*
Y20947D01*
Y20945D01*
Y20941D01*
X14154Y20936D01*
Y20930D01*
X14155Y20923D01*
X14156Y20915D01*
X14157Y20907D01*
X14160Y20890D01*
X14165Y20872D01*
X14171Y20855D01*
X14176Y20846D01*
X14180Y20839D01*
X14181Y20839D01*
X14182Y20838D01*
X14185Y20834D01*
X14191Y20828D01*
X14199Y20822D01*
X14209Y20815D01*
X14220Y20810D01*
X14234Y20805D01*
X14241Y20804D01*
X14248Y20804D01*
X14252D01*
X14255Y20804D01*
X14262Y20806D01*
X14272Y20808D01*
X14283Y20813D01*
X14294Y20819D01*
X14300Y20823D01*
X14305Y20828D01*
X14311Y20833D01*
X14316Y20839D01*
X14317Y20840D01*
X14317Y20841D01*
X14318Y20843D01*
X14320Y20846D01*
X14322Y20850D01*
X14324Y20855D01*
X14327Y20861D01*
X14329Y20867D01*
X14332Y20874D01*
X14334Y20882D01*
X14336Y20891D01*
X14338Y20901D01*
X14340Y20911D01*
X14341Y20923D01*
X14343Y20936D01*
Y20949D01*
Y20950D01*
Y20952D01*
Y20956D01*
X14342Y20961D01*
Y20967D01*
X14341Y20974D01*
X14341Y20982D01*
X14339Y20990D01*
X14336Y21007D01*
X14332Y21025D01*
X14325Y21042D01*
X14321Y21050D01*
X14317Y21057D01*
Y21057D01*
X14315Y21058D01*
X14312Y21062D01*
X14306Y21068D01*
X14298Y21075D01*
X14289Y21081D01*
X14277Y21086D01*
X14264Y21090D01*
X14256Y21091D01*
X14248Y21092D01*
D02*
G37*
%LPD*%
D10*
X27878Y18771D02*
G03*
X27878Y18771I-250J0D01*
G01*
X15614Y15413D02*
G03*
X15614Y15413I-250J0D01*
G01*
X14303Y15612D02*
G03*
X14303Y15612I-250J0D01*
G01*
X14384Y16398D02*
G03*
X14384Y16398I-250J0D01*
G01*
X11805Y11154D02*
G03*
X11805Y11154I-250J0D01*
G01*
Y10654D02*
G03*
X11805Y10654I-250J0D01*
G01*
X32161Y10883D02*
G03*
X32161Y10883I-374J0D01*
G01*
Y9702D02*
G03*
X32161Y9702I-374J0D01*
G01*
X19768Y20423D02*
G03*
X19768Y20423I-250J0D01*
G01*
X25339Y6823D02*
G03*
X25339Y6823I-250J0D01*
G01*
X26352D02*
G03*
X26352Y6823I-250J0D01*
G01*
X29630Y3799D02*
G03*
X29630Y3799I-250J0D01*
G01*
X29754Y4685D02*
G03*
X29754Y4685I-374J0D01*
G01*
X30138Y6783D02*
G03*
X30138Y6783I-250J0D01*
G01*
X31929Y6070D02*
G03*
X31929Y6070I-250J0D01*
G01*
X26191Y17963D02*
G03*
X26191Y17963I-374J0D01*
G01*
X29630Y19390D02*
G03*
X29630Y19390I-250J0D01*
G01*
X28055Y16171D02*
G03*
X28055Y16171I-250J0D01*
G01*
X25760Y16174D02*
G03*
X25760Y16174I-250J0D01*
G01*
X23823Y15721D02*
G03*
X23823Y15721I-250J0D01*
G01*
X19208Y15108D02*
G03*
X19208Y15108I-374J0D01*
G01*
X20271D02*
G03*
X20271Y15108I-374J0D01*
G01*
X21334D02*
G03*
X21334Y15108I-374J0D01*
G01*
X22510D02*
G03*
X22510Y15108I-374J0D01*
G01*
X23823Y14961D02*
G03*
X23823Y14961I-250J0D01*
G01*
X11239Y18188D02*
G03*
X11239Y18188I-374J0D01*
G01*
X8888Y16748D02*
G03*
X8888Y16748I-374J0D01*
G01*
X10069D02*
G03*
X10069Y16748I-374J0D01*
G01*
X5207Y12500D02*
G03*
X5207Y12500I-374J0D01*
G01*
Y14390D02*
G03*
X5207Y14390I-374J0D01*
G01*
X5699Y13435D02*
G03*
X5699Y13435I-374J0D01*
G01*
X6740Y5689D02*
G03*
X6740Y5689I-374J0D01*
G01*
X7740D02*
G03*
X7740Y5689I-374J0D01*
G01*
X14740D02*
G03*
X14740Y5689I-374J0D01*
G01*
X11815Y8150D02*
G03*
X11815Y8150I-250J0D01*
G01*
X11805Y8654D02*
G03*
X11805Y8654I-250J0D01*
G01*
Y9154D02*
G03*
X11805Y9154I-250J0D01*
G01*
Y9654D02*
G03*
X11805Y9654I-250J0D01*
G01*
Y10154D02*
G03*
X11805Y10154I-250J0D01*
G01*
X20866Y19331D02*
G03*
X20866Y19331I-20J0D01*
G01*
X6466Y257D02*
X6516Y207D01*
X6216D02*
X6266Y257D01*
X7266D02*
X7466D01*
X7216Y207D02*
X7287Y118D01*
X7445D02*
X7516Y207D01*
X7216Y207D02*
X7266Y257D01*
X7466D02*
X7516Y207D01*
X7287Y118D02*
X7445D01*
X7516Y207D02*
X7516Y2317D01*
X7216Y3317D02*
Y3878D01*
X7516Y3317D02*
Y3878D01*
X6516Y3317D02*
Y3878D01*
X6216Y3317D02*
Y3878D01*
X7216Y207D02*
X7216Y2317D01*
X6445Y118D02*
X6516Y207D01*
X6216D02*
X6287Y118D01*
X6445D01*
X6516Y207D02*
Y2317D01*
X6216Y207D02*
Y2317D01*
X6866D02*
Y3317D01*
X6266Y257D02*
X6466D01*
X8216Y207D02*
X8266Y257D01*
X8466D01*
X8516Y207D01*
X8436Y128D02*
X8516Y207D01*
X8216D02*
X8296Y128D01*
X8436D01*
X8516Y207D02*
X8516Y2317D01*
X8216Y207D02*
X8216Y2317D01*
X8516Y3317D02*
Y3878D01*
X8216Y3317D02*
Y3878D01*
X9216Y207D02*
X9266Y257D01*
X9466D01*
X9516Y207D01*
X9426Y118D02*
X9516Y207D01*
X9216D02*
X9306Y118D01*
X9426D01*
X9516Y207D02*
X9516Y2317D01*
X9216Y207D02*
X9216Y2317D01*
X9516Y3317D02*
Y3878D01*
X9216Y3317D02*
Y3878D01*
X10216Y207D02*
X10266Y257D01*
X10466D01*
X10516Y207D01*
X10426Y118D02*
X10516Y207D01*
X10216D02*
X10306Y118D01*
X10426D01*
X10516Y207D02*
X10516Y2317D01*
X10216Y207D02*
X10216Y2317D01*
X10516Y3317D02*
Y3878D01*
X10216Y3317D02*
Y3878D01*
X9866Y2317D02*
Y3317D01*
X8866Y2317D02*
Y3317D01*
X7866Y2317D02*
Y3317D01*
X12866Y2317D02*
Y3317D01*
X13866Y2317D02*
Y3317D01*
X14866Y2317D02*
Y3317D01*
X15216D02*
Y3878D01*
X15516Y3317D02*
Y3878D01*
X15216Y207D02*
X15216Y2317D01*
X15516Y207D02*
X15516Y2317D01*
X15306Y118D02*
X15426D01*
X15216Y207D02*
X15306Y118D01*
X15426D02*
X15516Y207D01*
X15466Y257D02*
X15516Y207D01*
X15266Y257D02*
X15466D01*
X15216Y207D02*
X15266Y257D01*
X14216Y3317D02*
Y3878D01*
X14516Y3317D02*
Y3878D01*
X14216Y207D02*
X14216Y2317D01*
X14516Y207D02*
X14516Y2317D01*
X14296Y128D02*
X14436D01*
X14216Y207D02*
X14296Y128D01*
X14436D02*
X14516Y207D01*
X14466Y257D02*
X14516Y207D01*
X14266Y257D02*
X14466D01*
X14216Y207D02*
X14266Y257D01*
X13216Y3317D02*
Y3878D01*
X13516Y3317D02*
Y3878D01*
X13216Y207D02*
X13216Y2317D01*
X13516Y207D02*
X13516Y2317D01*
X13306Y118D02*
X13426D01*
X13216Y207D02*
X13306Y118D01*
X13426D02*
X13516Y207D01*
X13466Y257D02*
X13516Y207D01*
X13266Y257D02*
X13466D01*
X13216Y207D02*
X13266Y257D01*
X11466D02*
X11516Y207D01*
X11266Y257D02*
X11466D01*
X11216Y207D02*
X11266Y257D01*
X12216Y207D02*
X12266Y257D01*
X12466D01*
X12516Y207D01*
X11866Y2317D02*
Y3317D01*
X11216Y207D02*
Y2317D01*
X11516Y207D02*
Y2317D01*
X11306Y118D02*
X11426D01*
X11216Y207D02*
X11306Y118D01*
X11426D02*
X11516Y207D01*
X12426Y118D02*
X12516Y207D01*
X12216D02*
X12306Y118D01*
X12426D01*
X12516Y207D02*
X12516Y2317D01*
X12216Y207D02*
X12216Y2317D01*
X11216Y3317D02*
Y3878D01*
X11516Y3317D02*
Y3878D01*
X12516Y3317D02*
Y3878D01*
X12216Y3317D02*
Y3878D01*
X10866Y2317D02*
Y3317D01*
X25591Y2317D02*
Y3317D01*
X26591Y2317D02*
Y3317D01*
X26941D02*
Y3878D01*
X27241Y3317D02*
Y3878D01*
X26941Y207D02*
X26941Y2317D01*
X27241Y207D02*
X27241Y2317D01*
X27031Y118D02*
X27151D01*
X26941Y207D02*
X27031Y118D01*
X27151D02*
X27241Y207D01*
X27191Y257D02*
X27241Y207D01*
X26991Y257D02*
X27191D01*
X26941Y207D02*
X26991Y257D01*
X25941Y3317D02*
Y3878D01*
X26241Y3317D02*
Y3878D01*
X25941Y207D02*
X25941Y2317D01*
X26241Y207D02*
X26241Y2317D01*
X26031Y118D02*
X26151D01*
X25941Y207D02*
X26031Y118D01*
X26151D02*
X26241Y207D01*
X26191Y257D02*
X26241Y207D01*
X25991Y257D02*
X26191D01*
X25941Y207D02*
X25991Y257D01*
X24191D02*
X24241Y207D01*
X23991Y257D02*
X24191D01*
X23941Y207D02*
X23991Y257D01*
X24941Y207D02*
X24991Y257D01*
X25191D01*
X25241Y207D01*
X24591Y2317D02*
Y3317D01*
X23941Y207D02*
Y2317D01*
X24241Y207D02*
Y2317D01*
X24031Y118D02*
X24151D01*
X23941Y207D02*
X24031Y118D01*
X24151D02*
X24241Y207D01*
X25151Y118D02*
X25241Y207D01*
X24941D02*
X25031Y118D01*
X25151D01*
X25241Y207D02*
X25241Y2317D01*
X24941Y207D02*
X24941Y2317D01*
X23941Y3317D02*
Y3878D01*
X24241Y3317D02*
Y3878D01*
X25241Y3317D02*
Y3878D01*
X24941Y3317D02*
Y3878D01*
X20925Y17339D02*
Y17622D01*
X21984Y19006D02*
X22268D01*
X31718Y3905D02*
Y4072D01*
Y5057D02*
Y5224D01*
X30400Y3905D02*
Y4072D01*
Y5057D02*
Y5224D01*
X31461Y3905D02*
X31718D01*
X30400D02*
X30657D01*
X31461Y5224D02*
X31718D01*
X30400D02*
X30657D01*
X21775Y15948D02*
X21956D01*
X21129D02*
X21310D01*
X21775Y16874D02*
X21956D01*
X21129D02*
X21310D01*
X5404Y18445D02*
Y18626D01*
Y19091D02*
Y19272D01*
X6329Y18445D02*
Y18626D01*
Y19091D02*
Y19272D01*
X24656Y1358D02*
Y2126D01*
Y1358D02*
X24783Y1486D01*
X24528D02*
X24656Y1358D01*
X25650Y2126D02*
X25778Y1998D01*
X25522D02*
X25650Y2126D01*
Y1358D02*
Y2126D01*
X31718Y7409D02*
Y7478D01*
Y8659D02*
Y8728D01*
X30400Y7409D02*
Y7478D01*
Y8659D02*
Y8728D01*
X31461Y7409D02*
X31718D01*
X30400D02*
X30657D01*
X31461Y8728D02*
X31718D01*
X30400D02*
X30657D01*
X29774Y15111D02*
X30049D01*
Y14835D02*
Y15111D01*
Y13378D02*
Y13654D01*
X29774Y13378D02*
X30049D01*
X28317D02*
X28593D01*
X28317D02*
Y13654D01*
Y15111D02*
X28593D01*
X28317Y14835D02*
Y15111D01*
X24516Y14835D02*
Y15111D01*
X24792D01*
X25973D02*
X26249D01*
Y14835D02*
Y15111D01*
Y13378D02*
Y13654D01*
X25973Y13378D02*
X26249D01*
X24516D02*
Y13654D01*
Y13378D02*
X24792D01*
X31955Y7461D02*
Y8681D01*
X33175Y7461D02*
Y8681D01*
X31955Y7461D02*
X33175D01*
X31955Y8681D02*
X33175D01*
X28171Y7311D02*
X28260D01*
X28260Y7222D02*
Y7311D01*
Y6484D02*
Y6572D01*
X28171Y6484D02*
X28260D01*
X27610D02*
X27699D01*
X27610Y6484D02*
Y6572D01*
Y7222D02*
Y7311D01*
X27610Y7311D02*
X27699D01*
X25502Y5928D02*
Y6016D01*
X25414Y5928D02*
X25502D01*
X24676D02*
X24764D01*
X24676Y5928D02*
Y6016D01*
Y6489D02*
Y6577D01*
X24676Y6577D02*
X24764D01*
X25414D02*
X25502D01*
X25502Y6489D02*
Y6577D01*
X26502Y5928D02*
Y6016D01*
X26414Y5928D02*
X26502D01*
X25676D02*
X25764D01*
X25676Y5928D02*
Y6016D01*
Y6489D02*
Y6577D01*
X25676Y6577D02*
X25764D01*
X26414D02*
X26502D01*
X26502Y6489D02*
Y6577D01*
X3480Y2833D02*
X3415Y2898D01*
X3284D01*
X3218Y2833D01*
Y2571D01*
X3284Y2505D01*
X3415D01*
X3480Y2571D01*
Y2702D01*
X3349D01*
X3612Y2505D02*
Y2898D01*
X3874Y2505D01*
Y2898D01*
X4005D02*
Y2505D01*
X4202D01*
X4268Y2571D01*
Y2833D01*
X4202Y2898D01*
X4005D01*
X29692Y2848D02*
X29626Y2913D01*
X29495D01*
X29429Y2848D01*
Y2585D01*
X29495Y2520D01*
X29626D01*
X29692Y2585D01*
Y2716D01*
X29560D01*
X29823Y2520D02*
Y2913D01*
X30085Y2520D01*
Y2913D01*
X30216D02*
Y2520D01*
X30413D01*
X30479Y2585D01*
Y2848D01*
X30413Y2913D01*
X30216D01*
X31234Y17946D02*
X31168Y18012D01*
X31037D01*
X30971Y17946D01*
Y17684D01*
X31037Y17618D01*
X31168D01*
X31234Y17684D01*
Y17815D01*
X31103D01*
X31365Y17618D02*
Y18012D01*
X31627Y17618D01*
Y18012D01*
X31759D02*
Y17618D01*
X31955D01*
X32021Y17684D01*
Y17946D01*
X31955Y18012D01*
X31759D01*
X3540Y18852D02*
X3474Y18917D01*
X3343D01*
X3278Y18852D01*
Y18589D01*
X3343Y18524D01*
X3474D01*
X3540Y18589D01*
Y18720D01*
X3409D01*
X3671Y18524D02*
Y18917D01*
X3934Y18524D01*
Y18917D01*
X4065D02*
Y18524D01*
X4261D01*
X4327Y18589D01*
Y18852D01*
X4261Y18917D01*
X4065D01*
D11*
X6398Y15610D02*
G03*
X6398Y15610I-20J0D01*
G01*
X31886Y3905D02*
G03*
X31886Y3905I-20J0D01*
G01*
X22123Y15948D02*
G03*
X22123Y15948I-20J0D01*
G01*
X5423Y18297D02*
G03*
X5423Y18297I-20J0D01*
G01*
X22756Y6719D02*
G03*
X22756Y6719I-20J0D01*
G01*
X15291Y16965D02*
G03*
X15291Y16965I-20J0D01*
G01*
X22756Y9435D02*
G03*
X22756Y9435I-20J0D01*
G01*
X28431Y8884D02*
G03*
X28431Y8884I-20J0D01*
G01*
Y11214D02*
G03*
X28431Y11214I-20J0D01*
G01*
X22756Y11748D02*
G03*
X22756Y11748I-20J0D01*
G01*
X12996Y15831D02*
G03*
X12996Y15831I-20J0D01*
G01*
X31886Y7409D02*
G03*
X31886Y7409I-20J0D01*
G01*
X33254Y8858D02*
G03*
X33254Y8858I-20J0D01*
G01*
X27630Y7408D02*
G03*
X27630Y7408I-20J0D01*
G01*
X25619Y6577D02*
G03*
X25619Y6577I-20J0D01*
G01*
X26619D02*
G03*
X26619Y6577I-20J0D01*
G01*
D12*
X25304Y7188D02*
G03*
X25304Y7188I-20J0D01*
G01*
X28110Y18622D02*
G03*
X28110Y18622I-49J0D01*
G01*
X13002Y18996D02*
G03*
X13002Y18996I-20J0D01*
G01*
X12470Y20177D02*
G03*
X12470Y20177I-20J0D01*
G01*
X24380Y17382D02*
G03*
X24380Y17382I-20J0D01*
G01*
X9333Y9547D02*
G03*
X9333Y9547I-49J0D01*
G01*
X12008Y7057D02*
G03*
X12008Y7057I-49J0D01*
G01*
X30039Y15367D02*
G03*
X30039Y15367I-49J0D01*
G01*
X24310Y15052D02*
G03*
X24310Y15052I-49J0D01*
G01*
X23858Y18543D02*
G03*
X23858Y18543I-20J0D01*
G01*
X25304Y8349D02*
G03*
X25304Y8349I-20J0D01*
G01*
Y9514D02*
G03*
X25304Y9514I-20J0D01*
G01*
Y10678D02*
G03*
X25304Y10678I-20J0D01*
G01*
X8750Y18522D02*
G03*
X8750Y18522I-49J0D01*
G01*
D13*
X17082Y1864D02*
G03*
X17082Y1864I-30J0D01*
G01*
X16595Y2859D02*
G03*
X16594Y2858I41J-51D01*
G01*
X16596Y2860D02*
G03*
X16595Y2859I40J-52D01*
G01*
X17146Y1863D02*
G03*
X17146Y1863I-94J0D01*
G01*
X17249Y2804D02*
G03*
X17249Y2804I-52J0D01*
G01*
X19362Y17559D02*
X19535D01*
X19362Y17945D02*
X19535D01*
Y17821D02*
Y17945D01*
Y17559D02*
Y17683D01*
X19362Y17821D02*
Y17945D01*
Y17559D02*
Y17683D01*
X19821Y17821D02*
Y17945D01*
Y17559D02*
Y17683D01*
X19648Y17821D02*
Y17945D01*
Y17559D02*
Y17683D01*
Y17559D02*
X19821D01*
X19648Y17945D02*
X19821D01*
X20179Y17982D02*
Y18106D01*
Y18244D02*
Y18368D01*
X20352Y17982D02*
Y18106D01*
Y18244D02*
Y18368D01*
X20179D02*
X20352D01*
X20179Y17982D02*
X20352D01*
X20096Y18244D02*
Y18368D01*
Y17982D02*
Y18106D01*
X19923Y18244D02*
Y18368D01*
Y17982D02*
Y18106D01*
Y17982D02*
X20096D01*
X19923Y18368D02*
X20096D01*
X23413Y17217D02*
X23537D01*
X23152D02*
X23276D01*
X23413Y17390D02*
X23537D01*
X23152D02*
X23276D01*
X23152Y17217D02*
Y17390D01*
X23537Y17217D02*
Y17390D01*
X23610D02*
X23734D01*
X23872D02*
X23996D01*
X23610Y17217D02*
X23734D01*
X23872D02*
X23996D01*
Y17390D01*
X23610Y17217D02*
Y17390D01*
X25132Y17226D02*
Y17400D01*
X25518Y17226D02*
Y17400D01*
X25394Y17226D02*
X25518D01*
X25132D02*
X25256D01*
X25394Y17400D02*
X25518D01*
X25132D02*
X25256D01*
X25970Y17226D02*
Y17400D01*
X25585Y17226D02*
Y17400D01*
X25709D01*
X25846D02*
X25970D01*
X25585Y17226D02*
X25709D01*
X25846D02*
X25970D01*
X22433Y16002D02*
X22606D01*
X22433Y16388D02*
X22606D01*
Y16264D02*
Y16388D01*
Y16002D02*
Y16126D01*
X22433Y16264D02*
Y16388D01*
Y16002D02*
Y16126D01*
X22167Y16002D02*
Y16126D01*
Y16264D02*
Y16388D01*
X22341Y16002D02*
Y16126D01*
Y16264D02*
Y16388D01*
X22167D02*
X22341D01*
X22167Y16002D02*
X22341D01*
X22606Y16709D02*
Y16833D01*
Y16447D02*
Y16571D01*
X22433Y16709D02*
Y16833D01*
Y16447D02*
Y16571D01*
Y16447D02*
X22606D01*
X22433Y16833D02*
X22606D01*
X22167Y16447D02*
Y16571D01*
Y16709D02*
Y16833D01*
X22341Y16447D02*
Y16571D01*
Y16709D02*
Y16833D01*
X22167D02*
X22341D01*
X22167Y16447D02*
X22341D01*
X25426Y15634D02*
Y15808D01*
X25812Y15634D02*
Y15808D01*
X25687Y15634D02*
X25812D01*
X25426D02*
X25550D01*
X25687Y15808D02*
X25812D01*
X25426D02*
X25550D01*
X25359Y15634D02*
Y15808D01*
X24973Y15634D02*
Y15808D01*
X25097D01*
X25235D02*
X25359D01*
X24973Y15634D02*
X25097D01*
X25235D02*
X25359D01*
X26319Y16087D02*
X26443D01*
X26057D02*
X26181D01*
X26319Y16260D02*
X26443D01*
X26057D02*
X26181D01*
X26057Y16087D02*
Y16260D01*
X26443Y16087D02*
Y16260D01*
Y15836D02*
Y16009D01*
X26057Y15836D02*
Y16009D01*
X26181D01*
X26319D02*
X26443D01*
X26057Y15836D02*
X26181D01*
X26319D02*
X26443D01*
X25426Y15502D02*
X25550D01*
X25687D02*
X25812D01*
X25426Y15329D02*
X25550D01*
X25687D02*
X25812D01*
Y15502D01*
X25426Y15329D02*
Y15502D01*
X23963Y14030D02*
Y14203D01*
X24349Y14030D02*
Y14203D01*
X24225Y14030D02*
X24349D01*
X23963D02*
X24087D01*
X24225Y14203D02*
X24349D01*
X23963D02*
X24087D01*
X24502Y15634D02*
Y15808D01*
X24888Y15634D02*
Y15808D01*
X24764Y15634D02*
X24888D01*
X24502D02*
X24626D01*
X24764Y15808D02*
X24888D01*
X24502D02*
X24626D01*
X24502Y16034D02*
X24626D01*
X24764D02*
X24888D01*
X24502Y15861D02*
X24626D01*
X24764D02*
X24888D01*
Y16034D01*
X24502Y15861D02*
Y16034D01*
Y16260D02*
X24626D01*
X24764D02*
X24888D01*
X24502Y16087D02*
X24626D01*
X24764D02*
X24888D01*
Y16260D01*
X24502Y16087D02*
Y16260D01*
X24041Y8893D02*
Y9017D01*
Y8631D02*
Y8755D01*
X23868Y8893D02*
Y9017D01*
Y8631D02*
Y8755D01*
Y8631D02*
X24041D01*
X23868Y9017D02*
X24041D01*
X24717Y5504D02*
Y5677D01*
X24331Y5504D02*
Y5677D01*
X24455D01*
X24593D02*
X24717D01*
X24331Y5504D02*
X24455D01*
X24593D02*
X24717D01*
X30239Y17478D02*
Y17602D01*
Y17740D02*
Y17864D01*
X30412Y17478D02*
Y17602D01*
Y17740D02*
Y17864D01*
X30239D02*
X30412D01*
X30239Y17478D02*
X30412D01*
X30239Y18312D02*
X30412D01*
X30239Y17927D02*
X30412D01*
X30239D02*
Y18051D01*
Y18188D02*
Y18312D01*
X30412Y17927D02*
Y18051D01*
Y18188D02*
Y18312D01*
X27965Y17311D02*
Y17435D01*
Y17573D02*
Y17697D01*
X28138Y17311D02*
Y17435D01*
Y17573D02*
Y17697D01*
X27965D02*
X28138D01*
X27965Y17311D02*
X28138D01*
Y17998D02*
Y18122D01*
Y17736D02*
Y17860D01*
X27965Y17998D02*
Y18122D01*
Y17736D02*
Y17860D01*
Y17736D02*
X28138D01*
X27965Y18122D02*
X28138D01*
X29764Y18919D02*
X29888D01*
X29502D02*
X29626D01*
X29764Y19092D02*
X29888D01*
X29502D02*
X29626D01*
X29502Y18919D02*
Y19092D01*
X29888Y18919D02*
Y19092D01*
X28626D02*
X28751D01*
X28888D02*
X29012D01*
X28626Y18919D02*
X28751D01*
X28888D02*
X29012D01*
Y19092D01*
X28626Y18919D02*
Y19092D01*
X28744Y15309D02*
Y15483D01*
X29130Y15309D02*
Y15483D01*
X29006Y15309D02*
X29130D01*
X28744D02*
X28868D01*
X29006Y15483D02*
X29130D01*
X28744D02*
X28868D01*
X28553Y15309D02*
X28677D01*
X28291D02*
X28415D01*
X28553Y15483D02*
X28677D01*
X28291D02*
X28415D01*
X28291Y15309D02*
Y15483D01*
X28677Y15309D02*
Y15483D01*
X28518Y15562D02*
Y15735D01*
X28904Y15562D02*
Y15735D01*
X28780Y15562D02*
X28904D01*
X28518D02*
X28642D01*
X28780Y15735D02*
X28904D01*
X28518D02*
X28642D01*
X28780Y15815D02*
X28904D01*
X28518D02*
X28642D01*
X28780Y15988D02*
X28904D01*
X28518D02*
X28642D01*
X28518Y15815D02*
Y15988D01*
X28904Y15815D02*
Y15988D01*
X28780Y16067D02*
X28904D01*
X28518D02*
X28642D01*
X28780Y16241D02*
X28904D01*
X28518D02*
X28642D01*
X28518Y16067D02*
Y16241D01*
X28904Y16067D02*
Y16241D01*
X29207Y15483D02*
X29331D01*
X29469D02*
X29593D01*
X29207Y15309D02*
X29331D01*
X29469D02*
X29593D01*
Y15483D01*
X29207Y15309D02*
Y15483D01*
X29593Y15562D02*
Y15735D01*
X29207Y15562D02*
Y15735D01*
X29331D01*
X29469D02*
X29593D01*
X29207Y15562D02*
X29331D01*
X29469D02*
X29593D01*
X29469Y15815D02*
X29593D01*
X29207D02*
X29331D01*
X29469Y15988D02*
X29593D01*
X29207D02*
X29331D01*
X29207Y15815D02*
Y15988D01*
X29593Y15815D02*
Y15988D01*
X29207Y16241D02*
X29331D01*
X29469D02*
X29593D01*
X29207Y16067D02*
X29331D01*
X29469D02*
X29593D01*
Y16241D01*
X29207Y16067D02*
Y16241D01*
X30220Y15069D02*
X30344D01*
X30482D02*
X30606D01*
X30220Y14896D02*
X30344D01*
X30482D02*
X30606D01*
Y15069D01*
X30220Y14896D02*
Y15069D01*
Y13593D02*
X30344D01*
X30482D02*
X30606D01*
X30220Y13420D02*
X30344D01*
X30482D02*
X30606D01*
Y13593D01*
X30220Y13420D02*
Y13593D01*
X29593Y13046D02*
Y13219D01*
X29207Y13046D02*
Y13219D01*
X29331D01*
X29469D02*
X29593D01*
X29207Y13046D02*
X29331D01*
X29469D02*
X29593D01*
X29683Y13219D02*
X29807D01*
X29945D02*
X30069D01*
X29683Y13046D02*
X29807D01*
X29945D02*
X30069D01*
Y13219D01*
X29683Y13046D02*
Y13219D01*
X29207Y12687D02*
X29331D01*
X29469D02*
X29593D01*
X29207Y12514D02*
X29331D01*
X29469D02*
X29593D01*
Y12687D01*
X29207Y12514D02*
Y12687D01*
Y12953D02*
X29331D01*
X29469D02*
X29593D01*
X29207Y12780D02*
X29331D01*
X29469D02*
X29593D01*
Y12953D01*
X29207Y12780D02*
Y12953D01*
X28780Y12514D02*
X28904D01*
X28518D02*
X28642D01*
X28780Y12687D02*
X28904D01*
X28518D02*
X28642D01*
X28518Y12514D02*
Y12687D01*
X28904Y12514D02*
Y12687D01*
X28518Y12953D02*
X28642D01*
X28780D02*
X28904D01*
X28518Y12780D02*
X28642D01*
X28780D02*
X28904D01*
Y12953D01*
X28518Y12780D02*
Y12953D01*
Y13046D02*
Y13219D01*
X28904Y13046D02*
Y13219D01*
X28780Y13046D02*
X28904D01*
X28518D02*
X28642D01*
X28780Y13219D02*
X28904D01*
X28518D02*
X28642D01*
X26469Y14030D02*
Y14203D01*
X26855Y14030D02*
Y14203D01*
X26731Y14030D02*
X26855D01*
X26469D02*
X26593D01*
X26731Y14203D02*
X26855D01*
X26469D02*
X26593D01*
X26469Y14453D02*
X26593D01*
X26731D02*
X26855D01*
X26469Y14279D02*
X26593D01*
X26731D02*
X26855D01*
Y14453D01*
X26469Y14279D02*
Y14453D01*
Y14702D02*
X26593D01*
X26731D02*
X26855D01*
X26469Y14529D02*
X26593D01*
X26731D02*
X26855D01*
Y14702D01*
X26469Y14529D02*
Y14702D01*
Y14951D02*
X26593D01*
X26731D02*
X26855D01*
X26469Y14778D02*
X26593D01*
X26731D02*
X26855D01*
Y14951D01*
X26469Y14778D02*
Y14951D01*
X27990Y14542D02*
X28114D01*
X27728D02*
X27852D01*
X27990Y14715D02*
X28114D01*
X27728D02*
X27852D01*
X27728Y14542D02*
Y14715D01*
X28114Y14542D02*
Y14715D01*
X27982Y13774D02*
X28106D01*
X27720D02*
X27844D01*
X27982Y13947D02*
X28106D01*
X27720D02*
X27844D01*
X27720Y13774D02*
Y13947D01*
X28106Y13774D02*
Y13947D01*
X28055Y13219D02*
X28179D01*
X28317D02*
X28441D01*
X28055Y13046D02*
X28179D01*
X28317D02*
X28441D01*
Y13219D01*
X28055Y13046D02*
Y13219D01*
X31992Y4801D02*
X32116D01*
X32254D02*
X32378D01*
X31992Y4628D02*
X32116D01*
X32254D02*
X32378D01*
Y4801D01*
X31992Y4628D02*
Y4801D01*
X32254Y4869D02*
X32378D01*
X31992D02*
X32116D01*
X32254Y5043D02*
X32378D01*
X31992D02*
X32116D01*
X31992Y4869D02*
Y5043D01*
X32378Y4869D02*
Y5043D01*
X29827Y3886D02*
X29951D01*
X30089D02*
X30213D01*
X29827Y3713D02*
X29951D01*
X30089D02*
X30213D01*
Y3886D01*
X29827Y3713D02*
Y3886D01*
X30089Y3944D02*
X30213D01*
X29827D02*
X29951D01*
X30089Y4117D02*
X30213D01*
X29827D02*
X29951D01*
X29827Y3944D02*
Y4117D01*
X30213Y3944D02*
Y4117D01*
X29827Y4348D02*
X29951D01*
X30089D02*
X30213D01*
X29827Y4175D02*
X29951D01*
X30089D02*
X30213D01*
Y4348D01*
X29827Y4175D02*
Y4348D01*
X30207Y6870D02*
X30331D01*
X30469D02*
X30593D01*
X30207Y6696D02*
X30331D01*
X30469D02*
X30593D01*
Y6870D01*
X30207Y6696D02*
Y6870D01*
X30469Y6929D02*
X30593D01*
X30207D02*
X30331D01*
X30469Y7102D02*
X30593D01*
X30207D02*
X30331D01*
X30207Y6929D02*
Y7102D01*
X30593Y6929D02*
Y7102D01*
X30207Y7334D02*
X30331D01*
X30469D02*
X30593D01*
X30207Y7161D02*
X30331D01*
X30469D02*
X30593D01*
Y7334D01*
X30207Y7161D02*
Y7334D01*
X30018Y7669D02*
X30191D01*
X30018Y8055D02*
X30191D01*
Y7931D02*
Y8055D01*
Y7669D02*
Y7793D01*
X30018Y7931D02*
Y8055D01*
Y7669D02*
Y7793D01*
Y8108D02*
Y8232D01*
Y8370D02*
Y8494D01*
X30191Y8108D02*
Y8232D01*
Y8370D02*
Y8494D01*
X30018D02*
X30191D01*
X30018Y8108D02*
X30191D01*
X30018Y8545D02*
Y8669D01*
Y8807D02*
Y8931D01*
X30191Y8545D02*
Y8669D01*
Y8807D02*
Y8931D01*
X30018D02*
X30191D01*
X30018Y8545D02*
X30191D01*
X26434Y7337D02*
Y7461D01*
Y7075D02*
Y7199D01*
X26260Y7337D02*
Y7461D01*
Y7075D02*
Y7199D01*
Y7075D02*
X26434D01*
X26260Y7461D02*
X26434D01*
X27122Y5868D02*
Y6041D01*
X26736Y5868D02*
Y6041D01*
X26860D01*
X26998D02*
X27122D01*
X26736Y5868D02*
X26860D01*
X26998D02*
X27122D01*
X28177Y6184D02*
Y6308D01*
Y5922D02*
Y6046D01*
X28004Y6184D02*
Y6308D01*
Y5922D02*
Y6046D01*
Y5922D02*
X28177D01*
X28004Y6308D02*
X28177D01*
Y5551D02*
Y5675D01*
Y5289D02*
Y5413D01*
X28004Y5551D02*
Y5675D01*
Y5289D02*
Y5413D01*
Y5289D02*
X28177D01*
X28004Y5675D02*
X28177D01*
X27864Y5551D02*
Y5675D01*
Y5289D02*
Y5413D01*
X27691Y5551D02*
Y5675D01*
Y5289D02*
Y5413D01*
Y5289D02*
X27864D01*
X27691Y5675D02*
X27864D01*
Y6184D02*
Y6308D01*
Y5922D02*
Y6046D01*
X27691Y6184D02*
Y6308D01*
Y5922D02*
Y6046D01*
Y5922D02*
X27864D01*
X27691Y6308D02*
X27864D01*
X27622Y11393D02*
X27746D01*
X27884D02*
X28008D01*
X27622Y11220D02*
X27746D01*
X27884D02*
X28008D01*
Y11393D01*
X27622Y11220D02*
Y11393D01*
Y9083D02*
X27746D01*
X27884D02*
X28008D01*
X27622Y8910D02*
X27746D01*
X27884D02*
X28008D01*
Y9083D01*
X27622Y8910D02*
Y9083D01*
Y7744D02*
X27746D01*
X27884D02*
X28008D01*
X27622Y7571D02*
X27746D01*
X27884D02*
X28008D01*
Y7744D01*
X27622Y7571D02*
Y7744D01*
Y10074D02*
X27746D01*
X27884D02*
X28008D01*
X27622Y9901D02*
X27746D01*
X27884D02*
X28008D01*
Y10074D01*
X27622Y9901D02*
Y10074D01*
X26434Y8499D02*
Y8623D01*
Y8237D02*
Y8361D01*
X26260Y8499D02*
Y8623D01*
Y8237D02*
Y8361D01*
Y8237D02*
X26434D01*
X26260Y8623D02*
X26434D01*
Y9663D02*
Y9787D01*
Y9401D02*
Y9525D01*
X26260Y9663D02*
Y9787D01*
Y9401D02*
Y9525D01*
Y9401D02*
X26434D01*
X26260Y9787D02*
X26434D01*
Y10828D02*
Y10952D01*
Y10566D02*
Y10690D01*
X26260Y10828D02*
Y10952D01*
Y10566D02*
Y10690D01*
Y10566D02*
X26434D01*
X26260Y10952D02*
X26434D01*
X24041Y11191D02*
Y11315D01*
Y10929D02*
Y11053D01*
X23868Y11191D02*
Y11315D01*
Y10929D02*
Y11053D01*
Y10929D02*
X24041D01*
X23868Y11315D02*
X24041D01*
X24558Y12745D02*
Y12869D01*
Y13006D02*
Y13130D01*
X24731Y12745D02*
Y12869D01*
Y13006D02*
Y13130D01*
X24558D02*
X24731D01*
X24558Y12745D02*
X24731D01*
X26034D02*
Y12869D01*
Y13006D02*
Y13130D01*
X26207Y12745D02*
Y12869D01*
Y13006D02*
Y13130D01*
X26034D02*
X26207D01*
X26034Y12745D02*
X26207D01*
X25195Y12867D02*
X25319D01*
X25457D02*
X25581D01*
X25195Y12694D02*
X25319D01*
X25457D02*
X25581D01*
Y12867D01*
X25195Y12694D02*
Y12867D01*
X25436Y13130D02*
X25560D01*
X25697D02*
X25821D01*
X25436Y12957D02*
X25560D01*
X25697D02*
X25821D01*
Y13130D01*
X25436Y12957D02*
Y13130D01*
X25215Y12957D02*
X25339D01*
X24953D02*
X25077D01*
X25215Y13130D02*
X25339D01*
X24953D02*
X25077D01*
X24953Y12957D02*
Y13130D01*
X25339Y12957D02*
Y13130D01*
X24493Y12199D02*
Y12373D01*
X24107Y12199D02*
Y12373D01*
X24231D01*
X24369D02*
X24493D01*
X24107Y12199D02*
X24231D01*
X24369D02*
X24493D01*
X24688Y12199D02*
Y12373D01*
X25073Y12199D02*
Y12373D01*
X24949Y12199D02*
X25073D01*
X24688D02*
X24812D01*
X24949Y12373D02*
X25073D01*
X24688D02*
X24812D01*
X24707Y11402D02*
Y11575D01*
X25093Y11402D02*
Y11575D01*
X24969Y11402D02*
X25093D01*
X24707D02*
X24831D01*
X24969Y11575D02*
X25093D01*
X24707D02*
X24831D01*
X24107Y10477D02*
X24231D01*
X24369D02*
X24493D01*
X24107Y10304D02*
X24231D01*
X24369D02*
X24493D01*
Y10477D01*
X24107Y10304D02*
Y10477D01*
X24707Y10237D02*
Y10411D01*
X25093Y10237D02*
Y10411D01*
X24969Y10237D02*
X25093D01*
X24707D02*
X24831D01*
X24969Y10411D02*
X25093D01*
X24707D02*
X24831D01*
X24707Y9069D02*
Y9243D01*
X25093Y9069D02*
Y9243D01*
X24969Y9069D02*
X25093D01*
X24707D02*
X24831D01*
X24969Y9243D02*
X25093D01*
X24707D02*
X24831D01*
X24707Y7908D02*
Y8081D01*
X25093Y7908D02*
Y8081D01*
X24969Y7908D02*
X25093D01*
X24707D02*
X24831D01*
X24969Y8081D02*
X25093D01*
X24707D02*
X24831D01*
X23457Y6785D02*
Y6909D01*
Y7047D02*
Y7171D01*
X23630Y6785D02*
Y6909D01*
Y7047D02*
Y7171D01*
X23457D02*
X23630D01*
X23457Y6785D02*
X23630D01*
X23394Y7047D02*
Y7171D01*
Y6785D02*
Y6909D01*
X23220Y7047D02*
Y7171D01*
Y6785D02*
Y6909D01*
Y6785D02*
X23394D01*
X23220Y7171D02*
X23394D01*
X23157Y7047D02*
Y7171D01*
Y6785D02*
Y6909D01*
X22984Y7047D02*
Y7171D01*
Y6785D02*
Y6909D01*
Y6785D02*
X23157D01*
X22984Y7171D02*
X23157D01*
X22565Y8916D02*
Y9040D01*
Y9178D02*
Y9302D01*
X22738Y8916D02*
Y9040D01*
Y9178D02*
Y9302D01*
X22565D02*
X22738D01*
X22565Y8916D02*
X22738D01*
X22565Y11224D02*
Y11348D01*
Y11486D02*
Y11610D01*
X22738Y11224D02*
Y11348D01*
Y11486D02*
Y11610D01*
X22565D02*
X22738D01*
X22565Y11224D02*
X22738D01*
X7266Y17575D02*
X7439D01*
X7266Y17189D02*
X7439D01*
X7266D02*
Y17313D01*
Y17451D02*
Y17575D01*
X7439Y17189D02*
Y17313D01*
Y17451D02*
Y17575D01*
X10150Y17868D02*
X10323D01*
X10150Y18254D02*
X10323D01*
Y18130D02*
Y18254D01*
Y17868D02*
Y17992D01*
X10150Y18130D02*
Y18254D01*
Y17868D02*
Y17992D01*
X9864Y17868D02*
X10037D01*
X9864Y18254D02*
X10037D01*
Y18130D02*
Y18254D01*
Y17868D02*
Y17992D01*
X9864Y18130D02*
Y18254D01*
Y17868D02*
Y17992D01*
X14728Y17173D02*
X14852D01*
X14990D02*
X15114D01*
X14728Y17000D02*
X14852D01*
X14990D02*
X15114D01*
Y17173D01*
X14728Y17000D02*
Y17173D01*
X13370Y17144D02*
X13494D01*
X13632D02*
X13756D01*
X13370Y16970D02*
X13494D01*
X13632D02*
X13756D01*
Y17144D01*
X13370Y16970D02*
Y17144D01*
X13455Y20159D02*
X13579D01*
X13193D02*
X13317D01*
X13455Y20333D02*
X13579D01*
X13193D02*
X13317D01*
X13193Y20159D02*
Y20333D01*
X13579Y20159D02*
Y20333D01*
X12240Y18604D02*
Y18778D01*
X11854Y18604D02*
Y18778D01*
X11978D01*
X12116D02*
X12240D01*
X11854Y18604D02*
X11978D01*
X12116D02*
X12240D01*
X11854Y19024D02*
X11978D01*
X12116D02*
X12240D01*
X11854Y18850D02*
X11978D01*
X12116D02*
X12240D01*
Y19024D01*
X11854Y18850D02*
Y19024D01*
X13193Y18778D02*
X13317D01*
X13455D02*
X13579D01*
X13193Y18604D02*
X13317D01*
X13455D02*
X13579D01*
Y18778D01*
X13193Y18604D02*
Y18778D01*
X13455Y18850D02*
X13579D01*
X13193D02*
X13317D01*
X13455Y19024D02*
X13579D01*
X13193D02*
X13317D01*
X13193Y18850D02*
Y19024D01*
X13579Y18850D02*
Y19024D01*
X6258Y12772D02*
X6431D01*
X6258Y12386D02*
X6431D01*
X6258D02*
Y12510D01*
Y12648D02*
Y12772D01*
X6431Y12386D02*
Y12510D01*
Y12648D02*
Y12772D01*
X7350Y12762D02*
X7524D01*
X7350Y12376D02*
X7524D01*
X7350D02*
Y12500D01*
Y12638D02*
Y12762D01*
X7524Y12376D02*
Y12500D01*
Y12638D02*
Y12762D01*
X5276Y8998D02*
Y9171D01*
X5661Y8998D02*
Y9171D01*
X5537Y8998D02*
X5661D01*
X5276D02*
X5400D01*
X5537Y9171D02*
X5661D01*
X5276D02*
X5400D01*
X6339Y8791D02*
Y8965D01*
X6724Y8791D02*
Y8965D01*
X6600Y8791D02*
X6724D01*
X6339D02*
X6463D01*
X6600Y8965D02*
X6724D01*
X6339D02*
X6463D01*
X9722Y6423D02*
Y6547D01*
Y6161D02*
Y6285D01*
X9549Y6423D02*
Y6547D01*
Y6161D02*
Y6285D01*
Y6161D02*
X9722D01*
X9549Y6547D02*
X9722D01*
X8033Y7037D02*
Y7161D01*
Y7299D02*
Y7423D01*
X8207Y7037D02*
Y7161D01*
Y7299D02*
Y7423D01*
X8033D02*
X8207D01*
X8033Y7037D02*
X8207D01*
X9933Y9510D02*
Y9683D01*
X9547Y9510D02*
Y9683D01*
X9671D01*
X9809D02*
X9933D01*
X9547Y9510D02*
X9671D01*
X9809D02*
X9933D01*
X12140Y8567D02*
X12264D01*
X11878D02*
X12002D01*
X12140Y8740D02*
X12264D01*
X11878D02*
X12002D01*
X11878Y8567D02*
Y8740D01*
X12264Y8567D02*
Y8740D01*
X12140Y9067D02*
X12264D01*
X11878D02*
X12002D01*
X12140Y9240D02*
X12264D01*
X11878D02*
X12002D01*
X11878Y9067D02*
Y9240D01*
X12264Y9067D02*
Y9240D01*
X12140Y9567D02*
X12264D01*
X11878D02*
X12002D01*
X12140Y9740D02*
X12264D01*
X11878D02*
X12002D01*
X11878Y9567D02*
Y9740D01*
X12264Y9567D02*
Y9740D01*
X12140Y10067D02*
X12264D01*
X11878D02*
X12002D01*
X12140Y10240D02*
X12264D01*
X11878D02*
X12002D01*
X11878Y10067D02*
Y10240D01*
X12264Y10067D02*
Y10240D01*
X12140Y10567D02*
X12264D01*
X11878D02*
X12002D01*
X12140Y10740D02*
X12264D01*
X11878D02*
X12002D01*
X11878Y10567D02*
Y10740D01*
X12264Y10567D02*
Y10740D01*
X12140Y11067D02*
X12264D01*
X11878D02*
X12002D01*
X12140Y11240D02*
X12264D01*
X11878D02*
X12002D01*
X11878Y11067D02*
Y11240D01*
X12264Y11067D02*
Y11240D01*
X10585D02*
X10709D01*
X10846D02*
X10970D01*
X10585Y11067D02*
X10709D01*
X10846D02*
X10970D01*
Y11240D01*
X10585Y11067D02*
Y11240D01*
X6293Y16165D02*
Y16289D01*
Y15903D02*
Y16027D01*
X6119Y16165D02*
Y16289D01*
Y15903D02*
Y16027D01*
Y15903D02*
X6293D01*
X6119Y16289D02*
X6293D01*
X6941Y19882D02*
Y20006D01*
Y20144D02*
Y20268D01*
X7114Y19882D02*
Y20006D01*
Y20144D02*
Y20268D01*
X6941D02*
X7114D01*
X6941Y19882D02*
X7114D01*
X6941Y20730D02*
X7114D01*
X6941Y20344D02*
X7114D01*
X6941D02*
Y20468D01*
Y20606D02*
Y20730D01*
X7114Y20344D02*
Y20468D01*
Y20606D02*
Y20730D01*
X26587Y19640D02*
X26760D01*
X26587Y20026D02*
X26760D01*
Y19902D02*
Y20026D01*
Y19640D02*
Y19764D01*
X26587Y19902D02*
Y20026D01*
Y19640D02*
Y19764D01*
X26760Y20364D02*
Y20488D01*
Y20102D02*
Y20226D01*
X26587Y20364D02*
Y20488D01*
Y20102D02*
Y20226D01*
Y20102D02*
X26760D01*
X26587Y20488D02*
X26760D01*
X20022Y20006D02*
X20195D01*
X20022Y19620D02*
X20195D01*
X20022D02*
Y19744D01*
Y19882D02*
Y20006D01*
X20195Y19620D02*
Y19744D01*
Y19882D02*
Y20006D01*
X19756Y19620D02*
Y19744D01*
Y19882D02*
Y20006D01*
X19929Y19620D02*
Y19744D01*
Y19882D02*
Y20006D01*
X19756D02*
X19929D01*
X19756Y19620D02*
X19929D01*
X19411Y19620D02*
Y19744D01*
Y19882D02*
Y20006D01*
X19585Y19620D02*
Y19744D01*
Y19882D02*
Y20006D01*
X19411D02*
X19585D01*
X19411Y19620D02*
X19585D01*
X14734Y15652D02*
X14858D01*
X14472D02*
X14596D01*
X14734Y15825D02*
X14858D01*
X14472D02*
X14596D01*
X14472Y15652D02*
Y15825D01*
X14858Y15652D02*
Y15825D01*
X13134Y15795D02*
X13258D01*
X13396D02*
X13520D01*
X13134Y15622D02*
X13258D01*
X13396D02*
X13520D01*
Y15795D01*
X13134Y15622D02*
Y15795D01*
X14935Y14915D02*
Y15039D01*
Y15177D02*
Y15301D01*
X15108Y14915D02*
Y15039D01*
Y15177D02*
Y15301D01*
X14935D02*
X15108D01*
X14935Y14915D02*
X15108D01*
X14693D02*
Y15039D01*
Y15177D02*
Y15301D01*
X14866Y14915D02*
Y15039D01*
Y15177D02*
Y15301D01*
X14693D02*
X14866D01*
X14693Y14915D02*
X14866D01*
X14451D02*
Y15039D01*
Y15177D02*
Y15301D01*
X14624Y14915D02*
Y15039D01*
Y15177D02*
Y15301D01*
X14451D02*
X14624D01*
X14451Y14915D02*
X14624D01*
X14209D02*
Y15039D01*
Y15177D02*
Y15301D01*
X14382Y14915D02*
Y15039D01*
Y15177D02*
Y15301D01*
X14209D02*
X14382D01*
X14209Y14915D02*
X14382D01*
X13967D02*
Y15039D01*
Y15177D02*
Y15301D01*
X14140Y14915D02*
Y15039D01*
Y15177D02*
Y15301D01*
X13967D02*
X14140D01*
X13967Y14915D02*
X14140D01*
X13724D02*
Y15039D01*
Y15177D02*
Y15301D01*
X13898Y14915D02*
Y15039D01*
Y15177D02*
Y15301D01*
X13724D02*
X13898D01*
X13724Y14915D02*
X13898D01*
X25339Y7321D02*
X25373D01*
X25339D02*
Y8176D01*
X25373D01*
X26160D02*
X26193D01*
X26160Y7321D02*
X26193D01*
Y8176D01*
X12811Y19159D02*
X12844D01*
X12811D02*
Y20014D01*
X12844D01*
X13632D02*
X13665D01*
X13632Y19159D02*
X13665D01*
Y20014D01*
X12589D02*
X12622D01*
Y19159D02*
Y20014D01*
X12589Y19159D02*
X12622D01*
X11768D02*
X11801D01*
X11768Y20014D02*
X11801D01*
X11768Y19159D02*
Y20014D01*
X24189Y17535D02*
X24222D01*
X24189D02*
Y18390D01*
X24222D01*
X25010D02*
X25043D01*
X25010Y17535D02*
X25043D01*
Y18390D01*
X20827Y18504D02*
Y19232D01*
X20738Y18504D02*
X20827D01*
X20738Y19232D02*
X20827D01*
X19882D02*
X19971D01*
X19882Y18504D02*
X19971D01*
X19882D02*
Y19232D01*
X23146Y17535D02*
Y18390D01*
X23179D01*
X23146Y17535D02*
X23179D01*
X23967D02*
X24000D01*
Y18390D01*
X23967D02*
X24000D01*
X26193Y8483D02*
Y9337D01*
X26160Y8483D02*
X26193D01*
X26160Y9337D02*
X26193D01*
X25339D02*
X25373D01*
X25339Y8483D02*
Y9337D01*
Y8483D02*
X25373D01*
X26193Y9647D02*
Y10502D01*
X26160Y9647D02*
X26193D01*
X26160Y10502D02*
X26193D01*
X25339D02*
X25373D01*
X25339Y9647D02*
Y10502D01*
Y9647D02*
X25373D01*
X26193Y10812D02*
Y11667D01*
X26160Y10812D02*
X26193D01*
X26160Y11667D02*
X26193D01*
X25339D02*
X25373D01*
X25339Y10812D02*
Y11667D01*
Y10812D02*
X25373D01*
X21880Y18888D02*
Y19892D01*
X20935D02*
X21880D01*
X20935Y18888D02*
Y19892D01*
Y18888D02*
X21880D01*
X21240Y17776D02*
X22244D01*
Y18720D01*
X21240D02*
X22244D01*
X21240Y17776D02*
Y18720D01*
X12010Y5922D02*
Y6046D01*
Y6184D02*
Y6308D01*
X12183Y5922D02*
Y6046D01*
Y6184D02*
Y6308D01*
X12010D02*
X12183D01*
X12010Y5922D02*
X12183D01*
Y6641D02*
Y6765D01*
Y6379D02*
Y6503D01*
X12010Y6641D02*
Y6765D01*
Y6379D02*
Y6503D01*
Y6379D02*
X12183D01*
X12010Y6765D02*
X12183D01*
X17430Y1240D02*
Y1529D01*
X16643Y1844D02*
X16702D01*
X16747Y2497D02*
X16984D01*
X16614Y1845D02*
X16959D01*
X17122Y2690D02*
X17235D01*
X16601Y2907D02*
X16647D01*
X16780Y2870D02*
Y2930D01*
Y2870D02*
X16954D01*
Y2930D01*
X16780D02*
X16954D01*
X16652Y2883D02*
X16652Y2883D01*
X16653Y2884D01*
X16654Y2884D01*
X16654Y2884D01*
X16655Y2884D01*
X16655Y2884D01*
X16656Y2884D01*
X16657Y2884D01*
X16657Y2885D01*
X16658Y2885D01*
X16658Y2885D01*
X16659Y2885D01*
X16660Y2885D01*
X16660Y2885D01*
X16661Y2886D01*
X16662Y2886D01*
X16663Y2886D01*
X16663Y2886D01*
X16664Y2886D01*
X16665Y2886D01*
X16666Y2887D01*
X16666Y2887D01*
X16667Y2887D01*
X16668Y2887D01*
X16669Y2887D01*
X16669Y2887D01*
X16670Y2888D01*
X16671Y2888D01*
X16672Y2888D01*
X16672Y2888D01*
X16673Y2888D01*
X16674Y2888D01*
X16675Y2888D01*
X16675Y2889D01*
X16676Y2889D01*
X16677Y2889D01*
X16678Y2889D01*
X16679Y2889D01*
X16679Y2889D01*
X16680Y2890D01*
X16681Y2890D01*
X16682Y2890D01*
X16682Y2890D01*
X16683Y2890D01*
X16684Y2890D01*
X16685Y2890D01*
X16686Y2891D01*
X16687Y2891D01*
X16688Y2891D01*
X16689Y2891D01*
X16690Y2891D01*
X16691Y2891D01*
X16692Y2892D01*
X16693Y2892D01*
X16693Y2892D01*
X16694Y2892D01*
X16695Y2892D01*
X16696Y2892D01*
X16697Y2892D01*
X16698Y2893D01*
X16699Y2893D01*
X16700Y2893D01*
X16701Y2893D01*
X16702Y2893D01*
X16703Y2893D01*
X16704Y2894D01*
X16705Y2894D01*
X16706Y2894D01*
X16707Y2894D01*
X16708Y2894D01*
X16709Y2894D01*
X16710Y2894D01*
X16712Y2895D01*
X16713Y2895D01*
X16714Y2895D01*
X16715Y2895D01*
X16716Y2895D01*
X16717Y2895D01*
X16718Y2896D01*
X16719Y2896D01*
X16721Y2896D01*
X16722Y2896D01*
X16723Y2896D01*
X16724Y2896D01*
X16725Y2896D01*
X16727Y2897D01*
X16728Y2897D01*
X16729Y2897D01*
X16731Y2897D01*
X16732Y2897D01*
X16733Y2897D01*
X16735Y2897D01*
X16736Y2898D01*
X16737Y2898D01*
X16739Y2898D01*
X16740Y2898D01*
X16742Y2898D01*
X16743Y2898D01*
X16744Y2898D01*
X16746Y2899D01*
X16748Y2899D01*
X16749Y2899D01*
X16751Y2899D01*
X16752Y2899D01*
X16754Y2899D01*
X16756Y2900D01*
X16757Y2900D01*
X16759Y2900D01*
X16761Y2900D01*
X16763Y2900D01*
X16765Y2900D01*
X16767Y2900D01*
X16769Y2901D01*
X16771Y2901D01*
X16773Y2901D01*
X16775Y2901D01*
X16777Y2901D01*
X16780Y2901D01*
X16536Y2774D02*
X16536Y2774D01*
X16536Y2775D01*
X16536Y2775D01*
X16536Y2775D01*
X16536Y2775D01*
X16536Y2776D01*
X16536Y2776D01*
X16536Y2776D01*
X16536Y2776D01*
X16536Y2777D01*
X16536Y2777D01*
X16536Y2777D01*
X16537Y2777D01*
X16537Y2778D01*
X16537Y2778D01*
X16537Y2778D01*
X16537Y2779D01*
X16537Y2779D01*
X16537Y2780D01*
X16537Y2780D01*
X16537Y2780D01*
X16537Y2781D01*
X16538Y2781D01*
X16538Y2781D01*
X16538Y2782D01*
X16538Y2782D01*
X16538Y2783D01*
X16538Y2783D01*
X16539Y2784D01*
X16539Y2784D01*
X16539Y2785D01*
X16539Y2785D01*
X16539Y2786D01*
X16540Y2786D01*
X16540Y2787D01*
X16540Y2788D01*
X16540Y2788D01*
X16541Y2789D01*
X16541Y2790D01*
X16541Y2790D01*
X16541Y2791D01*
X16542Y2792D01*
X16542Y2793D01*
X16542Y2793D01*
X16543Y2794D01*
X16543Y2795D01*
X16544Y2796D01*
X16544Y2797D01*
X16544Y2797D01*
X16545Y2798D01*
X16545Y2799D01*
X16546Y2800D01*
X16546Y2801D01*
X16547Y2802D01*
X16547Y2803D01*
X16548Y2804D01*
X16549Y2805D01*
X16549Y2806D01*
X16550Y2807D01*
X16550Y2808D01*
X16551Y2809D01*
X16552Y2810D01*
X16552Y2811D01*
X16553Y2813D01*
X16554Y2814D01*
X16555Y2815D01*
X16555Y2816D01*
X16556Y2817D01*
X16557Y2819D01*
X16558Y2820D01*
X16559Y2821D01*
X16560Y2822D01*
X16560Y2823D01*
X16561Y2824D01*
X16562Y2825D01*
X16563Y2827D01*
X16564Y2828D01*
X16565Y2829D01*
X16566Y2830D01*
X16567Y2831D01*
X16568Y2832D01*
X16569Y2834D01*
X16570Y2835D01*
X16571Y2836D01*
X16572Y2837D01*
X16573Y2838D01*
X16574Y2840D01*
X16576Y2841D01*
X16577Y2842D01*
X16578Y2843D01*
X16579Y2845D01*
X16580Y2846D01*
X16581Y2847D01*
X16583Y2848D01*
X16584Y2849D01*
X16585Y2850D01*
X16586Y2851D01*
X16587Y2852D01*
X16589Y2853D01*
X16590Y2854D01*
X16591Y2856D01*
X16592Y2857D01*
X16594Y2858D01*
X16596Y2860D02*
X16597Y2860D01*
X16597Y2861D01*
X16598Y2861D01*
X16599Y2862D01*
X16599Y2862D01*
X16600Y2862D01*
X16600Y2863D01*
X16601Y2863D01*
X16601Y2863D01*
X16959Y2898D02*
X16959Y2898D01*
X16960Y2898D01*
X16962Y2898D01*
X16963Y2897D01*
X16964Y2897D01*
X16966Y2897D01*
X16967Y2897D01*
X16968Y2897D01*
X16970Y2897D01*
X16971Y2896D01*
X16972Y2896D01*
X16973Y2896D01*
X16974Y2896D01*
X16976Y2896D01*
X16977Y2896D01*
X16978Y2896D01*
X16979Y2895D01*
X16980Y2895D01*
X16982Y2895D01*
X16983Y2895D01*
X16984Y2895D01*
X16985Y2895D01*
X16986Y2894D01*
X16987Y2894D01*
X16988Y2894D01*
X16989Y2894D01*
X16990Y2894D01*
X16991Y2894D01*
X16992Y2894D01*
X16993Y2893D01*
X16994Y2893D01*
X16995Y2893D01*
X16997Y2893D01*
X16998Y2893D01*
X16999Y2893D01*
X17000Y2892D01*
X17001Y2892D01*
X17002Y2892D01*
X17003Y2892D01*
X17004Y2892D01*
X17005Y2892D01*
X17006Y2891D01*
X17007Y2891D01*
X17008Y2891D01*
X17008Y2891D01*
X17009Y2891D01*
X17010Y2891D01*
X17011Y2891D01*
X17012Y2890D01*
X17013Y2890D01*
X17013Y2890D01*
X17014Y2890D01*
X17015Y2890D01*
X17016Y2890D01*
X17017Y2889D01*
X17018Y2889D01*
X17018Y2889D01*
X17019Y2889D01*
X17020Y2889D01*
X17021Y2889D01*
X17022Y2889D01*
X17022Y2888D01*
X17023Y2888D01*
X17024Y2888D01*
X17025Y2888D01*
X17026Y2888D01*
X17027Y2888D01*
X17027Y2887D01*
X17028Y2887D01*
X17029Y2887D01*
X17030Y2887D01*
X17031Y2887D01*
X17031Y2886D01*
X17032Y2886D01*
X17033Y2886D01*
X17034Y2886D01*
X17034Y2886D01*
X17035Y2886D01*
X17036Y2885D01*
X17036Y2885D01*
X17037Y2885D01*
X17038Y2885D01*
X17038Y2885D01*
X17039Y2885D01*
X17040Y2885D01*
X17040Y2884D01*
X17041Y2884D01*
X17041Y2884D01*
X17042Y2884D01*
X17043Y2884D01*
X17043Y2884D01*
X17044Y2883D01*
X17044Y2883D01*
X17045Y2883D01*
X17046Y2883D01*
X17046Y2883D01*
X17047Y2883D01*
X17047Y2883D01*
X17048Y2882D01*
X17049Y2882D01*
X17049Y2882D01*
X17050Y2882D01*
X17050Y2882D01*
X17051Y2882D01*
X17052Y2881D01*
X17052Y2881D01*
X17053Y2881D01*
X17053Y2881D01*
X17054Y2881D01*
X17055Y2881D01*
X17055Y2880D01*
X17056Y2880D01*
X17056Y2880D01*
X17057Y2880D01*
X17057Y2880D01*
X17058Y2880D01*
X17059Y2879D01*
X17059Y2879D01*
X17060Y2879D01*
X17060Y2879D01*
X17061Y2879D01*
X17061Y2878D01*
X17062Y2878D01*
X17063Y2878D01*
X17063Y2878D01*
X17064Y2878D01*
X17064Y2878D01*
X17065Y2877D01*
X17065Y2877D01*
X17066Y2877D01*
X17066Y2877D01*
X17067Y2877D01*
X17067Y2876D01*
X17068Y2876D01*
X17068Y2876D01*
X17069Y2876D01*
X17069Y2876D01*
X17069Y2876D01*
X17070Y2875D01*
X17070Y2875D01*
X17071Y2875D01*
X17071Y2875D01*
X17071Y2875D01*
X17072Y2875D01*
X17072Y2875D01*
X17073Y2874D01*
X17073Y2874D01*
X17073Y2874D01*
X17074Y2874D01*
X17074Y2874D01*
X17075Y2874D01*
X17075Y2874D01*
X17075Y2873D01*
X17076Y2873D01*
X17076Y2873D01*
X17076Y2873D01*
X17077Y2873D01*
X17077Y2873D01*
X17078Y2872D01*
X17078Y2872D01*
X17078Y2872D01*
X17079Y2872D01*
X17079Y2872D01*
X17079Y2872D01*
X17080Y2871D01*
X17080Y2871D01*
X17080Y2871D01*
X17081Y2871D01*
X17081Y2871D01*
X17082Y2871D01*
X17082Y2871D01*
X17082Y2870D01*
X17083Y2870D01*
X17083Y2870D01*
X17083Y2870D01*
X17084Y2870D01*
X17084Y2870D01*
X17084Y2869D01*
X17085Y2869D01*
X17085Y2869D01*
X17085Y2869D01*
X17086Y2869D01*
X17086Y2869D01*
X17086Y2868D01*
X17087Y2868D01*
X17087Y2868D01*
X17087Y2868D01*
X17088Y2868D01*
X17088Y2867D01*
X17088Y2867D01*
X17089Y2867D01*
X17089Y2867D01*
X17089Y2867D01*
X17090Y2867D01*
X17090Y2866D01*
X17090Y2866D01*
X17091Y2866D01*
X17091Y2866D01*
X17091Y2866D01*
X17092Y2866D01*
X17092Y2865D01*
X17092Y2865D01*
X17092Y2865D01*
X17093Y2865D01*
X17093Y2865D01*
X17093Y2864D01*
X17094Y2864D01*
X17094Y2864D01*
X17094Y2864D01*
X17095Y2864D01*
X17095Y2864D01*
X17095Y2863D01*
X17095Y2863D01*
X17096Y2863D01*
X17096Y2863D01*
X17096Y2863D01*
X17097Y2862D01*
X17097Y2862D01*
X17097Y2862D01*
X17097Y2862D01*
X17098Y2862D01*
X17098Y2861D01*
X17098Y2861D01*
X17098Y2861D01*
X17099Y2861D01*
X17099Y2861D01*
X17099Y2861D01*
X17100Y2860D01*
X17100Y2860D01*
X17100Y2860D01*
X17100Y2860D01*
X17101Y2860D01*
X17101Y2859D01*
X17101Y2859D01*
X17101Y2859D01*
X17102Y2859D01*
X17102Y2859D01*
X17102Y2858D01*
X17102Y2858D01*
X17103Y2858D01*
X17103Y2857D01*
X17104Y2856D01*
X17106Y2855D01*
X17107Y2854D01*
X17108Y2853D01*
X17109Y2852D01*
X17111Y2851D01*
X17112Y2850D01*
X17113Y2849D01*
X17114Y2848D01*
X17115Y2846D01*
X17117Y2845D01*
X17118Y2844D01*
X17119Y2843D01*
X17120Y2842D01*
X17121Y2840D01*
X17123Y2839D01*
X17124Y2838D01*
X17125Y2837D01*
X17126Y2835D01*
X17127Y2834D01*
X17128Y2833D01*
X17129Y2832D01*
X17130Y2831D01*
X17131Y2830D01*
X17132Y2828D01*
X17133Y2827D01*
X17134Y2826D01*
X17135Y2825D01*
X17136Y2824D01*
X17137Y2822D01*
X17137Y2821D01*
X17138Y2820D01*
X17139Y2819D01*
X17140Y2817D01*
X17141Y2816D01*
X17142Y2815D01*
X17143Y2814D01*
X17143Y2813D01*
X17144Y2811D01*
X17145Y2810D01*
X17146Y2809D01*
X17146Y2808D01*
X17147Y2807D01*
X17147Y2806D01*
X17148Y2805D01*
X17149Y2804D01*
X17149Y2803D01*
X17150Y2802D01*
X17150Y2801D01*
X17151Y2800D01*
X17151Y2799D01*
X17152Y2798D01*
X17152Y2797D01*
X17153Y2796D01*
X17153Y2795D01*
X17153Y2795D01*
X17154Y2794D01*
X17154Y2793D01*
X17154Y2792D01*
X17155Y2792D01*
X17155Y2791D01*
X17155Y2790D01*
X17156Y2789D01*
X17156Y2789D01*
X17156Y2788D01*
X17156Y2788D01*
X17157Y2787D01*
X17157Y2786D01*
X17157Y2786D01*
X17157Y2785D01*
X17158Y2785D01*
X17158Y2784D01*
X17158Y2784D01*
X17158Y2783D01*
X17158Y2783D01*
X17158Y2782D01*
X17159Y2782D01*
X17159Y2781D01*
X17159Y2781D01*
X17159Y2780D01*
X17159Y2780D01*
X17159Y2780D01*
X17159Y2779D01*
X17160Y2779D01*
X17160Y2779D01*
X17160Y2778D01*
X17160Y2778D01*
X17160Y2778D01*
X17160Y2777D01*
X17160Y2777D01*
X17160Y2777D01*
X17160Y2777D01*
X17160Y2776D01*
X17160Y2776D01*
X17160Y2776D01*
X17161Y2776D01*
X17161Y2775D01*
X17161Y2775D01*
X17161Y2775D01*
X17161Y2775D01*
X17161Y2774D01*
X16280Y1240D02*
Y1529D01*
X16643Y1757D02*
Y1844D01*
Y1757D02*
X16702D01*
Y1844D01*
X16747Y2497D02*
Y2583D01*
X16984Y2497D02*
Y2583D01*
X16747D02*
X16984D01*
X17122Y2577D02*
Y2690D01*
Y2577D02*
X17235D01*
Y2690D01*
X17204Y2734D02*
Y2789D01*
X16647Y2759D02*
Y2907D01*
X16601Y2759D02*
Y2907D01*
X16534Y2768D02*
Y2768D01*
Y2768D01*
Y2768D01*
Y2768D01*
X16534Y2768D01*
Y2768D01*
Y2768D01*
Y2768D01*
Y2768D01*
X16534Y2768D01*
Y2768D01*
Y2768D01*
X16534Y2768D01*
Y2768D01*
X16534Y2768D01*
Y2768D01*
X16534Y2768D01*
Y2768D01*
X16534Y2768D01*
Y2768D01*
X16534Y2768D01*
X16534Y2768D01*
Y2768D01*
X16534Y2768D01*
X16534Y2768D01*
X16534Y2768D01*
X16534Y2768D01*
Y2768D01*
X16534Y2768D01*
X16534Y2768D01*
X16534Y2768D01*
X16534Y2768D01*
X16534Y2768D01*
X16534Y2768D01*
X16534Y2768D01*
X16534Y2768D01*
X16534Y2768D01*
X16534Y2768D01*
X16534Y2768D01*
X16534Y2768D01*
X16534Y2768D01*
X16534Y2768D01*
X16534Y2768D01*
X16534Y2768D01*
X16534Y2768D01*
X16534Y2768D01*
X16534Y2768D01*
X16534Y2768D01*
X16534Y2768D01*
X16534Y2768D01*
X16534Y2768D01*
X16534Y2768D01*
X16534Y2768D01*
X16534Y2768D01*
X16534Y2768D01*
X16534Y2768D01*
X16534Y2768D01*
X16534Y2768D01*
X16534Y2768D01*
X16534Y2768D01*
X16534Y2768D01*
X16534Y2768D01*
X16534Y2768D01*
X16534Y2768D01*
X16534Y2768D01*
X16534Y2768D01*
X16534Y2768D01*
X16534Y2768D01*
X16534Y2768D01*
X16534Y2768D01*
X16534Y2768D01*
X16534Y2768D01*
X16534Y2768D01*
X16534Y2768D01*
X16534Y2768D01*
X16534Y2768D01*
X16534Y2768D01*
X16534Y2768D01*
X16534Y2768D01*
X16534Y2768D01*
X16534Y2768D01*
X16534Y2768D01*
X16534Y2768D01*
X16534Y2769D01*
X16534Y2769D01*
X16534Y2769D01*
X16534Y2769D01*
X16534Y2769D01*
X16534Y2769D01*
X16534Y2769D01*
X16534Y2769D01*
X16535Y2769D01*
X16535Y2769D01*
X16535Y2769D01*
X16535Y2769D01*
X16535Y2769D01*
X16535Y2769D01*
X16535Y2769D01*
X16535Y2769D01*
X16535Y2769D01*
X16535Y2769D01*
X16535Y2769D01*
X16535Y2769D01*
X16535Y2769D01*
X16535Y2770D01*
X16535Y2770D01*
X16535Y2770D01*
X16535Y2770D01*
X16535Y2770D01*
X16535Y2770D01*
X16535Y2770D01*
X16535Y2770D01*
X16535Y2770D01*
X16535Y2770D01*
X16535Y2770D01*
X16535Y2770D01*
X16535Y2770D01*
X16535Y2770D01*
X16535Y2770D01*
X16535Y2771D01*
X16535Y2771D01*
X16535Y2771D01*
X16535Y2771D01*
X16535Y2771D01*
X16535Y2771D01*
X16535Y2771D01*
X16535Y2771D01*
X16535Y2771D01*
X16535Y2771D01*
X16535Y2772D01*
X16535Y2772D01*
X16535Y2772D01*
X16535Y2772D01*
X16535Y2772D01*
X16535Y2772D01*
X16535Y2772D01*
X16535Y2772D01*
X16535Y2773D01*
X16535Y2773D01*
X16535Y2773D01*
X16535Y2773D01*
X16535Y2773D01*
X16535Y2773D01*
X16535Y2774D01*
X16536Y2774D01*
X16536Y2774D01*
X16536Y2774D01*
X16536Y2774D01*
X17161Y2774D02*
X17161Y2774D01*
X17161Y2774D01*
X17161Y2774D01*
X17161Y2774D01*
X17161Y2773D01*
X17161Y2773D01*
X17161Y2773D01*
X17161Y2773D01*
X17161Y2773D01*
X17161Y2773D01*
X17161Y2773D01*
X17161Y2772D01*
X17161Y2772D01*
X17161Y2772D01*
X17161Y2772D01*
X17161Y2772D01*
X17161Y2772D01*
X17161Y2772D01*
X17161Y2771D01*
X17162Y2771D01*
X17162Y2771D01*
X17162Y2771D01*
X17162Y2771D01*
X17162Y2771D01*
X17162Y2771D01*
X17162Y2771D01*
X17162Y2771D01*
X17162Y2771D01*
X17162Y2770D01*
X17162Y2770D01*
X17162Y2770D01*
X17162Y2770D01*
X17162Y2770D01*
X17162Y2770D01*
X17162Y2770D01*
X17162Y2770D01*
X17162Y2770D01*
X17162Y2770D01*
X17162Y2770D01*
X17162Y2770D01*
X17162Y2770D01*
X17162Y2770D01*
X17162Y2770D01*
X17162Y2769D01*
X17162Y2769D01*
X17162Y2769D01*
X17162Y2769D01*
X17162Y2769D01*
X17162Y2769D01*
X17162Y2769D01*
X17162Y2769D01*
X17162Y2769D01*
X17162Y2769D01*
X17162Y2769D01*
X17162Y2769D01*
X17162Y2769D01*
X17162Y2769D01*
X17162Y2769D01*
X17162Y2769D01*
X17162Y2769D01*
X17162Y2769D01*
X17162Y2769D01*
X17162Y2769D01*
X17162Y2769D01*
X17162Y2768D01*
X17162Y2768D01*
X17162Y2768D01*
X17162Y2768D01*
X17162Y2768D01*
X17162Y2768D01*
X17162Y2768D01*
X17162Y2768D01*
X17162Y2768D01*
X17162Y2768D01*
X17162Y2768D01*
X17162Y2768D01*
X17162Y2768D01*
X17162Y2768D01*
X17162Y2768D01*
X17162Y2768D01*
X17162Y2768D01*
X17162Y2768D01*
X17162Y2768D01*
X17162Y2768D01*
X17162Y2768D01*
X17162Y2768D01*
X17162Y2768D01*
X17162Y2768D01*
X17162Y2768D01*
X17162Y2768D01*
X17162Y2768D01*
X17162Y2768D01*
X17162Y2768D01*
X17162Y2768D01*
X17162Y2768D01*
X17162Y2768D01*
X17162Y2768D01*
X17162Y2768D01*
X17162Y2768D01*
X17162Y2768D01*
X17162Y2768D01*
X17162Y2768D01*
X17162Y2768D01*
X17162Y2768D01*
X17162Y2768D01*
X17162Y2768D01*
X17162Y2768D01*
X17162Y2768D01*
X17162Y2768D01*
X17162Y2768D01*
X17162Y2768D01*
X17162Y2768D01*
X17162Y2768D01*
X17162Y2768D01*
X17162Y2768D01*
X17162Y2768D01*
X17162Y2768D01*
X17162Y2768D01*
X17162Y2768D01*
X17162Y2768D01*
X17162Y2768D01*
X17162Y2768D01*
X17162Y2768D01*
X17162Y2768D01*
Y2768D02*
Y2768D01*
Y2768D02*
X17162Y2768D01*
X17162Y2768D01*
Y2768D02*
Y2768D01*
Y2768D02*
X17162Y2768D01*
Y2768D02*
Y2768D01*
Y2768D02*
X17162Y2768D01*
X17162Y2768D01*
Y2768D02*
Y2768D01*
Y2768D02*
Y2768D01*
Y2768D02*
X17162Y2768D01*
Y2768D02*
Y2768D01*
Y2768D02*
X17162Y2768D01*
Y2768D02*
Y2768D01*
Y2768D02*
Y2768D01*
Y2768D02*
Y2768D01*
Y2768D02*
X17162Y2768D01*
Y2768D02*
Y2768D01*
Y2768D02*
Y2768D01*
Y2768D02*
Y2768D01*
Y2768D02*
Y2768D01*
Y2768D02*
Y2768D01*
Y2768D02*
X17162Y2768D01*
Y2768D02*
Y2768D01*
X16534Y2768D02*
X16614Y1845D01*
X17092Y1953D02*
X17146Y2577D01*
X16280Y1240D02*
X17430D01*
X16280Y1529D02*
X17430D01*
X16461Y2734D02*
Y2789D01*
Y2734D02*
X17204D01*
X16461Y2789D02*
X17204D01*
X16276Y1630D02*
X17430Y2973D01*
X16276D02*
X17430Y1630D01*
D14*
X5866Y2317D02*
X5866Y3317D01*
X5866Y2317D02*
X10866D01*
X5866Y3317D02*
X10866D01*
X10866D02*
X15866D01*
Y2317D02*
Y3317D01*
X10866Y2317D02*
X15866D01*
X23591Y3317D02*
X27591D01*
X23591Y2317D02*
X27591D01*
X23591D02*
X23591Y3317D01*
X27591Y2317D02*
Y3317D01*
X1195Y14630D02*
X2179D01*
Y12134D02*
Y14630D01*
X1195Y12134D02*
X2179D01*
X1195Y14033D02*
Y14630D01*
Y12134D02*
Y12734D01*
D15*
X7589Y15768D02*
Y16476D01*
X6368Y15768D02*
Y16476D01*
X6388D01*
X6368Y15768D02*
X6388D01*
X7569Y16476D02*
X7589D01*
X7569Y15768D02*
X7589D01*
X28317Y18415D02*
Y18681D01*
X28583D01*
X29783D02*
X30049D01*
Y18415D02*
Y18681D01*
Y16949D02*
Y17215D01*
X29783Y16949D02*
X30049D01*
X28317D02*
Y17215D01*
Y16949D02*
X28583D01*
X22894Y6719D02*
X23022D01*
X23585D02*
X23713D01*
X22894Y5781D02*
X23022D01*
X23585D02*
X23713D01*
X15272Y16679D02*
Y16807D01*
Y15988D02*
Y16116D01*
X14335Y16679D02*
Y16807D01*
Y15988D02*
Y16116D01*
X22894Y9435D02*
X23022D01*
X23585D02*
X23713D01*
X22894Y8498D02*
X23022D01*
X23585D02*
X23713D01*
X28411Y8599D02*
Y8727D01*
Y7908D02*
Y8036D01*
X27474Y8599D02*
Y8727D01*
Y7908D02*
Y8036D01*
X28411Y10928D02*
Y11056D01*
Y10237D02*
Y10365D01*
X27474Y10928D02*
Y11056D01*
Y10237D02*
Y10365D01*
X22894Y11748D02*
X23022D01*
X23585D02*
X23713D01*
X22894Y10811D02*
X23022D01*
X23585D02*
X23713D01*
X12976Y15988D02*
Y16116D01*
Y16679D02*
Y16807D01*
X13913Y15988D02*
Y16116D01*
Y16679D02*
Y16807D01*
X6118Y12047D02*
X8953D01*
X6118Y9213D02*
X8953D01*
X6118D02*
Y12047D01*
X8953Y9213D02*
Y12047D01*
X9911Y6663D02*
Y6900D01*
X9951D01*
X9911Y5797D02*
Y6033D01*
Y5797D02*
X9951D01*
X11762D02*
X11801D01*
Y6033D01*
Y6663D02*
Y6900D01*
X11762D02*
X11801D01*
X23844Y8219D02*
X23923D01*
X23844Y7825D02*
X23923D01*
X8829Y18404D02*
X9380D01*
X8829Y17223D02*
X9380D01*
X31354Y5627D02*
X31433D01*
X31354Y5391D02*
X31433D01*
X30144Y4909D02*
Y4988D01*
X29907Y4909D02*
Y4988D01*
X31354Y6750D02*
X31433D01*
X31354Y6513D02*
X31433D01*
X31354Y7222D02*
X31433D01*
X31354Y6986D02*
X31433D01*
X31305Y9122D02*
X31384D01*
X31305Y8885D02*
X31384D01*
X21880Y20207D02*
X21959D01*
X21880Y20443D02*
X21959D01*
X20630Y19862D02*
Y19941D01*
X20394Y19862D02*
Y19941D01*
X20512Y17874D02*
Y17953D01*
X20748Y17874D02*
Y17953D01*
X26890Y5472D02*
X26969D01*
X26890Y5709D02*
X26969D01*
X24453Y378D02*
Y247D01*
X24518Y181D01*
X24781D01*
X24846Y247D01*
Y378D01*
X24781Y443D01*
X24518D01*
X24453Y378D01*
Y575D02*
X24781D01*
X24846Y640D01*
Y771D01*
X24781Y837D01*
X24453D01*
Y968D02*
Y1231D01*
Y1099D01*
X24846D01*
X26518Y443D02*
X26453Y378D01*
Y247D01*
X26518Y181D01*
X26781D01*
X26846Y247D01*
Y378D01*
X26781Y443D01*
X26650D01*
Y312D01*
X26846Y575D02*
X26453D01*
X26846Y837D01*
X26453D01*
Y968D02*
X26846D01*
Y1165D01*
X26781Y1231D01*
X26518D01*
X26453Y1165D01*
Y968D01*
X25453Y181D02*
Y312D01*
Y247D01*
X25846D01*
Y181D01*
Y312D01*
Y509D02*
X25453D01*
X25846Y771D01*
X25453D01*
X11030Y21092D02*
X10899D01*
X10965D01*
Y20764D01*
X10899Y20699D01*
X10833D01*
X10768Y20764D01*
X11424Y20699D02*
X11161D01*
X11424Y20961D01*
Y21027D01*
X11358Y21092D01*
X11227D01*
X11161Y21027D01*
X22625Y21092D02*
X22493D01*
X22559D01*
Y20764D01*
X22493Y20699D01*
X22428D01*
X22362Y20764D01*
X22756Y20699D02*
X22887D01*
X22821D01*
Y21092D01*
X22756Y21027D01*
X16662Y18672D02*
X16596Y18737D01*
X16465D01*
X16399Y18672D01*
Y18606D01*
X16465Y18541D01*
X16596D01*
X16662Y18475D01*
Y18409D01*
X16596Y18344D01*
X16465D01*
X16399Y18409D01*
X16793Y18737D02*
Y18344D01*
X16924Y18475D01*
X17055Y18344D01*
Y18737D01*
X17186Y18344D02*
X17318D01*
X17252D01*
Y18737D01*
X17186Y18672D01*
X1348Y11575D02*
Y11968D01*
X1545D01*
X1611Y11903D01*
Y11772D01*
X1545Y11706D01*
X1348D01*
X1742Y11903D02*
X1808Y11968D01*
X1939D01*
X2004Y11903D01*
Y11837D01*
X1939Y11772D01*
X1873D01*
X1939D01*
X2004Y11706D01*
Y11640D01*
X1939Y11575D01*
X1808D01*
X1742Y11640D01*
X5039Y2618D02*
Y3012D01*
X5236D01*
X5302Y2946D01*
Y2815D01*
X5236Y2749D01*
X5039D01*
X5695Y2618D02*
X5433D01*
X5695Y2880D01*
Y2946D01*
X5630Y3012D01*
X5499D01*
X5433Y2946D01*
X22904Y2618D02*
Y3012D01*
X23100D01*
X23166Y2946D01*
Y2815D01*
X23100Y2749D01*
X22904D01*
X23297Y2618D02*
X23428D01*
X23363D01*
Y3012D01*
X23297Y2946D01*
X23518Y443D02*
X23453Y378D01*
Y247D01*
X23518Y181D01*
X23781D01*
X23846Y247D01*
Y378D01*
X23781Y443D01*
X23650D01*
Y312D01*
X23846Y575D02*
X23453D01*
X23846Y837D01*
X23453D01*
Y968D02*
X23846D01*
Y1165D01*
X23781Y1231D01*
X23518D01*
X23453Y1165D01*
Y968D01*
D16*
X17539Y20453D02*
Y21260D01*
X16949D02*
X17539D01*
X16949Y20453D02*
Y21260D01*
X16161Y21142D02*
Y21260D01*
X16752Y21142D02*
Y21260D01*
X16283D02*
X16382D01*
X16752Y20913D02*
Y21031D01*
X16161Y20913D02*
Y21031D01*
Y20453D02*
Y20591D01*
Y20693D02*
Y20811D01*
X16520Y21260D02*
X16618D01*
X16752Y20693D02*
Y20811D01*
Y20453D02*
Y20591D01*
X16260Y21260D02*
X16378D01*
X18622Y19075D02*
Y20453D01*
X15079D02*
X18622D01*
X15079Y19075D02*
Y20453D01*
Y19075D02*
X18622D01*
X2343Y10220D02*
Y10476D01*
Y9767D02*
Y10023D01*
X2067Y10220D02*
Y10476D01*
Y9767D02*
Y10023D01*
Y9767D02*
X2343D01*
X2067Y10476D02*
X2343D01*
X5795Y7884D02*
X5921D01*
X6283Y8207D02*
Y8254D01*
X5795Y8577D02*
X5921D01*
X5433Y8207D02*
Y8254D01*
X30341Y5923D02*
Y6218D01*
X31030Y5923D02*
Y6218D01*
X30783Y5923D02*
X31030D01*
X30341D02*
X30587D01*
X30783Y6218D02*
X31030D01*
X30341D02*
X30587D01*
X2417Y10180D02*
Y10476D01*
X3106Y10180D02*
Y10476D01*
X2860Y10180D02*
X3106D01*
X2417D02*
X2664D01*
X2860Y10476D02*
X3106D01*
X2417D02*
X2664D01*
X19360Y18839D02*
X19656D01*
X19360Y19528D02*
X19656D01*
Y19282D02*
Y19528D01*
Y18839D02*
Y19085D01*
X19360Y19282D02*
Y19528D01*
Y18839D02*
Y19085D01*
X25225Y7473D02*
Y7768D01*
X24536Y7473D02*
Y7768D01*
X24782D01*
X24979D02*
X25225D01*
X24536Y7473D02*
X24782D01*
X24979D02*
X25225D01*
X24536Y8634D02*
Y8930D01*
X25225Y8634D02*
Y8930D01*
X24979Y8634D02*
X25225D01*
X24536D02*
X24782D01*
X24979Y8930D02*
X25225D01*
X24536D02*
X24782D01*
X24536Y9802D02*
Y10098D01*
X25225Y9802D02*
Y10098D01*
X24979Y9802D02*
X25225D01*
X24536D02*
X24782D01*
X24979Y10098D02*
X25225D01*
X24536D02*
X24782D01*
X24536Y10967D02*
Y11262D01*
X25225Y10967D02*
Y11262D01*
X24979Y10967D02*
X25225D01*
X24536D02*
X24782D01*
X24979Y11262D02*
X25225D01*
X24536D02*
X24782D01*
X24536Y11813D02*
Y12109D01*
X25225Y11813D02*
Y12109D01*
X24979Y11813D02*
X25225D01*
X24536D02*
X24782D01*
X24979Y12109D02*
X25225D01*
X24536D02*
X24782D01*
X24565Y11390D02*
Y11686D01*
X23876Y11390D02*
Y11686D01*
X24123D01*
X24319D02*
X24565D01*
X23876Y11390D02*
X24123D01*
X24319D02*
X24565D01*
X24455Y7717D02*
Y8327D01*
X23313Y7717D02*
Y8327D01*
X23785D01*
X23982D02*
X24455D01*
X23313Y7717D02*
X23785D01*
X23982D02*
X24455D01*
X23876Y9075D02*
Y9370D01*
X24565Y9075D02*
Y9370D01*
X24319Y9075D02*
X24565D01*
X23876D02*
X24123D01*
X24319Y9370D02*
X24565D01*
X23876D02*
X24123D01*
X4829Y10190D02*
Y10466D01*
X5538Y10190D02*
Y10466D01*
X5282Y10190D02*
X5538D01*
X4829D02*
X5085D01*
X5282Y10466D02*
X5538D01*
X4829D02*
X5085D01*
X10266Y19035D02*
X10453D01*
X7500D02*
X7687D01*
X7500Y20974D02*
X10453D01*
X26014Y19035D02*
X26201D01*
X23248D02*
X23435D01*
X23248Y20974D02*
X26201D01*
X8480Y12933D02*
X8756D01*
X8480Y12224D02*
X8756D01*
X8480D02*
Y12480D01*
Y12677D02*
Y12933D01*
X8756Y12224D02*
Y12480D01*
Y12677D02*
Y12933D01*
X9360D02*
X9636D01*
X9360Y12224D02*
X9636D01*
X9360D02*
Y12480D01*
Y12677D02*
Y12933D01*
X9636Y12224D02*
Y12480D01*
Y12677D02*
Y12933D01*
X8943D02*
X9219D01*
X8943Y12224D02*
X9219D01*
X8943D02*
Y12480D01*
Y12677D02*
Y12933D01*
X9219Y12224D02*
Y12480D01*
Y12677D02*
Y12933D01*
X4858Y11280D02*
Y11555D01*
X5567Y11280D02*
Y11555D01*
X5311Y11280D02*
X5567D01*
X4858D02*
X5114D01*
X5311Y11555D02*
X5567D01*
X4858D02*
X5114D01*
X3179Y10476D02*
X3455D01*
X3179Y9767D02*
X3455D01*
X3179D02*
Y10023D01*
Y10220D02*
Y10476D01*
X3455Y9767D02*
Y10023D01*
Y10220D02*
Y10476D01*
X4482Y10475D02*
X4757D01*
X4482Y9767D02*
X4757D01*
X4482D02*
Y10023D01*
Y10220D02*
Y10475D01*
X4757Y9767D02*
Y10023D01*
Y10220D02*
Y10475D01*
X5606Y10482D02*
X5881D01*
X5606Y9773D02*
X5881D01*
X5606D02*
Y10029D01*
Y10226D02*
Y10482D01*
X5881Y9773D02*
Y10029D01*
Y10226D02*
Y10482D01*
X10075Y9124D02*
Y9400D01*
X9366Y9124D02*
Y9400D01*
X9622D01*
X9819D02*
X10075D01*
X9366Y9124D02*
X9622D01*
X9819D02*
X10075D01*
X5020Y8584D02*
X5296D01*
X5020Y7876D02*
X5296D01*
X5020D02*
Y8132D01*
Y8329D02*
Y8584D01*
X5296Y7876D02*
Y8132D01*
Y8329D02*
Y8584D01*
X6420Y7876D02*
X6696D01*
X6420Y8585D02*
X6696D01*
Y8329D02*
Y8585D01*
Y7876D02*
Y8132D01*
X6420Y8329D02*
Y8585D01*
Y7876D02*
Y8132D01*
X8815Y8533D02*
Y8809D01*
X8106Y8533D02*
Y8809D01*
X8362D01*
X8559D02*
X8815D01*
X8106Y8533D02*
X8362D01*
X8559D02*
X8815D01*
X30931Y5706D02*
X31295D01*
X31492D02*
X31856D01*
X30931Y5313D02*
X31295D01*
X31492D02*
X31856D01*
Y5706D01*
X30931Y5313D02*
Y5706D01*
X30222Y5047D02*
Y5411D01*
Y4486D02*
Y4850D01*
X29829Y5047D02*
Y5411D01*
Y4486D02*
Y4850D01*
Y4486D02*
X30222D01*
X29829Y5411D02*
X30222D01*
X30931Y6828D02*
X31295D01*
X31492D02*
X31856D01*
X30931Y6435D02*
X31295D01*
X31492D02*
X31856D01*
Y6828D01*
X30931Y6435D02*
Y6828D01*
Y7301D02*
X31295D01*
X31492D02*
X31856D01*
X30931Y6907D02*
X31295D01*
X31492D02*
X31856D01*
Y7301D01*
X30931Y6907D02*
Y7301D01*
X30882Y9200D02*
X31246D01*
X31443D02*
X31807D01*
X30882Y8807D02*
X31246D01*
X31443D02*
X31807D01*
Y9200D01*
X30882Y8807D02*
Y9200D01*
X22018Y20128D02*
X22382D01*
X21457D02*
X21821D01*
X22018Y20522D02*
X22382D01*
X21457D02*
X21821D01*
X21457Y20128D02*
Y20522D01*
X22382Y20128D02*
Y20522D01*
X22293Y15600D02*
Y15876D01*
X21585Y15600D02*
Y15876D01*
X21841D01*
X22037D02*
X22293D01*
X21585Y15600D02*
X21841D01*
X22037D02*
X22293D01*
X21506D02*
Y15876D01*
X20797Y15600D02*
Y15876D01*
X21053D01*
X21250D02*
X21506D01*
X20797Y15600D02*
X21053D01*
X21250D02*
X21506D01*
X19370Y18760D02*
X19646D01*
X19370Y18051D02*
X19646D01*
X19370D02*
Y18307D01*
Y18504D02*
Y18760D01*
X19646Y18051D02*
Y18307D01*
Y18504D02*
Y18760D01*
X20709Y20000D02*
Y20364D01*
Y19439D02*
Y19803D01*
X20315Y20000D02*
Y20364D01*
Y19439D02*
Y19803D01*
Y19439D02*
X20709D01*
X20315Y20364D02*
X20709D01*
X20433Y17451D02*
Y17815D01*
Y18012D02*
Y18376D01*
X20827Y17451D02*
Y17815D01*
Y18012D02*
Y18376D01*
X20433D02*
X20827D01*
X20433Y17451D02*
X20827D01*
X5512Y17942D02*
Y18217D01*
X6221Y17942D02*
Y18217D01*
X5965Y17942D02*
X6221D01*
X5512D02*
X5768D01*
X5965Y18217D02*
X6221D01*
X5512D02*
X5768D01*
X5089Y18701D02*
X5364D01*
X5089Y19409D02*
X5364D01*
Y19154D02*
Y19409D01*
Y18701D02*
Y18957D01*
X5089Y19154D02*
Y19409D01*
Y18701D02*
Y18957D01*
X11348Y20138D02*
X11624D01*
X11348Y19429D02*
X11624D01*
X11348D02*
Y19685D01*
Y19882D02*
Y20138D01*
X11624Y19429D02*
Y19685D01*
Y19882D02*
Y20138D01*
X13789Y19429D02*
X14065D01*
X13789Y20138D02*
X14065D01*
Y19882D02*
Y20138D01*
Y19429D02*
Y19685D01*
X13789Y19882D02*
Y20138D01*
Y19429D02*
Y19685D01*
X22756Y18120D02*
X23032D01*
X22756Y17411D02*
X23032D01*
X22756D02*
Y17667D01*
Y17864D02*
Y18120D01*
X23032Y17411D02*
Y17667D01*
Y17864D02*
Y18120D01*
X27321Y12109D02*
Y12384D01*
X26613Y12109D02*
Y12384D01*
X26869D01*
X27065D02*
X27321D01*
X26613Y12109D02*
X26869D01*
X27065D02*
X27321D01*
X27028Y5394D02*
X27392D01*
X26467D02*
X26831D01*
X27028Y5787D02*
X27392D01*
X26467D02*
X26831D01*
X26467Y5394D02*
Y5787D01*
X27392Y5394D02*
Y5787D01*
X2616Y14831D02*
Y14697D01*
Y14764D01*
X3016D01*
X2949Y14831D01*
D17*
X15935Y5000D02*
Y5177D01*
X18455D01*
Y5000D02*
Y5177D01*
X18110Y15965D02*
Y16142D01*
X15591Y15965D02*
X18110D01*
X15591D02*
Y16142D01*
D18*
X7500Y19035D02*
Y19833D01*
X10453Y19035D02*
Y19833D01*
Y20551D02*
Y20974D01*
X7500Y20551D02*
Y20974D01*
X23248Y19035D02*
Y19833D01*
X26201Y19035D02*
Y19833D01*
Y20551D02*
Y20974D01*
X23248Y20551D02*
Y20974D01*
D19*
X7849Y200D02*
X8113D01*
Y332D01*
X8069Y376D01*
X7893D01*
X7849Y332D01*
Y200D01*
X8113Y640D02*
Y464D01*
X7937Y640D01*
X7893D01*
X7849Y596D01*
Y508D01*
X7893Y464D01*
X12849Y200D02*
X13113D01*
Y332D01*
X13069Y376D01*
X12893D01*
X12849Y332D01*
Y200D01*
Y464D02*
Y640D01*
X12893D01*
X13069Y464D01*
X13113D01*
X11849Y200D02*
X12113D01*
Y332D01*
X12069Y376D01*
X11893D01*
X11849Y332D01*
Y200D01*
Y640D02*
X11893Y552D01*
X11981Y464D01*
X12069D01*
X12113Y508D01*
Y596D01*
X12069Y640D01*
X12025D01*
X11981Y596D01*
Y464D01*
X10849Y200D02*
X11113D01*
Y332D01*
X11069Y376D01*
X10893D01*
X10849Y332D01*
Y200D01*
Y640D02*
Y464D01*
X10981D01*
X10937Y552D01*
Y596D01*
X10981Y640D01*
X11069D01*
X11113Y596D01*
Y508D01*
X11069Y464D01*
X14849Y200D02*
X15025D01*
X15113Y288D01*
X15025Y376D01*
X14849D01*
X14893Y640D02*
X14849Y596D01*
Y508D01*
X14893Y464D01*
X15069D01*
X15113Y508D01*
Y596D01*
X15069Y640D01*
X14893Y905D02*
X14849Y861D01*
Y773D01*
X14893Y729D01*
X15069D01*
X15113Y773D01*
Y861D01*
X15069Y905D01*
X9849Y200D02*
X10113D01*
Y332D01*
X10069Y376D01*
X9893D01*
X9849Y332D01*
Y200D01*
X10113Y596D02*
X9849D01*
X9981Y464D01*
Y640D01*
X13893Y376D02*
X13849Y332D01*
Y244D01*
X13893Y200D01*
X14069D01*
X14113Y244D01*
Y332D01*
X14069Y376D01*
X13981D01*
Y288D01*
X14113Y464D02*
X13849D01*
X14113Y640D01*
X13849D01*
Y729D02*
X14113D01*
Y861D01*
X14069Y905D01*
X13893D01*
X13849Y861D01*
Y729D01*
X5849Y200D02*
X6113D01*
Y332D01*
X6069Y376D01*
X5893D01*
X5849Y332D01*
Y200D01*
X5893Y464D02*
X5849Y508D01*
Y596D01*
X5893Y640D01*
X6069D01*
X6113Y596D01*
Y508D01*
X6069Y464D01*
X5893D01*
X6849Y200D02*
X7113D01*
Y332D01*
X7069Y376D01*
X6893D01*
X6849Y332D01*
Y200D01*
X7113Y464D02*
Y552D01*
Y508D01*
X6849D01*
X6893Y464D01*
X8849Y200D02*
X9113D01*
Y332D01*
X9069Y376D01*
X8893D01*
X8849Y332D01*
Y200D01*
X8893Y464D02*
X8849Y508D01*
Y596D01*
X8893Y640D01*
X8937D01*
X8981Y596D01*
Y552D01*
Y596D01*
X9025Y640D01*
X9069D01*
X9113Y596D01*
Y508D01*
X9069Y464D01*
D20*
X19130Y471D02*
X19092Y458D01*
X19067Y421D01*
X19055Y358D01*
Y320D01*
X19067Y257D01*
X19092Y219D01*
X19130Y206D01*
X19155D01*
X19193Y219D01*
X19218Y257D01*
X19231Y320D01*
Y358D01*
X19218Y421D01*
X19193Y458D01*
X19155Y471D01*
X19130D01*
X19366D02*
X19328Y458D01*
X19303Y421D01*
X19290Y358D01*
Y320D01*
X19303Y257D01*
X19328Y219D01*
X19366Y206D01*
X19391D01*
X19429Y219D01*
X19454Y257D01*
X19467Y320D01*
Y358D01*
X19454Y421D01*
X19429Y458D01*
X19391Y471D01*
X19366D01*
X19526Y421D02*
X19551Y433D01*
X19589Y471D01*
Y206D01*
X19871Y433D02*
X19858Y458D01*
X19820Y471D01*
X19795D01*
X19757Y458D01*
X19732Y421D01*
X19720Y358D01*
Y295D01*
X19732Y244D01*
X19757Y219D01*
X19795Y206D01*
X19808D01*
X19846Y219D01*
X19871Y244D01*
X19883Y282D01*
Y295D01*
X19871Y332D01*
X19846Y358D01*
X19808Y370D01*
X19795D01*
X19757Y358D01*
X19732Y332D01*
X19720Y295D01*
X19941Y471D02*
Y206D01*
X20118Y471D02*
Y206D01*
X19941Y345D02*
X20118D01*
X20392Y206D02*
X20292Y471D01*
X20191Y206D01*
X20229Y295D02*
X20355D01*
X20454Y471D02*
Y206D01*
Y471D02*
X20630Y206D01*
Y471D02*
Y206D01*
X20703Y471D02*
X20804Y345D01*
Y206D01*
X20905Y471D02*
X20804Y345D01*
X11114Y11746D02*
X11291D01*
X11202D01*
Y11482D01*
X11379D02*
Y11746D01*
X11511D01*
X11555Y11702D01*
Y11614D01*
X11511Y11570D01*
X11379D01*
X11776Y11482D02*
Y11746D01*
X11643Y11614D01*
X11820D01*
X11908Y11482D02*
X11996D01*
X11952D01*
Y11746D01*
X11908Y11702D01*
X10264Y10783D02*
X10441D01*
X10352D01*
Y10519D01*
X10529D02*
Y10783D01*
X10661D01*
X10705Y10739D01*
Y10651D01*
X10661Y10607D01*
X10529D01*
X10925Y10519D02*
Y10783D01*
X10793Y10651D01*
X10969D01*
X11058Y10739D02*
X11102Y10783D01*
X11190D01*
X11234Y10739D01*
Y10563D01*
X11190Y10519D01*
X11102D01*
X11058Y10563D01*
Y10739D01*
X12645Y15477D02*
X12821D01*
X12733D01*
Y15212D01*
X12910D02*
Y15477D01*
X13042D01*
X13086Y15433D01*
Y15344D01*
X13042Y15300D01*
X12910D01*
X13174Y15433D02*
X13218Y15477D01*
X13306D01*
X13350Y15433D01*
Y15389D01*
X13306Y15344D01*
X13262D01*
X13306D01*
X13350Y15300D01*
Y15256D01*
X13306Y15212D01*
X13218D01*
X13174Y15256D01*
X13438D02*
X13483Y15212D01*
X13571D01*
X13615Y15256D01*
Y15433D01*
X13571Y15477D01*
X13483D01*
X13438Y15433D01*
Y15389D01*
X13483Y15344D01*
X13615D01*
X15677Y15546D02*
X15853D01*
X15765D01*
Y15281D01*
X15941D02*
Y15546D01*
X16073D01*
X16117Y15502D01*
Y15413D01*
X16073Y15369D01*
X15941D01*
X16206Y15502D02*
X16250Y15546D01*
X16338D01*
X16382Y15502D01*
Y15457D01*
X16338Y15413D01*
X16294D01*
X16338D01*
X16382Y15369D01*
Y15325D01*
X16338Y15281D01*
X16250D01*
X16206Y15325D01*
X16470Y15502D02*
X16514Y15546D01*
X16602D01*
X16646Y15502D01*
Y15457D01*
X16602Y15413D01*
X16646Y15369D01*
Y15325D01*
X16602Y15281D01*
X16514D01*
X16470Y15325D01*
Y15369D01*
X16514Y15413D01*
X16470Y15457D01*
Y15502D01*
X16514Y15413D02*
X16602D01*
X14002Y16818D02*
Y16995D01*
Y16906D01*
X14266D01*
Y17083D02*
X14002D01*
Y17215D01*
X14046Y17259D01*
X14134D01*
X14178Y17215D01*
Y17083D01*
X14046Y17347D02*
X14002Y17391D01*
Y17479D01*
X14046Y17524D01*
X14090D01*
X14134Y17479D01*
Y17435D01*
Y17479D01*
X14178Y17524D01*
X14222D01*
X14266Y17479D01*
Y17391D01*
X14222Y17347D01*
X14002Y17612D02*
Y17788D01*
X14046D01*
X14222Y17612D01*
X14266D01*
X5276Y12019D02*
Y12195D01*
Y12107D01*
X5541D01*
Y12283D02*
X5276D01*
Y12415D01*
X5320Y12460D01*
X5409D01*
X5453Y12415D01*
Y12283D01*
X5320Y12548D02*
X5276Y12592D01*
Y12680D01*
X5320Y12724D01*
X5364D01*
X5409Y12680D01*
Y12636D01*
Y12680D01*
X5453Y12724D01*
X5497D01*
X5541Y12680D01*
Y12592D01*
X5497Y12548D01*
X5541Y12944D02*
X5276D01*
X5409Y12812D01*
Y12989D01*
X5776Y12949D02*
Y13125D01*
Y13037D01*
X6041D01*
Y13213D02*
X5776D01*
Y13345D01*
X5820Y13390D01*
X5909D01*
X5953Y13345D01*
Y13213D01*
X6041Y13654D02*
Y13478D01*
X5864Y13654D01*
X5820D01*
X5776Y13610D01*
Y13522D01*
X5820Y13478D01*
X5776Y13742D02*
Y13918D01*
X5820D01*
X5997Y13742D01*
X6041D01*
X5276Y13909D02*
Y14085D01*
Y13997D01*
X5541D01*
Y14173D02*
X5276D01*
Y14305D01*
X5320Y14350D01*
X5409D01*
X5453Y14305D01*
Y14173D01*
X5541Y14614D02*
Y14438D01*
X5364Y14614D01*
X5320D01*
X5276Y14570D01*
Y14482D01*
X5320Y14438D01*
X5276Y14878D02*
Y14702D01*
X5409D01*
X5364Y14790D01*
Y14834D01*
X5409Y14878D01*
X5497D01*
X5541Y14834D01*
Y14746D01*
X5497Y14702D01*
X5726Y6422D02*
X5902D01*
X5814D01*
Y6157D01*
X5990D02*
Y6422D01*
X6122D01*
X6167Y6378D01*
Y6289D01*
X6122Y6245D01*
X5990D01*
X6255Y6378D02*
X6299Y6422D01*
X6387D01*
X6431Y6378D01*
Y6333D01*
X6387Y6289D01*
X6343D01*
X6387D01*
X6431Y6245D01*
Y6201D01*
X6387Y6157D01*
X6299D01*
X6255Y6201D01*
X6696Y6422D02*
X6607Y6378D01*
X6519Y6289D01*
Y6201D01*
X6563Y6157D01*
X6651D01*
X6696Y6201D01*
Y6245D01*
X6651Y6289D01*
X6519D01*
X6917Y6422D02*
X7093D01*
X7005D01*
Y6157D01*
X7181D02*
Y6422D01*
X7313D01*
X7358Y6378D01*
Y6289D01*
X7313Y6245D01*
X7181D01*
X7446Y6378D02*
X7490Y6422D01*
X7578D01*
X7622Y6378D01*
Y6333D01*
X7578Y6289D01*
X7534D01*
X7578D01*
X7622Y6245D01*
Y6201D01*
X7578Y6157D01*
X7490D01*
X7446Y6201D01*
X7886Y6422D02*
X7710D01*
Y6289D01*
X7798Y6333D01*
X7842D01*
X7886Y6289D01*
Y6201D01*
X7842Y6157D01*
X7754D01*
X7710Y6201D01*
X13948Y6426D02*
X14124D01*
X14036D01*
Y6162D01*
X14212D02*
Y6426D01*
X14344D01*
X14388Y6382D01*
Y6294D01*
X14344Y6250D01*
X14212D01*
X14476Y6162D02*
X14565D01*
X14521D01*
Y6426D01*
X14476Y6382D01*
X14697Y6162D02*
X14785D01*
X14741D01*
Y6426D01*
X14697Y6382D01*
X10508Y17720D02*
X10684D01*
X10596D01*
Y17456D01*
X10772D02*
Y17720D01*
X10904D01*
X10948Y17676D01*
Y17588D01*
X10904Y17544D01*
X10772D01*
X11036Y17500D02*
X11081Y17456D01*
X11169D01*
X11213Y17500D01*
Y17676D01*
X11169Y17720D01*
X11081D01*
X11036Y17676D01*
Y17632D01*
X11081Y17588D01*
X11213D01*
X25468Y18677D02*
X25644D01*
X25556D01*
Y18412D01*
X25732D02*
Y18677D01*
X25864D01*
X25908Y18632D01*
Y18544D01*
X25864Y18500D01*
X25732D01*
X25996Y18632D02*
X26041Y18677D01*
X26129D01*
X26173Y18632D01*
Y18588D01*
X26129Y18544D01*
X26173Y18500D01*
Y18456D01*
X26129Y18412D01*
X26041D01*
X25996Y18456D01*
Y18500D01*
X26041Y18544D01*
X25996Y18588D01*
Y18632D01*
X26041Y18544D02*
X26129D01*
X25459Y4698D02*
Y4874D01*
Y4786D01*
X25723D01*
Y4962D02*
X25459D01*
Y5094D01*
X25503Y5138D01*
X25591D01*
X25635Y5094D01*
Y4962D01*
X25459Y5227D02*
Y5403D01*
X25503D01*
X25679Y5227D01*
X25723D01*
X24459Y4698D02*
Y4874D01*
Y4786D01*
X24723D01*
Y4962D02*
X24459D01*
Y5094D01*
X24503Y5138D01*
X24591D01*
X24635Y5094D01*
Y4962D01*
X24459Y5403D02*
X24503Y5315D01*
X24591Y5227D01*
X24679D01*
X24723Y5271D01*
Y5359D01*
X24679Y5403D01*
X24635D01*
X24591Y5359D01*
Y5227D01*
X19408Y14640D02*
X19584D01*
X19496D01*
Y14376D01*
X19672D02*
Y14640D01*
X19804D01*
X19848Y14596D01*
Y14508D01*
X19804Y14464D01*
X19672D01*
X20113Y14376D02*
X19936D01*
X20113Y14552D01*
Y14596D01*
X20069Y14640D01*
X19981D01*
X19936Y14596D01*
X20201D02*
X20245Y14640D01*
X20333D01*
X20377Y14596D01*
Y14552D01*
X20333Y14508D01*
X20377Y14464D01*
Y14420D01*
X20333Y14376D01*
X20245D01*
X20201Y14420D01*
Y14464D01*
X20245Y14508D01*
X20201Y14552D01*
Y14596D01*
X20245Y14508D02*
X20333D01*
X20498Y14640D02*
X20674D01*
X20586D01*
Y14376D01*
X20762D02*
Y14640D01*
X20894D01*
X20938Y14596D01*
Y14508D01*
X20894Y14464D01*
X20762D01*
X21026Y14376D02*
X21115D01*
X21071D01*
Y14640D01*
X21026Y14596D01*
X21423Y14640D02*
X21335Y14596D01*
X21247Y14508D01*
Y14420D01*
X21291Y14376D01*
X21379D01*
X21423Y14420D01*
Y14464D01*
X21379Y14508D01*
X21247D01*
X10264Y8283D02*
X10441D01*
X10353D01*
Y8019D01*
X10529D02*
Y8283D01*
X10661D01*
X10705Y8239D01*
Y8151D01*
X10661Y8107D01*
X10529D01*
X10970Y8019D02*
X10793D01*
X10970Y8195D01*
Y8239D01*
X10926Y8283D01*
X10837D01*
X10793Y8239D01*
X11234Y8283D02*
X11146Y8239D01*
X11058Y8151D01*
Y8063D01*
X11102Y8019D01*
X11190D01*
X11234Y8063D01*
Y8107D01*
X11190Y8151D01*
X11058D01*
X18368Y14640D02*
X18544D01*
X18456D01*
Y14376D01*
X18632D02*
Y14640D01*
X18764D01*
X18808Y14596D01*
Y14508D01*
X18764Y14464D01*
X18632D01*
X18896Y14376D02*
X18985D01*
X18941D01*
Y14640D01*
X18896Y14596D01*
X19293Y14640D02*
X19117D01*
Y14508D01*
X19205Y14552D01*
X19249D01*
X19293Y14508D01*
Y14420D01*
X19249Y14376D01*
X19161D01*
X19117Y14420D01*
X10254Y8783D02*
X10431D01*
X10343D01*
Y8519D01*
X10519D02*
Y8783D01*
X10651D01*
X10695Y8739D01*
Y8651D01*
X10651Y8607D01*
X10519D01*
X10783Y8739D02*
X10827Y8783D01*
X10916D01*
X10960Y8739D01*
Y8695D01*
X10916Y8651D01*
X10871D01*
X10916D01*
X10960Y8607D01*
Y8563D01*
X10916Y8519D01*
X10827D01*
X10783Y8563D01*
X11048Y8739D02*
X11092Y8783D01*
X11180D01*
X11224Y8739D01*
Y8563D01*
X11180Y8519D01*
X11092D01*
X11048Y8563D01*
Y8739D01*
X23268Y16307D02*
X23444D01*
X23356D01*
Y16042D01*
X23532D02*
Y16307D01*
X23664D01*
X23708Y16262D01*
Y16174D01*
X23664Y16130D01*
X23532D01*
X23796Y16042D02*
X23885D01*
X23841D01*
Y16307D01*
X23796Y16262D01*
X24045Y6957D02*
X24222D01*
X24133D01*
Y6693D01*
X24310D02*
Y6957D01*
X24442D01*
X24486Y6913D01*
Y6825D01*
X24442Y6781D01*
X24310D01*
X24751Y6693D02*
X24574D01*
X24751Y6869D01*
Y6913D01*
X24706Y6957D01*
X24618D01*
X24574Y6913D01*
X25158Y16757D02*
X25334D01*
X25246D01*
Y16492D01*
X25422D02*
Y16757D01*
X25554D01*
X25598Y16712D01*
Y16624D01*
X25554Y16580D01*
X25422D01*
X25686Y16712D02*
X25731Y16757D01*
X25819D01*
X25863Y16712D01*
Y16668D01*
X25819Y16624D01*
X25775D01*
X25819D01*
X25863Y16580D01*
Y16536D01*
X25819Y16492D01*
X25731D01*
X25686Y16536D01*
X27448Y16757D02*
X27624D01*
X27536D01*
Y16492D01*
X27712D02*
Y16757D01*
X27844D01*
X27888Y16712D01*
Y16624D01*
X27844Y16580D01*
X27712D01*
X28109Y16492D02*
Y16757D01*
X27976Y16624D01*
X28153D01*
X26457Y6957D02*
X26633D01*
X26545D01*
Y6693D01*
X26721D02*
Y6957D01*
X26853D01*
X26897Y6913D01*
Y6825D01*
X26853Y6781D01*
X26721D01*
X27162Y6957D02*
X26986D01*
Y6825D01*
X27074Y6869D01*
X27118D01*
X27162Y6825D01*
Y6737D01*
X27118Y6693D01*
X27030D01*
X26986Y6737D01*
X23108Y14620D02*
X23284D01*
X23196D01*
Y14356D01*
X23372D02*
Y14620D01*
X23504D01*
X23548Y14576D01*
Y14488D01*
X23504Y14444D01*
X23372D01*
X23636Y14356D02*
X23725D01*
X23681D01*
Y14620D01*
X23636Y14576D01*
X23857D02*
X23901Y14620D01*
X23989D01*
X24033Y14576D01*
Y14400D01*
X23989Y14356D01*
X23901D01*
X23857Y14400D01*
Y14576D01*
X30395Y9833D02*
X30571D01*
X30483D01*
Y9569D01*
X30659D02*
Y9833D01*
X30791D01*
X30835Y9789D01*
Y9701D01*
X30791Y9657D01*
X30659D01*
X30923Y9569D02*
X31012D01*
X30968D01*
Y9833D01*
X30923Y9789D01*
X31320Y9569D02*
X31144D01*
X31320Y9745D01*
Y9789D01*
X31276Y9833D01*
X31188D01*
X31144Y9789D01*
X9228Y16280D02*
X9404D01*
X9316D01*
Y16016D01*
X9492D02*
Y16280D01*
X9624D01*
X9668Y16236D01*
Y16148D01*
X9624Y16104D01*
X9492D01*
X9756Y16016D02*
X9845D01*
X9801D01*
Y16280D01*
X9756Y16236D01*
X9977D02*
X10021Y16280D01*
X10109D01*
X10153Y16236D01*
Y16192D01*
X10109Y16148D01*
X10065D01*
X10109D01*
X10153Y16104D01*
Y16060D01*
X10109Y16016D01*
X10021D01*
X9977Y16060D01*
X8048Y16280D02*
X8224D01*
X8136D01*
Y16016D01*
X8312D02*
Y16280D01*
X8444D01*
X8488Y16236D01*
Y16148D01*
X8444Y16104D01*
X8312D01*
X8576Y16016D02*
X8665D01*
X8621D01*
Y16280D01*
X8576Y16236D01*
X8929Y16016D02*
Y16280D01*
X8797Y16148D01*
X8973D01*
X21678Y14640D02*
X21854D01*
X21766D01*
Y14376D01*
X21942D02*
Y14640D01*
X22074D01*
X22118Y14596D01*
Y14508D01*
X22074Y14464D01*
X21942D01*
X22206Y14376D02*
X22295D01*
X22251D01*
Y14640D01*
X22206Y14596D01*
X22427Y14640D02*
X22603D01*
Y14596D01*
X22427Y14420D01*
Y14376D01*
X18869Y19537D02*
Y19714D01*
Y19626D01*
X19134D01*
Y19802D02*
X18869D01*
Y19934D01*
X18913Y19978D01*
X19002D01*
X19046Y19934D01*
Y19802D01*
X19134Y20066D02*
Y20155D01*
Y20110D01*
X18869D01*
X18913Y20066D01*
Y20287D02*
X18869Y20331D01*
Y20419D01*
X18913Y20463D01*
X18958D01*
X19002Y20419D01*
X19046Y20463D01*
X19090D01*
X19134Y20419D01*
Y20331D01*
X19090Y20287D01*
X19046D01*
X19002Y20331D01*
X18958Y20287D01*
X18913D01*
X19002Y20331D02*
Y20419D01*
X32020Y6203D02*
X32197D01*
X32109D01*
Y5939D01*
X32285D02*
Y6203D01*
X32417D01*
X32461Y6159D01*
Y6071D01*
X32417Y6027D01*
X32285D01*
X32549Y5939D02*
X32638D01*
X32594D01*
Y6203D01*
X32549Y6159D01*
X32770Y5983D02*
X32814Y5939D01*
X32902D01*
X32946Y5983D01*
Y6159D01*
X32902Y6203D01*
X32814D01*
X32770Y6159D01*
Y6115D01*
X32814Y6071D01*
X32946D01*
X27954Y4813D02*
X28131D01*
X28043D01*
Y4549D01*
X28219D02*
Y4813D01*
X28351D01*
X28395Y4769D01*
Y4681D01*
X28351Y4637D01*
X28219D01*
X28660Y4549D02*
X28483D01*
X28660Y4725D01*
Y4769D01*
X28616Y4813D01*
X28527D01*
X28483Y4769D01*
X28748D02*
X28792Y4813D01*
X28880D01*
X28924Y4769D01*
Y4593D01*
X28880Y4549D01*
X28792D01*
X28748Y4593D01*
Y4769D01*
X26427Y18906D02*
X26603D01*
X26515D01*
Y18642D01*
X26692D02*
Y18906D01*
X26824D01*
X26868Y18862D01*
Y18774D01*
X26824Y18730D01*
X26692D01*
X27132Y18642D02*
X26956D01*
X27132Y18818D01*
Y18862D01*
X27088Y18906D01*
X27000D01*
X26956Y18862D01*
X27221Y18642D02*
X27309D01*
X27265D01*
Y18906D01*
X27221Y18862D01*
X28898Y19977D02*
X29074D01*
X28986D01*
Y19712D01*
X29162D02*
Y19977D01*
X29294D01*
X29338Y19932D01*
Y19844D01*
X29294Y19800D01*
X29162D01*
X29603Y19712D02*
X29426D01*
X29603Y19888D01*
Y19932D01*
X29559Y19977D01*
X29471D01*
X29426Y19932D01*
X29867Y19712D02*
X29691D01*
X29867Y19888D01*
Y19932D01*
X29823Y19977D01*
X29735D01*
X29691Y19932D01*
X28074Y3933D02*
X28251D01*
X28163D01*
Y3669D01*
X28339D02*
Y3933D01*
X28471D01*
X28515Y3889D01*
Y3801D01*
X28471Y3757D01*
X28339D01*
X28780Y3669D02*
X28603D01*
X28780Y3845D01*
Y3889D01*
X28736Y3933D01*
X28647D01*
X28603Y3889D01*
X28868D02*
X28912Y3933D01*
X29000D01*
X29044Y3889D01*
Y3845D01*
X29000Y3801D01*
X28956D01*
X29000D01*
X29044Y3757D01*
Y3713D01*
X29000Y3669D01*
X28912D01*
X28868Y3713D01*
X28584Y6913D02*
X28761D01*
X28673D01*
Y6649D01*
X28849D02*
Y6913D01*
X28981D01*
X29025Y6869D01*
Y6781D01*
X28981Y6737D01*
X28849D01*
X29290Y6649D02*
X29113D01*
X29290Y6825D01*
Y6869D01*
X29246Y6913D01*
X29157D01*
X29113Y6869D01*
X29510Y6649D02*
Y6913D01*
X29378Y6781D01*
X29554D01*
X30355Y11013D02*
X30531D01*
X30443D01*
Y10749D01*
X30619D02*
Y11013D01*
X30751D01*
X30795Y10969D01*
Y10881D01*
X30751Y10837D01*
X30619D01*
X31060Y10749D02*
X30883D01*
X31060Y10925D01*
Y10969D01*
X31016Y11013D01*
X30928D01*
X30883Y10969D01*
X31148Y10793D02*
X31192Y10749D01*
X31280D01*
X31324Y10793D01*
Y10969D01*
X31280Y11013D01*
X31192D01*
X31148Y10969D01*
Y10925D01*
X31192Y10881D01*
X31324D01*
X10344Y9283D02*
X10521D01*
X10433D01*
Y9019D01*
X10609D02*
Y9283D01*
X10741D01*
X10785Y9239D01*
Y9151D01*
X10741Y9107D01*
X10609D01*
X10873Y9239D02*
X10917Y9283D01*
X11006D01*
X11050Y9239D01*
Y9195D01*
X11006Y9151D01*
X10961D01*
X11006D01*
X11050Y9107D01*
Y9063D01*
X11006Y9019D01*
X10917D01*
X10873Y9063D01*
X11138Y9019D02*
X11226D01*
X11182D01*
Y9283D01*
X11138Y9239D01*
X10254Y9783D02*
X10431D01*
X10343D01*
Y9519D01*
X10519D02*
Y9783D01*
X10651D01*
X10695Y9739D01*
Y9651D01*
X10651Y9607D01*
X10519D01*
X10783Y9739D02*
X10827Y9783D01*
X10916D01*
X10960Y9739D01*
Y9695D01*
X10916Y9651D01*
X10871D01*
X10916D01*
X10960Y9607D01*
Y9563D01*
X10916Y9519D01*
X10827D01*
X10783Y9563D01*
X11224Y9519D02*
X11048D01*
X11224Y9695D01*
Y9739D01*
X11180Y9783D01*
X11092D01*
X11048Y9739D01*
X10254Y10283D02*
X10431D01*
X10343D01*
Y10019D01*
X10519D02*
Y10283D01*
X10651D01*
X10695Y10239D01*
Y10151D01*
X10651Y10107D01*
X10519D01*
X10783Y10239D02*
X10827Y10283D01*
X10916D01*
X10960Y10239D01*
Y10195D01*
X10916Y10151D01*
X10871D01*
X10916D01*
X10960Y10107D01*
Y10063D01*
X10916Y10019D01*
X10827D01*
X10783Y10063D01*
X11048Y10239D02*
X11092Y10283D01*
X11180D01*
X11224Y10239D01*
Y10195D01*
X11180Y10151D01*
X11136D01*
X11180D01*
X11224Y10107D01*
Y10063D01*
X11180Y10019D01*
X11092D01*
X11048Y10063D01*
D21*
X8976Y20905D02*
D03*
X24724D02*
D03*
D22*
X16855Y1384D02*
D03*
M02*
