G04*
G04 #@! TF.GenerationSoftware,Altium Limited,Altium Designer,20.1.14 (287)*
G04*
G04 Layer_Color=8388736*
%FSLAX24Y24*%
%MOIN*%
G70*
G04*
G04 #@! TF.SameCoordinates,36825D0D-408E-4E44-9134-4F5201A7400A*
G04*
G04*
G04 #@! TF.FilePolarity,Negative*
G04*
G01*
G75*
%ADD80C,0.0240*%
%ADD81C,0.0323*%
%ADD82C,0.0126*%
%ADD83C,0.0638*%
%ADD84R,0.0547X0.1299*%
%ADD85R,0.0157X0.0146*%
%ADD86R,0.0165X0.0154*%
%ADD87R,0.0244X0.0323*%
%ADD88R,0.0154X0.0165*%
%ADD89R,0.0146X0.0157*%
%ADD90R,0.0323X0.0244*%
%ADD91R,0.0846X0.0346*%
%ADD92R,0.0264X0.0618*%
%ADD93R,0.0264X0.0618*%
%ADD94R,0.0201X0.0211*%
%ADD95R,0.0417X0.0496*%
%ADD96R,0.0232X0.0358*%
%ADD97O,0.0402X0.0146*%
%ADD98R,0.0618X0.0732*%
%ADD99R,0.0305X0.0165*%
%ADD100R,0.0437X0.0677*%
%ADD101R,0.0165X0.0305*%
%ADD102R,0.0677X0.0437*%
%ADD103O,0.0362X0.0146*%
%ADD104O,0.0146X0.0362*%
%ADD105R,0.1110X0.1110*%
%ADD106R,0.0244X0.0185*%
%ADD107R,0.0441X0.0283*%
%ADD108R,0.0185X0.0244*%
%ADD109R,0.0283X0.0441*%
%ADD110O,0.0146X0.0323*%
%ADD111R,0.0787X0.0787*%
%ADD112R,0.0441X0.0677*%
%ADD113R,0.0244X0.0283*%
%ADD114R,0.0421X0.0382*%
%ADD115R,0.1949X0.1949*%
%ADD116C,0.0148*%
%ADD117R,0.1189X0.0441*%
%ADD118O,0.0323X0.0146*%
%ADD119R,0.0402X0.0146*%
%ADD120R,0.0634X0.0976*%
%ADD121C,0.0130*%
%ADD122O,0.0165X0.0421*%
%ADD123O,0.0421X0.0165*%
%ADD124R,0.0972X0.0972*%
%ADD125R,0.0972X0.0972*%
%ADD126R,0.0276X0.0256*%
%ADD127R,0.0256X0.0276*%
%ADD128R,0.0500X0.0579*%
%ADD129R,0.0465X0.0669*%
%ADD130R,0.0283X0.0906*%
%ADD131R,0.0303X0.0244*%
%ADD132R,0.1110X0.0362*%
%ADD133R,0.0776X0.0303*%
%ADD134R,0.0303X0.0776*%
%ADD135R,0.0217X0.0591*%
%ADD136R,0.0795X0.0657*%
%ADD137R,0.0677X0.0598*%
%ADD138R,0.0382X0.0441*%
%ADD139R,0.0382X0.0283*%
%ADD140R,0.0283X0.0244*%
%ADD141R,0.0343X0.0362*%
%ADD142R,0.0362X0.0343*%
%ADD143C,0.0165*%
%ADD144C,0.0748*%
%ADD145C,0.0449*%
%ADD146C,0.1969*%
%ADD147C,0.0354*%
%ADD148O,0.0402X0.0677*%
D80*
X15608Y5689D02*
G03*
X15608Y5689I-110J0D01*
G01*
D81*
X27628Y18771D02*
D03*
X15364Y15413D02*
D03*
X14053Y15612D02*
D03*
X14134Y16398D02*
D03*
X11555Y11154D02*
D03*
Y10654D02*
D03*
X19518Y20423D02*
D03*
X25089Y6823D02*
D03*
X26102D02*
D03*
X29380Y3799D02*
D03*
X29888Y6783D02*
D03*
X31679Y6070D02*
D03*
X29380Y19390D02*
D03*
X27805Y16171D02*
D03*
X25510Y16174D02*
D03*
X23573Y15721D02*
D03*
Y14961D02*
D03*
X11565Y8150D02*
D03*
X11555Y8654D02*
D03*
Y9154D02*
D03*
Y9654D02*
D03*
Y10154D02*
D03*
D82*
X15374Y5689D02*
D03*
X15620D02*
D03*
D83*
X31787Y10883D02*
D03*
Y9702D02*
D03*
X26089Y5600D02*
D03*
X25089D02*
D03*
X29380Y4685D02*
D03*
X25817Y17963D02*
D03*
X18834Y15108D02*
D03*
X19897D02*
D03*
X20960D02*
D03*
X22136D02*
D03*
X10865Y18188D02*
D03*
X8514Y16748D02*
D03*
X9695D02*
D03*
X4833Y12500D02*
D03*
Y14390D02*
D03*
X5325Y13435D02*
D03*
X6366Y5689D02*
D03*
X7366D02*
D03*
X14366D02*
D03*
D84*
X7366Y4587D02*
D03*
X6366D02*
D03*
X8366D02*
D03*
X9366D02*
D03*
X10366D02*
D03*
X15366D02*
D03*
X14366D02*
D03*
X13366D02*
D03*
X11366D02*
D03*
X12366D02*
D03*
X27091D02*
D03*
X26091D02*
D03*
X24091D02*
D03*
X25091D02*
D03*
D85*
X19449Y17864D02*
D03*
Y17640D02*
D03*
X22520Y16307D02*
D03*
Y16083D02*
D03*
X30325Y18007D02*
D03*
Y18232D02*
D03*
X30104Y7974D02*
D03*
Y7750D02*
D03*
X7352Y17270D02*
D03*
Y17494D02*
D03*
X10236Y18173D02*
D03*
Y17949D02*
D03*
X9951Y18173D02*
D03*
Y17949D02*
D03*
X6344Y12467D02*
D03*
Y12691D02*
D03*
X7437Y12457D02*
D03*
Y12681D02*
D03*
X7028Y20425D02*
D03*
Y20650D02*
D03*
X26673Y19945D02*
D03*
Y19720D02*
D03*
X20108Y19701D02*
D03*
Y19925D02*
D03*
X12096Y6003D02*
D03*
Y6227D02*
D03*
Y6684D02*
D03*
Y6459D02*
D03*
D86*
X19734Y17864D02*
D03*
Y17640D02*
D03*
X20266Y18063D02*
D03*
Y18287D02*
D03*
X20010Y18287D02*
D03*
Y18063D02*
D03*
X22254Y16083D02*
D03*
Y16307D02*
D03*
X22520Y16752D02*
D03*
Y16528D02*
D03*
X22254D02*
D03*
Y16752D02*
D03*
X23955Y8936D02*
D03*
Y8712D02*
D03*
X30325Y17559D02*
D03*
Y17783D02*
D03*
X28051Y17392D02*
D03*
Y17616D02*
D03*
Y18041D02*
D03*
Y17817D02*
D03*
X30104Y8188D02*
D03*
Y8413D02*
D03*
X30105Y8626D02*
D03*
Y8850D02*
D03*
X26347Y7380D02*
D03*
Y7156D02*
D03*
X28091Y6227D02*
D03*
Y6003D02*
D03*
Y5594D02*
D03*
Y5370D02*
D03*
X27778Y5594D02*
D03*
Y5370D02*
D03*
Y6227D02*
D03*
Y6003D02*
D03*
X26347Y8542D02*
D03*
Y8317D02*
D03*
Y9707D02*
D03*
Y9482D02*
D03*
Y10871D02*
D03*
Y10647D02*
D03*
X23955Y11234D02*
D03*
Y11010D02*
D03*
X24644Y12825D02*
D03*
Y13050D02*
D03*
X26121Y12825D02*
D03*
Y13050D02*
D03*
X23543Y6866D02*
D03*
Y7091D02*
D03*
X23307D02*
D03*
Y6866D02*
D03*
X23071Y7091D02*
D03*
Y6866D02*
D03*
X22652Y8997D02*
D03*
Y9221D02*
D03*
Y11305D02*
D03*
Y11530D02*
D03*
X9636Y6467D02*
D03*
Y6242D02*
D03*
X8120Y7118D02*
D03*
Y7343D02*
D03*
X6206Y16208D02*
D03*
Y15984D02*
D03*
X7028Y19963D02*
D03*
Y20187D02*
D03*
X26673Y20407D02*
D03*
Y20183D02*
D03*
X19843Y19701D02*
D03*
Y19925D02*
D03*
X19498Y19701D02*
D03*
Y19925D02*
D03*
X15022Y14996D02*
D03*
Y15220D02*
D03*
X14780Y14996D02*
D03*
Y15220D02*
D03*
X14537Y14996D02*
D03*
Y15220D02*
D03*
X14295Y14996D02*
D03*
Y15220D02*
D03*
X14053Y14996D02*
D03*
Y15220D02*
D03*
X13811Y14996D02*
D03*
Y15220D02*
D03*
D87*
X21132Y17480D02*
D03*
X21447D02*
D03*
D88*
X23457Y17303D02*
D03*
X23232D02*
D03*
X23691D02*
D03*
X23915D02*
D03*
X25437Y17313D02*
D03*
X25213D02*
D03*
X25665D02*
D03*
X25890D02*
D03*
X26362Y16174D02*
D03*
X26138D02*
D03*
X25506Y15416D02*
D03*
X25731D02*
D03*
X24583Y15947D02*
D03*
X24807D02*
D03*
X24583Y16174D02*
D03*
X24807D02*
D03*
X29807Y19005D02*
D03*
X29583D02*
D03*
X28707D02*
D03*
X28932D02*
D03*
X28596Y15396D02*
D03*
X28372D02*
D03*
X28823Y15901D02*
D03*
X28598D02*
D03*
X28823Y16154D02*
D03*
X28598D02*
D03*
X29287Y15396D02*
D03*
X29512D02*
D03*
X29512Y15901D02*
D03*
X29287D02*
D03*
X29287Y16154D02*
D03*
X29512D02*
D03*
X30301Y14983D02*
D03*
X30526D02*
D03*
X30301Y13506D02*
D03*
X30526D02*
D03*
X29764Y13132D02*
D03*
X29988D02*
D03*
X29287Y12601D02*
D03*
X29512D02*
D03*
X29287Y12867D02*
D03*
X29512D02*
D03*
X28823Y12601D02*
D03*
X28598D02*
D03*
X28598Y12867D02*
D03*
X28823D02*
D03*
X26550Y14366D02*
D03*
X26774D02*
D03*
X26550Y14615D02*
D03*
X26774D02*
D03*
X26550Y14865D02*
D03*
X26774D02*
D03*
X28033Y14628D02*
D03*
X27809D02*
D03*
X28026Y13861D02*
D03*
X27801D02*
D03*
X28136Y13132D02*
D03*
X28360D02*
D03*
X32073Y4715D02*
D03*
X32297D02*
D03*
X32297Y4956D02*
D03*
X32073D02*
D03*
X29907Y3799D02*
D03*
X30132D02*
D03*
X30132Y4031D02*
D03*
X29907D02*
D03*
X29907Y4262D02*
D03*
X30132D02*
D03*
X30287Y6783D02*
D03*
X30512D02*
D03*
X30512Y7015D02*
D03*
X30287D02*
D03*
X30287Y7248D02*
D03*
X30512D02*
D03*
X27703Y11306D02*
D03*
X27927D02*
D03*
X27703Y8996D02*
D03*
X27927D02*
D03*
X27703Y7658D02*
D03*
X27927D02*
D03*
X27703Y9987D02*
D03*
X27927D02*
D03*
X25276Y12781D02*
D03*
X25500D02*
D03*
X25516Y13044D02*
D03*
X25741D02*
D03*
X25258D02*
D03*
X25034D02*
D03*
X24188Y10390D02*
D03*
X24412D02*
D03*
X14809Y17087D02*
D03*
X15033D02*
D03*
X13451Y17057D02*
D03*
X13675D02*
D03*
X13498Y20246D02*
D03*
X13274D02*
D03*
X11935Y18691D02*
D03*
X12159D02*
D03*
X11935Y18937D02*
D03*
X12159D02*
D03*
X13274Y18691D02*
D03*
X13498D02*
D03*
X13498Y18937D02*
D03*
X13274D02*
D03*
X12183Y8654D02*
D03*
X11959D02*
D03*
X12183Y9154D02*
D03*
X11959D02*
D03*
X12183Y9654D02*
D03*
X11959D02*
D03*
X12183Y10154D02*
D03*
X11959D02*
D03*
X12183Y10654D02*
D03*
X11959D02*
D03*
X12183Y11154D02*
D03*
X11959D02*
D03*
X10665D02*
D03*
X10890D02*
D03*
X14778Y15738D02*
D03*
X14553D02*
D03*
X13215Y15709D02*
D03*
X13439D02*
D03*
D89*
X25731Y15721D02*
D03*
X25506D02*
D03*
X25054D02*
D03*
X25278D02*
D03*
X26138Y15923D02*
D03*
X26362D02*
D03*
X24268Y14117D02*
D03*
X24044D02*
D03*
X24807Y15721D02*
D03*
X24583D02*
D03*
X24411Y5591D02*
D03*
X24636D02*
D03*
X29049Y15396D02*
D03*
X28825D02*
D03*
X28823Y15649D02*
D03*
X28598D02*
D03*
X29287D02*
D03*
X29512D02*
D03*
X29287Y13132D02*
D03*
X29512D02*
D03*
X28823D02*
D03*
X28598D02*
D03*
X26774Y14117D02*
D03*
X26550D02*
D03*
X26817Y5955D02*
D03*
X27041D02*
D03*
X24187Y12286D02*
D03*
X24412D02*
D03*
X24993Y12286D02*
D03*
X24768D02*
D03*
X25012Y11489D02*
D03*
X24788D02*
D03*
X25012Y10324D02*
D03*
X24788D02*
D03*
X25012Y9156D02*
D03*
X24788D02*
D03*
X25012Y7995D02*
D03*
X24788D02*
D03*
X5581Y9085D02*
D03*
X5356D02*
D03*
X6644Y8878D02*
D03*
X6419D02*
D03*
X9628Y9596D02*
D03*
X9852D02*
D03*
D90*
X22126Y19213D02*
D03*
Y19528D02*
D03*
D91*
X2787Y12882D02*
D03*
X3988Y14382D02*
D03*
Y13882D02*
D03*
Y13382D02*
D03*
Y12882D02*
D03*
Y12382D02*
D03*
X2787Y14382D02*
D03*
Y13882D02*
D03*
Y13382D02*
D03*
Y12382D02*
D03*
D92*
X6604Y16545D02*
D03*
X7352D02*
D03*
Y15699D02*
D03*
X6978D02*
D03*
D93*
X6604Y15699D02*
D03*
D94*
X25510Y7376D02*
D03*
X25766D02*
D03*
X26022D02*
D03*
Y8121D02*
D03*
X25766D02*
D03*
X25510D02*
D03*
X12982Y19215D02*
D03*
X13238D02*
D03*
X13494D02*
D03*
Y19959D02*
D03*
X13238D02*
D03*
X12982D02*
D03*
X12451Y19959D02*
D03*
X12195D02*
D03*
X11939D02*
D03*
Y19215D02*
D03*
X12195D02*
D03*
X12451D02*
D03*
X24360Y17591D02*
D03*
X24616D02*
D03*
X24872D02*
D03*
Y18335D02*
D03*
X24616D02*
D03*
X24360D02*
D03*
X23829Y17591D02*
D03*
X23573D02*
D03*
X23317D02*
D03*
Y18335D02*
D03*
X23573D02*
D03*
X23829D02*
D03*
X25510Y9282D02*
D03*
X25766D02*
D03*
X26022D02*
D03*
Y8538D02*
D03*
X25766D02*
D03*
X25510D02*
D03*
Y10447D02*
D03*
X25766D02*
D03*
X26022D02*
D03*
Y9703D02*
D03*
X25766D02*
D03*
X25510D02*
D03*
Y11611D02*
D03*
X25766D02*
D03*
X26022D02*
D03*
Y10867D02*
D03*
X25766D02*
D03*
X25510D02*
D03*
D95*
X25638Y7749D02*
D03*
X13110Y19587D02*
D03*
X12323D02*
D03*
X24488Y17963D02*
D03*
X23701D02*
D03*
X25638Y8910D02*
D03*
Y10075D02*
D03*
Y11239D02*
D03*
D96*
X26042Y7749D02*
D03*
X13514Y19587D02*
D03*
X11919D02*
D03*
X24892Y17963D02*
D03*
X23297D02*
D03*
X26042Y8910D02*
D03*
Y10075D02*
D03*
Y11239D02*
D03*
D97*
X31608Y4269D02*
D03*
Y4466D02*
D03*
Y4663D02*
D03*
Y4860D02*
D03*
X30510Y4269D02*
D03*
Y4466D02*
D03*
Y4663D02*
D03*
Y4860D02*
D03*
D98*
X31059Y4564D02*
D03*
D99*
X21927Y16155D02*
D03*
Y16411D02*
D03*
Y16667D02*
D03*
X21157Y16155D02*
D03*
Y16411D02*
D03*
Y16667D02*
D03*
D100*
X21542Y16411D02*
D03*
D101*
X5610Y18473D02*
D03*
X5866D02*
D03*
X6122D02*
D03*
X5610Y19243D02*
D03*
X5866D02*
D03*
X6122D02*
D03*
D102*
X5866Y18858D02*
D03*
D103*
X28415Y18209D02*
D03*
Y18012D02*
D03*
Y17815D02*
D03*
Y17618D02*
D03*
Y17421D02*
D03*
X29951D02*
D03*
Y17618D02*
D03*
Y17815D02*
D03*
Y18012D02*
D03*
Y18209D02*
D03*
D104*
X28789Y17047D02*
D03*
X28986D02*
D03*
X29183D02*
D03*
X29380D02*
D03*
X29577D02*
D03*
Y18583D02*
D03*
X29380D02*
D03*
X29183D02*
D03*
X28986D02*
D03*
X28789D02*
D03*
D105*
X29183Y17815D02*
D03*
D106*
X22949Y6506D02*
D03*
Y6250D02*
D03*
Y5994D02*
D03*
X23657Y6506D02*
D03*
Y6250D02*
D03*
Y5994D02*
D03*
X22949Y9222D02*
D03*
Y8967D02*
D03*
Y8711D02*
D03*
X23657Y9222D02*
D03*
Y8967D02*
D03*
Y8711D02*
D03*
X22949Y11535D02*
D03*
Y11280D02*
D03*
Y11024D02*
D03*
X23657Y11535D02*
D03*
Y11280D02*
D03*
Y11024D02*
D03*
D107*
X23303Y6457D02*
D03*
Y6043D02*
D03*
X23303Y9173D02*
D03*
Y8760D02*
D03*
X23303Y11486D02*
D03*
Y11073D02*
D03*
D108*
X15059Y16752D02*
D03*
X14803D02*
D03*
X14547D02*
D03*
X15059Y16043D02*
D03*
X14803D02*
D03*
X14547D02*
D03*
X28199Y8672D02*
D03*
X27943D02*
D03*
X27687D02*
D03*
X28199Y7963D02*
D03*
X27943D02*
D03*
X27687D02*
D03*
X28199Y11001D02*
D03*
X27943D02*
D03*
X27687D02*
D03*
X28199Y10293D02*
D03*
X27943D02*
D03*
X27687D02*
D03*
X13189Y16043D02*
D03*
X13445D02*
D03*
X13701D02*
D03*
X13189Y16752D02*
D03*
X13445D02*
D03*
X13701D02*
D03*
D109*
X15010Y16398D02*
D03*
X14596D02*
D03*
X28150Y8317D02*
D03*
X27736D02*
D03*
X28150Y10647D02*
D03*
X27736D02*
D03*
X13238Y16398D02*
D03*
X13652D02*
D03*
D110*
X11348Y6841D02*
D03*
X11152D02*
D03*
X10364D02*
D03*
X10561D02*
D03*
X10758D02*
D03*
X10955D02*
D03*
X11545D02*
D03*
Y5856D02*
D03*
X11348D02*
D03*
X11152D02*
D03*
X10955D02*
D03*
X10758D02*
D03*
X10561D02*
D03*
X10364D02*
D03*
X10167D02*
D03*
Y6841D02*
D03*
D111*
X27884Y20453D02*
D03*
X5876D02*
D03*
X16841Y699D02*
D03*
D112*
X15866Y19213D02*
D03*
X17835D02*
D03*
X16850D02*
D03*
Y20315D02*
D03*
X17835D02*
D03*
X15866D02*
D03*
D113*
X2205Y10318D02*
D03*
Y9924D02*
D03*
X8618Y12382D02*
D03*
Y12776D02*
D03*
X9498Y12382D02*
D03*
Y12776D02*
D03*
X9081Y12382D02*
D03*
Y12776D02*
D03*
X3317Y9924D02*
D03*
Y10318D02*
D03*
X4619Y9924D02*
D03*
Y10318D02*
D03*
X5743Y9931D02*
D03*
Y10325D02*
D03*
X5158Y8033D02*
D03*
Y8427D02*
D03*
X6558Y8427D02*
D03*
Y8033D02*
D03*
X19508Y18209D02*
D03*
Y18602D02*
D03*
X5226Y19252D02*
D03*
Y18858D02*
D03*
X11486Y19587D02*
D03*
Y19980D02*
D03*
X13927Y19980D02*
D03*
Y19587D02*
D03*
X22894Y17569D02*
D03*
Y17963D02*
D03*
D114*
X6143Y8457D02*
D03*
Y8004D02*
D03*
X5572D02*
D03*
Y8457D02*
D03*
D115*
X7535Y10630D02*
D03*
D116*
X6453Y11909D02*
D03*
X6650D02*
D03*
X6846D02*
D03*
X7043D02*
D03*
X7240D02*
D03*
X7437D02*
D03*
X7634D02*
D03*
X7831D02*
D03*
X8028D02*
D03*
X8224D02*
D03*
X8421D02*
D03*
X8618D02*
D03*
X6256Y11713D02*
D03*
X6748D02*
D03*
X6945D02*
D03*
X7142D02*
D03*
X7339D02*
D03*
X7535D02*
D03*
X7732D02*
D03*
X7929D02*
D03*
X8323D02*
D03*
X8618Y11614D02*
D03*
X6256Y11516D02*
D03*
X6453Y11417D02*
D03*
X8618D02*
D03*
X6256Y11319D02*
D03*
X8815D02*
D03*
X6453Y11220D02*
D03*
X6256Y11122D02*
D03*
X8815D02*
D03*
X6453Y11024D02*
D03*
X8618D02*
D03*
X6256Y10925D02*
D03*
X8815D02*
D03*
X6453Y10827D02*
D03*
X8618D02*
D03*
X6256Y10728D02*
D03*
X8815D02*
D03*
X8618Y10630D02*
D03*
X6256Y10532D02*
D03*
X8815D02*
D03*
X8618Y10433D02*
D03*
X6256Y10335D02*
D03*
X8815D02*
D03*
X6453Y10236D02*
D03*
X8618D02*
D03*
X8815Y10138D02*
D03*
X6453Y10039D02*
D03*
X8618D02*
D03*
X6256Y9941D02*
D03*
X8618Y9843D02*
D03*
X8815Y9744D02*
D03*
X6453Y9843D02*
D03*
X6256Y9547D02*
D03*
X6945D02*
D03*
X7142D02*
D03*
X7339D02*
D03*
X7535D02*
D03*
X7732D02*
D03*
X7929D02*
D03*
X8126D02*
D03*
X8323D02*
D03*
X8520D02*
D03*
X8815D02*
D03*
X6453Y9350D02*
D03*
X6846D02*
D03*
X7043D02*
D03*
X7240D02*
D03*
X7437D02*
D03*
X7634D02*
D03*
X7831D02*
D03*
X8028D02*
D03*
X6650D02*
D03*
D117*
X10856Y6348D02*
D03*
D118*
X11742Y6447D02*
D03*
Y6250D02*
D03*
X9970D02*
D03*
Y6447D02*
D03*
D119*
X31608Y7675D02*
D03*
Y7872D02*
D03*
Y8068D02*
D03*
Y8265D02*
D03*
Y8462D02*
D03*
X30510Y7675D02*
D03*
Y7872D02*
D03*
Y8068D02*
D03*
Y8265D02*
D03*
Y8462D02*
D03*
D120*
X31059Y8068D02*
D03*
D121*
X20039Y18632D02*
D03*
Y18789D02*
D03*
Y18947D02*
D03*
Y19104D02*
D03*
X20197Y18632D02*
D03*
Y18789D02*
D03*
Y18947D02*
D03*
Y19104D02*
D03*
X20354Y18632D02*
D03*
Y18789D02*
D03*
Y18947D02*
D03*
Y19104D02*
D03*
X20512Y18632D02*
D03*
Y18789D02*
D03*
Y18947D02*
D03*
Y19104D02*
D03*
X20669Y18632D02*
D03*
Y18789D02*
D03*
Y18947D02*
D03*
Y19104D02*
D03*
D122*
X29567Y14983D02*
D03*
X29311D02*
D03*
X29055D02*
D03*
X28799D02*
D03*
Y13506D02*
D03*
X29055D02*
D03*
X29311D02*
D03*
X29567D02*
D03*
X24999Y13506D02*
D03*
X25254D02*
D03*
X25510D02*
D03*
X25766D02*
D03*
Y14983D02*
D03*
X25510D02*
D03*
X25254D02*
D03*
X24999D02*
D03*
D123*
X28445Y14628D02*
D03*
Y14372D02*
D03*
Y14117D02*
D03*
Y13861D02*
D03*
X29921D02*
D03*
Y14117D02*
D03*
Y14372D02*
D03*
Y14628D02*
D03*
X24644Y14628D02*
D03*
Y14373D02*
D03*
Y14117D02*
D03*
Y13861D02*
D03*
X26121D02*
D03*
Y14117D02*
D03*
Y14373D02*
D03*
Y14628D02*
D03*
D124*
X29183Y14244D02*
D03*
D125*
X25382Y14245D02*
D03*
D126*
X30488Y6070D02*
D03*
X30882D02*
D03*
X2565Y10328D02*
D03*
X2959D02*
D03*
X25077Y7621D02*
D03*
X24684D02*
D03*
Y8782D02*
D03*
X25077D02*
D03*
X24684Y9950D02*
D03*
X25077D02*
D03*
X24684Y11115D02*
D03*
X25077D02*
D03*
X24684Y11961D02*
D03*
X25077D02*
D03*
X24418Y11538D02*
D03*
X24024D02*
D03*
Y9222D02*
D03*
X24418D02*
D03*
D127*
X19508Y18986D02*
D03*
Y19380D02*
D03*
D128*
X23579Y8022D02*
D03*
X24189D02*
D03*
D129*
X16033Y4606D02*
D03*
X18356D02*
D03*
X18012Y16535D02*
D03*
X15689D02*
D03*
D130*
X17195Y4488D02*
D03*
X16486D02*
D03*
X16841D02*
D03*
X17549D02*
D03*
X17904D02*
D03*
X16850Y16654D02*
D03*
X17559D02*
D03*
X17205D02*
D03*
X16496D02*
D03*
X16142D02*
D03*
D131*
X5370Y10328D02*
D03*
X4996D02*
D03*
D132*
X32565Y7638D02*
D03*
Y8504D02*
D03*
D133*
X21407Y19656D02*
D03*
Y19124D02*
D03*
D134*
X22008Y18248D02*
D03*
X21476D02*
D03*
D135*
X8976Y19134D02*
D03*
X9232D02*
D03*
X9488D02*
D03*
X8720D02*
D03*
X8465D02*
D03*
X24724D02*
D03*
X24980D02*
D03*
X25236D02*
D03*
X24469D02*
D03*
X24213D02*
D03*
D136*
X9449Y20187D02*
D03*
X8504D02*
D03*
X25197D02*
D03*
X24252D02*
D03*
D137*
X7717Y19222D02*
D03*
X10236D02*
D03*
X23465D02*
D03*
X25984D02*
D03*
D138*
X8701Y18109D02*
D03*
D139*
Y17440D02*
D03*
X9508D02*
D03*
Y18188D02*
D03*
D140*
X5409Y11417D02*
D03*
X5016D02*
D03*
X9524Y9262D02*
D03*
X9917D02*
D03*
X8264Y8671D02*
D03*
X8657D02*
D03*
X21742Y15738D02*
D03*
X22136D02*
D03*
X20955D02*
D03*
X21348D02*
D03*
X6063Y18080D02*
D03*
X5669D02*
D03*
X26770Y12247D02*
D03*
X27164D02*
D03*
D141*
X31659Y5509D02*
D03*
X31128D02*
D03*
X31659Y6631D02*
D03*
X31128D02*
D03*
X31659Y7104D02*
D03*
X31128D02*
D03*
X31610Y9003D02*
D03*
X31079D02*
D03*
X21654Y20325D02*
D03*
X22185D02*
D03*
X26663Y5591D02*
D03*
X27195D02*
D03*
D142*
X30026Y4683D02*
D03*
Y5214D02*
D03*
X20512Y19636D02*
D03*
Y20167D02*
D03*
X20630Y18179D02*
D03*
Y17648D02*
D03*
D143*
X27807Y7153D02*
D03*
X28063D02*
D03*
X27807Y6897D02*
D03*
X28063D02*
D03*
X27807Y6641D02*
D03*
X28063D02*
D03*
X25345Y6380D02*
D03*
Y6125D02*
D03*
X25089Y6380D02*
D03*
Y6125D02*
D03*
X24833Y6380D02*
D03*
Y6125D02*
D03*
X26345Y6380D02*
D03*
Y6125D02*
D03*
X26089Y6380D02*
D03*
Y6125D02*
D03*
X25833Y6380D02*
D03*
Y6125D02*
D03*
D144*
X6866Y2817D02*
D03*
X14866D02*
D03*
X24591D02*
D03*
X26591D02*
D03*
D145*
X1687Y14132D02*
D03*
Y12632D02*
D03*
D146*
X2205Y19047D02*
D03*
X2205Y2205D02*
D03*
X31496D02*
D03*
X31496Y19047D02*
D03*
D147*
X18189Y19764D02*
D03*
X15512D02*
D03*
D148*
X7677Y20187D02*
D03*
X10276D02*
D03*
X23425D02*
D03*
X26024D02*
D03*
M02*
