G04*
G04 #@! TF.GenerationSoftware,Altium Limited,Altium Designer,20.1.14 (287)*
G04*
G04 Layer_Physical_Order=4*
G04 Layer_Color=16711680*
%FSLAX24Y24*%
%MOIN*%
G70*
G04*
G04 #@! TF.SameCoordinates,36825D0D-408E-4E44-9134-4F5201A7400A*
G04*
G04*
G04 #@! TF.FilePolarity,Positive*
G04*
G01*
G75*
%ADD10C,0.0059*%
%ADD14C,0.0100*%
%ADD15C,0.0079*%
%ADD146C,0.1969*%
%ADD147C,0.0354*%
%ADD155C,0.0069*%
%ADD161C,0.0118*%
%ADD164C,0.0236*%
%ADD168C,0.0701*%
%ADD169C,0.0402*%
%ADD170O,0.0354X0.0630*%
%ADD171C,0.0236*%
G36*
X15278Y21172D02*
X15323Y21133D01*
X15328Y21131D01*
X15332Y21127D01*
X15482Y21032D01*
X15489Y21030D01*
X15495Y21025D01*
X15660Y20961D01*
X15667Y20959D01*
X15674Y20956D01*
X15848Y20923D01*
X15854Y20923D01*
X15860Y20922D01*
X15948Y20918D01*
X15950Y20918D01*
X15952Y20918D01*
X17749D01*
X17751Y20918D01*
X17753Y20918D01*
X17841Y20922D01*
X17847Y20923D01*
X17852Y20923D01*
X18026Y20956D01*
X18033Y20959D01*
X18041Y20961D01*
X18205Y21025D01*
X18212Y21030D01*
X18219Y21032D01*
X18369Y21127D01*
X18373Y21131D01*
X18378Y21133D01*
X18423Y21172D01*
X23142Y21172D01*
X23187Y21134D01*
X23192Y21131D01*
X23196Y21127D01*
X23346Y21032D01*
X23353Y21030D01*
X23359Y21026D01*
X23524Y20961D01*
X23532Y20959D01*
X23539Y20957D01*
X23713Y20924D01*
X23718Y20924D01*
X23724Y20922D01*
X23812Y20918D01*
X23814Y20918D01*
X23816Y20918D01*
X25613D01*
X25615Y20918D01*
X25617Y20918D01*
X25705Y20922D01*
X25711Y20924D01*
X25717Y20924D01*
X25891Y20957D01*
X25898Y20959D01*
X25905Y20961D01*
X26070Y21026D01*
X26076Y21030D01*
X26083Y21032D01*
X26233Y21127D01*
X26237Y21131D01*
X26242Y21133D01*
X26287Y21172D01*
X28626Y21172D01*
X28649Y21053D01*
X28652Y21046D01*
X28654Y21038D01*
X28701Y20924D01*
X28705Y20918D01*
X28708Y20910D01*
X28777Y20808D01*
X28783Y20802D01*
X28787Y20796D01*
X28874Y20708D01*
X28881Y20704D01*
X28886Y20698D01*
X28989Y20630D01*
X28996Y20627D01*
X29003Y20622D01*
X29117Y20575D01*
X29125Y20573D01*
X29132Y20570D01*
X29253Y20546D01*
X29259D01*
X29265Y20545D01*
X29327Y20542D01*
X29329Y20542D01*
X29331Y20542D01*
X32331D01*
X32396Y20542D01*
X32523Y20516D01*
X32643Y20467D01*
X32751Y20394D01*
X32843Y20303D01*
X32915Y20194D01*
X32965Y20074D01*
X32991Y19947D01*
Y19882D01*
Y16882D01*
X32991Y16880D01*
X32991Y16878D01*
X32994Y16816D01*
X32995Y16810D01*
Y16804D01*
X33019Y16683D01*
X33022Y16676D01*
X33024Y16668D01*
X33071Y16554D01*
X33075Y16548D01*
X33078Y16540D01*
X33147Y16438D01*
X33153Y16432D01*
X33157Y16426D01*
X33244Y16338D01*
X33251Y16334D01*
X33257Y16328D01*
X33359Y16260D01*
X33367Y16257D01*
X33373Y16252D01*
X33487Y16205D01*
X33495Y16203D01*
X33502Y16200D01*
X33621Y16177D01*
Y5075D01*
X33502Y5052D01*
X33495Y5049D01*
X33487Y5047D01*
X33373Y5000D01*
X33367Y4995D01*
X33359Y4992D01*
X33257Y4924D01*
X33251Y4918D01*
X33244Y4914D01*
X33157Y4826D01*
X33153Y4820D01*
X33147Y4814D01*
X33078Y4712D01*
X33075Y4704D01*
X33071Y4698D01*
X33024Y4584D01*
X33022Y4576D01*
X33019Y4569D01*
X32995Y4447D01*
Y4442D01*
X32994Y4436D01*
X32991Y4374D01*
X32991Y4372D01*
X32991Y4370D01*
Y1370D01*
Y1305D01*
X32965Y1178D01*
X32915Y1058D01*
X32843Y949D01*
X32751Y858D01*
X32643Y785D01*
X32523Y736D01*
X32396Y710D01*
X32331Y710D01*
X29331D01*
X29329Y710D01*
X29327Y710D01*
X29265Y707D01*
X29259Y706D01*
X29253D01*
X29132Y682D01*
X29125Y679D01*
X29117Y677D01*
X29003Y630D01*
X28996Y625D01*
X28989Y622D01*
X28886Y554D01*
X28881Y548D01*
X28874Y544D01*
X28787Y456D01*
X28783Y450D01*
X28777Y444D01*
X28708Y342D01*
X28705Y334D01*
X28701Y328D01*
X28654Y214D01*
X28652Y206D01*
X28649Y199D01*
X28626Y80D01*
X5075Y80D01*
X5052Y199D01*
X5049Y206D01*
X5047Y214D01*
X5000Y328D01*
X4995Y334D01*
X4992Y342D01*
X4924Y444D01*
X4918Y450D01*
X4914Y456D01*
X4826Y544D01*
X4820Y548D01*
X4814Y554D01*
X4712Y622D01*
X4704Y625D01*
X4698Y630D01*
X4584Y677D01*
X4576Y679D01*
X4569Y682D01*
X4447Y706D01*
X4442D01*
X4436Y707D01*
X4374Y710D01*
X4372Y710D01*
X4370Y710D01*
X1370D01*
X1305Y710D01*
X1178Y736D01*
X1058Y785D01*
X949Y858D01*
X858Y949D01*
X785Y1058D01*
X736Y1178D01*
X710Y1305D01*
X710Y1370D01*
Y4370D01*
X710Y4372D01*
X710Y4374D01*
X707Y4436D01*
X706Y4442D01*
Y4447D01*
X682Y4569D01*
X679Y4576D01*
X677Y4584D01*
X630Y4698D01*
X625Y4704D01*
X622Y4712D01*
X554Y4814D01*
X548Y4820D01*
X544Y4826D01*
X456Y4914D01*
X450Y4918D01*
X444Y4924D01*
X405Y4950D01*
X420Y5000D01*
X2030D01*
Y11319D01*
X80D01*
Y16177D01*
X199Y16200D01*
X206Y16203D01*
X214Y16205D01*
X328Y16252D01*
X334Y16257D01*
X342Y16260D01*
X444Y16328D01*
X450Y16334D01*
X456Y16338D01*
X544Y16426D01*
X548Y16432D01*
X554Y16438D01*
X622Y16540D01*
X625Y16548D01*
X630Y16554D01*
X677Y16668D01*
X679Y16676D01*
X682Y16683D01*
X706Y16804D01*
Y16810D01*
X707Y16816D01*
X710Y16878D01*
X710Y16880D01*
X710Y16882D01*
Y19882D01*
X710Y19947D01*
X736Y20074D01*
X785Y20194D01*
X858Y20303D01*
X949Y20394D01*
X1058Y20467D01*
X1178Y20516D01*
X1305Y20542D01*
X1370Y20542D01*
X4370D01*
X4372Y20542D01*
X4374Y20542D01*
X4436Y20545D01*
X4442Y20546D01*
X4447D01*
X4569Y20570D01*
X4576Y20573D01*
X4584Y20575D01*
X4698Y20622D01*
X4704Y20627D01*
X4712Y20630D01*
X4814Y20698D01*
X4820Y20704D01*
X4826Y20708D01*
X4914Y20796D01*
X4918Y20802D01*
X4924Y20808D01*
X4992Y20910D01*
X4995Y20918D01*
X5000Y20924D01*
X5047Y21038D01*
X5049Y21046D01*
X5052Y21053D01*
X5075Y21172D01*
X7404Y21172D01*
X7449Y21134D01*
X7454Y21131D01*
X7458Y21127D01*
X7608Y21032D01*
X7615Y21030D01*
X7621Y21026D01*
X7786Y20961D01*
X7793Y20959D01*
X7800Y20957D01*
X7974Y20924D01*
X7980Y20924D01*
X7986Y20922D01*
X8074Y20918D01*
X8076Y20918D01*
X8078Y20918D01*
X9875D01*
X9877Y20918D01*
X9879Y20918D01*
X9967Y20922D01*
X9973Y20924D01*
X9978Y20924D01*
X10152Y20957D01*
X10159Y20959D01*
X10167Y20961D01*
X10331Y21026D01*
X10338Y21030D01*
X10345Y21032D01*
X10495Y21127D01*
X10499Y21131D01*
X10504Y21134D01*
X10549Y21172D01*
X15278Y21172D01*
D02*
G37*
%LPC*%
G36*
X13278Y20774D02*
X13192Y20757D01*
X13120Y20708D01*
X13072Y20636D01*
X13055Y20551D01*
X13072Y20466D01*
X13120Y20394D01*
X13192Y20346D01*
X13278Y20329D01*
X13363Y20346D01*
X13435Y20394D01*
X13440Y20402D01*
X13442Y20403D01*
X13444Y20405D01*
X13447Y20407D01*
X13449Y20408D01*
X13451Y20408D01*
X13453Y20409D01*
X13453Y20409D01*
X17195D01*
X17256Y20349D01*
X17256Y20348D01*
X17257Y20346D01*
X17258Y20344D01*
X17258Y20342D01*
X17259Y20340D01*
X17260Y20336D01*
X17260Y20334D01*
X17258Y20325D01*
X17275Y20240D01*
X17323Y20168D01*
X17395Y20119D01*
X17480Y20102D01*
X17565Y20119D01*
X17638Y20168D01*
X17686Y20240D01*
X17703Y20325D01*
X17686Y20410D01*
X17638Y20482D01*
X17565Y20530D01*
X17480Y20547D01*
X17471Y20545D01*
X17469Y20545D01*
X17466Y20546D01*
X17463Y20547D01*
X17461Y20547D01*
X17459Y20548D01*
X17457Y20549D01*
X17457Y20549D01*
X17354Y20652D01*
X17308Y20682D01*
X17254Y20693D01*
X13453D01*
X13453Y20693D01*
X13451Y20694D01*
X13449Y20695D01*
X13447Y20696D01*
X13444Y20697D01*
X13442Y20699D01*
X13440Y20700D01*
X13435Y20708D01*
X13363Y20757D01*
X13278Y20774D01*
D02*
G37*
G36*
X17546Y19986D02*
X17461Y19969D01*
X17389Y19921D01*
X17383Y19913D01*
X17382Y19912D01*
X17379Y19910D01*
X17377Y19908D01*
X17375Y19907D01*
X17373Y19907D01*
X17371Y19906D01*
X17370Y19906D01*
X16249D01*
X16248Y19906D01*
X16246Y19907D01*
X16244Y19907D01*
X16242Y19908D01*
X16240Y19910D01*
X16237Y19912D01*
X16236Y19913D01*
X16230Y19921D01*
X16158Y19969D01*
X16073Y19986D01*
X15988Y19969D01*
X15916Y19921D01*
X15867Y19849D01*
X15850Y19764D01*
X15867Y19679D01*
X15916Y19607D01*
X15988Y19558D01*
X16073Y19541D01*
X16158Y19558D01*
X16230Y19607D01*
X16236Y19615D01*
X16237Y19616D01*
X16240Y19618D01*
X16242Y19619D01*
X16244Y19620D01*
X16246Y19621D01*
X16248Y19622D01*
X16249Y19622D01*
X17370D01*
X17371Y19622D01*
X17373Y19621D01*
X17375Y19620D01*
X17377Y19619D01*
X17379Y19618D01*
X17382Y19616D01*
X17383Y19615D01*
X17389Y19607D01*
X17461Y19558D01*
X17546Y19541D01*
X17631Y19558D01*
X17703Y19607D01*
X17751Y19679D01*
X17768Y19764D01*
X17751Y19849D01*
X17703Y19921D01*
X17631Y19969D01*
X17546Y19986D01*
D02*
G37*
G36*
X26024Y20604D02*
X25951Y20595D01*
X25884Y20567D01*
X25826Y20522D01*
X25782Y20465D01*
X25754Y20397D01*
X25744Y20325D01*
Y20049D01*
X25754Y19977D01*
X25782Y19909D01*
X25826Y19852D01*
X25884Y19807D01*
X25951Y19779D01*
X26024Y19770D01*
X26096Y19779D01*
X26163Y19807D01*
X26221Y19852D01*
X26266Y19909D01*
X26294Y19977D01*
X26303Y20049D01*
Y20325D01*
X26294Y20397D01*
X26266Y20465D01*
X26221Y20522D01*
X26163Y20567D01*
X26096Y20595D01*
X26024Y20604D01*
D02*
G37*
G36*
X23425D02*
X23353Y20595D01*
X23285Y20567D01*
X23228Y20522D01*
X23183Y20465D01*
X23155Y20397D01*
X23146Y20325D01*
Y20049D01*
X23155Y19977D01*
X23183Y19909D01*
X23228Y19852D01*
X23285Y19807D01*
X23353Y19779D01*
X23425Y19770D01*
X23498Y19779D01*
X23565Y19807D01*
X23623Y19852D01*
X23667Y19909D01*
X23695Y19977D01*
X23705Y20049D01*
Y20325D01*
X23695Y20397D01*
X23667Y20465D01*
X23623Y20522D01*
X23565Y20567D01*
X23498Y20595D01*
X23425Y20604D01*
D02*
G37*
G36*
X10276D02*
X10203Y20595D01*
X10136Y20567D01*
X10078Y20522D01*
X10033Y20465D01*
X10006Y20397D01*
X9996Y20325D01*
Y20049D01*
X10006Y19977D01*
X10033Y19909D01*
X10078Y19852D01*
X10136Y19807D01*
X10203Y19779D01*
X10276Y19770D01*
X10348Y19779D01*
X10415Y19807D01*
X10473Y19852D01*
X10518Y19909D01*
X10546Y19977D01*
X10555Y20049D01*
Y20325D01*
X10546Y20397D01*
X10518Y20465D01*
X10473Y20522D01*
X10415Y20567D01*
X10348Y20595D01*
X10276Y20604D01*
D02*
G37*
G36*
X7677D02*
X7605Y20595D01*
X7537Y20567D01*
X7479Y20522D01*
X7435Y20465D01*
X7407Y20397D01*
X7398Y20325D01*
Y20049D01*
X7407Y19977D01*
X7435Y19909D01*
X7479Y19852D01*
X7537Y19807D01*
X7605Y19779D01*
X7677Y19770D01*
X7750Y19779D01*
X7817Y19807D01*
X7875Y19852D01*
X7919Y19909D01*
X7947Y19977D01*
X7957Y20049D01*
Y20325D01*
X7947Y20397D01*
X7919Y20465D01*
X7875Y20522D01*
X7817Y20567D01*
X7750Y20595D01*
X7677Y20604D01*
D02*
G37*
G36*
X6122Y19779D02*
X6037Y19763D01*
X5994Y19734D01*
X5951Y19763D01*
X5866Y19779D01*
X5781Y19763D01*
X5738Y19734D01*
X5695Y19763D01*
X5610Y19779D01*
X5525Y19763D01*
X5453Y19714D01*
X5405Y19642D01*
X5388Y19557D01*
X5405Y19472D01*
X5453Y19400D01*
X5525Y19352D01*
X5610Y19335D01*
X5695Y19352D01*
X5738Y19380D01*
X5781Y19352D01*
X5866Y19335D01*
X5951Y19352D01*
X5994Y19380D01*
X6037Y19352D01*
X6122Y19335D01*
X6207Y19352D01*
X6279Y19400D01*
X6327Y19472D01*
X6344Y19557D01*
X6327Y19642D01*
X6279Y19714D01*
X6207Y19763D01*
X6122Y19779D01*
D02*
G37*
G36*
X18189Y20043D02*
X18117Y20034D01*
X18049Y20006D01*
X17991Y19961D01*
X17947Y19904D01*
X17919Y19836D01*
X17909Y19764D01*
X17919Y19691D01*
X17947Y19624D01*
X17991Y19566D01*
X18049Y19522D01*
X18117Y19494D01*
X18189Y19484D01*
X18261Y19494D01*
X18329Y19522D01*
X18387Y19566D01*
X18431Y19624D01*
X18459Y19691D01*
X18469Y19764D01*
X18459Y19836D01*
X18431Y19904D01*
X18387Y19961D01*
X18329Y20006D01*
X18261Y20034D01*
X18189Y20043D01*
D02*
G37*
G36*
X15512D02*
X15439Y20034D01*
X15372Y20006D01*
X15314Y19961D01*
X15270Y19904D01*
X15242Y19836D01*
X15232Y19764D01*
X15242Y19691D01*
X15270Y19624D01*
X15314Y19566D01*
X15372Y19522D01*
X15439Y19494D01*
X15512Y19484D01*
X15584Y19494D01*
X15652Y19522D01*
X15709Y19566D01*
X15754Y19624D01*
X15782Y19691D01*
X15791Y19764D01*
X15782Y19836D01*
X15754Y19904D01*
X15709Y19961D01*
X15652Y20006D01*
X15584Y20034D01*
X15512Y20043D01*
D02*
G37*
G36*
X20797Y19957D02*
X20712Y19940D01*
X20640Y19892D01*
X20592Y19819D01*
X20575Y19734D01*
X20592Y19649D01*
X20620Y19606D01*
X20592Y19563D01*
X20575Y19478D01*
X20592Y19393D01*
X20640Y19321D01*
X20712Y19273D01*
X20797Y19256D01*
X20882Y19273D01*
X20955Y19321D01*
X21003Y19393D01*
X21020Y19478D01*
X21003Y19563D01*
X20974Y19606D01*
X21003Y19649D01*
X21020Y19734D01*
X21003Y19819D01*
X20955Y19892D01*
X20882Y19940D01*
X20797Y19957D01*
D02*
G37*
G36*
X11939Y20468D02*
X11854Y20452D01*
X11782Y20403D01*
X11734Y20331D01*
X11717Y20246D01*
X11734Y20161D01*
X11782Y20089D01*
X11854Y20041D01*
X11939Y20024D01*
X11949Y20026D01*
X11950Y20025D01*
X11954Y20025D01*
X11956Y20024D01*
X11959Y20023D01*
X11961Y20023D01*
X11962Y20022D01*
X11963Y20021D01*
X12845Y19139D01*
X12824Y19089D01*
X12567D01*
X12567Y19089D01*
X12565Y19090D01*
X12563Y19090D01*
X12561Y19091D01*
X12559Y19093D01*
X12556Y19095D01*
X12554Y19096D01*
X12549Y19104D01*
X12477Y19152D01*
X12392Y19169D01*
X12307Y19152D01*
X12234Y19104D01*
X12186Y19032D01*
X12169Y18947D01*
X12186Y18862D01*
X12234Y18790D01*
X12307Y18741D01*
X12392Y18724D01*
X12477Y18741D01*
X12549Y18790D01*
X12554Y18798D01*
X12556Y18799D01*
X12559Y18801D01*
X12561Y18802D01*
X12563Y18803D01*
X12565Y18804D01*
X12567Y18805D01*
X12567Y18805D01*
X15610D01*
X15641Y18774D01*
X15642Y18773D01*
X15643Y18772D01*
X15644Y18770D01*
X15644Y18767D01*
X15645Y18765D01*
X15646Y18761D01*
X15646Y18760D01*
X15644Y18750D01*
X15661Y18665D01*
X15709Y18593D01*
X15781Y18545D01*
X15866Y18528D01*
X15951Y18545D01*
X16023Y18593D01*
X16072Y18665D01*
X16089Y18750D01*
X16072Y18835D01*
X16023Y18907D01*
X15951Y18955D01*
X15866Y18972D01*
X15856Y18970D01*
X15855Y18971D01*
X15851Y18971D01*
X15849Y18972D01*
X15846Y18973D01*
X15845Y18973D01*
X15843Y18974D01*
X15842Y18975D01*
X15797Y19021D01*
X15817Y19071D01*
X16350D01*
X16351Y19070D01*
X16352Y19070D01*
X16354Y19069D01*
X16356Y19068D01*
X16359Y19067D01*
X16362Y19065D01*
X16363Y19064D01*
X16368Y19055D01*
X16440Y19007D01*
X16526Y18990D01*
X16611Y19007D01*
X16683Y19055D01*
X16731Y19128D01*
X16748Y19213D01*
X16731Y19298D01*
X16683Y19370D01*
X16611Y19418D01*
X16526Y19435D01*
X16440Y19418D01*
X16368Y19370D01*
X16363Y19362D01*
X16362Y19361D01*
X16359Y19359D01*
X16356Y19357D01*
X16354Y19356D01*
X16352Y19355D01*
X16351Y19355D01*
X16350Y19355D01*
X14269D01*
X14254Y19405D01*
X14291Y19429D01*
X14339Y19502D01*
X14356Y19587D01*
X14339Y19672D01*
X14291Y19744D01*
X14219Y19792D01*
X14134Y19809D01*
X14049Y19792D01*
X13977Y19744D01*
X13957Y19715D01*
X13907D01*
X13888Y19744D01*
X13815Y19792D01*
X13730Y19809D01*
X13645Y19792D01*
X13573Y19744D01*
X13525Y19672D01*
X13508Y19587D01*
X13525Y19502D01*
X13573Y19429D01*
X13565Y19383D01*
X13535Y19355D01*
X13031D01*
X12164Y20222D01*
X12163Y20223D01*
X12162Y20225D01*
X12162Y20226D01*
X12161Y20229D01*
X12160Y20231D01*
X12160Y20235D01*
X12159Y20236D01*
X12161Y20246D01*
X12144Y20331D01*
X12096Y20403D01*
X12024Y20452D01*
X11939Y20468D01*
D02*
G37*
G36*
X28474Y19226D02*
X28389Y19209D01*
X28317Y19160D01*
X28269Y19088D01*
X28252Y19003D01*
X28269Y18918D01*
X28317Y18846D01*
X28389Y18798D01*
X28474Y18781D01*
X28560Y18798D01*
X28632Y18846D01*
X28680Y18918D01*
X28697Y19003D01*
X28680Y19088D01*
X28632Y19160D01*
X28560Y19209D01*
X28474Y19226D01*
D02*
G37*
G36*
X21427Y21089D02*
X21427Y21089D01*
X19695D01*
X19610Y21072D01*
X19538Y21023D01*
X19538Y21023D01*
X19360Y20846D01*
X19312Y20773D01*
X19295Y20688D01*
X19295Y20688D01*
Y20423D01*
Y20148D01*
X19312Y20063D01*
X19360Y19990D01*
X19433Y19942D01*
X19518Y19925D01*
X19603Y19942D01*
X19675Y19990D01*
X19723Y20063D01*
X19740Y20148D01*
Y20596D01*
X19788Y20644D01*
X21335D01*
X22160Y19819D01*
Y19587D01*
X22176Y19502D01*
X22225Y19429D01*
X22297Y19381D01*
X22382Y19364D01*
X22821D01*
X23347Y18839D01*
X23347Y18839D01*
X23419Y18791D01*
X23504Y18774D01*
X26975D01*
X27474Y18274D01*
Y17007D01*
X27474Y17007D01*
X27491Y16922D01*
X27540Y16850D01*
X28898Y15491D01*
X28898Y15491D01*
X28901Y15490D01*
X29591Y14800D01*
Y14651D01*
X29541Y14629D01*
X29485Y14666D01*
X29400Y14683D01*
X29314Y14666D01*
X29242Y14618D01*
X29213Y14575D01*
X29153D01*
X29124Y14618D01*
X29052Y14666D01*
X28967Y14683D01*
X28881Y14666D01*
X28809Y14618D01*
X28761Y14546D01*
X28744Y14461D01*
X28761Y14376D01*
X28809Y14304D01*
X28853Y14275D01*
Y14214D01*
X28809Y14185D01*
X28761Y14113D01*
X28744Y14028D01*
X28761Y13943D01*
X28809Y13871D01*
X28881Y13822D01*
X28967Y13806D01*
X29052Y13822D01*
X29124Y13871D01*
X29153Y13914D01*
X29213D01*
X29242Y13871D01*
X29314Y13822D01*
X29344Y13817D01*
X29361Y13762D01*
X28893Y13294D01*
X28845Y13222D01*
X28828Y13137D01*
X28845Y13052D01*
X28893Y12980D01*
X28965Y12932D01*
X29050Y12915D01*
X29135Y12932D01*
X29207Y12980D01*
X29970Y13743D01*
X30018Y13815D01*
X30035Y13900D01*
X30035Y13900D01*
Y14892D01*
X30035Y14892D01*
X30018Y14977D01*
X29970Y15049D01*
X29970Y15049D01*
X29213Y15806D01*
X29211Y15808D01*
X28136Y16883D01*
X28150Y16939D01*
X28208Y16978D01*
X28257Y17050D01*
X28274Y17135D01*
X28257Y17220D01*
X28208Y17293D01*
X28136Y17341D01*
X28051Y17358D01*
X27969Y17341D01*
X27958Y17342D01*
X27919Y17363D01*
Y18263D01*
X27969Y18288D01*
X28046Y18272D01*
X28131Y18289D01*
X28204Y18337D01*
X28252Y18409D01*
X28269Y18495D01*
X28252Y18580D01*
X28204Y18652D01*
X28131Y18700D01*
X28046Y18717D01*
X27961Y18700D01*
X27889Y18652D01*
X27852Y18596D01*
X27794Y18583D01*
X27224Y19153D01*
X27152Y19202D01*
X27067Y19218D01*
X27067Y19218D01*
X23596D01*
X23071Y19744D01*
X22998Y19792D01*
X22913Y19809D01*
X22913Y19809D01*
X22604D01*
Y19911D01*
X22587Y19997D01*
X22539Y20069D01*
X22539Y20069D01*
X21584Y21023D01*
X21512Y21072D01*
X21427Y21089D01*
D02*
G37*
G36*
X20167Y20547D02*
X20082Y20530D01*
X20010Y20482D01*
X19962Y20410D01*
X19945Y20325D01*
X19962Y20240D01*
X20010Y20168D01*
X20019Y20161D01*
X20020Y20161D01*
X20025Y20155D01*
X20029Y20150D01*
X20032Y20145D01*
X20034Y20142D01*
X20035Y20139D01*
Y20065D01*
X19620Y19650D01*
X18602D01*
X18552Y19640D01*
X18509Y19611D01*
X17140Y18242D01*
X12794D01*
X12791Y18243D01*
X12788Y18245D01*
X12785Y18247D01*
X12772Y18258D01*
X12766Y18267D01*
X12693Y18316D01*
X12608Y18333D01*
X12523Y18316D01*
X12451Y18267D01*
X12403Y18195D01*
X12389Y18125D01*
X12382Y18126D01*
X12297Y18109D01*
X12225Y18061D01*
X12176Y17989D01*
X12160Y17904D01*
X12167Y17868D01*
X12135Y17829D01*
X11132D01*
X11082Y17819D01*
X11039Y17790D01*
X10807Y17558D01*
X8248D01*
X8115Y17691D01*
X8072Y17719D01*
X8022Y17729D01*
X7223D01*
X7173Y17719D01*
X7130Y17691D01*
X7111Y17671D01*
X7006D01*
X7004Y17673D01*
X7001Y17674D01*
X6997Y17677D01*
X6984Y17688D01*
X6978Y17697D01*
X6906Y17745D01*
X6821Y17762D01*
X6736Y17745D01*
X6664Y17697D01*
X6615Y17624D01*
X6598Y17539D01*
X6615Y17454D01*
X6664Y17382D01*
X6736Y17334D01*
X6803Y17321D01*
X6845Y17275D01*
X6845Y17274D01*
X6861Y17189D01*
X6910Y17116D01*
X6982Y17068D01*
X7067Y17051D01*
X7152Y17068D01*
X7224Y17116D01*
X7272Y17189D01*
X7289Y17274D01*
X7287Y17285D01*
X7287Y17285D01*
X7288Y17293D01*
X7289Y17300D01*
X7290Y17305D01*
X7291Y17309D01*
X7291Y17311D01*
X7323Y17343D01*
X7372Y17338D01*
X7393Y17306D01*
X7392Y17297D01*
X7376Y17215D01*
X7393Y17129D01*
X7441Y17057D01*
X7513Y17009D01*
X7598Y16992D01*
X7684Y17009D01*
X7756Y17057D01*
X7804Y17129D01*
X7821Y17215D01*
X7804Y17297D01*
X7804Y17306D01*
X7830Y17347D01*
X7918D01*
X8051Y17215D01*
X8093Y17186D01*
X8144Y17176D01*
X10910D01*
X10961Y17186D01*
X11004Y17215D01*
X11236Y17447D01*
X17839D01*
X18873Y16413D01*
X18916Y16384D01*
X18967Y16374D01*
X26139D01*
X26190Y16384D01*
X26232Y16413D01*
X26634Y16814D01*
X26637Y16815D01*
X26640Y16816D01*
X26644Y16817D01*
X26661Y16818D01*
X26672Y16816D01*
X26757Y16833D01*
X26829Y16881D01*
X26877Y16954D01*
X26894Y17039D01*
X26877Y17124D01*
X26829Y17196D01*
X26757Y17244D01*
X26683Y17259D01*
X26669Y17333D01*
X26620Y17405D01*
X26548Y17453D01*
X26463Y17470D01*
X26378Y17453D01*
X26306Y17405D01*
X26258Y17333D01*
X26254Y17313D01*
X26252Y17309D01*
X26243Y17282D01*
X26240Y17273D01*
X26233Y17255D01*
X26230Y17250D01*
X26228Y17246D01*
X26227Y17245D01*
X25738Y16756D01*
X23418D01*
X23397Y16803D01*
X23416Y16829D01*
X23421Y16834D01*
X23423Y16834D01*
X23427Y16835D01*
X23444Y16837D01*
X23455Y16835D01*
X23540Y16852D01*
X23612Y16900D01*
X23660Y16972D01*
X23677Y17057D01*
X23660Y17142D01*
X23612Y17214D01*
X23540Y17263D01*
X23455Y17279D01*
X23370Y17263D01*
X23297Y17214D01*
X23249Y17142D01*
X23232Y17057D01*
X23235Y17046D01*
X23235Y17046D01*
X23234Y17037D01*
X23233Y17031D01*
X23232Y17026D01*
X23231Y17022D01*
X23230Y17019D01*
X23085Y16874D01*
X19159D01*
X18036Y17997D01*
X17993Y18026D01*
X17943Y18036D01*
X17372D01*
X17353Y18082D01*
X18657Y19386D01*
X19675D01*
X19726Y19396D01*
X19769Y19424D01*
X20261Y19916D01*
X20289Y19959D01*
X20299Y20010D01*
Y20139D01*
X20300Y20142D01*
X20302Y20145D01*
X20305Y20148D01*
X20315Y20161D01*
X20325Y20168D01*
X20373Y20240D01*
X20390Y20325D01*
X20373Y20410D01*
X20325Y20482D01*
X20252Y20530D01*
X20167Y20547D01*
D02*
G37*
G36*
X29941Y18667D02*
X29856Y18650D01*
X29784Y18602D01*
X29736Y18529D01*
X29719Y18444D01*
X29736Y18359D01*
X29784Y18287D01*
X29856Y18239D01*
X29941Y18222D01*
X30027Y18239D01*
X30099Y18287D01*
X30147Y18359D01*
X30164Y18444D01*
X30147Y18529D01*
X30099Y18602D01*
X30027Y18650D01*
X29941Y18667D01*
D02*
G37*
G36*
X5380Y18302D02*
X5295Y18285D01*
X5223Y18237D01*
X5175Y18165D01*
X5158Y18080D01*
X5175Y17994D01*
X5223Y17922D01*
X5295Y17874D01*
X5380Y17857D01*
X5419Y17865D01*
X5455Y17830D01*
X5447Y17790D01*
X5464Y17705D01*
X5512Y17633D01*
X5584Y17585D01*
X5669Y17568D01*
X5754Y17585D01*
X5827Y17633D01*
X5875Y17705D01*
X5892Y17790D01*
X5875Y17876D01*
X5827Y17948D01*
X5754Y17996D01*
X5669Y18013D01*
X5630Y18005D01*
X5595Y18040D01*
X5603Y18080D01*
X5586Y18165D01*
X5537Y18237D01*
X5465Y18285D01*
X5380Y18302D01*
D02*
G37*
G36*
X20817Y17624D02*
X20732Y17607D01*
X20660Y17559D01*
X20650Y17544D01*
X20600D01*
X20590Y17559D01*
X20518Y17607D01*
X20433Y17624D01*
X20348Y17607D01*
X20276Y17559D01*
X20228Y17487D01*
X20211Y17402D01*
X20228Y17316D01*
X20276Y17244D01*
X20348Y17196D01*
X20433Y17179D01*
X20518Y17196D01*
X20590Y17244D01*
X20600Y17259D01*
X20650D01*
X20660Y17244D01*
X20732Y17196D01*
X20817Y17179D01*
X20902Y17196D01*
X20974Y17244D01*
X21022Y17316D01*
X21039Y17402D01*
X21022Y17487D01*
X20974Y17559D01*
X20902Y17607D01*
X20817Y17624D01*
D02*
G37*
G36*
X18671Y19209D02*
X18586Y19192D01*
X18514Y19143D01*
X18466Y19071D01*
X18449Y18986D01*
X18454Y18959D01*
X18389Y18946D01*
X18317Y18897D01*
X18269Y18825D01*
X18252Y18740D01*
X18269Y18655D01*
X18317Y18583D01*
X18389Y18535D01*
X18474Y18518D01*
X18560Y18535D01*
X18632Y18583D01*
X18635Y18588D01*
X18637Y18589D01*
X18640Y18591D01*
X18643Y18592D01*
X18645Y18593D01*
X18647Y18594D01*
X18648Y18594D01*
X22193D01*
X22223Y18544D01*
X22209Y18474D01*
X22226Y18389D01*
X22261Y18337D01*
X22226Y18284D01*
X22209Y18199D01*
X22226Y18114D01*
X22271Y18046D01*
X22226Y17979D01*
X22209Y17894D01*
X22226Y17809D01*
X22274Y17736D01*
X22346Y17688D01*
X22431Y17671D01*
X22516Y17688D01*
X22588Y17736D01*
X22600Y17754D01*
X22667Y17740D01*
X22752Y17757D01*
X22825Y17805D01*
X22844Y17834D01*
X22904D01*
X22923Y17805D01*
X22996Y17757D01*
X23081Y17740D01*
X23166Y17757D01*
X23238Y17805D01*
X23283Y17873D01*
X23298Y17881D01*
X23334Y17892D01*
X24024Y17203D01*
X24070Y17172D01*
X24124Y17161D01*
X24696D01*
X24697Y17161D01*
X24699Y17160D01*
X24701Y17160D01*
X24703Y17159D01*
X24705Y17157D01*
X24708Y17155D01*
X24709Y17154D01*
X24715Y17146D01*
X24787Y17098D01*
X24872Y17081D01*
X24957Y17098D01*
X25029Y17146D01*
X25078Y17218D01*
X25094Y17303D01*
X25088Y17336D01*
X25101Y17351D01*
X25132Y17371D01*
X25207Y17356D01*
X25292Y17373D01*
X25364Y17421D01*
X25412Y17494D01*
X25429Y17579D01*
X25412Y17664D01*
X25364Y17736D01*
X25292Y17784D01*
X25207Y17801D01*
X25122Y17784D01*
X25049Y17736D01*
X25041Y17723D01*
X25040Y17722D01*
X25035Y17716D01*
X25032Y17714D01*
X25031Y17713D01*
X25030Y17712D01*
X25029Y17712D01*
X25028Y17711D01*
X25027Y17711D01*
X24252D01*
X22984Y18978D01*
X22938Y19009D01*
X22884Y19020D01*
X18887D01*
X18877Y19071D01*
X18829Y19143D01*
X18756Y19192D01*
X18671Y19209D01*
D02*
G37*
G36*
X14547Y17309D02*
X14462Y17292D01*
X14390Y17244D01*
X14384Y17235D01*
X14383Y17234D01*
X14377Y17229D01*
X14372Y17225D01*
X14368Y17222D01*
X14364Y17220D01*
X14362Y17219D01*
X13491D01*
X13441Y17209D01*
X13417Y17193D01*
X13354Y17198D01*
X13336Y17224D01*
X13264Y17272D01*
X13179Y17289D01*
X13094Y17272D01*
X13022Y17224D01*
X12974Y17152D01*
X12957Y17067D01*
X12959Y17056D01*
X12959Y17055D01*
X12958Y17047D01*
X12958Y17041D01*
X12957Y17035D01*
X12956Y17032D01*
X12955Y17029D01*
X12829Y16904D01*
X7658D01*
X7608Y16894D01*
X7565Y16865D01*
X4739Y14039D01*
X4711Y13997D01*
X4701Y13946D01*
Y12387D01*
X4651Y12337D01*
X4622Y12295D01*
X4612Y12244D01*
Y12213D01*
X4611Y12211D01*
X4609Y12207D01*
X4607Y12204D01*
X4596Y12191D01*
X4587Y12185D01*
X4539Y12113D01*
X4522Y12028D01*
X4539Y11942D01*
X4587Y11870D01*
X4659Y11822D01*
X4729Y11808D01*
X4745Y11726D01*
X4794Y11654D01*
X4866Y11606D01*
X4951Y11589D01*
X5036Y11606D01*
X5108Y11654D01*
X5156Y11726D01*
X5173Y11811D01*
X5158Y11888D01*
X5176Y11915D01*
X5192Y11932D01*
X5236Y11923D01*
X5321Y11940D01*
X5393Y11988D01*
X5442Y12061D01*
X5456Y12131D01*
X5538Y12147D01*
X5610Y12195D01*
X5658Y12267D01*
X5675Y12352D01*
X5658Y12437D01*
X5610Y12510D01*
X5538Y12558D01*
X5453Y12575D01*
X5442Y12573D01*
X5441Y12573D01*
X5433Y12573D01*
X5426Y12574D01*
X5421Y12575D01*
X5417Y12576D01*
X5415Y12577D01*
X5329Y12663D01*
Y13754D01*
X7860Y16285D01*
X12937D01*
X13476Y15746D01*
X13477Y15744D01*
X13478Y15740D01*
X13479Y15736D01*
X13481Y15719D01*
X13478Y15709D01*
X13495Y15624D01*
X13544Y15551D01*
X13616Y15503D01*
X13701Y15486D01*
X13786Y15503D01*
X13858Y15551D01*
X13906Y15624D01*
X13923Y15709D01*
X13906Y15794D01*
X13858Y15866D01*
X13786Y15914D01*
X13701Y15931D01*
X13690Y15929D01*
X13689Y15929D01*
X13681Y15929D01*
X13674Y15930D01*
X13669Y15931D01*
X13665Y15932D01*
X13663Y15933D01*
X13239Y16357D01*
X13258Y16403D01*
X14168D01*
X14805Y15766D01*
X14806Y15764D01*
X14807Y15760D01*
X14808Y15756D01*
X14809Y15739D01*
X14807Y15728D01*
X14824Y15643D01*
X14872Y15571D01*
X14944Y15523D01*
X15030Y15506D01*
X15115Y15523D01*
X15187Y15571D01*
X15235Y15643D01*
X15252Y15728D01*
X15235Y15813D01*
X15187Y15886D01*
X15115Y15934D01*
X15030Y15951D01*
X15019Y15949D01*
X15018Y15949D01*
X15010Y15949D01*
X15003Y15950D01*
X14998Y15951D01*
X14994Y15952D01*
X14992Y15953D01*
X14316Y16629D01*
X14273Y16657D01*
X14222Y16667D01*
X13324D01*
X13305Y16714D01*
X13546Y16955D01*
X14362D01*
X14364Y16953D01*
X14368Y16952D01*
X14371Y16949D01*
X14384Y16938D01*
X14390Y16929D01*
X14462Y16881D01*
X14547Y16864D01*
X14632Y16881D01*
X14704Y16929D01*
X14753Y17002D01*
X14770Y17087D01*
X14753Y17172D01*
X14704Y17244D01*
X14632Y17292D01*
X14547Y17309D01*
D02*
G37*
G36*
X29946Y17408D02*
X29861Y17391D01*
X29789Y17343D01*
X29740Y17271D01*
X29723Y17186D01*
X29740Y17100D01*
X29789Y17028D01*
X29861Y16980D01*
X29946Y16963D01*
X30031Y16980D01*
X30103Y17028D01*
X30151Y17100D01*
X30168Y17186D01*
X30151Y17271D01*
X30103Y17343D01*
X30031Y17391D01*
X29946Y17408D01*
D02*
G37*
G36*
X29587Y16915D02*
X29502Y16898D01*
X29429Y16850D01*
X29381Y16778D01*
X29364Y16692D01*
X29381Y16607D01*
X29420Y16549D01*
X29407Y16505D01*
X29400Y16496D01*
X29374Y16492D01*
X29211Y16655D01*
X29210Y16657D01*
X29209Y16661D01*
X29208Y16665D01*
X29206Y16682D01*
X29209Y16692D01*
X29192Y16778D01*
X29143Y16850D01*
X29071Y16898D01*
X28986Y16915D01*
X28901Y16898D01*
X28829Y16850D01*
X28781Y16778D01*
X28764Y16692D01*
X28781Y16607D01*
X28829Y16535D01*
X28901Y16487D01*
X28986Y16470D01*
X28997Y16472D01*
X28998Y16472D01*
X29006Y16472D01*
X29013Y16471D01*
X29018Y16470D01*
X29022Y16469D01*
X29024Y16468D01*
X29237Y16255D01*
X29280Y16226D01*
X29330Y16216D01*
X29847D01*
X30508Y15556D01*
Y12958D01*
X29080Y11530D01*
X29051Y11487D01*
X29041Y11437D01*
Y7205D01*
X29051Y7154D01*
X29080Y7111D01*
X29895Y6296D01*
Y5968D01*
X29287Y5359D01*
X29258Y5316D01*
X29248Y5266D01*
Y3985D01*
X29247Y3982D01*
X29245Y3979D01*
X29243Y3976D01*
X29232Y3963D01*
X29223Y3956D01*
X29174Y3884D01*
X29158Y3799D01*
X29174Y3714D01*
X29223Y3642D01*
X29295Y3594D01*
X29380Y3577D01*
X29465Y3594D01*
X29537Y3642D01*
X29585Y3714D01*
X29602Y3799D01*
X29585Y3884D01*
X29537Y3956D01*
X29528Y3963D01*
X29527Y3963D01*
X29522Y3969D01*
X29518Y3974D01*
X29515Y3979D01*
X29513Y3982D01*
X29512Y3985D01*
Y5211D01*
X30120Y5820D01*
X30149Y5862D01*
X30159Y5913D01*
Y6351D01*
X30149Y6401D01*
X30120Y6444D01*
X29633Y6932D01*
X29638Y6982D01*
X29675Y7007D01*
X29723Y7079D01*
X29740Y7164D01*
X29723Y7249D01*
X29675Y7321D01*
X29603Y7370D01*
X29518Y7387D01*
X29507Y7384D01*
X29506Y7384D01*
X29498Y7385D01*
X29491Y7386D01*
X29486Y7387D01*
X29482Y7388D01*
X29480Y7389D01*
X29423Y7445D01*
Y11333D01*
X30851Y12761D01*
X30880Y12804D01*
X30890Y12854D01*
Y15659D01*
X30880Y15710D01*
X30851Y15753D01*
X30044Y16560D01*
X30001Y16589D01*
X29951Y16599D01*
X29867D01*
X29811Y16655D01*
X29810Y16657D01*
X29809Y16661D01*
X29808Y16665D01*
X29807Y16682D01*
X29809Y16692D01*
X29792Y16778D01*
X29744Y16850D01*
X29672Y16898D01*
X29587Y16915D01*
D02*
G37*
G36*
X17205Y16295D02*
X17120Y16278D01*
X17047Y16230D01*
X17008D01*
X16935Y16278D01*
X16850Y16295D01*
X16765Y16278D01*
X16693Y16230D01*
X16645Y16158D01*
X16628Y16073D01*
X16645Y15988D01*
X16693Y15916D01*
X16765Y15867D01*
X16850Y15850D01*
X16935Y15867D01*
X17008Y15916D01*
X17047D01*
X17120Y15867D01*
X17205Y15850D01*
X17290Y15867D01*
X17362Y15916D01*
X17410Y15988D01*
X17427Y16073D01*
X17410Y16158D01*
X17362Y16230D01*
X17290Y16278D01*
X17205Y16295D01*
D02*
G37*
G36*
X18012Y16285D02*
X17927Y16268D01*
X17855Y16220D01*
X17806Y16148D01*
X17789Y16063D01*
X17806Y15978D01*
X17855Y15906D01*
X17927Y15858D01*
X18012Y15841D01*
X18097Y15858D01*
X18169Y15906D01*
X18217Y15978D01*
X18234Y16063D01*
X18217Y16148D01*
X18169Y16220D01*
X18097Y16268D01*
X18012Y16285D01*
D02*
G37*
G36*
X15689D02*
X15604Y16268D01*
X15532Y16220D01*
X15484Y16148D01*
X15467Y16063D01*
X15484Y15978D01*
X15532Y15906D01*
X15604Y15858D01*
X15689Y15841D01*
X15774Y15858D01*
X15846Y15906D01*
X15894Y15978D01*
X15911Y16063D01*
X15894Y16148D01*
X15846Y16220D01*
X15774Y16268D01*
X15689Y16285D01*
D02*
G37*
G36*
X5148Y15970D02*
X5063Y15953D01*
X4990Y15905D01*
X4942Y15833D01*
X4925Y15748D01*
X4942Y15663D01*
X4990Y15591D01*
X5063Y15543D01*
X5148Y15526D01*
X5233Y15543D01*
X5305Y15591D01*
X5353Y15663D01*
X5370Y15748D01*
X5353Y15833D01*
X5305Y15905D01*
X5233Y15953D01*
X5148Y15970D01*
D02*
G37*
G36*
X12972Y15931D02*
X12887Y15914D01*
X12815Y15866D01*
X12767Y15794D01*
X12750Y15709D01*
X12767Y15624D01*
X12815Y15551D01*
X12887Y15503D01*
X12972Y15486D01*
X13058Y15503D01*
X13130Y15551D01*
X13178Y15624D01*
X13195Y15709D01*
X13178Y15794D01*
X13130Y15866D01*
X13058Y15914D01*
X12972Y15931D01*
D02*
G37*
G36*
X18829Y15872D02*
X18744Y15855D01*
X18671Y15807D01*
X18623Y15735D01*
X18606Y15650D01*
X18623Y15565D01*
X18671Y15492D01*
X18744Y15444D01*
X18829Y15427D01*
X18914Y15444D01*
X18986Y15492D01*
X19034Y15565D01*
X19051Y15650D01*
X19034Y15735D01*
X18986Y15807D01*
X18914Y15855D01*
X18829Y15872D01*
D02*
G37*
G36*
X22402Y15961D02*
X22316Y15944D01*
X22244Y15895D01*
X22196Y15823D01*
X22179Y15738D01*
X22167Y15726D01*
X22133Y15714D01*
X22051Y15698D01*
X21979Y15649D01*
X21930Y15577D01*
X21913Y15492D01*
X21930Y15407D01*
X21979Y15335D01*
X22051Y15287D01*
X22136Y15270D01*
X22221Y15287D01*
X22293Y15335D01*
X22341Y15407D01*
X22358Y15492D01*
X22371Y15505D01*
X22404Y15516D01*
X22487Y15533D01*
X22559Y15581D01*
X22607Y15653D01*
X22624Y15738D01*
X22607Y15823D01*
X22559Y15895D01*
X22487Y15944D01*
X22402Y15961D01*
D02*
G37*
G36*
X7657Y15478D02*
X7572Y15461D01*
X7500Y15413D01*
X7452Y15341D01*
X7435Y15256D01*
X7452Y15171D01*
X7500Y15099D01*
X7531Y15078D01*
X7536Y15029D01*
X7452Y14945D01*
X7449Y14944D01*
X7445Y14944D01*
X7439Y14945D01*
X7428Y14946D01*
X7423Y14945D01*
X7398Y14950D01*
X7313Y14933D01*
X7241Y14885D01*
X7193Y14813D01*
X7176Y14728D01*
X7193Y14643D01*
X7241Y14571D01*
X7313Y14522D01*
X7398Y14505D01*
X7483Y14522D01*
X7555Y14571D01*
X7604Y14643D01*
X7612Y14687D01*
X7616Y14697D01*
X7618Y14709D01*
X7622Y14730D01*
X7624Y14736D01*
X7626Y14742D01*
X7628Y14746D01*
X7629Y14749D01*
X7827Y14947D01*
X8145D01*
X8164Y14900D01*
X7238Y13974D01*
X7236Y13974D01*
X7232Y13973D01*
X7229Y13972D01*
X7211Y13970D01*
X7201Y13972D01*
X7116Y13955D01*
X7044Y13907D01*
X6995Y13835D01*
X6978Y13750D01*
X6995Y13665D01*
X7044Y13593D01*
Y13568D01*
X6995Y13496D01*
X6978Y13410D01*
X6995Y13325D01*
X7044Y13253D01*
X7116Y13205D01*
X7201Y13188D01*
X7286Y13205D01*
X7358Y13253D01*
X7406Y13325D01*
X7423Y13410D01*
X7421Y13421D01*
X7421Y13422D01*
X7422Y13430D01*
X7422Y13437D01*
X7423Y13442D01*
X7424Y13446D01*
X7425Y13448D01*
X8688Y14710D01*
X12106D01*
X12126Y14660D01*
X12088Y14603D01*
X12071Y14518D01*
X12088Y14433D01*
X12136Y14360D01*
X12208Y14312D01*
X12293Y14295D01*
X12378Y14312D01*
X12451Y14360D01*
X12499Y14433D01*
X12516Y14518D01*
X12552Y14553D01*
X20598D01*
X21073Y14077D01*
X21063Y14017D01*
X21014Y13984D01*
X20966Y13912D01*
X20949Y13827D01*
X20966Y13742D01*
X21014Y13670D01*
X21086Y13622D01*
X21162Y13606D01*
X21162Y13606D01*
X21165Y13604D01*
X21639Y13130D01*
Y8661D01*
X21651Y8599D01*
X21687Y8547D01*
X22327Y7906D01*
X22328Y7906D01*
X22329Y7904D01*
X22344Y7828D01*
X22392Y7756D01*
X22464Y7708D01*
X22549Y7691D01*
X22634Y7708D01*
X22665Y7729D01*
X22707Y7756D01*
X22748Y7729D01*
X22779Y7708D01*
X22864Y7691D01*
X22949Y7708D01*
X23021Y7756D01*
X23070Y7828D01*
X23087Y7913D01*
X23070Y7998D01*
X23021Y8071D01*
X22949Y8119D01*
X22864Y8136D01*
X22855Y8134D01*
X22853Y8134D01*
X22849Y8135D01*
X22847Y8135D01*
X22845Y8136D01*
X22843Y8137D01*
X22841Y8138D01*
X22840Y8138D01*
X22111Y8868D01*
Y13170D01*
X22157Y13189D01*
X22653Y12692D01*
Y11338D01*
X22653Y11338D01*
X22648Y11337D01*
X22626Y11331D01*
X22613Y11328D01*
X22604Y11325D01*
X22570Y11318D01*
X22498Y11270D01*
X22450Y11197D01*
X22433Y11112D01*
X22450Y11027D01*
X22498Y10955D01*
X22570Y10907D01*
X22656Y10890D01*
X22721Y10903D01*
X22771Y10872D01*
Y9105D01*
X22690Y9024D01*
X22688Y9023D01*
X22684Y9022D01*
X22680Y9021D01*
X22663Y9020D01*
X22653Y9022D01*
X22567Y9005D01*
X22495Y8957D01*
X22447Y8884D01*
X22430Y8799D01*
X22447Y8714D01*
X22495Y8642D01*
X22567Y8594D01*
X22653Y8577D01*
X22738Y8594D01*
X22810Y8642D01*
X22858Y8714D01*
X22875Y8799D01*
X22873Y8810D01*
X22873Y8811D01*
X22873Y8819D01*
X22874Y8826D01*
X22875Y8831D01*
X22876Y8835D01*
X22877Y8837D01*
X22985Y8945D01*
X23087Y8843D01*
X23130Y8814D01*
X23180Y8804D01*
X23970D01*
X23973Y8803D01*
X23976Y8801D01*
X23979Y8799D01*
X23992Y8788D01*
X23998Y8779D01*
X24071Y8731D01*
X24156Y8714D01*
X24241Y8731D01*
X24313Y8779D01*
X24361Y8851D01*
X24378Y8936D01*
X24361Y9021D01*
X24313Y9093D01*
X24241Y9141D01*
X24156Y9158D01*
X24071Y9141D01*
X23998Y9093D01*
X23992Y9084D01*
X23992Y9084D01*
X23986Y9078D01*
X23980Y9074D01*
X23976Y9071D01*
X23973Y9069D01*
X23970Y9068D01*
X23235D01*
X23154Y9149D01*
Y11141D01*
X23200Y11161D01*
X23220Y11141D01*
X23262Y11112D01*
X23313Y11102D01*
X23970D01*
X23973Y11101D01*
X23976Y11099D01*
X23979Y11097D01*
X23992Y11086D01*
X23998Y11077D01*
X24071Y11029D01*
X24156Y11012D01*
X24241Y11029D01*
X24313Y11077D01*
X24361Y11149D01*
X24378Y11234D01*
X24361Y11319D01*
X24313Y11391D01*
X24241Y11440D01*
X24156Y11457D01*
X24071Y11440D01*
X23998Y11391D01*
X23992Y11382D01*
X23992Y11382D01*
X23986Y11376D01*
X23980Y11372D01*
X23976Y11369D01*
X23973Y11367D01*
X23970Y11366D01*
X23368D01*
X23272Y11462D01*
Y12894D01*
X23262Y12944D01*
X23233Y12987D01*
X20930Y15290D01*
X20887Y15319D01*
X20837Y15329D01*
X7865D01*
X7863Y15341D01*
X7815Y15413D01*
X7743Y15461D01*
X7657Y15478D01*
D02*
G37*
G36*
X25599Y14684D02*
X25514Y14667D01*
X25442Y14618D01*
X25412Y14575D01*
X25352D01*
X25323Y14618D01*
X25251Y14667D01*
X25166Y14684D01*
X25081Y14667D01*
X25009Y14618D01*
X24960Y14546D01*
X24943Y14461D01*
X24960Y14376D01*
X25009Y14304D01*
X25052Y14275D01*
Y14215D01*
X25009Y14185D01*
X24960Y14113D01*
X24943Y14028D01*
X24960Y13943D01*
X25009Y13871D01*
X25081Y13823D01*
X25166Y13806D01*
X25251Y13823D01*
X25323Y13871D01*
X25352Y13915D01*
X25412D01*
X25442Y13871D01*
X25514Y13823D01*
X25599Y13806D01*
X25684Y13823D01*
X25756Y13871D01*
X25804Y13943D01*
X25821Y14028D01*
X25804Y14113D01*
X25756Y14185D01*
X25712Y14215D01*
Y14275D01*
X25756Y14304D01*
X25804Y14376D01*
X25821Y14461D01*
X25804Y14546D01*
X25756Y14618D01*
X25684Y14667D01*
X25599Y14684D01*
D02*
G37*
G36*
X26801Y18461D02*
X26716Y18444D01*
X26644Y18395D01*
X26596Y18323D01*
X26579Y18238D01*
X26596Y18153D01*
X26644Y18081D01*
X26716Y18033D01*
X26801Y18016D01*
X26811Y18018D01*
X26813Y18018D01*
X26816Y18017D01*
X26819Y18016D01*
X26821Y18016D01*
X26823Y18015D01*
X26824Y18014D01*
X26825Y18013D01*
X26994Y17845D01*
Y16703D01*
X25935Y15644D01*
X24498D01*
X24444Y15633D01*
X24398Y15602D01*
X23984Y15189D01*
X23953Y15143D01*
X23943Y15089D01*
Y14556D01*
X23942Y14555D01*
X23942Y14553D01*
X23941Y14551D01*
X23940Y14549D01*
X23939Y14547D01*
X23937Y14544D01*
X23936Y14543D01*
X23927Y14537D01*
X23879Y14465D01*
X23862Y14380D01*
X23879Y14295D01*
X23927Y14223D01*
X24000Y14174D01*
X24085Y14158D01*
X24170Y14174D01*
X24242Y14223D01*
X24290Y14295D01*
X24307Y14380D01*
X24290Y14465D01*
X24242Y14537D01*
X24234Y14543D01*
X24233Y14544D01*
X24231Y14547D01*
X24229Y14549D01*
X24228Y14551D01*
X24227Y14553D01*
X24227Y14555D01*
X24227Y14556D01*
Y15030D01*
X24557Y15360D01*
X25994D01*
X26048Y15371D01*
X26095Y15401D01*
X27236Y16543D01*
X27267Y16589D01*
X27278Y16644D01*
Y17904D01*
X27267Y17958D01*
X27236Y18004D01*
X27026Y18214D01*
X27026Y18215D01*
X27025Y18217D01*
X27024Y18219D01*
X27023Y18221D01*
X27022Y18224D01*
X27022Y18227D01*
X27022Y18229D01*
X27024Y18238D01*
X27007Y18323D01*
X26958Y18395D01*
X26886Y18444D01*
X26801Y18461D01*
D02*
G37*
G36*
X24634Y15225D02*
X24549Y15208D01*
X24477Y15160D01*
X24429Y15088D01*
X24412Y15002D01*
X24429Y14917D01*
X24477Y14845D01*
X24549Y14797D01*
X24634Y14780D01*
X24719Y14797D01*
X24792Y14845D01*
X24797Y14853D01*
X24798Y14854D01*
X24801Y14856D01*
X24804Y14858D01*
X24806Y14859D01*
X24808Y14860D01*
X24809Y14860D01*
X24810Y14860D01*
X26320D01*
X26792Y14388D01*
X26792Y14388D01*
X26793Y14386D01*
X26794Y14384D01*
X26795Y14382D01*
X26795Y14379D01*
X26796Y14376D01*
X26796Y14374D01*
X26794Y14365D01*
X26811Y14280D01*
X26859Y14208D01*
X26931Y14159D01*
X27016Y14142D01*
X27102Y14159D01*
X27174Y14208D01*
X27222Y14280D01*
X27239Y14365D01*
X27222Y14450D01*
X27174Y14522D01*
X27102Y14570D01*
X27016Y14587D01*
X27007Y14585D01*
X27005Y14585D01*
X27002Y14586D01*
X26999Y14587D01*
X26997Y14587D01*
X26995Y14588D01*
X26993Y14589D01*
X26993Y14589D01*
X26479Y15103D01*
X26433Y15134D01*
X26379Y15145D01*
X24810D01*
X24809Y15145D01*
X24808Y15145D01*
X24806Y15146D01*
X24804Y15147D01*
X24801Y15148D01*
X24798Y15150D01*
X24797Y15152D01*
X24792Y15160D01*
X24719Y15208D01*
X24634Y15225D01*
D02*
G37*
G36*
X1687Y14435D02*
X1608Y14425D01*
X1535Y14395D01*
X1472Y14346D01*
X1424Y14284D01*
X1394Y14210D01*
X1384Y14132D01*
X1394Y14053D01*
X1424Y13980D01*
X1472Y13917D01*
X1535Y13869D01*
X1608Y13839D01*
X1687Y13829D01*
X1766Y13839D01*
X1839Y13869D01*
X1902Y13917D01*
X1950Y13980D01*
X1980Y14053D01*
X1990Y14132D01*
X1980Y14210D01*
X1950Y14284D01*
X1902Y14346D01*
X1839Y14395D01*
X1766Y14425D01*
X1687Y14435D01*
D02*
G37*
G36*
X24281Y13874D02*
X24196Y13857D01*
X24124Y13809D01*
X24076Y13737D01*
X24059Y13652D01*
X24076Y13566D01*
X24124Y13494D01*
X24196Y13446D01*
X24281Y13429D01*
X24367Y13446D01*
X24439Y13494D01*
X24487Y13566D01*
X24504Y13652D01*
X24487Y13737D01*
X24439Y13809D01*
X24367Y13857D01*
X24281Y13874D01*
D02*
G37*
G36*
X29988Y13096D02*
X29903Y13079D01*
X29831Y13031D01*
X29783Y12959D01*
X29766Y12874D01*
X29783Y12789D01*
X29831Y12717D01*
X29903Y12669D01*
X29988Y12652D01*
X30073Y12669D01*
X30145Y12717D01*
X30194Y12789D01*
X30211Y12874D01*
X30194Y12959D01*
X30145Y13031D01*
X30073Y13079D01*
X29988Y13096D01*
D02*
G37*
G36*
X1687Y12935D02*
X1608Y12925D01*
X1535Y12895D01*
X1472Y12846D01*
X1424Y12784D01*
X1394Y12710D01*
X1384Y12632D01*
X1394Y12553D01*
X1424Y12480D01*
X1472Y12417D01*
X1535Y12369D01*
X1608Y12339D01*
X1687Y12329D01*
X1766Y12339D01*
X1839Y12369D01*
X1902Y12417D01*
X1950Y12480D01*
X1980Y12553D01*
X1990Y12632D01*
X1980Y12710D01*
X1950Y12784D01*
X1902Y12846D01*
X1839Y12895D01*
X1766Y12925D01*
X1687Y12935D01*
D02*
G37*
G36*
X7132Y12673D02*
X7047Y12656D01*
X6975Y12608D01*
X6926Y12536D01*
X6910Y12451D01*
X6926Y12366D01*
X6975Y12294D01*
X7047Y12245D01*
X7132Y12228D01*
X7217Y12245D01*
X7289Y12294D01*
X7337Y12366D01*
X7354Y12451D01*
X7337Y12536D01*
X7289Y12608D01*
X7217Y12656D01*
X7132Y12673D01*
D02*
G37*
G36*
X5990Y12673D02*
X5905Y12656D01*
X5833Y12608D01*
X5785Y12536D01*
X5768Y12451D01*
X5785Y12366D01*
X5833Y12294D01*
X5905Y12245D01*
X5990Y12228D01*
X6075Y12245D01*
X6147Y12294D01*
X6196Y12366D01*
X6213Y12451D01*
X6196Y12536D01*
X6147Y12608D01*
X6075Y12656D01*
X5990Y12673D01*
D02*
G37*
G36*
X9803Y12535D02*
X9718Y12518D01*
X9646Y12470D01*
X9598Y12398D01*
X9581Y12313D01*
X9598Y12228D01*
X9646Y12156D01*
X9718Y12108D01*
X9803Y12091D01*
X9888Y12108D01*
X9961Y12156D01*
X10009Y12228D01*
X10026Y12313D01*
X10009Y12398D01*
X9961Y12470D01*
X9888Y12518D01*
X9803Y12535D01*
D02*
G37*
G36*
X10896Y11669D02*
X10811Y11652D01*
X10738Y11604D01*
X10690Y11532D01*
X10673Y11447D01*
X10690Y11362D01*
X10738Y11290D01*
X10811Y11241D01*
X10896Y11224D01*
X10981Y11241D01*
X11053Y11290D01*
X11101Y11362D01*
X11118Y11447D01*
X11101Y11532D01*
X11053Y11604D01*
X10981Y11652D01*
X10896Y11669D01*
D02*
G37*
G36*
X12183Y11126D02*
X12098Y11109D01*
X12026Y11061D01*
X11978Y10989D01*
X11961Y10904D01*
X11978Y10818D01*
X12026Y10746D01*
X12098Y10698D01*
X12183Y10681D01*
X12268Y10698D01*
X12340Y10746D01*
X12389Y10818D01*
X12405Y10904D01*
X12389Y10989D01*
X12340Y11061D01*
X12268Y11109D01*
X12183Y11126D01*
D02*
G37*
G36*
X11555Y11376D02*
X11470Y11359D01*
X11398Y11311D01*
X11350Y11239D01*
X11333Y11154D01*
X11339Y11124D01*
X11338Y11116D01*
X11340Y11106D01*
X11340Y11100D01*
X11340Y11096D01*
X11340Y11096D01*
X10961Y10717D01*
X10932Y10674D01*
X10922Y10623D01*
Y8022D01*
X10932Y7971D01*
X10961Y7929D01*
X12182Y6707D01*
X12176Y6643D01*
X12141Y6620D01*
X12093Y6547D01*
X12076Y6462D01*
X12093Y6377D01*
X12141Y6305D01*
X12213Y6257D01*
X12298Y6240D01*
X12383Y6257D01*
X12455Y6305D01*
X12479Y6340D01*
X12543Y6346D01*
X13136Y5753D01*
X13179Y5724D01*
X13230Y5714D01*
X22707D01*
X22757Y5724D01*
X22800Y5753D01*
X23165Y6118D01*
X23791D01*
X23793Y6117D01*
X23797Y6115D01*
X23800Y6113D01*
X23813Y6102D01*
X23819Y6093D01*
X23891Y6045D01*
X23976Y6028D01*
X24061Y6045D01*
X24134Y6093D01*
X24182Y6165D01*
X24199Y6250D01*
X24182Y6335D01*
X24134Y6407D01*
X24061Y6455D01*
X23976Y6472D01*
X23891Y6455D01*
X23819Y6407D01*
X23813Y6398D01*
X23812Y6398D01*
X23806Y6392D01*
X23801Y6388D01*
X23797Y6385D01*
X23793Y6383D01*
X23791Y6382D01*
X23110D01*
X23060Y6372D01*
X23017Y6343D01*
X22920Y6246D01*
X22863Y6261D01*
X22825Y6319D01*
X22752Y6367D01*
X22667Y6384D01*
X22582Y6367D01*
X22510Y6319D01*
X22504Y6309D01*
X22503Y6309D01*
X22497Y6304D01*
X22492Y6300D01*
X22488Y6297D01*
X22484Y6295D01*
X22482Y6293D01*
X22383D01*
X22364Y6340D01*
X22723Y6699D01*
X25186D01*
X25237Y6709D01*
X25280Y6737D01*
X26137Y7594D01*
X27539D01*
X27590Y7604D01*
X27633Y7633D01*
X28175Y8175D01*
X28215D01*
X28217Y8174D01*
X28221Y8172D01*
X28224Y8170D01*
X28237Y8159D01*
X28243Y8150D01*
X28315Y8101D01*
X28400Y8084D01*
X28485Y8101D01*
X28557Y8150D01*
X28606Y8222D01*
X28623Y8307D01*
X28606Y8392D01*
X28557Y8464D01*
X28485Y8512D01*
X28400Y8529D01*
X28315Y8512D01*
X28243Y8464D01*
X28237Y8455D01*
X28236Y8454D01*
X28230Y8449D01*
X28225Y8445D01*
X28221Y8442D01*
X28217Y8440D01*
X28215Y8439D01*
X28120D01*
X28069Y8429D01*
X28026Y8400D01*
X28023Y8397D01*
X27977Y8416D01*
Y10020D01*
X28371Y10415D01*
X28374Y10416D01*
X28378Y10417D01*
X28381Y10418D01*
X28398Y10420D01*
X28409Y10417D01*
X28494Y10434D01*
X28566Y10483D01*
X28615Y10555D01*
X28631Y10640D01*
X28615Y10725D01*
X28566Y10797D01*
X28494Y10845D01*
X28409Y10862D01*
X28324Y10845D01*
X28252Y10797D01*
X28204Y10725D01*
X28187Y10640D01*
X28189Y10629D01*
X28189Y10628D01*
X28188Y10620D01*
X28187Y10613D01*
X28186Y10608D01*
X28185Y10604D01*
X28185Y10602D01*
X27905Y10322D01*
X27858Y10341D01*
Y10401D01*
X27848Y10451D01*
X27820Y10494D01*
X27705Y10609D01*
X27704Y10612D01*
X27703Y10615D01*
X27702Y10619D01*
X27701Y10636D01*
X27703Y10647D01*
X27686Y10732D01*
X27638Y10804D01*
X27565Y10852D01*
X27480Y10869D01*
X27395Y10852D01*
X27323Y10804D01*
X27275Y10732D01*
X27258Y10647D01*
X27275Y10562D01*
X27323Y10490D01*
X27395Y10441D01*
X27480Y10424D01*
X27491Y10427D01*
X27492Y10427D01*
X27500Y10426D01*
X27507Y10425D01*
X27512Y10424D01*
X27516Y10423D01*
X27518Y10422D01*
X27594Y10346D01*
Y8559D01*
X27544Y8527D01*
X27480Y8540D01*
X27395Y8523D01*
X27323Y8475D01*
X27275Y8402D01*
X27258Y8317D01*
X27260Y8306D01*
X27260Y8306D01*
X27260Y8298D01*
X27259Y8291D01*
X27258Y8286D01*
X27257Y8282D01*
X27256Y8280D01*
X27189Y8213D01*
X25935D01*
X25884Y8203D01*
X25842Y8174D01*
X25004Y7337D01*
X22541D01*
X22490Y7327D01*
X22447Y7298D01*
X21718Y6569D01*
X13529D01*
X12042Y8057D01*
Y9683D01*
X12086Y9706D01*
X12098Y9698D01*
X12183Y9681D01*
X12268Y9698D01*
X12340Y9746D01*
X12389Y9818D01*
X12405Y9904D01*
X12389Y9989D01*
X12340Y10061D01*
X12268Y10109D01*
X12183Y10126D01*
X12098Y10109D01*
X12026Y10061D01*
X11989Y10006D01*
X11931Y9993D01*
X11788Y10137D01*
X11788Y10137D01*
X11787Y10139D01*
X11781Y10153D01*
X11779Y10158D01*
X11774Y10180D01*
X11772Y10192D01*
X11768Y10202D01*
X11761Y10239D01*
X11712Y10311D01*
X11640Y10359D01*
X11603Y10366D01*
X11572Y10423D01*
X11576Y10433D01*
X11581Y10435D01*
X11594Y10437D01*
X11603Y10441D01*
X11640Y10448D01*
X11712Y10496D01*
X11761Y10568D01*
X11777Y10654D01*
X11761Y10739D01*
X11712Y10811D01*
X11640Y10859D01*
X11603Y10866D01*
X11572Y10923D01*
X11576Y10933D01*
X11581Y10935D01*
X11594Y10937D01*
X11603Y10941D01*
X11640Y10948D01*
X11712Y10996D01*
X11761Y11068D01*
X11777Y11154D01*
X11761Y11239D01*
X11712Y11311D01*
X11640Y11359D01*
X11555Y11376D01*
D02*
G37*
G36*
X9097Y10557D02*
X9012Y10540D01*
X8940Y10492D01*
X8892Y10420D01*
X8875Y10335D01*
X8877Y10324D01*
X8877Y10323D01*
X8877Y10315D01*
X8876Y10308D01*
X8875Y10303D01*
X8874Y10299D01*
X8873Y10297D01*
X7277Y8701D01*
X7246Y8695D01*
X7203Y8666D01*
X7052Y8516D01*
X7024Y8473D01*
X7014Y8422D01*
Y7948D01*
X6688Y7623D01*
X6659Y7580D01*
X6649Y7530D01*
Y6581D01*
X6659Y6530D01*
X6688Y6487D01*
X11684Y1491D01*
X11727Y1463D01*
X11778Y1453D01*
X28626D01*
X28676Y1463D01*
X28719Y1491D01*
X30669Y3441D01*
X31617D01*
X31667Y3451D01*
X31710Y3479D01*
X32234Y4003D01*
X32234Y4003D01*
X32243Y4001D01*
X32252Y4000D01*
X32303Y3990D01*
X32388Y4007D01*
X32460Y4055D01*
X32509Y4128D01*
X32526Y4213D01*
X32509Y4298D01*
X32460Y4370D01*
X32388Y4418D01*
X32303Y4435D01*
X32218Y4418D01*
X32146Y4370D01*
X32098Y4298D01*
X32094Y4278D01*
X32092Y4275D01*
X32083Y4247D01*
X32080Y4238D01*
X32073Y4220D01*
X32070Y4216D01*
X32068Y4211D01*
X32067Y4210D01*
X31876Y4019D01*
X31853Y4032D01*
X31832Y4046D01*
X31816Y4128D01*
X31767Y4200D01*
X31695Y4248D01*
X31610Y4265D01*
X31525Y4248D01*
X31453Y4200D01*
X31405Y4128D01*
X31388Y4043D01*
X31390Y4033D01*
X31390Y4031D01*
X31389Y4028D01*
X31388Y4025D01*
X31388Y4023D01*
X31387Y4021D01*
X31386Y4020D01*
X31386Y4019D01*
X31209Y3843D01*
X30561D01*
X30507Y3832D01*
X30461Y3801D01*
X28514Y1855D01*
X11890D01*
X7061Y6683D01*
Y7428D01*
X7482Y7848D01*
X7513Y7895D01*
X7524Y7949D01*
Y8190D01*
X7524Y8191D01*
X7525Y8193D01*
X7525Y8195D01*
X7526Y8197D01*
X7528Y8199D01*
X7530Y8202D01*
X7531Y8203D01*
X7539Y8209D01*
X7587Y8281D01*
X7604Y8366D01*
X7587Y8451D01*
X7539Y8523D01*
X7532Y8528D01*
X7527Y8578D01*
X9060Y10110D01*
X9062Y10111D01*
X9066Y10112D01*
X9070Y10113D01*
X9087Y10114D01*
X9097Y10112D01*
X9183Y10129D01*
X9255Y10177D01*
X9303Y10250D01*
X9320Y10335D01*
X9303Y10420D01*
X9255Y10492D01*
X9183Y10540D01*
X9097Y10557D01*
D02*
G37*
G36*
X32014Y10230D02*
X31929Y10213D01*
X31857Y10165D01*
X31815Y10103D01*
X31795Y10099D01*
X31780D01*
X31760Y10103D01*
X31718Y10165D01*
X31646Y10213D01*
X31561Y10230D01*
X31476Y10213D01*
X31404Y10165D01*
X31356Y10092D01*
X31339Y10007D01*
X31356Y9922D01*
X31404Y9850D01*
X31476Y9802D01*
X31561Y9785D01*
X31646Y9802D01*
X31718Y9850D01*
X31760Y9912D01*
X31780Y9916D01*
X31795D01*
X31815Y9912D01*
X31857Y9850D01*
X31929Y9802D01*
X32014Y9785D01*
X32099Y9802D01*
X32171Y9850D01*
X32219Y9922D01*
X32236Y10007D01*
X32219Y10092D01*
X32171Y10165D01*
X32099Y10213D01*
X32014Y10230D01*
D02*
G37*
G36*
Y9610D02*
X31929Y9593D01*
X31857Y9545D01*
X31815Y9483D01*
X31795Y9478D01*
X31780D01*
X31760Y9483D01*
X31718Y9545D01*
X31646Y9593D01*
X31561Y9610D01*
X31476Y9593D01*
X31404Y9545D01*
X31356Y9472D01*
X31339Y9387D01*
X31356Y9302D01*
X31404Y9230D01*
X31476Y9182D01*
X31561Y9165D01*
X31646Y9182D01*
X31718Y9230D01*
X31760Y9292D01*
X31780Y9296D01*
X31795D01*
X31815Y9292D01*
X31857Y9230D01*
X31871Y9220D01*
Y9170D01*
X31857Y9161D01*
X31808Y9089D01*
X31791Y9003D01*
X31808Y8918D01*
X31857Y8846D01*
X31929Y8798D01*
X32014Y8781D01*
X32099Y8798D01*
X32171Y8846D01*
X32219Y8918D01*
X32236Y9003D01*
X32219Y9089D01*
X32171Y9161D01*
X32157Y9170D01*
Y9220D01*
X32171Y9230D01*
X32219Y9302D01*
X32236Y9387D01*
X32219Y9472D01*
X32171Y9545D01*
X32099Y9593D01*
X32014Y9610D01*
D02*
G37*
G36*
X5567Y9730D02*
X5482Y9713D01*
X5410Y9665D01*
X5361Y9593D01*
X5345Y9508D01*
X5361Y9423D01*
X5410Y9351D01*
X5482Y9302D01*
X5567Y9285D01*
X5652Y9302D01*
X5724Y9351D01*
X5772Y9423D01*
X5789Y9508D01*
X5772Y9593D01*
X5724Y9665D01*
X5652Y9713D01*
X5567Y9730D01*
D02*
G37*
G36*
X9524Y9233D02*
X9439Y9216D01*
X9366Y9168D01*
X9318Y9096D01*
X9301Y9011D01*
X9318Y8926D01*
X9366Y8854D01*
X9439Y8806D01*
X9524Y8789D01*
X9609Y8806D01*
X9681Y8854D01*
X9729Y8926D01*
X9746Y9011D01*
X9729Y9096D01*
X9681Y9168D01*
X9609Y9216D01*
X9524Y9233D01*
D02*
G37*
G36*
X8726D02*
X8641Y9216D01*
X8569Y9168D01*
X8521Y9096D01*
X8504Y9011D01*
X8521Y8926D01*
X8569Y8854D01*
X8641Y8806D01*
X8726Y8789D01*
X8811Y8806D01*
X8884Y8854D01*
X8932Y8926D01*
X8949Y9011D01*
X8932Y9096D01*
X8884Y9168D01*
X8811Y9216D01*
X8726Y9233D01*
D02*
G37*
G36*
X30443Y9228D02*
X30358Y9211D01*
X30286Y9163D01*
X30237Y9091D01*
X30221Y9006D01*
X30237Y8921D01*
X30286Y8849D01*
X30358Y8800D01*
X30443Y8784D01*
X30528Y8800D01*
X30600Y8849D01*
X30648Y8921D01*
X30665Y9006D01*
X30648Y9091D01*
X30600Y9163D01*
X30528Y9211D01*
X30443Y9228D01*
D02*
G37*
G36*
X6876Y9090D02*
X6791Y9074D01*
X6719Y9025D01*
X6671Y8953D01*
X6654Y8868D01*
X6671Y8783D01*
X6719Y8711D01*
X6791Y8663D01*
X6876Y8646D01*
X6961Y8663D01*
X7033Y8711D01*
X7081Y8783D01*
X7098Y8868D01*
X7081Y8953D01*
X7033Y9025D01*
X6961Y9074D01*
X6876Y9090D01*
D02*
G37*
G36*
X29872Y8411D02*
X29786Y8394D01*
X29714Y8346D01*
X29666Y8274D01*
X29649Y8188D01*
X29666Y8103D01*
X29714Y8031D01*
X29786Y7983D01*
X29872Y7966D01*
X29957Y7983D01*
X30029Y8031D01*
X30077Y8103D01*
X30094Y8188D01*
X30077Y8274D01*
X30029Y8346D01*
X29957Y8394D01*
X29872Y8411D01*
D02*
G37*
G36*
X8116Y7860D02*
X8031Y7843D01*
X7959Y7795D01*
X7934Y7758D01*
X7927Y7751D01*
X7924Y7745D01*
X7708D01*
X7656Y7735D01*
X7611Y7705D01*
X7227Y7320D01*
X7197Y7276D01*
X7187Y7223D01*
Y6971D01*
X7197Y6919D01*
X7227Y6874D01*
X10546Y3555D01*
X10591Y3525D01*
X10643Y3514D01*
X27392D01*
X27444Y3525D01*
X27489Y3555D01*
X28320Y4386D01*
X28350Y4431D01*
X28361Y4483D01*
Y4729D01*
X29477Y5846D01*
X29478Y5846D01*
X29480Y5847D01*
X29483Y5848D01*
X29487Y5849D01*
X29492Y5850D01*
X29497Y5850D01*
X29508Y5848D01*
X29593Y5865D01*
X29665Y5913D01*
X29713Y5985D01*
X29730Y6070D01*
X29713Y6155D01*
X29665Y6228D01*
X29593Y6276D01*
X29508Y6293D01*
X29423Y6276D01*
X29351Y6228D01*
X29302Y6155D01*
X29285Y6070D01*
X29288Y6060D01*
X29287Y6055D01*
X29286Y6050D01*
X29286Y6046D01*
X29285Y6043D01*
X29284Y6041D01*
X29283Y6040D01*
X28253Y5009D01*
X28207Y5028D01*
Y5611D01*
X28208Y5614D01*
X28212Y5617D01*
X28216Y5621D01*
X28224Y5627D01*
X28228Y5632D01*
X28248Y5645D01*
X28296Y5717D01*
X28313Y5802D01*
X28296Y5887D01*
X28248Y5959D01*
X28176Y6008D01*
X28091Y6025D01*
X28005Y6008D01*
X27934Y5960D01*
X27863Y6008D01*
X27778Y6025D01*
X27693Y6008D01*
X27621Y5959D01*
X27572Y5887D01*
X27555Y5802D01*
X27572Y5717D01*
X27621Y5645D01*
X27693Y5597D01*
X27778Y5580D01*
X27811Y5541D01*
Y4598D01*
X27242Y4030D01*
X10793D01*
X8162Y6660D01*
X8179Y6715D01*
X8205Y6720D01*
X8277Y6768D01*
X8326Y6840D01*
X8342Y6925D01*
X8326Y7010D01*
X8277Y7082D01*
X8205Y7131D01*
X8120Y7148D01*
X8050Y7134D01*
X8000Y7163D01*
Y7213D01*
X8000Y7213D01*
X8004Y7227D01*
X8006Y7231D01*
X8021Y7264D01*
X8027Y7275D01*
X8028Y7279D01*
X8040Y7297D01*
X8056Y7376D01*
X8064Y7392D01*
X8092Y7420D01*
X8116Y7415D01*
X8201Y7432D01*
X8273Y7481D01*
X8322Y7553D01*
X8339Y7638D01*
X8322Y7723D01*
X8273Y7795D01*
X8201Y7843D01*
X8116Y7860D01*
D02*
G37*
G36*
X31591Y7671D02*
X31505Y7654D01*
X31433Y7606D01*
X31385Y7533D01*
X31368Y7448D01*
X31385Y7363D01*
X31433Y7291D01*
X31505Y7243D01*
X31591Y7226D01*
X31676Y7243D01*
X31748Y7291D01*
X31796Y7363D01*
X31813Y7448D01*
X31796Y7533D01*
X31748Y7606D01*
X31676Y7654D01*
X31591Y7671D01*
D02*
G37*
G36*
X30287D02*
X30202Y7654D01*
X30130Y7606D01*
X30082Y7533D01*
X30065Y7448D01*
X30082Y7363D01*
X30130Y7291D01*
X30202Y7243D01*
X30287Y7226D01*
X30373Y7243D01*
X30445Y7291D01*
X30493Y7363D01*
X30510Y7448D01*
X30493Y7533D01*
X30445Y7606D01*
X30373Y7654D01*
X30287Y7671D01*
D02*
G37*
G36*
X20008Y14311D02*
X13693D01*
X13632Y14311D01*
X13622Y14309D01*
X13612D01*
X13492Y14285D01*
X13482Y14281D01*
X13472Y14279D01*
X13359Y14232D01*
X13351Y14226D01*
X13342Y14223D01*
X13240Y14155D01*
X13233Y14147D01*
X13224Y14142D01*
X13138Y14055D01*
X13132Y14047D01*
X13125Y14040D01*
X13057Y13938D01*
X13053Y13929D01*
X13047Y13920D01*
X13001Y13807D01*
X12999Y13797D01*
X12995Y13788D01*
X12971Y13668D01*
Y13658D01*
X12969Y13648D01*
Y13587D01*
X12969Y13587D01*
X12969Y7665D01*
Y7604D01*
X12971Y7594D01*
Y7584D01*
X12995Y7464D01*
X12999Y7455D01*
X13001Y7445D01*
X13047Y7332D01*
X13053Y7323D01*
X13057Y7314D01*
X13125Y7212D01*
X13132Y7205D01*
X13138Y7197D01*
X13224Y7110D01*
X13233Y7104D01*
X13240Y7097D01*
X13342Y7029D01*
X13351Y7025D01*
X13359Y7020D01*
X13472Y6973D01*
X13482Y6971D01*
X13492Y6967D01*
X13612Y6943D01*
X13622D01*
X13632Y6941D01*
X13693D01*
X13693Y6941D01*
X20008D01*
X20069Y6941D01*
X20079Y6943D01*
X20089D01*
X20209Y6967D01*
X20218Y6971D01*
X20228Y6973D01*
X20342Y7020D01*
X20350Y7025D01*
X20359Y7029D01*
X20461Y7097D01*
X20468Y7104D01*
X20476Y7110D01*
X20563Y7197D01*
X20569Y7205D01*
X20576Y7212D01*
X20644Y7314D01*
X20648Y7323D01*
X20653Y7332D01*
X20700Y7445D01*
X20702Y7455D01*
X20706Y7464D01*
X20730Y7584D01*
Y7594D01*
X20732Y7604D01*
Y7665D01*
X20732Y7665D01*
Y13587D01*
X20732Y13648D01*
X20730Y13658D01*
Y13668D01*
X20706Y13788D01*
X20702Y13797D01*
X20700Y13807D01*
X20653Y13920D01*
X20648Y13929D01*
X20644Y13938D01*
X20576Y14040D01*
X20569Y14047D01*
X20563Y14055D01*
X20476Y14142D01*
X20468Y14147D01*
X20461Y14155D01*
X20359Y14223D01*
X20350Y14226D01*
X20342Y14232D01*
X20228Y14279D01*
X20218Y14281D01*
X20209Y14285D01*
X20089Y14309D01*
X20079D01*
X20069Y14311D01*
X20008D01*
X20008Y14311D01*
D02*
G37*
G36*
X28339Y7120D02*
X28254Y7103D01*
X28182Y7054D01*
X28133Y6982D01*
X28116Y6897D01*
X28118Y6888D01*
X28118Y6886D01*
X28118Y6882D01*
X28117Y6880D01*
X28116Y6877D01*
X28115Y6876D01*
X28114Y6874D01*
X28114Y6873D01*
X28086Y6845D01*
X26503D01*
X26448Y6834D01*
X26402Y6803D01*
X25223Y5624D01*
X23483D01*
X23482Y5624D01*
X23480Y5625D01*
X23478Y5626D01*
X23476Y5627D01*
X23474Y5628D01*
X23471Y5630D01*
X23470Y5631D01*
X23464Y5640D01*
X23392Y5688D01*
X23307Y5705D01*
X23222Y5688D01*
X23150Y5640D01*
X23102Y5567D01*
X23085Y5482D01*
X23102Y5397D01*
X23150Y5325D01*
X23222Y5277D01*
X23307Y5260D01*
X23384Y5275D01*
X23404Y5254D01*
X23413Y5234D01*
X22998Y4818D01*
X16603D01*
X16521Y4901D01*
X16537Y4955D01*
X16571Y4962D01*
X16643Y5010D01*
X16692Y5082D01*
X16709Y5167D01*
X16692Y5252D01*
X16643Y5325D01*
X16571Y5373D01*
X16486Y5390D01*
X16401Y5373D01*
X16329Y5325D01*
X16281Y5252D01*
X16274Y5218D01*
X16220Y5202D01*
X16095Y5327D01*
X16093Y5328D01*
X16092Y5331D01*
X16093Y5335D01*
X16076Y5420D01*
X16028Y5492D01*
X15955Y5540D01*
X15870Y5557D01*
X15785Y5540D01*
X15713Y5492D01*
X15665Y5420D01*
X15648Y5335D01*
X15665Y5250D01*
X15713Y5177D01*
X15785Y5129D01*
X15870Y5112D01*
X15874Y5113D01*
X15877Y5111D01*
X15878Y5110D01*
X16431Y4557D01*
X16481Y4524D01*
X16540Y4512D01*
X23061D01*
X23120Y4524D01*
X23169Y4557D01*
X23764Y5152D01*
X25315D01*
X25373Y5164D01*
X25423Y5197D01*
X26628Y6401D01*
X27538D01*
X27549Y6391D01*
X27553Y6386D01*
X27555Y6383D01*
X27558Y6379D01*
X27560Y6376D01*
X27561Y6373D01*
X27562Y6371D01*
X27562Y6369D01*
X27564Y6365D01*
X27567Y6358D01*
X27572Y6330D01*
X27621Y6258D01*
X27693Y6210D01*
X27778Y6193D01*
X27863Y6210D01*
X27935Y6258D01*
X27983Y6330D01*
X28000Y6415D01*
X27983Y6500D01*
X27972Y6517D01*
X27996Y6561D01*
X28144D01*
X28199Y6571D01*
X28245Y6602D01*
X28315Y6672D01*
X28316Y6673D01*
X28317Y6674D01*
X28319Y6675D01*
X28321Y6675D01*
X28324Y6676D01*
X28327Y6677D01*
X28329Y6677D01*
X28339Y6675D01*
X28424Y6692D01*
X28496Y6740D01*
X28544Y6812D01*
X28561Y6897D01*
X28544Y6982D01*
X28496Y7054D01*
X28424Y7103D01*
X28339Y7120D01*
D02*
G37*
G36*
X9636Y6858D02*
X9551Y6841D01*
X9479Y6793D01*
X9430Y6721D01*
X9413Y6636D01*
X9430Y6551D01*
X9459Y6508D01*
X9429Y6463D01*
X9429Y6463D01*
X9344Y6446D01*
X9293Y6411D01*
X9257Y6402D01*
X9221Y6411D01*
X9170Y6446D01*
X9085Y6463D01*
X9000Y6446D01*
X8927Y6397D01*
X8879Y6325D01*
X8862Y6240D01*
X8879Y6155D01*
X8927Y6083D01*
X9000Y6035D01*
X9085Y6018D01*
X9170Y6035D01*
X9221Y6069D01*
X9257Y6079D01*
X9293Y6069D01*
X9344Y6035D01*
X9429Y6018D01*
X9514Y6035D01*
X9586Y6083D01*
X9635Y6155D01*
X9652Y6240D01*
X9635Y6325D01*
X9606Y6368D01*
X9636Y6413D01*
X9636Y6413D01*
X9721Y6430D01*
X9793Y6479D01*
X9841Y6551D01*
X9858Y6636D01*
X9841Y6721D01*
X9793Y6793D01*
X9721Y6841D01*
X9636Y6858D01*
D02*
G37*
G36*
X17904Y5390D02*
X17818Y5373D01*
X17746Y5325D01*
X17698Y5252D01*
X17681Y5167D01*
X17698Y5082D01*
X17746Y5010D01*
X17818Y4962D01*
X17904Y4945D01*
X17989Y4962D01*
X18061Y5010D01*
X18109Y5082D01*
X18126Y5167D01*
X18109Y5252D01*
X18061Y5325D01*
X17989Y5373D01*
X17904Y5390D01*
D02*
G37*
G36*
X26591Y3271D02*
X26473Y3255D01*
X26363Y3210D01*
X26269Y3138D01*
X26197Y3044D01*
X26152Y2934D01*
X26136Y2817D01*
X26152Y2699D01*
X26197Y2589D01*
X26269Y2495D01*
X26363Y2423D01*
X26473Y2378D01*
X26591Y2362D01*
X26708Y2378D01*
X26818Y2423D01*
X26912Y2495D01*
X26984Y2589D01*
X27029Y2699D01*
X27045Y2817D01*
X27029Y2934D01*
X26984Y3044D01*
X26912Y3138D01*
X26818Y3210D01*
X26708Y3255D01*
X26591Y3271D01*
D02*
G37*
G36*
X24591D02*
X24473Y3255D01*
X24363Y3210D01*
X24269Y3138D01*
X24197Y3044D01*
X24152Y2934D01*
X24136Y2817D01*
X24152Y2699D01*
X24197Y2589D01*
X24269Y2495D01*
X24363Y2423D01*
X24473Y2378D01*
X24591Y2362D01*
X24708Y2378D01*
X24818Y2423D01*
X24912Y2495D01*
X24984Y2589D01*
X25029Y2699D01*
X25045Y2817D01*
X25029Y2934D01*
X24984Y3044D01*
X24912Y3138D01*
X24818Y3210D01*
X24708Y3255D01*
X24591Y3271D01*
D02*
G37*
G36*
X14866D02*
X14749Y3255D01*
X14639Y3210D01*
X14545Y3138D01*
X14473Y3044D01*
X14427Y2934D01*
X14412Y2817D01*
X14427Y2699D01*
X14473Y2589D01*
X14545Y2495D01*
X14639Y2423D01*
X14749Y2378D01*
X14866Y2362D01*
X14984Y2378D01*
X15093Y2423D01*
X15187Y2495D01*
X15260Y2589D01*
X15305Y2699D01*
X15320Y2817D01*
X15305Y2934D01*
X15260Y3044D01*
X15187Y3138D01*
X15093Y3210D01*
X14984Y3255D01*
X14866Y3271D01*
D02*
G37*
G36*
X6866D02*
X6749Y3255D01*
X6639Y3210D01*
X6545Y3138D01*
X6473Y3044D01*
X6427Y2934D01*
X6412Y2817D01*
X6427Y2699D01*
X6473Y2589D01*
X6545Y2495D01*
X6639Y2423D01*
X6749Y2378D01*
X6866Y2362D01*
X6984Y2378D01*
X7093Y2423D01*
X7187Y2495D01*
X7260Y2589D01*
X7305Y2699D01*
X7320Y2817D01*
X7305Y2934D01*
X7260Y3044D01*
X7187Y3138D01*
X7093Y3210D01*
X6984Y3255D01*
X6866Y3271D01*
D02*
G37*
%LPD*%
G36*
X13371Y20626D02*
X13379Y20618D01*
X13389Y20612D01*
X13398Y20606D01*
X13408Y20601D01*
X13418Y20597D01*
X13428Y20594D01*
X13438Y20592D01*
X13449Y20591D01*
X13460Y20591D01*
Y20512D01*
X13449Y20511D01*
X13438Y20510D01*
X13428Y20508D01*
X13418Y20505D01*
X13408Y20501D01*
X13398Y20496D01*
X13389Y20491D01*
X13379Y20484D01*
X13371Y20477D01*
X13362Y20468D01*
Y20634D01*
X13371Y20626D01*
D02*
G37*
G36*
X17387Y20474D02*
X17396Y20467D01*
X17405Y20462D01*
X17414Y20457D01*
X17424Y20452D01*
X17434Y20449D01*
X17445Y20446D01*
X17456Y20444D01*
X17467Y20443D01*
X17479Y20443D01*
X17362Y20326D01*
X17362Y20338D01*
X17361Y20349D01*
X17359Y20360D01*
X17356Y20371D01*
X17353Y20381D01*
X17349Y20391D01*
X17344Y20400D01*
X17338Y20409D01*
X17331Y20418D01*
X17324Y20426D01*
X17379Y20481D01*
X17387Y20474D01*
D02*
G37*
G36*
X17462Y19681D02*
X17453Y19689D01*
X17444Y19697D01*
X17435Y19703D01*
X17425Y19709D01*
X17416Y19714D01*
X17406Y19717D01*
X17396Y19721D01*
X17385Y19723D01*
X17375Y19724D01*
X17364Y19724D01*
Y19803D01*
X17375Y19804D01*
X17385Y19805D01*
X17396Y19807D01*
X17406Y19810D01*
X17416Y19814D01*
X17425Y19819D01*
X17435Y19824D01*
X17444Y19831D01*
X17453Y19838D01*
X17462Y19846D01*
Y19681D01*
D02*
G37*
G36*
X16166Y19838D02*
X16175Y19831D01*
X16184Y19824D01*
X16193Y19819D01*
X16203Y19814D01*
X16213Y19810D01*
X16223Y19807D01*
X16233Y19805D01*
X16244Y19804D01*
X16255Y19803D01*
Y19724D01*
X16244Y19724D01*
X16233Y19723D01*
X16223Y19721D01*
X16213Y19717D01*
X16203Y19714D01*
X16193Y19709D01*
X16184Y19703D01*
X16175Y19697D01*
X16166Y19689D01*
X16157Y19681D01*
Y19846D01*
X16166Y19838D01*
D02*
G37*
G36*
X12057Y20233D02*
X12058Y20221D01*
X12060Y20210D01*
X12063Y20200D01*
X12066Y20190D01*
X12071Y20180D01*
X12076Y20171D01*
X12082Y20162D01*
X12088Y20153D01*
X12096Y20145D01*
X12040Y20089D01*
X12032Y20097D01*
X12023Y20103D01*
X12015Y20109D01*
X12005Y20114D01*
X11995Y20119D01*
X11985Y20122D01*
X11975Y20125D01*
X11964Y20127D01*
X11952Y20128D01*
X11940Y20128D01*
X12057Y20245D01*
X12057Y20233D01*
D02*
G37*
G36*
X16441Y19130D02*
X16433Y19138D01*
X16424Y19146D01*
X16415Y19152D01*
X16405Y19158D01*
X16396Y19162D01*
X16386Y19166D01*
X16375Y19169D01*
X16365Y19172D01*
X16354Y19173D01*
X16343Y19173D01*
Y19252D01*
X16354Y19252D01*
X16365Y19254D01*
X16375Y19256D01*
X16386Y19259D01*
X16396Y19263D01*
X16405Y19268D01*
X16415Y19273D01*
X16424Y19280D01*
X16433Y19287D01*
X16441Y19295D01*
Y19130D01*
D02*
G37*
G36*
X13813Y19287D02*
X13822Y19280D01*
X13831Y19273D01*
X13841Y19268D01*
X13851Y19263D01*
X13860Y19259D01*
X13871Y19256D01*
X13881Y19254D01*
X13892Y19252D01*
X13903Y19252D01*
Y19173D01*
X13892Y19173D01*
X13881Y19172D01*
X13871Y19169D01*
X13860Y19166D01*
X13851Y19162D01*
X13841Y19158D01*
X13831Y19152D01*
X13822Y19146D01*
X13813Y19138D01*
X13805Y19130D01*
Y19295D01*
X13813Y19287D01*
D02*
G37*
G36*
X13636Y19130D02*
X13628Y19138D01*
X13619Y19146D01*
X13609Y19152D01*
X13600Y19158D01*
X13590Y19162D01*
X13581Y19166D01*
X13570Y19169D01*
X13560Y19172D01*
X13549Y19173D01*
X13538Y19173D01*
Y19252D01*
X13549Y19252D01*
X13560Y19254D01*
X13570Y19256D01*
X13581Y19259D01*
X13590Y19263D01*
X13600Y19268D01*
X13609Y19273D01*
X13619Y19280D01*
X13628Y19287D01*
X13636Y19295D01*
Y19130D01*
D02*
G37*
G36*
X12485Y19021D02*
X12494Y19014D01*
X12503Y19007D01*
X12512Y19002D01*
X12522Y18997D01*
X12532Y18993D01*
X12542Y18990D01*
X12552Y18988D01*
X12563Y18987D01*
X12574Y18986D01*
Y18907D01*
X12563Y18907D01*
X12552Y18906D01*
X12542Y18904D01*
X12532Y18901D01*
X12522Y18897D01*
X12512Y18892D01*
X12503Y18886D01*
X12494Y18880D01*
X12485Y18872D01*
X12476Y18864D01*
Y19030D01*
X12485Y19021D01*
D02*
G37*
G36*
X15773Y18899D02*
X15782Y18893D01*
X15791Y18887D01*
X15800Y18882D01*
X15810Y18877D01*
X15820Y18874D01*
X15831Y18871D01*
X15842Y18869D01*
X15853Y18868D01*
X15865Y18868D01*
X15748Y18751D01*
X15748Y18763D01*
X15747Y18775D01*
X15745Y18786D01*
X15742Y18796D01*
X15739Y18806D01*
X15734Y18816D01*
X15729Y18826D01*
X15724Y18834D01*
X15717Y18843D01*
X15709Y18851D01*
X15765Y18907D01*
X15773Y18899D01*
D02*
G37*
G36*
X20240Y20230D02*
X20223Y20210D01*
X20216Y20199D01*
X20210Y20189D01*
X20205Y20179D01*
X20202Y20169D01*
X20199Y20159D01*
X20197Y20149D01*
X20197Y20140D01*
X20138D01*
X20137Y20149D01*
X20136Y20159D01*
X20133Y20169D01*
X20129Y20179D01*
X20125Y20189D01*
X20119Y20199D01*
X20112Y20210D01*
X20104Y20220D01*
X20095Y20230D01*
X20085Y20240D01*
X20250D01*
X20240Y20230D01*
D02*
G37*
G36*
X12703Y18183D02*
X12724Y18166D01*
X12734Y18159D01*
X12744Y18153D01*
X12754Y18148D01*
X12764Y18145D01*
X12774Y18142D01*
X12784Y18140D01*
X12793Y18140D01*
Y18081D01*
X12784Y18080D01*
X12774Y18079D01*
X12764Y18076D01*
X12754Y18072D01*
X12744Y18067D01*
X12734Y18062D01*
X12724Y18055D01*
X12713Y18047D01*
X12703Y18038D01*
X12693Y18028D01*
Y18193D01*
X12703Y18183D01*
D02*
G37*
G36*
X12477Y17976D02*
X12497Y17959D01*
X12507Y17952D01*
X12518Y17946D01*
X12528Y17942D01*
X12538Y17938D01*
X12547Y17935D01*
X12557Y17934D01*
X12567Y17933D01*
Y17874D01*
X12557Y17873D01*
X12547Y17872D01*
X12538Y17869D01*
X12528Y17866D01*
X12518Y17861D01*
X12507Y17855D01*
X12497Y17848D01*
X12487Y17840D01*
X12477Y17831D01*
X12466Y17821D01*
Y17986D01*
X12477Y17976D01*
D02*
G37*
G36*
X6916Y17612D02*
X6936Y17595D01*
X6946Y17588D01*
X6956Y17582D01*
X6967Y17577D01*
X6977Y17574D01*
X6986Y17571D01*
X6996Y17569D01*
X7006Y17569D01*
Y17510D01*
X6996Y17509D01*
X6986Y17508D01*
X6977Y17505D01*
X6967Y17501D01*
X6956Y17497D01*
X6946Y17491D01*
X6936Y17484D01*
X6926Y17476D01*
X6916Y17467D01*
X6905Y17457D01*
Y17622D01*
X6916Y17612D01*
D02*
G37*
G36*
X7219Y17384D02*
X7212Y17376D01*
X7206Y17368D01*
X7201Y17359D01*
X7197Y17350D01*
X7193Y17339D01*
X7190Y17328D01*
X7188Y17316D01*
X7186Y17303D01*
X7185Y17289D01*
X7185Y17275D01*
X7068Y17392D01*
X7083Y17392D01*
X7109Y17394D01*
X7121Y17397D01*
X7133Y17400D01*
X7143Y17404D01*
X7153Y17408D01*
X7162Y17413D01*
X7170Y17419D01*
X7177Y17425D01*
X7219Y17384D01*
D02*
G37*
G36*
X26429Y17134D02*
X26416Y17138D01*
X26404Y17140D01*
X26393Y17141D01*
X26382Y17141D01*
X26371Y17140D01*
X26361Y17137D01*
X26352Y17134D01*
X26343Y17129D01*
X26335Y17123D01*
X26327Y17116D01*
X26298Y17171D01*
X26304Y17177D01*
X26309Y17184D01*
X26315Y17193D01*
X26320Y17202D01*
X26325Y17213D01*
X26335Y17236D01*
X26340Y17250D01*
X26349Y17279D01*
X26429Y17134D01*
D02*
G37*
G36*
X23454Y16939D02*
X23439Y16939D01*
X23412Y16936D01*
X23400Y16934D01*
X23389Y16931D01*
X23379Y16927D01*
X23369Y16923D01*
X23360Y16918D01*
X23352Y16912D01*
X23345Y16905D01*
X23303Y16947D01*
X23309Y16954D01*
X23315Y16962D01*
X23320Y16971D01*
X23325Y16981D01*
X23329Y16991D01*
X23332Y17003D01*
X23334Y17015D01*
X23336Y17028D01*
X23336Y17041D01*
X23337Y17056D01*
X23454Y16939D01*
D02*
G37*
G36*
X26671Y16921D02*
X26656Y16920D01*
X26630Y16918D01*
X26618Y16916D01*
X26606Y16913D01*
X26596Y16909D01*
X26586Y16904D01*
X26577Y16899D01*
X26569Y16893D01*
X26562Y16887D01*
X26520Y16929D01*
X26527Y16936D01*
X26532Y16944D01*
X26538Y16953D01*
X26542Y16963D01*
X26546Y16973D01*
X26549Y16984D01*
X26551Y16997D01*
X26553Y17009D01*
X26554Y17023D01*
X26554Y17038D01*
X26671Y16921D01*
D02*
G37*
G36*
X18779Y18936D02*
X18779Y18935D01*
X18781Y18933D01*
X18789Y18925D01*
X18807Y18906D01*
X18752Y18850D01*
X18721Y18879D01*
X18779Y18937D01*
X18779Y18936D01*
D02*
G37*
G36*
X18570Y18811D02*
X18578Y18804D01*
X18587Y18797D01*
X18597Y18791D01*
X18606Y18787D01*
X18616Y18783D01*
X18626Y18779D01*
X18636Y18777D01*
X18647Y18776D01*
X18658Y18775D01*
X18655Y18697D01*
X18644Y18696D01*
X18634Y18695D01*
X18623Y18693D01*
X18613Y18690D01*
X18603Y18686D01*
X18593Y18682D01*
X18583Y18676D01*
X18574Y18670D01*
X18565Y18663D01*
X18556Y18655D01*
X18562Y18820D01*
X18570Y18811D01*
D02*
G37*
G36*
X22998Y18486D02*
X23006Y18479D01*
X23015Y18473D01*
X23024Y18468D01*
X23034Y18464D01*
X23044Y18461D01*
X23055Y18458D01*
X23066Y18456D01*
X23077Y18455D01*
X23089Y18455D01*
X22972Y18338D01*
X22972Y18350D01*
X22971Y18361D01*
X22969Y18372D01*
X22967Y18383D01*
X22963Y18393D01*
X22959Y18403D01*
X22954Y18412D01*
X22948Y18421D01*
X22941Y18430D01*
X22934Y18438D01*
X22990Y18493D01*
X22998Y18486D01*
D02*
G37*
G36*
X23209Y18324D02*
X23210Y18312D01*
X23212Y18301D01*
X23215Y18290D01*
X23218Y18280D01*
X23222Y18270D01*
X23227Y18261D01*
X23233Y18252D01*
X23240Y18244D01*
X23247Y18236D01*
X23192Y18180D01*
X23184Y18187D01*
X23175Y18194D01*
X23166Y18200D01*
X23157Y18205D01*
X23147Y18209D01*
X23137Y18213D01*
X23126Y18215D01*
X23115Y18217D01*
X23104Y18218D01*
X23092Y18219D01*
X23209Y18335D01*
X23209Y18324D01*
D02*
G37*
G36*
X25130Y17489D02*
X25120Y17497D01*
X25111Y17504D01*
X25101Y17510D01*
X25091Y17515D01*
X25081Y17519D01*
X25071Y17523D01*
X25060Y17526D01*
X25050Y17528D01*
X25039Y17529D01*
X25028Y17530D01*
X25021Y17608D01*
X25033Y17609D01*
X25043Y17610D01*
X25054Y17612D01*
X25064Y17616D01*
X25073Y17620D01*
X25082Y17625D01*
X25091Y17631D01*
X25100Y17638D01*
X25108Y17645D01*
X25116Y17654D01*
X25130Y17489D01*
D02*
G37*
G36*
X24788Y17220D02*
X24779Y17229D01*
X24770Y17236D01*
X24761Y17243D01*
X24752Y17248D01*
X24742Y17253D01*
X24732Y17257D01*
X24722Y17260D01*
X24711Y17262D01*
X24701Y17263D01*
X24690Y17264D01*
Y17343D01*
X24701Y17343D01*
X24711Y17344D01*
X24722Y17346D01*
X24732Y17349D01*
X24742Y17353D01*
X24752Y17358D01*
X24761Y17364D01*
X24770Y17370D01*
X24779Y17378D01*
X24788Y17386D01*
Y17220D01*
D02*
G37*
G36*
X14463Y17004D02*
X14453Y17014D01*
X14432Y17031D01*
X14422Y17038D01*
X14412Y17044D01*
X14402Y17049D01*
X14392Y17052D01*
X14382Y17055D01*
X14372Y17057D01*
X14362Y17057D01*
Y17116D01*
X14372Y17117D01*
X14382Y17118D01*
X14392Y17121D01*
X14402Y17125D01*
X14412Y17129D01*
X14422Y17135D01*
X14432Y17142D01*
X14442Y17150D01*
X14453Y17159D01*
X14463Y17169D01*
Y17004D01*
D02*
G37*
G36*
X13178Y16949D02*
X13163Y16949D01*
X13137Y16946D01*
X13125Y16944D01*
X13114Y16941D01*
X13103Y16937D01*
X13093Y16933D01*
X13084Y16927D01*
X13076Y16922D01*
X13069Y16915D01*
X13027Y16957D01*
X13034Y16964D01*
X13040Y16972D01*
X13045Y16981D01*
X13049Y16991D01*
X13053Y17001D01*
X13056Y17013D01*
X13058Y17025D01*
X13060Y17038D01*
X13061Y17051D01*
X13061Y17066D01*
X13178Y16949D01*
D02*
G37*
G36*
X14927Y15874D02*
X14935Y15868D01*
X14944Y15863D01*
X14953Y15858D01*
X14964Y15855D01*
X14975Y15851D01*
X14987Y15849D01*
X15000Y15848D01*
X15014Y15847D01*
X15028Y15846D01*
X14911Y15730D01*
X14911Y15744D01*
X14909Y15771D01*
X14906Y15783D01*
X14903Y15794D01*
X14900Y15804D01*
X14895Y15814D01*
X14890Y15823D01*
X14884Y15831D01*
X14878Y15838D01*
X14919Y15880D01*
X14927Y15874D01*
D02*
G37*
G36*
X13598Y15854D02*
X13606Y15848D01*
X13615Y15843D01*
X13625Y15839D01*
X13635Y15835D01*
X13646Y15832D01*
X13659Y15829D01*
X13671Y15828D01*
X13685Y15827D01*
X13700Y15827D01*
X13583Y15710D01*
X13582Y15724D01*
X13580Y15751D01*
X13578Y15763D01*
X13575Y15774D01*
X13571Y15785D01*
X13566Y15794D01*
X13561Y15803D01*
X13555Y15811D01*
X13549Y15819D01*
X13591Y15861D01*
X13598Y15854D01*
D02*
G37*
G36*
X5350Y12498D02*
X5358Y12492D01*
X5367Y12487D01*
X5377Y12482D01*
X5387Y12479D01*
X5398Y12476D01*
X5411Y12473D01*
X5423Y12472D01*
X5437Y12471D01*
X5452Y12470D01*
X5335Y12354D01*
X5334Y12368D01*
X5332Y12395D01*
X5330Y12407D01*
X5327Y12418D01*
X5323Y12428D01*
X5318Y12438D01*
X5313Y12447D01*
X5307Y12455D01*
X5301Y12462D01*
X5343Y12504D01*
X5350Y12498D01*
D02*
G37*
G36*
X5133Y12291D02*
X5142Y12285D01*
X5150Y12280D01*
X5160Y12276D01*
X5171Y12272D01*
X5182Y12269D01*
X5194Y12266D01*
X5207Y12265D01*
X5221Y12264D01*
X5235Y12264D01*
X5118Y12147D01*
X5118Y12161D01*
X5115Y12188D01*
X5113Y12200D01*
X5110Y12211D01*
X5106Y12222D01*
X5102Y12231D01*
X5097Y12240D01*
X5091Y12248D01*
X5084Y12256D01*
X5126Y12298D01*
X5133Y12291D01*
D02*
G37*
G36*
X4774Y12203D02*
X4776Y12193D01*
X4778Y12183D01*
X4782Y12173D01*
X4787Y12163D01*
X4793Y12153D01*
X4800Y12143D01*
X4808Y12133D01*
X4817Y12122D01*
X4827Y12112D01*
X4661D01*
X4672Y12122D01*
X4689Y12143D01*
X4695Y12153D01*
X4701Y12163D01*
X4706Y12173D01*
X4710Y12183D01*
X4712Y12193D01*
X4714Y12203D01*
X4715Y12213D01*
X4774D01*
X4774Y12203D01*
D02*
G37*
G36*
X4981Y11986D02*
X4982Y11977D01*
X4985Y11967D01*
X4989Y11957D01*
X4994Y11947D01*
X4999Y11937D01*
X5006Y11926D01*
X5014Y11916D01*
X5023Y11906D01*
X5033Y11895D01*
X4868D01*
X4878Y11906D01*
X4895Y11926D01*
X4902Y11937D01*
X4908Y11947D01*
X4913Y11957D01*
X4916Y11967D01*
X4919Y11977D01*
X4921Y11986D01*
X4921Y11996D01*
X4980D01*
X4981Y11986D01*
D02*
G37*
G36*
X29705Y16677D02*
X29707Y16650D01*
X29710Y16638D01*
X29713Y16627D01*
X29717Y16616D01*
X29721Y16607D01*
X29726Y16598D01*
X29732Y16590D01*
X29738Y16582D01*
X29697Y16541D01*
X29689Y16547D01*
X29681Y16553D01*
X29672Y16558D01*
X29663Y16563D01*
X29652Y16566D01*
X29641Y16569D01*
X29629Y16572D01*
X29616Y16573D01*
X29602Y16574D01*
X29588Y16574D01*
X29705Y16691D01*
X29705Y16677D01*
D02*
G37*
G36*
X29105D02*
X29107Y16650D01*
X29109Y16638D01*
X29112Y16627D01*
X29116Y16616D01*
X29121Y16607D01*
X29126Y16598D01*
X29132Y16590D01*
X29138Y16582D01*
X29096Y16541D01*
X29089Y16547D01*
X29081Y16553D01*
X29072Y16558D01*
X29062Y16563D01*
X29052Y16566D01*
X29041Y16569D01*
X29028Y16572D01*
X29016Y16573D01*
X29002Y16574D01*
X28987Y16574D01*
X29104Y16691D01*
X29105Y16677D01*
D02*
G37*
G36*
X29415Y7309D02*
X29423Y7304D01*
X29432Y7298D01*
X29442Y7294D01*
X29452Y7290D01*
X29463Y7287D01*
X29475Y7285D01*
X29488Y7283D01*
X29502Y7282D01*
X29517Y7282D01*
X29400Y7165D01*
X29399Y7180D01*
X29397Y7206D01*
X29395Y7218D01*
X29392Y7230D01*
X29388Y7240D01*
X29383Y7250D01*
X29378Y7259D01*
X29372Y7267D01*
X29366Y7274D01*
X29408Y7316D01*
X29415Y7309D01*
D02*
G37*
G36*
X29410Y3975D02*
X29412Y3965D01*
X29414Y3955D01*
X29418Y3945D01*
X29423Y3935D01*
X29429Y3925D01*
X29435Y3915D01*
X29443Y3904D01*
X29453Y3894D01*
X29463Y3884D01*
X29297D01*
X29307Y3894D01*
X29324Y3915D01*
X29331Y3925D01*
X29337Y3935D01*
X29342Y3945D01*
X29346Y3955D01*
X29348Y3965D01*
X29350Y3975D01*
X29350Y3984D01*
X29409D01*
X29410Y3975D01*
D02*
G37*
G36*
X7558Y14822D02*
X7552Y14815D01*
X7546Y14807D01*
X7540Y14799D01*
X7535Y14789D01*
X7531Y14779D01*
X7527Y14767D01*
X7523Y14755D01*
X7517Y14727D01*
X7515Y14712D01*
X7416Y14845D01*
X7430Y14843D01*
X7443Y14842D01*
X7455Y14842D01*
X7467Y14844D01*
X7478Y14846D01*
X7488Y14849D01*
X7497Y14853D01*
X7506Y14857D01*
X7515Y14863D01*
X7522Y14870D01*
X7558Y14822D01*
D02*
G37*
G36*
X12450Y14619D02*
X12443Y14611D01*
X12436Y14602D01*
X12430Y14593D01*
X12425Y14584D01*
X12421Y14574D01*
X12417Y14564D01*
X12415Y14553D01*
X12413Y14542D01*
X12412Y14531D01*
X12411Y14519D01*
X12294Y14636D01*
X12306Y14636D01*
X12318Y14637D01*
X12329Y14639D01*
X12340Y14642D01*
X12350Y14645D01*
X12360Y14649D01*
X12369Y14654D01*
X12378Y14660D01*
X12386Y14667D01*
X12394Y14674D01*
X12450Y14619D01*
D02*
G37*
G36*
X7353Y13860D02*
X7346Y13853D01*
X7340Y13845D01*
X7335Y13836D01*
X7331Y13826D01*
X7327Y13816D01*
X7324Y13804D01*
X7322Y13792D01*
X7320Y13779D01*
X7319Y13766D01*
X7319Y13751D01*
X7202Y13868D01*
X7216Y13868D01*
X7243Y13871D01*
X7255Y13873D01*
X7266Y13876D01*
X7277Y13880D01*
X7287Y13884D01*
X7295Y13889D01*
X7304Y13895D01*
X7311Y13902D01*
X7353Y13860D01*
D02*
G37*
G36*
X21290Y13819D02*
X21291Y13812D01*
X21293Y13805D01*
X21297Y13797D01*
X21301Y13789D01*
X21306Y13781D01*
X21312Y13773D01*
X21319Y13764D01*
X21335Y13746D01*
X21252Y13663D01*
X21243Y13672D01*
X21225Y13686D01*
X21217Y13692D01*
X21209Y13698D01*
X21201Y13702D01*
X21193Y13705D01*
X21186Y13707D01*
X21179Y13708D01*
X21172Y13709D01*
X21289Y13826D01*
X21290Y13819D01*
D02*
G37*
G36*
X7353Y13521D02*
X7346Y13513D01*
X7340Y13505D01*
X7335Y13496D01*
X7331Y13487D01*
X7327Y13476D01*
X7324Y13465D01*
X7322Y13453D01*
X7320Y13440D01*
X7319Y13426D01*
X7319Y13412D01*
X7202Y13529D01*
X7216Y13529D01*
X7243Y13531D01*
X7255Y13534D01*
X7266Y13537D01*
X7277Y13540D01*
X7287Y13545D01*
X7295Y13550D01*
X7304Y13556D01*
X7311Y13562D01*
X7353Y13521D01*
D02*
G37*
G36*
X24071Y11152D02*
X24061Y11162D01*
X24040Y11179D01*
X24030Y11186D01*
X24020Y11191D01*
X24010Y11196D01*
X24000Y11200D01*
X23990Y11203D01*
X23980Y11204D01*
X23970Y11205D01*
Y11264D01*
X23980Y11264D01*
X23990Y11266D01*
X24000Y11269D01*
X24010Y11272D01*
X24020Y11277D01*
X24030Y11283D01*
X24040Y11290D01*
X24051Y11298D01*
X24061Y11307D01*
X24071Y11317D01*
Y11152D01*
D02*
G37*
G36*
X22794Y11241D02*
X22787Y11234D01*
X22781Y11225D01*
X22776Y11216D01*
X22772Y11207D01*
X22770Y11197D01*
X22768Y11186D01*
X22767Y11174D01*
X22768Y11162D01*
X22769Y11150D01*
X22771Y11136D01*
X22634Y11228D01*
X22649Y11232D01*
X22676Y11239D01*
X22689Y11243D01*
X22711Y11252D01*
X22720Y11257D01*
X22729Y11263D01*
X22737Y11268D01*
X22743Y11274D01*
X22794Y11241D01*
D02*
G37*
G36*
X24071Y8853D02*
X24061Y8863D01*
X24040Y8880D01*
X24030Y8887D01*
X24020Y8893D01*
X24010Y8898D01*
X24000Y8902D01*
X23990Y8904D01*
X23980Y8906D01*
X23970Y8906D01*
Y8966D01*
X23980Y8966D01*
X23990Y8968D01*
X24000Y8970D01*
X24010Y8974D01*
X24020Y8979D01*
X24030Y8985D01*
X24040Y8992D01*
X24051Y9000D01*
X24061Y9009D01*
X24071Y9019D01*
Y8853D01*
D02*
G37*
G36*
X22804Y8909D02*
X22798Y8902D01*
X22792Y8894D01*
X22787Y8885D01*
X22782Y8875D01*
X22779Y8865D01*
X22776Y8854D01*
X22773Y8842D01*
X22772Y8829D01*
X22771Y8815D01*
X22771Y8801D01*
X22654Y8917D01*
X22668Y8918D01*
X22695Y8920D01*
X22707Y8922D01*
X22718Y8926D01*
X22729Y8929D01*
X22738Y8934D01*
X22747Y8939D01*
X22755Y8945D01*
X22763Y8951D01*
X22804Y8909D01*
D02*
G37*
G36*
X22771Y8063D02*
X22780Y8056D01*
X22789Y8050D01*
X22798Y8045D01*
X22808Y8041D01*
X22818Y8037D01*
X22829Y8035D01*
X22840Y8033D01*
X22851Y8032D01*
X22863Y8031D01*
X22746Y7915D01*
X22746Y7926D01*
X22745Y7938D01*
X22743Y7949D01*
X22740Y7960D01*
X22737Y7970D01*
X22732Y7980D01*
X22727Y7989D01*
X22722Y7998D01*
X22715Y8006D01*
X22707Y8014D01*
X22763Y8070D01*
X22771Y8063D01*
D02*
G37*
G36*
X22478Y8069D02*
X22495Y8054D01*
X22504Y8048D01*
X22512Y8043D01*
X22519Y8039D01*
X22527Y8036D01*
X22534Y8033D01*
X22541Y8032D01*
X22548Y8031D01*
X22431Y7915D01*
X22431Y7921D01*
X22429Y7928D01*
X22427Y7936D01*
X22424Y7943D01*
X22420Y7951D01*
X22415Y7959D01*
X22409Y7967D01*
X22402Y7976D01*
X22385Y7994D01*
X22469Y8078D01*
X22478Y8069D01*
D02*
G37*
G36*
X26920Y18225D02*
X26921Y18214D01*
X26923Y18203D01*
X26925Y18192D01*
X26929Y18182D01*
X26933Y18172D01*
X26938Y18163D01*
X26944Y18154D01*
X26950Y18145D01*
X26958Y18137D01*
X26902Y18082D01*
X26894Y18089D01*
X26886Y18096D01*
X26877Y18101D01*
X26867Y18106D01*
X26858Y18111D01*
X26847Y18114D01*
X26837Y18117D01*
X26826Y18119D01*
X26814Y18120D01*
X26802Y18120D01*
X26919Y18237D01*
X26920Y18225D01*
D02*
G37*
G36*
X24124Y14551D02*
X24126Y14540D01*
X24128Y14530D01*
X24131Y14520D01*
X24135Y14510D01*
X24140Y14500D01*
X24145Y14491D01*
X24152Y14482D01*
X24159Y14473D01*
X24167Y14464D01*
X24002D01*
X24010Y14473D01*
X24018Y14482D01*
X24024Y14491D01*
X24030Y14500D01*
X24034Y14510D01*
X24038Y14520D01*
X24041Y14530D01*
X24044Y14540D01*
X24045Y14551D01*
X24045Y14562D01*
X24124D01*
X24124Y14551D01*
D02*
G37*
G36*
X24727Y15077D02*
X24736Y15070D01*
X24745Y15063D01*
X24755Y15057D01*
X24764Y15053D01*
X24774Y15049D01*
X24784Y15046D01*
X24795Y15044D01*
X24806Y15042D01*
X24817Y15042D01*
Y14963D01*
X24806Y14963D01*
X24795Y14961D01*
X24784Y14959D01*
X24774Y14956D01*
X24764Y14952D01*
X24755Y14948D01*
X24745Y14942D01*
X24736Y14935D01*
X24727Y14928D01*
X24719Y14920D01*
Y15085D01*
X24727Y15077D01*
D02*
G37*
G36*
X26924Y14514D02*
X26932Y14507D01*
X26941Y14502D01*
X26950Y14496D01*
X26960Y14492D01*
X26970Y14489D01*
X26981Y14486D01*
X26992Y14484D01*
X27003Y14483D01*
X27015Y14483D01*
X26898Y14366D01*
X26898Y14378D01*
X26897Y14389D01*
X26895Y14400D01*
X26892Y14411D01*
X26889Y14421D01*
X26885Y14431D01*
X26880Y14440D01*
X26874Y14449D01*
X26867Y14458D01*
X26860Y14466D01*
X26915Y14521D01*
X26924Y14514D01*
D02*
G37*
G36*
X11575Y11037D02*
X11560Y11034D01*
X11532Y11027D01*
X11520Y11024D01*
X11498Y11015D01*
X11488Y11010D01*
X11480Y11004D01*
X11472Y10998D01*
X11465Y10992D01*
X11416Y11026D01*
X11422Y11034D01*
X11428Y11042D01*
X11433Y11051D01*
X11437Y11061D01*
X11440Y11071D01*
X11442Y11082D01*
X11442Y11093D01*
X11442Y11105D01*
X11441Y11118D01*
X11439Y11132D01*
X11575Y11037D01*
D02*
G37*
G36*
X27599Y10631D02*
X27601Y10605D01*
X27603Y10593D01*
X27606Y10581D01*
X27610Y10571D01*
X27615Y10561D01*
X27620Y10552D01*
X27626Y10544D01*
X27632Y10537D01*
X27590Y10495D01*
X27583Y10502D01*
X27575Y10507D01*
X27566Y10513D01*
X27556Y10517D01*
X27546Y10521D01*
X27535Y10524D01*
X27523Y10526D01*
X27510Y10528D01*
X27496Y10529D01*
X27482Y10529D01*
X27598Y10646D01*
X27599Y10631D01*
D02*
G37*
G36*
X11575Y10537D02*
X11560Y10534D01*
X11532Y10527D01*
X11520Y10524D01*
X11498Y10515D01*
X11488Y10510D01*
X11480Y10504D01*
X11472Y10498D01*
X11465Y10492D01*
X11416Y10526D01*
X11422Y10534D01*
X11428Y10542D01*
X11433Y10551D01*
X11437Y10561D01*
X11440Y10571D01*
X11442Y10582D01*
X11442Y10593D01*
X11442Y10605D01*
X11441Y10618D01*
X11439Y10632D01*
X11575Y10537D01*
D02*
G37*
G36*
X28408Y10522D02*
X28393Y10521D01*
X28367Y10519D01*
X28355Y10517D01*
X28343Y10514D01*
X28333Y10510D01*
X28323Y10505D01*
X28314Y10500D01*
X28306Y10494D01*
X28299Y10488D01*
X28257Y10530D01*
X28264Y10537D01*
X28270Y10545D01*
X28275Y10554D01*
X28279Y10564D01*
X28283Y10574D01*
X28286Y10585D01*
X28288Y10598D01*
X28290Y10610D01*
X28291Y10624D01*
X28291Y10639D01*
X28408Y10522D01*
D02*
G37*
G36*
X11674Y10158D02*
X11681Y10131D01*
X11685Y10118D01*
X11694Y10096D01*
X11699Y10087D01*
X11704Y10078D01*
X11710Y10070D01*
X11716Y10064D01*
X11682Y10014D01*
X11675Y10021D01*
X11667Y10027D01*
X11658Y10031D01*
X11648Y10035D01*
X11638Y10038D01*
X11627Y10040D01*
X11615Y10041D01*
X11603Y10041D01*
X11591Y10040D01*
X11577Y10038D01*
X11672Y10173D01*
X11674Y10158D01*
D02*
G37*
G36*
X11575Y9537D02*
X11560Y9534D01*
X11532Y9528D01*
X11520Y9524D01*
X11498Y9515D01*
X11488Y9510D01*
X11480Y9504D01*
X11472Y9498D01*
X11465Y9492D01*
X11416Y9526D01*
X11422Y9534D01*
X11428Y9542D01*
X11433Y9551D01*
X11437Y9561D01*
X11440Y9571D01*
X11442Y9582D01*
X11442Y9593D01*
X11442Y9605D01*
X11441Y9618D01*
X11439Y9632D01*
X11575Y9537D01*
D02*
G37*
G36*
X11674Y9158D02*
X11681Y9131D01*
X11685Y9118D01*
X11694Y9096D01*
X11699Y9087D01*
X11704Y9078D01*
X11710Y9070D01*
X11716Y9064D01*
X11682Y9014D01*
X11675Y9021D01*
X11667Y9027D01*
X11658Y9031D01*
X11648Y9035D01*
X11638Y9038D01*
X11627Y9040D01*
X11615Y9041D01*
X11603Y9041D01*
X11591Y9040D01*
X11577Y9038D01*
X11672Y9173D01*
X11674Y9158D01*
D02*
G37*
G36*
X11648Y8579D02*
X11629Y8541D01*
X11625Y8530D01*
X11618Y8508D01*
X11616Y8498D01*
X11615Y8489D01*
X11614Y8480D01*
X11555Y8465D01*
X11555Y8475D01*
X11553Y8485D01*
X11550Y8494D01*
X11546Y8504D01*
X11540Y8513D01*
X11534Y8521D01*
X11526Y8529D01*
X11517Y8537D01*
X11507Y8544D01*
X11496Y8551D01*
X11656Y8593D01*
X11648Y8579D01*
D02*
G37*
G36*
X28316Y8224D02*
X28305Y8234D01*
X28285Y8251D01*
X28275Y8258D01*
X28265Y8264D01*
X28255Y8269D01*
X28245Y8273D01*
X28235Y8275D01*
X28225Y8277D01*
X28215Y8277D01*
Y8336D01*
X28225Y8337D01*
X28235Y8339D01*
X28245Y8341D01*
X28255Y8345D01*
X28265Y8350D01*
X28275Y8356D01*
X28285Y8362D01*
X28295Y8370D01*
X28305Y8379D01*
X28316Y8390D01*
Y8224D01*
D02*
G37*
G36*
X27479Y8199D02*
X27465Y8199D01*
X27438Y8196D01*
X27426Y8194D01*
X27415Y8191D01*
X27404Y8187D01*
X27395Y8183D01*
X27386Y8178D01*
X27378Y8172D01*
X27370Y8165D01*
X27328Y8207D01*
X27335Y8215D01*
X27341Y8223D01*
X27346Y8232D01*
X27350Y8241D01*
X27354Y8252D01*
X27357Y8263D01*
X27359Y8275D01*
X27361Y8288D01*
X27362Y8302D01*
X27362Y8316D01*
X27479Y8199D01*
D02*
G37*
G36*
X23892Y6167D02*
X23882Y6177D01*
X23861Y6194D01*
X23851Y6201D01*
X23841Y6207D01*
X23831Y6212D01*
X23821Y6216D01*
X23811Y6218D01*
X23801Y6220D01*
X23791Y6220D01*
Y6280D01*
X23801Y6280D01*
X23811Y6282D01*
X23821Y6284D01*
X23831Y6288D01*
X23841Y6293D01*
X23851Y6299D01*
X23861Y6306D01*
X23871Y6314D01*
X23882Y6323D01*
X23892Y6333D01*
Y6167D01*
D02*
G37*
G36*
X22583Y6079D02*
X22573Y6089D01*
X22552Y6106D01*
X22542Y6113D01*
X22532Y6119D01*
X22522Y6123D01*
X22512Y6127D01*
X22502Y6130D01*
X22492Y6131D01*
X22482Y6132D01*
Y6191D01*
X22492Y6191D01*
X22502Y6193D01*
X22512Y6196D01*
X22522Y6199D01*
X22532Y6204D01*
X22542Y6210D01*
X22552Y6217D01*
X22562Y6225D01*
X22573Y6234D01*
X22583Y6244D01*
Y6079D01*
D02*
G37*
G36*
X9096Y10217D02*
X9082Y10216D01*
X9055Y10214D01*
X9043Y10211D01*
X9032Y10208D01*
X9021Y10205D01*
X9012Y10200D01*
X9003Y10195D01*
X8995Y10189D01*
X8987Y10183D01*
X8946Y10225D01*
X8952Y10232D01*
X8958Y10240D01*
X8963Y10249D01*
X8968Y10259D01*
X8971Y10269D01*
X8974Y10280D01*
X8977Y10292D01*
X8978Y10305D01*
X8979Y10319D01*
X8979Y10333D01*
X9096Y10217D01*
D02*
G37*
G36*
X7456Y8273D02*
X7449Y8264D01*
X7442Y8255D01*
X7437Y8246D01*
X7432Y8236D01*
X7428Y8226D01*
X7425Y8216D01*
X7423Y8206D01*
X7422Y8195D01*
X7421Y8184D01*
X7343D01*
X7342Y8195D01*
X7341Y8206D01*
X7339Y8216D01*
X7336Y8226D01*
X7332Y8236D01*
X7327Y8246D01*
X7321Y8255D01*
X7315Y8264D01*
X7307Y8273D01*
X7299Y8282D01*
X7465D01*
X7456Y8273D01*
D02*
G37*
G36*
X32269Y4100D02*
X32256Y4103D01*
X32244Y4105D01*
X32233Y4106D01*
X32222Y4106D01*
X32211Y4105D01*
X32201Y4102D01*
X32192Y4099D01*
X32183Y4094D01*
X32175Y4088D01*
X32167Y4081D01*
X32138Y4136D01*
X32144Y4142D01*
X32149Y4150D01*
X32155Y4158D01*
X32160Y4167D01*
X32165Y4178D01*
X32175Y4201D01*
X32180Y4215D01*
X32189Y4244D01*
X32269Y4100D01*
D02*
G37*
G36*
X31609Y3925D02*
X31597Y3924D01*
X31586Y3923D01*
X31575Y3922D01*
X31564Y3919D01*
X31554Y3915D01*
X31544Y3911D01*
X31535Y3906D01*
X31526Y3900D01*
X31517Y3894D01*
X31509Y3886D01*
X31454Y3942D01*
X31461Y3950D01*
X31468Y3958D01*
X31473Y3967D01*
X31479Y3977D01*
X31483Y3986D01*
X31486Y3997D01*
X31489Y4007D01*
X31491Y4018D01*
X31492Y4030D01*
X31492Y4042D01*
X31609Y3925D01*
D02*
G37*
G36*
X8055Y7536D02*
X8043Y7544D01*
X8020Y7555D01*
X8008Y7560D01*
X7986Y7568D01*
X7976Y7570D01*
X7966Y7572D01*
X7956Y7573D01*
X7946Y7574D01*
X7927Y7642D01*
X7938Y7643D01*
X7948Y7645D01*
X7958Y7647D01*
X7968Y7651D01*
X7977Y7656D01*
X7985Y7662D01*
X7993Y7669D01*
X8000Y7677D01*
X8007Y7686D01*
X8014Y7696D01*
X8055Y7536D01*
D02*
G37*
G36*
X7930Y7310D02*
X7912Y7271D01*
X7907Y7260D01*
X7901Y7238D01*
X7899Y7229D01*
X7898Y7219D01*
X7897Y7211D01*
X7838Y7193D01*
X7838Y7203D01*
X7836Y7213D01*
X7833Y7223D01*
X7829Y7232D01*
X7823Y7241D01*
X7817Y7249D01*
X7809Y7257D01*
X7800Y7264D01*
X7790Y7271D01*
X7779Y7278D01*
X7938Y7324D01*
X7930Y7310D01*
D02*
G37*
G36*
X7654Y7120D02*
X7656Y7094D01*
X7659Y7082D01*
X7662Y7070D01*
X7665Y7060D01*
X7670Y7050D01*
X7675Y7041D01*
X7681Y7033D01*
X7687Y7026D01*
X7646Y6984D01*
X7638Y6991D01*
X7630Y6996D01*
X7621Y7002D01*
X7612Y7006D01*
X7601Y7010D01*
X7590Y7013D01*
X7578Y7015D01*
X7565Y7017D01*
X7551Y7018D01*
X7537Y7018D01*
X7654Y7135D01*
X7654Y7120D01*
D02*
G37*
G36*
X29507Y5952D02*
X29493Y5952D01*
X29481Y5951D01*
X29469Y5949D01*
X29458Y5947D01*
X29447Y5944D01*
X29437Y5940D01*
X29427Y5935D01*
X29418Y5929D01*
X29410Y5923D01*
X29402Y5916D01*
X29354Y5965D01*
X29361Y5972D01*
X29367Y5981D01*
X29372Y5990D01*
X29377Y5999D01*
X29381Y6009D01*
X29384Y6020D01*
X29387Y6031D01*
X29389Y6043D01*
X29390Y6056D01*
X29390Y6069D01*
X29507Y5952D01*
D02*
G37*
G36*
X27896Y5786D02*
X27899Y5760D01*
X27901Y5748D01*
X27904Y5737D01*
X27908Y5726D01*
X27912Y5716D01*
X27917Y5707D01*
X27923Y5699D01*
X27930Y5692D01*
X27888Y5650D01*
X27881Y5657D01*
X27872Y5663D01*
X27864Y5668D01*
X27854Y5672D01*
X27843Y5676D01*
X27832Y5679D01*
X27820Y5681D01*
X27807Y5683D01*
X27793Y5684D01*
X27779Y5684D01*
X27896Y5801D01*
X27896Y5786D01*
D02*
G37*
G36*
X28161Y5707D02*
X28150Y5699D01*
X28141Y5690D01*
X28132Y5681D01*
X28125Y5672D01*
X28118Y5663D01*
X28113Y5653D01*
X28109Y5644D01*
X28106Y5634D01*
X28105Y5624D01*
X28104Y5614D01*
X28045Y5622D01*
X28045Y5632D01*
X28043Y5641D01*
X28041Y5651D01*
X28037Y5662D01*
X28033Y5672D01*
X28028Y5683D01*
X28022Y5694D01*
X28006Y5718D01*
X27997Y5730D01*
X28161Y5707D01*
D02*
G37*
G36*
X28338Y6779D02*
X28326Y6779D01*
X28314Y6778D01*
X28303Y6776D01*
X28293Y6773D01*
X28282Y6770D01*
X28273Y6765D01*
X28263Y6760D01*
X28254Y6755D01*
X28246Y6748D01*
X28238Y6740D01*
X28182Y6796D01*
X28190Y6804D01*
X28196Y6813D01*
X28202Y6822D01*
X28207Y6831D01*
X28211Y6841D01*
X28215Y6851D01*
X28217Y6862D01*
X28219Y6873D01*
X28220Y6884D01*
X28221Y6896D01*
X28338Y6779D01*
D02*
G37*
G36*
X27672Y6556D02*
X27680Y6548D01*
X27689Y6542D01*
X27698Y6537D01*
X27707Y6533D01*
X27716Y6530D01*
X27724Y6529D01*
X27733Y6528D01*
X27742Y6528D01*
X27751Y6530D01*
X27662Y6390D01*
X27660Y6398D01*
X27657Y6407D01*
X27654Y6415D01*
X27650Y6424D01*
X27645Y6432D01*
X27639Y6441D01*
X27633Y6449D01*
X27618Y6467D01*
X27610Y6475D01*
X27663Y6564D01*
X27672Y6556D01*
D02*
G37*
G36*
X23400Y5557D02*
X23409Y5549D01*
X23418Y5543D01*
X23427Y5537D01*
X23437Y5532D01*
X23447Y5529D01*
X23457Y5526D01*
X23468Y5523D01*
X23478Y5522D01*
X23489Y5522D01*
Y5443D01*
X23478Y5442D01*
X23468Y5441D01*
X23457Y5439D01*
X23447Y5436D01*
X23437Y5432D01*
X23427Y5427D01*
X23418Y5422D01*
X23409Y5415D01*
X23400Y5408D01*
X23391Y5400D01*
Y5565D01*
X23400Y5557D01*
D02*
G37*
G36*
X15989Y5324D02*
X15990Y5315D01*
X15992Y5306D01*
X15995Y5297D01*
X15999Y5288D01*
X16004Y5279D01*
X16009Y5271D01*
X16016Y5262D01*
X16023Y5253D01*
X16031Y5244D01*
X15961Y5174D01*
X15952Y5182D01*
X15943Y5189D01*
X15934Y5196D01*
X15926Y5201D01*
X15917Y5206D01*
X15908Y5210D01*
X15899Y5213D01*
X15890Y5215D01*
X15881Y5216D01*
X15872Y5217D01*
X15988Y5333D01*
X15989Y5324D01*
D02*
G37*
D10*
X13230Y5846D02*
X22707D01*
X23110Y6250D01*
X11054Y8022D02*
X13230Y5846D01*
X13279Y5965D02*
X21969D01*
X22166Y6161D01*
X11172Y8071D02*
X13279Y5965D01*
X21920Y6083D02*
X22668Y6831D01*
X13328Y6083D02*
X21920D01*
X11319Y8091D02*
X13328Y6083D01*
X11585Y7993D02*
X13377Y6201D01*
X21871D02*
X22639Y6969D01*
X13377Y6201D02*
X21871D01*
X11791Y7953D02*
X13425Y6319D01*
X21822D01*
X22590Y7087D01*
X13474Y6437D02*
X21773D01*
X11909Y8002D02*
X13474Y6437D01*
X21773D02*
X22541Y7205D01*
X17195Y18110D02*
X18602Y19518D01*
X19675D01*
X20167Y20010D01*
X30027Y5913D02*
Y6351D01*
X29380Y3799D02*
Y5266D01*
X30027Y5913D01*
X11585Y7993D02*
Y8654D01*
X11319Y9388D02*
X11585Y9654D01*
X11172Y10241D02*
X11585Y10654D01*
X11054Y10623D02*
X11585Y11154D01*
X12608Y18110D02*
X17195D01*
X11132Y17697D02*
X17943D01*
X17982Y17657D01*
X11181Y17579D02*
X17894D01*
X10910Y17308D02*
X11181Y17579D01*
X17894D02*
X18967Y16506D01*
X11093Y17657D02*
X11132Y17697D01*
X17982Y17657D02*
X19015Y16624D01*
X10861Y17426D02*
X11093Y17657D01*
X7272Y17479D02*
X7973D01*
X7223Y17597D02*
X8022D01*
X26139Y16506D02*
X26672Y17039D01*
X18967Y16506D02*
X26139D01*
X7067Y17274D02*
X7272Y17479D01*
X26416Y17248D02*
X26463D01*
X25793Y16624D02*
X26416Y17248D01*
X19015Y16624D02*
X25793D01*
X7166Y17539D02*
X7223Y17597D01*
X6821Y17539D02*
X7166D01*
X7973Y17479D02*
X8144Y17308D01*
X10910D01*
X8022Y17597D02*
X8193Y17426D01*
X10861D01*
X11585Y10154D02*
X11909Y9829D01*
Y8002D02*
Y9829D01*
X11791Y7953D02*
Y8947D01*
X11585Y9154D02*
X11791Y8947D01*
X11054Y8022D02*
Y10623D01*
X11319Y8091D02*
Y9388D01*
X11172Y8071D02*
Y10241D01*
X23140Y16742D02*
X23455Y17057D01*
X17943Y17904D02*
X19104Y16742D01*
X23140D01*
X12382Y17904D02*
X17943D01*
X20167Y20010D02*
Y20325D01*
X25984Y7963D02*
X27418D01*
X22541Y7205D02*
X25059D01*
X25935Y8081D01*
X25108Y7087D02*
X25984Y7963D01*
X26033Y7844D02*
X27467D01*
X26082Y7726D02*
X27539D01*
X22590Y7087D02*
X25108D01*
X25186Y6831D02*
X26082Y7726D01*
X25157Y6969D02*
X26033Y7844D01*
X22639Y6969D02*
X25157D01*
X22668Y6831D02*
X25186D01*
X25935Y8081D02*
X27244D01*
X27467Y7844D02*
X27844Y8222D01*
X27539Y7726D02*
X28120Y8307D01*
X27418Y7963D02*
X27726Y8271D01*
X22166Y6161D02*
X22667D01*
X31617Y3573D02*
X32256Y4213D01*
X30614Y3573D02*
X31617D01*
X28626Y1585D02*
X30614Y3573D01*
X4951Y13897D02*
X7707Y16654D01*
X5069Y13848D02*
X7756Y16535D01*
X4833Y13946D02*
X7658Y16772D01*
X5197Y13809D02*
X7805Y16417D01*
X5197Y12608D02*
Y13809D01*
X7707Y16654D02*
X13058D01*
X4833Y12333D02*
Y13946D01*
X7805Y16417D02*
X12992D01*
X7756Y16535D02*
X14222D01*
X4951Y11811D02*
Y13897D01*
X7658Y16772D02*
X12884D01*
X14222Y16535D02*
X15030Y15728D01*
X5069Y12313D02*
Y13848D01*
X6781Y6581D02*
Y7530D01*
Y6581D02*
X11778Y1585D01*
X32256Y4213D02*
X32303D01*
X11778Y1585D02*
X28626D01*
X7750Y6719D02*
X10689Y3780D01*
X7750Y6719D02*
Y6795D01*
X7868Y6768D02*
X10738Y3898D01*
X10689Y3780D02*
X10765D01*
X7868Y6768D02*
Y7349D01*
X10738Y3898D02*
X27297D01*
X7750Y6795D02*
Y6922D01*
X10765Y3780D02*
X27346D01*
X7535Y7136D02*
X7750Y6922D01*
X27943Y4544D02*
Y5637D01*
X28075Y4508D02*
Y5786D01*
X27346Y3780D02*
X28075Y4508D01*
X27297Y3898D02*
X27943Y4544D01*
X28075Y5786D02*
X28091Y5802D01*
X28986Y16692D02*
X29330Y16348D01*
X29902D01*
X23110Y6250D02*
X23976D01*
X28120Y8307D02*
X28400D01*
X27844Y8222D02*
Y10075D01*
X27726Y8271D02*
Y10401D01*
X27244Y8081D02*
X27480Y8317D01*
X29291Y7390D02*
Y11388D01*
X30758Y12854D02*
Y15659D01*
X29291Y11388D02*
X30758Y12854D01*
X29173Y7205D02*
Y11437D01*
X30640Y12903D01*
Y15611D01*
X7705Y15256D02*
X7764Y15197D01*
X20837D02*
X23140Y12894D01*
X7773Y15079D02*
X20788D01*
X7422Y14728D02*
X7773Y15079D01*
X7764Y15197D02*
X20837D01*
X20739Y14961D02*
X22904Y12796D01*
X7201Y13750D02*
X8411Y14961D01*
X20788Y15079D02*
X23022Y12845D01*
X7657Y15256D02*
X7705D01*
X7201Y13410D02*
X8633Y14843D01*
X20690D01*
X8411Y14961D02*
X20739D01*
X20690Y14843D02*
X22785Y12747D01*
X23022Y9094D02*
Y12845D01*
Y9094D02*
X23180Y8936D01*
X24156D01*
X7398Y14728D02*
X7422D01*
X4744Y12028D02*
Y12244D01*
X4833Y12333D01*
X5069Y12313D02*
X5236Y12146D01*
X5197Y12608D02*
X5453Y12352D01*
X6781Y7530D02*
X7146Y7894D01*
X7296Y8573D02*
X7336D01*
X7146Y8422D02*
X7296Y8573D01*
X7146Y7894D02*
Y8422D01*
X29173Y7205D02*
X30027Y6351D01*
X29291Y7390D02*
X29518Y7164D01*
X7336Y8573D02*
X9097Y10335D01*
X29951Y16467D02*
X30758Y15659D01*
X29902Y16348D02*
X30640Y15611D01*
X23140Y11407D02*
Y12894D01*
X22785Y11275D02*
Y12747D01*
X22904Y9050D02*
Y12796D01*
X23313Y11234D02*
X24156D01*
X23140Y11407D02*
X23313Y11234D01*
X22656Y11112D02*
Y11145D01*
X22653Y8799D02*
X22904Y9050D01*
X22656Y11145D02*
X22785Y11275D01*
X12992Y16417D02*
X13701Y15709D01*
X13058Y16654D02*
X13491Y17087D01*
X12884Y16772D02*
X13179Y17067D01*
X13491Y17087D02*
X14547D01*
X27778Y5802D02*
X27943Y5637D01*
X29813Y16467D02*
X29951D01*
X29587Y16692D02*
X29813Y16467D01*
X27844Y10075D02*
X28409Y10640D01*
X27480Y10647D02*
X27726Y10401D01*
X7835Y7382D02*
X7868Y7349D01*
D14*
X16540Y4665D02*
X23061D01*
X15870Y5335D02*
X16540Y4665D01*
X23061D02*
X23701Y5305D01*
X25315D01*
X26564Y6554D01*
X27741Y6415D02*
X27778D01*
X27602Y6554D02*
X27741Y6415D01*
X26564Y6554D02*
X27602D01*
D15*
X16073Y19764D02*
X17546D01*
X13278Y20551D02*
X17254D01*
X17480Y20325D01*
X18671Y18986D02*
X18780Y18878D01*
X18479Y18736D02*
X22691D01*
X18474Y18740D02*
X18479Y18736D01*
X15669Y18947D02*
X15866Y18750D01*
X12392Y18947D02*
X15669D01*
X27136Y16644D02*
Y17904D01*
X24498Y15502D02*
X25994D01*
X27136Y16644D01*
X21969Y8809D02*
Y13383D01*
X20657Y14695D02*
X21969Y13383D01*
Y8809D02*
X22864Y7913D01*
X31268Y3701D02*
X31585Y4017D01*
X30561Y3701D02*
X31268D01*
X28573Y1713D02*
X30561Y3701D01*
X6919Y6624D02*
X11831Y1713D01*
X28573D01*
X6919Y6624D02*
Y7486D01*
X24085Y15089D02*
X24498Y15502D01*
X24085Y14380D02*
Y15089D01*
X25282Y5482D02*
X26503Y6703D01*
X23307Y5482D02*
X25282D01*
X28144Y6703D02*
X28339Y6897D01*
X26503Y6703D02*
X28144D01*
X18780Y18878D02*
X22884D01*
X24193Y17569D02*
X25197D01*
X22884Y18878D02*
X24193Y17569D01*
X26801Y18238D02*
X27136Y17904D01*
X12293Y14518D02*
X12470Y14695D01*
X20657D01*
X12293Y14518D02*
X12293D01*
X7382Y7949D02*
Y8366D01*
X6919Y7486D02*
X7382Y7949D01*
X25197Y17569D02*
X25207Y17579D01*
X22691Y18736D02*
X23091Y18337D01*
X24124Y17303D01*
X13720Y19213D02*
X16526D01*
X13720Y19213D02*
X13720Y19213D01*
X24124Y17303D02*
X24872D01*
X12972Y19213D02*
X13720D01*
X11939Y20246D02*
X12972Y19213D01*
X24634Y15002D02*
X26379D01*
X27016Y14365D01*
D146*
X2205Y19047D02*
D03*
X2205Y2205D02*
D03*
X31496D02*
D03*
X31496Y19047D02*
D03*
D147*
X18189Y19764D02*
D03*
X15512D02*
D03*
D155*
X29508Y6070D02*
X29508D01*
X28223Y4786D02*
X29508Y6070D01*
X28223Y4483D02*
Y4786D01*
X27392Y3652D02*
X28223Y4483D01*
X7324Y6971D02*
X10643Y3652D01*
X7324Y6971D02*
Y7223D01*
X10643Y3652D02*
X27392D01*
X2185Y19028D02*
X2205Y19047D01*
X2185Y17687D02*
Y19028D01*
X2205Y2205D02*
X2392Y2018D01*
X4085D01*
X31447Y2254D02*
X31496Y2205D01*
X30010Y2254D02*
X31447D01*
X31496Y19047D02*
X31585Y18959D01*
Y17047D02*
Y18959D01*
X7324Y7223D02*
X7708Y7608D01*
X8086D02*
X8116Y7638D01*
X7708Y7608D02*
X8086D01*
D161*
X21801Y8661D02*
Y13197D01*
X21171Y13827D02*
X21801Y13197D01*
Y8661D02*
X22549Y7913D01*
D164*
X19518Y20423D02*
Y20688D01*
Y20148D02*
Y20423D01*
X22382Y19587D02*
X22913D01*
X23504Y18996D02*
X27067D01*
X27697Y18366D01*
X22913Y19587D02*
X23504Y18996D01*
X19518Y20688D02*
X19695Y20866D01*
X21427D02*
X22382Y19911D01*
X19695Y20866D02*
X21427D01*
X27697Y17007D02*
X29055Y15649D01*
X27697Y17007D02*
Y18366D01*
X29056Y15649D02*
X29813Y14892D01*
Y13900D02*
Y14892D01*
X22382Y19587D02*
Y19911D01*
X29050Y13137D02*
X29813Y13900D01*
D168*
X6866Y2817D02*
D03*
X14866D02*
D03*
X24591D02*
D03*
X26591D02*
D03*
D169*
X1687Y14132D02*
D03*
Y12632D02*
D03*
D170*
X7677Y20187D02*
D03*
X10276D02*
D03*
X23425D02*
D03*
X26024D02*
D03*
D171*
X3455Y15207D02*
D03*
X4272D02*
D03*
X17618Y18169D02*
D03*
X17087Y18366D02*
D03*
X15305Y18356D02*
D03*
X16102Y16004D02*
D03*
X17785Y17323D02*
D03*
X10705Y3207D02*
D03*
X15870Y5335D02*
D03*
X22205Y5587D02*
D03*
X20205D02*
D03*
X19282D02*
D03*
X13858Y5413D02*
D03*
X16486Y5531D02*
D03*
X14833Y5423D02*
D03*
X18783Y4951D02*
D03*
X17904Y5167D02*
D03*
X16486Y5167D02*
D03*
X22707Y4951D02*
D03*
X20976Y4955D02*
D03*
X17376Y6699D02*
D03*
X15689Y15689D02*
D03*
X17205Y16073D02*
D03*
X16850D02*
D03*
X18829Y15650D02*
D03*
X19707Y4951D02*
D03*
X19081Y4203D02*
D03*
X17705Y3207D02*
D03*
X17014Y2205D02*
D03*
X16205Y2207D02*
D03*
X705Y13207D02*
D03*
X656Y4876D02*
D03*
X1156Y4439D02*
D03*
Y3939D02*
D03*
Y3439D02*
D03*
X1656Y4876D02*
D03*
Y4189D02*
D03*
Y3689D02*
D03*
Y3189D02*
D03*
X656Y12232D02*
D03*
X1156Y12482D02*
D03*
X205Y12482D02*
D03*
Y11482D02*
D03*
Y11982D02*
D03*
X1156Y11982D02*
D03*
X656Y11732D02*
D03*
X1156Y11482D02*
D03*
X1656Y11732D02*
D03*
X3656Y9189D02*
D03*
X2156Y8939D02*
D03*
X2656Y9189D02*
D03*
X3156Y8939D02*
D03*
X6341Y1207D02*
D03*
X5370D02*
D03*
X7370D02*
D03*
X8370D02*
D03*
X9370D02*
D03*
X10370D02*
D03*
X11370D02*
D03*
X12370D02*
D03*
X13370D02*
D03*
X14370D02*
D03*
X15370D02*
D03*
X14703Y207D02*
D03*
X6703D02*
D03*
X7703D02*
D03*
X8703D02*
D03*
X9703D02*
D03*
X10703D02*
D03*
X11703D02*
D03*
X12703D02*
D03*
X13703D02*
D03*
X16427Y20167D02*
D03*
X17546Y19764D02*
D03*
X16073D02*
D03*
X11407Y18238D02*
D03*
X11309Y17303D02*
D03*
X17480Y20325D02*
D03*
X13278Y20551D02*
D03*
X10581Y16152D02*
D03*
X9134Y13878D02*
D03*
X6496Y6250D02*
D03*
X6870Y5846D02*
D03*
X6864Y5207D02*
D03*
X9911Y8937D02*
D03*
X12183Y8120D02*
D03*
X870Y1189D02*
D03*
X831Y2189D02*
D03*
Y3189D02*
D03*
X29213Y5433D02*
D03*
X29183Y6654D02*
D03*
X28770Y7461D02*
D03*
X27185Y7372D02*
D03*
X24567Y5030D02*
D03*
X23159Y7589D02*
D03*
X22323Y12844D02*
D03*
X27211Y21024D02*
D03*
X26388D02*
D03*
X22896Y21043D02*
D03*
X21896D02*
D03*
X18923D02*
D03*
X18317Y20846D02*
D03*
X24744Y20758D02*
D03*
X8986D02*
D03*
X9852Y18642D02*
D03*
X5768Y14026D02*
D03*
X9980Y17677D02*
D03*
X8219Y17746D02*
D03*
X8583Y13878D02*
D03*
X7697Y13543D02*
D03*
X7943Y17067D02*
D03*
X10285Y17028D02*
D03*
X9547Y16152D02*
D03*
X9006Y14596D02*
D03*
X7923Y14833D02*
D03*
X5713Y423D02*
D03*
X5156Y276D02*
D03*
X10919Y13209D02*
D03*
X13205Y21043D02*
D03*
X12205D02*
D03*
X11205D02*
D03*
X7205D02*
D03*
X6482D02*
D03*
X5156Y20994D02*
D03*
X21707Y4951D02*
D03*
X30705Y3207D02*
D03*
X33137Y5214D02*
D03*
Y6214D02*
D03*
X32368Y10207D02*
D03*
X32205Y20207D02*
D03*
X32705Y19207D02*
D03*
Y17207D02*
D03*
X32205Y16207D02*
D03*
X32705Y15207D02*
D03*
X32205Y14207D02*
D03*
X32705Y13207D02*
D03*
X32205Y12207D02*
D03*
X32705Y11207D02*
D03*
Y9207D02*
D03*
Y5207D02*
D03*
Y3207D02*
D03*
Y1207D02*
D03*
X31205Y20207D02*
D03*
X31705Y17207D02*
D03*
X31205Y16207D02*
D03*
X31705Y15207D02*
D03*
X31205Y14207D02*
D03*
X31705Y13207D02*
D03*
X31205Y12207D02*
D03*
Y10207D02*
D03*
X30205Y20207D02*
D03*
X30705Y17207D02*
D03*
Y11207D02*
D03*
X30205Y10207D02*
D03*
Y2207D02*
D03*
X30705Y1207D02*
D03*
X29205Y20207D02*
D03*
X29705Y11207D02*
D03*
Y9207D02*
D03*
Y1207D02*
D03*
X28705Y9207D02*
D03*
Y3207D02*
D03*
X28205Y2207D02*
D03*
X28705Y1207D02*
D03*
X28500Y207D02*
D03*
X27205Y20207D02*
D03*
X27705Y19207D02*
D03*
X27205Y18207D02*
D03*
X27705Y3207D02*
D03*
X27205Y2207D02*
D03*
X27705Y1207D02*
D03*
X27500Y207D02*
D03*
X26303Y2207D02*
D03*
X26705Y1207D02*
D03*
X26500Y207D02*
D03*
X25705Y3207D02*
D03*
X25303Y2207D02*
D03*
X25705Y1207D02*
D03*
X25500Y207D02*
D03*
X24205Y2207D02*
D03*
X24705Y1207D02*
D03*
X24500Y207D02*
D03*
X23205Y16207D02*
D03*
Y4207D02*
D03*
X23705Y3207D02*
D03*
X23205Y2207D02*
D03*
X23705Y1207D02*
D03*
X23205Y207D02*
D03*
X22205Y4207D02*
D03*
X22705Y3207D02*
D03*
X22205Y2207D02*
D03*
X22705Y1207D02*
D03*
X22205Y207D02*
D03*
X21205Y12207D02*
D03*
Y10207D02*
D03*
Y8207D02*
D03*
Y4207D02*
D03*
X21705Y3207D02*
D03*
X21205Y2207D02*
D03*
X21705Y1207D02*
D03*
X21205Y207D02*
D03*
X20205Y16207D02*
D03*
Y4207D02*
D03*
X20705Y3207D02*
D03*
X20205Y2207D02*
D03*
X20705Y1207D02*
D03*
X19205Y16207D02*
D03*
X19705Y3207D02*
D03*
X19205Y2207D02*
D03*
X19705Y1207D02*
D03*
X18909Y207D02*
D03*
X18205Y2207D02*
D03*
X18705Y1207D02*
D03*
X18205Y207D02*
D03*
X17705Y1207D02*
D03*
X16705Y3207D02*
D03*
X16205Y207D02*
D03*
X15205Y20207D02*
D03*
X15705Y3207D02*
D03*
X15205Y2207D02*
D03*
X14205D02*
D03*
X13705Y3207D02*
D03*
X13205Y2207D02*
D03*
X12205Y12207D02*
D03*
X12705Y3207D02*
D03*
X12205Y2207D02*
D03*
X11205Y14207D02*
D03*
X11705Y13207D02*
D03*
X11205Y12207D02*
D03*
X11705Y3207D02*
D03*
X10205Y14207D02*
D03*
Y2207D02*
D03*
X9205Y8207D02*
D03*
X9705Y7207D02*
D03*
Y3207D02*
D03*
X9205Y2207D02*
D03*
X8705Y7207D02*
D03*
Y3207D02*
D03*
X8205Y2207D02*
D03*
X7205Y18207D02*
D03*
X7705Y13207D02*
D03*
Y3207D02*
D03*
X7205Y2207D02*
D03*
X6705Y19207D02*
D03*
X5205Y20207D02*
D03*
X5705Y17207D02*
D03*
X5205Y16207D02*
D03*
X5705Y7207D02*
D03*
X5205Y6207D02*
D03*
X5705Y5207D02*
D03*
Y3207D02*
D03*
X5205Y2207D02*
D03*
X4205Y20207D02*
D03*
X4705Y19207D02*
D03*
X4205Y18207D02*
D03*
X4705Y17207D02*
D03*
Y7207D02*
D03*
X4205Y6207D02*
D03*
X4705Y5207D02*
D03*
X4205Y4207D02*
D03*
X4705Y3207D02*
D03*
X4205Y2207D02*
D03*
X4705Y1207D02*
D03*
X3205Y20207D02*
D03*
X3705Y19207D02*
D03*
X3205Y18207D02*
D03*
X3705Y7207D02*
D03*
X3205Y6207D02*
D03*
X3705Y5207D02*
D03*
X3205Y4207D02*
D03*
X3705Y3207D02*
D03*
Y1207D02*
D03*
X2705Y15207D02*
D03*
X1205Y20207D02*
D03*
Y18207D02*
D03*
Y17207D02*
D03*
Y16207D02*
D03*
X1705Y15207D02*
D03*
X1205Y14207D02*
D03*
X1705Y13207D02*
D03*
X705Y15207D02*
D03*
X205Y14207D02*
D03*
X28967Y18032D02*
D03*
X29400D02*
D03*
X28967Y17598D02*
D03*
X29400D02*
D03*
X27037Y13465D02*
D03*
X25236Y19646D02*
D03*
X24724D02*
D03*
X24203D02*
D03*
X24518Y6240D02*
D03*
X24075Y7480D02*
D03*
X5148Y15748D02*
D03*
X29380Y3799D02*
D03*
X29626Y4065D02*
D03*
X11762Y11467D02*
D03*
X11220Y11545D02*
D03*
X10896Y11447D02*
D03*
X18671Y18986D02*
D03*
X18474Y18740D02*
D03*
X26672Y17039D02*
D03*
X7067Y17274D02*
D03*
X26463Y17248D02*
D03*
X6821Y17539D02*
D03*
X7354Y17804D02*
D03*
X11555Y10154D02*
D03*
X20167Y20325D02*
D03*
X22431Y17894D02*
D03*
X3156Y6939D02*
D03*
Y7439D02*
D03*
X3656Y7689D02*
D03*
X4156Y7939D02*
D03*
X33205Y10207D02*
D03*
X5705Y15207D02*
D03*
X8661Y16122D02*
D03*
X8563Y15453D02*
D03*
X16705Y1309D02*
D03*
X5705Y4207D02*
D03*
X6398Y18081D02*
D03*
X6063Y17756D02*
D03*
X28598Y11639D02*
D03*
X9547Y15699D02*
D03*
X27323Y5965D02*
D03*
X11782Y10404D02*
D03*
X12183Y10904D02*
D03*
X23307Y5482D02*
D03*
X22864Y7913D02*
D03*
X22549D02*
D03*
X23652Y9823D02*
D03*
X26959Y20413D02*
D03*
X26969Y19715D02*
D03*
X23573Y18642D02*
D03*
X24577D02*
D03*
X12972Y18681D02*
D03*
X13533Y18346D02*
D03*
X23839Y12549D02*
D03*
X27951Y1998D02*
D03*
X33382Y8936D02*
D03*
X32873D02*
D03*
X33137Y7214D02*
D03*
X31561Y10007D02*
D03*
X18376Y6699D02*
D03*
X19376Y6699D02*
D03*
X20376Y6699D02*
D03*
X28504Y8661D02*
D03*
X28226Y9020D02*
D03*
X28248Y11329D02*
D03*
X28524Y11004D02*
D03*
X12283Y14163D02*
D03*
X12293Y14518D02*
D03*
X13356Y15453D02*
D03*
X12972Y15709D02*
D03*
X15030Y15728D02*
D03*
X7598Y17215D02*
D03*
X4156Y11982D02*
D03*
X3656Y11732D02*
D03*
X6289Y13209D02*
D03*
X4606Y13189D02*
D03*
Y13632D02*
D03*
X3967Y14764D02*
D03*
X7398Y14728D02*
D03*
X7657Y15256D02*
D03*
X12382Y17904D02*
D03*
X30472Y4016D02*
D03*
X28337Y5364D02*
D03*
X26644Y6260D02*
D03*
X4744Y12028D02*
D03*
X4951Y11811D02*
D03*
X5236Y12146D02*
D03*
X5453Y12352D02*
D03*
X32637Y4714D02*
D03*
Y5714D02*
D03*
Y6714D02*
D03*
X32137Y6214D02*
D03*
Y5214D02*
D03*
X29941Y18444D02*
D03*
X29518Y7164D02*
D03*
X30443Y9006D02*
D03*
X30105Y9314D02*
D03*
X7382Y8366D02*
D03*
X32018Y4449D02*
D03*
X32303Y4213D02*
D03*
X20876Y7199D02*
D03*
X21171Y13827D02*
D03*
X29508Y6070D02*
D03*
X26801Y18238D02*
D03*
X9085Y6240D02*
D03*
X9429D02*
D03*
X25207Y17579D02*
D03*
X9537Y17854D02*
D03*
X14006Y16754D02*
D03*
X11555Y10654D02*
D03*
Y11154D02*
D03*
X12608Y18110D02*
D03*
X23976Y6250D02*
D03*
X22667Y6161D02*
D03*
X12183Y9904D02*
D03*
X28937Y19390D02*
D03*
X28287Y12756D02*
D03*
X11555Y8654D02*
D03*
Y9154D02*
D03*
Y9654D02*
D03*
X9097Y10335D02*
D03*
X28400Y8307D02*
D03*
X28409Y10640D02*
D03*
X5087Y9079D02*
D03*
X7165Y9065D02*
D03*
X6880Y8041D02*
D03*
X16600Y14429D02*
D03*
X17980D02*
D03*
X14980D02*
D03*
X16526Y19213D02*
D03*
X29774Y16112D02*
D03*
X27933Y7411D02*
D03*
X22638Y9518D02*
D03*
X23002Y8406D02*
D03*
X24134Y9567D02*
D03*
Y10059D02*
D03*
X23839Y12215D02*
D03*
X24134Y11929D02*
D03*
X22923Y15276D02*
D03*
X30768Y8986D02*
D03*
X30030Y7087D02*
D03*
X29843Y7746D02*
D03*
X29656Y5217D02*
D03*
X7864Y5108D02*
D03*
X8864D02*
D03*
X9864D02*
D03*
X10864D02*
D03*
X11864D02*
D03*
X12864D02*
D03*
X12392Y5965D02*
D03*
X11821D02*
D03*
X11812Y6723D02*
D03*
X21526Y9126D02*
D03*
Y8126D02*
D03*
Y10126D02*
D03*
Y11126D02*
D03*
Y12126D02*
D03*
Y13126D02*
D03*
X21538Y15966D02*
D03*
X19173Y19163D02*
D03*
Y20443D02*
D03*
Y19803D02*
D03*
X19862Y20492D02*
D03*
Y20197D02*
D03*
X9685Y19636D02*
D03*
X10502Y17835D02*
D03*
X8327Y18110D02*
D03*
X8465Y18652D02*
D03*
Y19646D02*
D03*
X8238Y19134D02*
D03*
X6732Y19961D02*
D03*
X6742Y20650D02*
D03*
X22795Y20561D02*
D03*
X22785Y19931D02*
D03*
X22766Y19134D02*
D03*
X22776Y18337D02*
D03*
X24911Y18642D02*
D03*
X24213D02*
D03*
X12205Y16102D02*
D03*
X7933Y16122D02*
D03*
X5915Y15994D02*
D03*
X15315Y17087D02*
D03*
X27254Y13701D02*
D03*
X27549Y14222D02*
D03*
Y15915D02*
D03*
X28239Y15973D02*
D03*
X32373Y8936D02*
D03*
X32637Y7214D02*
D03*
X32137D02*
D03*
X25592Y4605D02*
D03*
Y6249D02*
D03*
X24194Y5817D02*
D03*
X12156Y18415D02*
D03*
X27569Y4587D02*
D03*
X26593D02*
D03*
X27559Y4951D02*
D03*
X28366Y6339D02*
D03*
X26594Y5030D02*
D03*
X27778Y6415D02*
D03*
X22667Y17963D02*
D03*
X13909Y4587D02*
D03*
X14823Y4587D02*
D03*
X13927Y20246D02*
D03*
X12392Y18947D02*
D03*
X15866Y18750D02*
D03*
X13720Y19213D02*
D03*
X11939Y20246D02*
D03*
X23455Y17057D02*
D03*
X13730Y19587D02*
D03*
X14134D02*
D03*
X24872Y17303D02*
D03*
X26142Y17313D02*
D03*
X22894Y17303D02*
D03*
X21742Y15492D02*
D03*
X21348D02*
D03*
X22136D02*
D03*
X23091Y18337D02*
D03*
X23081Y17963D02*
D03*
X21929Y16988D02*
D03*
X21535D02*
D03*
X27559Y5335D02*
D03*
X27042Y6260D02*
D03*
X27441D02*
D03*
X27480Y10647D02*
D03*
X20876Y8626D02*
D03*
Y7724D02*
D03*
Y12626D02*
D03*
Y13626D02*
D03*
Y11626D02*
D03*
Y9626D02*
D03*
Y10626D02*
D03*
X9114Y11388D02*
D03*
X27116Y12570D02*
D03*
X7835Y7382D02*
D03*
X24281Y13652D02*
D03*
X24085Y14380D02*
D03*
X22402Y15738D02*
D03*
X29862Y15276D02*
D03*
X30305Y14242D02*
D03*
X30285Y13209D02*
D03*
X29498Y12333D02*
D03*
X10128Y9606D02*
D03*
X24569Y4587D02*
D03*
X23593D02*
D03*
X22699Y6506D02*
D03*
X27549Y15148D02*
D03*
X23661Y5719D02*
D03*
X27016Y14365D02*
D03*
X29872Y8188D02*
D03*
X29587Y16692D02*
D03*
X28986D02*
D03*
X29988Y12874D02*
D03*
X28455Y13524D02*
D03*
X28681Y12352D02*
D03*
X12967Y16041D02*
D03*
X14547Y17087D02*
D03*
X13701Y15709D02*
D03*
X13179Y17067D02*
D03*
X18012Y16063D02*
D03*
X15689D02*
D03*
X27480Y8317D02*
D03*
X14553Y15532D02*
D03*
X2156Y13982D02*
D03*
Y14482D02*
D03*
Y14982D02*
D03*
Y12482D02*
D03*
Y12982D02*
D03*
Y13482D02*
D03*
X27175Y11939D02*
D03*
Y11367D02*
D03*
Y10765D02*
D03*
Y10163D02*
D03*
Y9561D02*
D03*
Y9058D02*
D03*
Y8358D02*
D03*
X5428Y18858D02*
D03*
X5380Y18080D02*
D03*
X5669Y17790D02*
D03*
X5866Y19557D02*
D03*
X6122D02*
D03*
X5610D02*
D03*
X6978Y15157D02*
D03*
X3656Y11232D02*
D03*
X3156Y11482D02*
D03*
X2656Y11732D02*
D03*
X3156Y11982D02*
D03*
X2656Y3189D02*
D03*
X2156Y3439D02*
D03*
X2656Y3689D02*
D03*
Y4189D02*
D03*
X2156Y3939D02*
D03*
Y4439D02*
D03*
X4156Y10600D02*
D03*
X3156Y10982D02*
D03*
X4656Y9630D02*
D03*
X4254Y9939D02*
D03*
Y9439D02*
D03*
X3656Y9732D02*
D03*
X3156Y8439D02*
D03*
X2656Y8689D02*
D03*
X2156Y8439D02*
D03*
Y9482D02*
D03*
X3156Y9482D02*
D03*
X2656Y9732D02*
D03*
X2156Y11982D02*
D03*
Y11482D02*
D03*
Y10982D02*
D03*
X2656Y10732D02*
D03*
Y11232D02*
D03*
X2156Y5439D02*
D03*
Y5939D02*
D03*
Y4939D02*
D03*
X2656Y5189D02*
D03*
Y5689D02*
D03*
Y4689D02*
D03*
X2156Y7939D02*
D03*
Y6939D02*
D03*
Y7439D02*
D03*
Y6439D02*
D03*
X2656Y7689D02*
D03*
Y8189D02*
D03*
Y6689D02*
D03*
Y7189D02*
D03*
Y6189D02*
D03*
X4156Y11482D02*
D03*
Y10982D02*
D03*
X4656Y10929D02*
D03*
X5156Y10679D02*
D03*
X3656Y10732D02*
D03*
X5335Y9902D02*
D03*
X5156Y7636D02*
D03*
X4656Y7689D02*
D03*
Y8189D02*
D03*
X4156Y8439D02*
D03*
X4656Y8689D02*
D03*
Y9189D02*
D03*
X4156Y8939D02*
D03*
X3656Y8189D02*
D03*
X3156Y7939D02*
D03*
X3656Y8689D02*
D03*
X9498Y13071D02*
D03*
X9081D02*
D03*
X8618D02*
D03*
X22653Y8799D02*
D03*
X22656Y11112D02*
D03*
X7535Y7136D02*
D03*
X12298Y6462D02*
D03*
X24156Y8936D02*
D03*
Y11234D02*
D03*
X7201Y13410D02*
D03*
Y13750D02*
D03*
X9965Y6622D02*
D03*
X9636Y6636D02*
D03*
X8116Y7638D02*
D03*
X27778Y5802D02*
D03*
X28091D02*
D03*
X24156Y8474D02*
D03*
X23659D02*
D03*
X22352Y11624D02*
D03*
X22530Y11890D02*
D03*
X23659Y10738D02*
D03*
X24156D02*
D03*
X30537Y5588D02*
D03*
Y5214D02*
D03*
X8120Y6925D02*
D03*
X28339Y6897D02*
D03*
X32014Y9387D02*
D03*
Y9003D02*
D03*
Y10007D02*
D03*
X31561Y9387D02*
D03*
X30287Y7448D02*
D03*
X30882Y5509D02*
D03*
Y7104D02*
D03*
Y6631D02*
D03*
X31177Y6070D02*
D03*
X31055Y4023D02*
D03*
X31610Y4043D02*
D03*
X31591Y7448D02*
D03*
X6827Y11339D02*
D03*
X7299D02*
D03*
X7772D02*
D03*
X8244D02*
D03*
X6827Y10866D02*
D03*
X7299D02*
D03*
X7772D02*
D03*
X8244D02*
D03*
X6827Y10394D02*
D03*
X7299D02*
D03*
X7772D02*
D03*
X8244D02*
D03*
X6827Y9921D02*
D03*
X7299D02*
D03*
X7772D02*
D03*
X8244D02*
D03*
X29400Y14461D02*
D03*
Y14028D02*
D03*
X28967Y14461D02*
D03*
Y14028D02*
D03*
X25166Y14461D02*
D03*
X25599D02*
D03*
X25166Y14028D02*
D03*
X25599D02*
D03*
X20443Y20492D02*
D03*
X20738D02*
D03*
X20055Y19459D02*
D03*
X19154Y18209D02*
D03*
X20906Y18376D02*
D03*
X20010Y17805D02*
D03*
X20906Y18120D02*
D03*
X19518Y20148D02*
D03*
Y20423D02*
D03*
X21024Y20118D02*
D03*
X21309D02*
D03*
X20797Y19734D02*
D03*
X5587Y8789D02*
D03*
X6145Y7610D02*
D03*
X8919Y8334D02*
D03*
X10148Y12313D02*
D03*
X6118Y12106D02*
D03*
X6132Y13484D02*
D03*
X7152Y12874D02*
D03*
X5990Y12451D02*
D03*
X7132Y12451D02*
D03*
X8244Y9173D02*
D03*
X8264Y8334D02*
D03*
X5990Y12805D02*
D03*
X6876Y8868D02*
D03*
X9578Y8334D02*
D03*
X20433Y17402D02*
D03*
X20817D02*
D03*
X22382Y19911D02*
D03*
X21024Y20492D02*
D03*
X8928Y6909D02*
D03*
X22382Y19587D02*
D03*
X20797Y19478D02*
D03*
X28426Y17135D02*
D03*
X28046Y18495D02*
D03*
X29050Y13137D02*
D03*
X5665Y10915D02*
D03*
X6207Y8878D02*
D03*
X26810Y12571D02*
D03*
X19161Y17864D02*
D03*
X30911Y7739D02*
D03*
X31217D02*
D03*
Y8071D02*
D03*
X30911D02*
D03*
X31217Y8403D02*
D03*
X30911D02*
D03*
X31207Y9392D02*
D03*
X28051Y17135D02*
D03*
X28425Y18495D02*
D03*
X29946Y17186D02*
D03*
X22431Y18199D02*
D03*
Y18474D02*
D03*
X33382Y8637D02*
D03*
Y8271D02*
D03*
Y7905D02*
D03*
Y7539D02*
D03*
X22313Y17490D02*
D03*
X5311Y10984D02*
D03*
X29282Y16692D02*
D03*
X29055Y15649D02*
D03*
X27490Y12234D02*
D03*
X24634Y15002D02*
D03*
X26810Y13250D02*
D03*
X7713Y12766D02*
D03*
X23453Y13762D02*
D03*
X5508Y7490D02*
D03*
X10167Y8334D02*
D03*
X9654Y7638D02*
D03*
X8604D02*
D03*
X29951Y16692D02*
D03*
X31055Y4751D02*
D03*
Y5116D02*
D03*
Y4387D02*
D03*
X9803Y12313D02*
D03*
X9130Y9011D02*
D03*
X8726D02*
D03*
X9524D02*
D03*
X28474Y19003D02*
D03*
X4711Y11427D02*
D03*
X7437Y12943D02*
D03*
X21978Y17490D02*
D03*
X4986Y10010D02*
D03*
X5567Y9508D02*
D03*
M02*
