G04*
G04 #@! TF.GenerationSoftware,Altium Limited,Altium Designer,20.1.14 (287)*
G04*
G04 Layer_Color=8421504*
%FSLAX24Y24*%
%MOIN*%
G70*
G04*
G04 #@! TF.SameCoordinates,36825D0D-408E-4E44-9134-4F5201A7400A*
G04*
G04*
G04 #@! TF.FilePolarity,Positive*
G04*
G01*
G75*
G04:AMPARAMS|DCode=23|XSize=37mil|YSize=37mil|CornerRadius=2.8mil|HoleSize=0mil|Usage=FLASHONLY|Rotation=0.000|XOffset=0mil|YOffset=0mil|HoleType=Round|Shape=RoundedRectangle|*
%AMROUNDEDRECTD23*
21,1,0.0370,0.0315,0,0,0.0*
21,1,0.0315,0.0370,0,0,0.0*
1,1,0.0056,0.0157,-0.0157*
1,1,0.0056,-0.0157,-0.0157*
1,1,0.0056,-0.0157,0.0157*
1,1,0.0056,0.0157,0.0157*
%
%ADD23ROUNDEDRECTD23*%
%ADD24O,0.0591X0.0787*%
%ADD25R,0.0500X0.1252*%
%ADD26R,0.0118X0.0106*%
%ADD27R,0.0197X0.0276*%
%ADD28R,0.0106X0.0118*%
%ADD29R,0.0276X0.0197*%
%ADD30R,0.0799X0.0299*%
%ADD31R,0.0217X0.0571*%
%ADD32R,0.0217X0.0571*%
%ADD33R,0.0157X0.0167*%
%ADD34R,0.0374X0.0453*%
%ADD35R,0.0189X0.0315*%
%ADD36O,0.0354X0.0098*%
%ADD37R,0.0571X0.0685*%
%ADD38R,0.0258X0.0118*%
%ADD39R,0.0390X0.0630*%
%ADD40R,0.0118X0.0258*%
%ADD41R,0.0630X0.0390*%
%ADD42O,0.0315X0.0098*%
%ADD43O,0.0098X0.0315*%
%ADD44R,0.1063X0.1063*%
%ADD45R,0.0197X0.0138*%
%ADD46R,0.0394X0.0236*%
%ADD47R,0.0138X0.0197*%
%ADD48R,0.0236X0.0394*%
%ADD49O,0.0098X0.0276*%
%ADD50R,0.0394X0.0630*%
%ADD51R,0.0197X0.0236*%
%ADD52R,0.0374X0.0335*%
%ADD53C,0.0118*%
%ADD54R,0.1142X0.0394*%
%ADD55O,0.0276X0.0098*%
%ADD56R,0.0354X0.0098*%
%ADD57R,0.0587X0.0929*%
%ADD58C,0.0083*%
%ADD59O,0.0118X0.0374*%
%ADD60O,0.0374X0.0118*%
%ADD61R,0.0925X0.0925*%
%ADD62R,0.0925X0.0925*%
%ADD63R,0.0236X0.0217*%
%ADD64R,0.0217X0.0236*%
%ADD65R,0.0453X0.0531*%
%ADD66R,0.0417X0.0622*%
%ADD67R,0.0236X0.0858*%
%ADD68R,0.0256X0.0197*%
%ADD69R,0.1063X0.0315*%
%ADD70R,0.0728X0.0256*%
%ADD71R,0.0256X0.0728*%
%ADD72R,0.0157X0.0531*%
%ADD73R,0.0748X0.0610*%
%ADD74R,0.0630X0.0551*%
%ADD75R,0.0335X0.0394*%
%ADD76R,0.0335X0.0236*%
%ADD77R,0.0236X0.0197*%
%ADD78R,0.0295X0.0315*%
%ADD79R,0.0315X0.0295*%
D23*
X6862Y11303D02*
D03*
X7311D02*
D03*
X7760D02*
D03*
X8209D02*
D03*
Y10854D02*
D03*
X7760D02*
D03*
X7311D02*
D03*
X6862D02*
D03*
X8209Y10406D02*
D03*
X7760D02*
D03*
X7311D02*
D03*
X6862D02*
D03*
X8209Y9957D02*
D03*
X7760D02*
D03*
X7311D02*
D03*
X6862D02*
D03*
D24*
X10276Y20187D02*
D03*
X7677D02*
D03*
X26024D02*
D03*
X23425D02*
D03*
D25*
X7366Y4587D02*
D03*
X6366D02*
D03*
X8366D02*
D03*
X9366D02*
D03*
X10366D02*
D03*
X15366D02*
D03*
X14366D02*
D03*
X13366D02*
D03*
X11366D02*
D03*
X12366D02*
D03*
X27091D02*
D03*
X26091D02*
D03*
X24091D02*
D03*
X25091D02*
D03*
D26*
X19449Y17864D02*
D03*
Y17640D02*
D03*
X19734Y17864D02*
D03*
Y17640D02*
D03*
X20266Y18063D02*
D03*
Y18287D02*
D03*
X20010Y18287D02*
D03*
Y18063D02*
D03*
X22520Y16307D02*
D03*
Y16083D02*
D03*
X22254D02*
D03*
Y16307D02*
D03*
X22520Y16752D02*
D03*
Y16528D02*
D03*
X22254D02*
D03*
Y16752D02*
D03*
X23955Y8936D02*
D03*
Y8712D02*
D03*
X30325Y17559D02*
D03*
Y17783D02*
D03*
Y18007D02*
D03*
Y18232D02*
D03*
X28051Y17392D02*
D03*
Y17616D02*
D03*
Y18041D02*
D03*
Y17817D02*
D03*
X30104Y7974D02*
D03*
Y7750D02*
D03*
Y8188D02*
D03*
Y8413D02*
D03*
X30105Y8626D02*
D03*
Y8850D02*
D03*
X26347Y7380D02*
D03*
Y7156D02*
D03*
X28091Y6227D02*
D03*
Y6003D02*
D03*
Y5594D02*
D03*
Y5370D02*
D03*
X27778Y5594D02*
D03*
Y5370D02*
D03*
Y6227D02*
D03*
Y6003D02*
D03*
X26347Y8542D02*
D03*
Y8317D02*
D03*
Y9707D02*
D03*
Y9482D02*
D03*
Y10871D02*
D03*
Y10647D02*
D03*
X23955Y11234D02*
D03*
Y11010D02*
D03*
X24644Y12825D02*
D03*
Y13050D02*
D03*
X26121Y12825D02*
D03*
Y13050D02*
D03*
X23543Y6866D02*
D03*
Y7091D02*
D03*
X23307D02*
D03*
Y6866D02*
D03*
X23071Y7091D02*
D03*
Y6866D02*
D03*
X22652Y8997D02*
D03*
Y9221D02*
D03*
Y11305D02*
D03*
Y11530D02*
D03*
X7352Y17270D02*
D03*
Y17494D02*
D03*
X10236Y18173D02*
D03*
Y17949D02*
D03*
X9951Y18173D02*
D03*
Y17949D02*
D03*
X6344Y12467D02*
D03*
Y12691D02*
D03*
X7437Y12457D02*
D03*
Y12681D02*
D03*
X9636Y6467D02*
D03*
Y6242D02*
D03*
X8120Y7118D02*
D03*
Y7343D02*
D03*
X6206Y16208D02*
D03*
Y15984D02*
D03*
X7028Y19963D02*
D03*
Y20187D02*
D03*
Y20425D02*
D03*
Y20650D02*
D03*
X26673Y19945D02*
D03*
Y19720D02*
D03*
Y20407D02*
D03*
Y20183D02*
D03*
X20108Y19701D02*
D03*
Y19925D02*
D03*
X19843Y19701D02*
D03*
Y19925D02*
D03*
X19498Y19701D02*
D03*
Y19925D02*
D03*
X15022Y14996D02*
D03*
Y15220D02*
D03*
X14780Y14996D02*
D03*
Y15220D02*
D03*
X14537Y14996D02*
D03*
Y15220D02*
D03*
X14295Y14996D02*
D03*
Y15220D02*
D03*
X14053Y14996D02*
D03*
Y15220D02*
D03*
X13811Y14996D02*
D03*
Y15220D02*
D03*
X12096Y6003D02*
D03*
Y6227D02*
D03*
Y6684D02*
D03*
Y6459D02*
D03*
D27*
X21132Y17480D02*
D03*
X21447D02*
D03*
D28*
X23457Y17303D02*
D03*
X23232D02*
D03*
X23691D02*
D03*
X23915D02*
D03*
X25437Y17313D02*
D03*
X25213D02*
D03*
X25665D02*
D03*
X25890D02*
D03*
X25731Y15721D02*
D03*
X25506D02*
D03*
X25054D02*
D03*
X25278D02*
D03*
X26362Y16174D02*
D03*
X26138D02*
D03*
Y15923D02*
D03*
X26362D02*
D03*
X25506Y15416D02*
D03*
X25731D02*
D03*
X24268Y14117D02*
D03*
X24044D02*
D03*
X24807Y15721D02*
D03*
X24583D02*
D03*
Y15947D02*
D03*
X24807D02*
D03*
X24583Y16174D02*
D03*
X24807D02*
D03*
X24411Y5591D02*
D03*
X24636D02*
D03*
X29807Y19005D02*
D03*
X29583D02*
D03*
X28707D02*
D03*
X28932D02*
D03*
X29049Y15396D02*
D03*
X28825D02*
D03*
X28596Y15396D02*
D03*
X28372D02*
D03*
X28823Y15649D02*
D03*
X28598D02*
D03*
X28823Y15901D02*
D03*
X28598D02*
D03*
X28823Y16154D02*
D03*
X28598D02*
D03*
X29287Y15396D02*
D03*
X29512D02*
D03*
X29287Y15649D02*
D03*
X29512D02*
D03*
Y15901D02*
D03*
X29287D02*
D03*
X29287Y16154D02*
D03*
X29512D02*
D03*
X30301Y14983D02*
D03*
X30526D02*
D03*
X30301Y13506D02*
D03*
X30526D02*
D03*
X29287Y13132D02*
D03*
X29512D02*
D03*
X29764D02*
D03*
X29988D02*
D03*
X29287Y12601D02*
D03*
X29512D02*
D03*
X29287Y12867D02*
D03*
X29512D02*
D03*
X28823Y12601D02*
D03*
X28598D02*
D03*
X28598Y12867D02*
D03*
X28823D02*
D03*
Y13132D02*
D03*
X28598D02*
D03*
X26774Y14117D02*
D03*
X26550D02*
D03*
X26550Y14366D02*
D03*
X26774D02*
D03*
X26550Y14615D02*
D03*
X26774D02*
D03*
X26550Y14865D02*
D03*
X26774D02*
D03*
X28033Y14628D02*
D03*
X27809D02*
D03*
X28026Y13861D02*
D03*
X27801D02*
D03*
X28136Y13132D02*
D03*
X28360D02*
D03*
X32073Y4715D02*
D03*
X32297D02*
D03*
X32297Y4956D02*
D03*
X32073D02*
D03*
X29907Y3799D02*
D03*
X30132D02*
D03*
X30132Y4031D02*
D03*
X29907D02*
D03*
X29907Y4262D02*
D03*
X30132D02*
D03*
X30287Y6783D02*
D03*
X30512D02*
D03*
X30512Y7015D02*
D03*
X30287D02*
D03*
X30287Y7248D02*
D03*
X30512D02*
D03*
X26817Y5955D02*
D03*
X27041D02*
D03*
X27703Y11306D02*
D03*
X27927D02*
D03*
X27703Y8996D02*
D03*
X27927D02*
D03*
X27703Y7658D02*
D03*
X27927D02*
D03*
X27703Y9987D02*
D03*
X27927D02*
D03*
X25276Y12781D02*
D03*
X25500D02*
D03*
X25516Y13044D02*
D03*
X25741D02*
D03*
X25258D02*
D03*
X25034D02*
D03*
X24187Y12286D02*
D03*
X24412D02*
D03*
X24993Y12286D02*
D03*
X24768D02*
D03*
X25012Y11489D02*
D03*
X24788D02*
D03*
X24188Y10390D02*
D03*
X24412D02*
D03*
X25012Y10324D02*
D03*
X24788D02*
D03*
X25012Y9156D02*
D03*
X24788D02*
D03*
X25012Y7995D02*
D03*
X24788D02*
D03*
X14809Y17087D02*
D03*
X15033D02*
D03*
X13451Y17057D02*
D03*
X13675D02*
D03*
X13498Y20246D02*
D03*
X13274D02*
D03*
X11935Y18691D02*
D03*
X12159D02*
D03*
X11935Y18937D02*
D03*
X12159D02*
D03*
X13274Y18691D02*
D03*
X13498D02*
D03*
X13498Y18937D02*
D03*
X13274D02*
D03*
X5581Y9085D02*
D03*
X5356D02*
D03*
X6644Y8878D02*
D03*
X6419D02*
D03*
X9628Y9596D02*
D03*
X9852D02*
D03*
X12183Y8654D02*
D03*
X11959D02*
D03*
X12183Y9154D02*
D03*
X11959D02*
D03*
X12183Y9654D02*
D03*
X11959D02*
D03*
X12183Y10154D02*
D03*
X11959D02*
D03*
X12183Y10654D02*
D03*
X11959D02*
D03*
X12183Y11154D02*
D03*
X11959D02*
D03*
X10665D02*
D03*
X10890D02*
D03*
X14778Y15738D02*
D03*
X14553D02*
D03*
X13215Y15709D02*
D03*
X13439D02*
D03*
D29*
X22126Y19213D02*
D03*
Y19528D02*
D03*
D30*
X2787Y12882D02*
D03*
X3988Y14382D02*
D03*
Y13882D02*
D03*
Y13382D02*
D03*
Y12882D02*
D03*
Y12382D02*
D03*
X2787Y14382D02*
D03*
Y13882D02*
D03*
Y13382D02*
D03*
Y12382D02*
D03*
D31*
X6604Y16545D02*
D03*
X7352D02*
D03*
Y15699D02*
D03*
X6978D02*
D03*
D32*
X6604Y15699D02*
D03*
D33*
X25510Y7376D02*
D03*
X25766D02*
D03*
X26022D02*
D03*
Y8121D02*
D03*
X25766D02*
D03*
X25510D02*
D03*
X12982Y19215D02*
D03*
X13238D02*
D03*
X13494D02*
D03*
Y19959D02*
D03*
X13238D02*
D03*
X12982D02*
D03*
X12451Y19959D02*
D03*
X12195D02*
D03*
X11939D02*
D03*
Y19215D02*
D03*
X12195D02*
D03*
X12451D02*
D03*
X24360Y17591D02*
D03*
X24616D02*
D03*
X24872D02*
D03*
Y18335D02*
D03*
X24616D02*
D03*
X24360D02*
D03*
X23829Y17591D02*
D03*
X23573D02*
D03*
X23317D02*
D03*
Y18335D02*
D03*
X23573D02*
D03*
X23829D02*
D03*
X25510Y9282D02*
D03*
X25766D02*
D03*
X26022D02*
D03*
Y8538D02*
D03*
X25766D02*
D03*
X25510D02*
D03*
Y10447D02*
D03*
X25766D02*
D03*
X26022D02*
D03*
Y9703D02*
D03*
X25766D02*
D03*
X25510D02*
D03*
Y11611D02*
D03*
X25766D02*
D03*
X26022D02*
D03*
Y10867D02*
D03*
X25766D02*
D03*
X25510D02*
D03*
D34*
X25638Y7749D02*
D03*
X13110Y19587D02*
D03*
X12323D02*
D03*
X24488Y17963D02*
D03*
X23701D02*
D03*
X25638Y8910D02*
D03*
Y10075D02*
D03*
Y11239D02*
D03*
D35*
X26042Y7749D02*
D03*
X13514Y19587D02*
D03*
X11919D02*
D03*
X24892Y17963D02*
D03*
X23297D02*
D03*
X26042Y8910D02*
D03*
Y10075D02*
D03*
Y11239D02*
D03*
D36*
X31608Y4269D02*
D03*
Y4466D02*
D03*
Y4663D02*
D03*
Y4860D02*
D03*
X30510Y4269D02*
D03*
Y4466D02*
D03*
Y4663D02*
D03*
Y4860D02*
D03*
D37*
X31059Y4564D02*
D03*
D38*
X21927Y16155D02*
D03*
Y16411D02*
D03*
Y16667D02*
D03*
X21157Y16155D02*
D03*
Y16411D02*
D03*
Y16667D02*
D03*
D39*
X21542Y16411D02*
D03*
D40*
X5610Y18473D02*
D03*
X5866D02*
D03*
X6122D02*
D03*
X5610Y19243D02*
D03*
X5866D02*
D03*
X6122D02*
D03*
D41*
X5866Y18858D02*
D03*
D42*
X28415Y18209D02*
D03*
Y18012D02*
D03*
Y17815D02*
D03*
Y17618D02*
D03*
Y17421D02*
D03*
X29951D02*
D03*
Y17618D02*
D03*
Y17815D02*
D03*
Y18012D02*
D03*
Y18209D02*
D03*
D43*
X28789Y17047D02*
D03*
X28986D02*
D03*
X29183D02*
D03*
X29380D02*
D03*
X29577D02*
D03*
Y18583D02*
D03*
X29380D02*
D03*
X29183D02*
D03*
X28986D02*
D03*
X28789D02*
D03*
D44*
X29183Y17815D02*
D03*
D45*
X22949Y6506D02*
D03*
Y6250D02*
D03*
Y5994D02*
D03*
X23657Y6506D02*
D03*
Y6250D02*
D03*
Y5994D02*
D03*
X22949Y9222D02*
D03*
Y8967D02*
D03*
Y8711D02*
D03*
X23657Y9222D02*
D03*
Y8967D02*
D03*
Y8711D02*
D03*
X22949Y11535D02*
D03*
Y11280D02*
D03*
Y11024D02*
D03*
X23657Y11535D02*
D03*
Y11280D02*
D03*
Y11024D02*
D03*
D46*
X23303Y6457D02*
D03*
Y6043D02*
D03*
X23303Y9173D02*
D03*
Y8760D02*
D03*
X23303Y11486D02*
D03*
Y11073D02*
D03*
D47*
X15059Y16752D02*
D03*
X14803D02*
D03*
X14547D02*
D03*
X15059Y16043D02*
D03*
X14803D02*
D03*
X14547D02*
D03*
X28199Y8672D02*
D03*
X27943D02*
D03*
X27687D02*
D03*
X28199Y7963D02*
D03*
X27943D02*
D03*
X27687D02*
D03*
X28199Y11001D02*
D03*
X27943D02*
D03*
X27687D02*
D03*
X28199Y10293D02*
D03*
X27943D02*
D03*
X27687D02*
D03*
X13189Y16043D02*
D03*
X13445D02*
D03*
X13701D02*
D03*
X13189Y16752D02*
D03*
X13445D02*
D03*
X13701D02*
D03*
D48*
X15010Y16398D02*
D03*
X14596D02*
D03*
X28150Y8317D02*
D03*
X27736D02*
D03*
X28150Y10647D02*
D03*
X27736D02*
D03*
X13238Y16398D02*
D03*
X13652D02*
D03*
D49*
X11348Y6841D02*
D03*
X11152D02*
D03*
X10364D02*
D03*
X10561D02*
D03*
X10758D02*
D03*
X10955D02*
D03*
X11545D02*
D03*
Y5856D02*
D03*
X11348D02*
D03*
X11152D02*
D03*
X10955D02*
D03*
X10758D02*
D03*
X10561D02*
D03*
X10364D02*
D03*
X10167D02*
D03*
Y6841D02*
D03*
D50*
X15866Y19213D02*
D03*
X17835D02*
D03*
X16850D02*
D03*
Y20315D02*
D03*
X17835D02*
D03*
X15866D02*
D03*
D51*
X2205Y10318D02*
D03*
Y9924D02*
D03*
X8618Y12382D02*
D03*
Y12776D02*
D03*
X9498Y12382D02*
D03*
Y12776D02*
D03*
X9081Y12382D02*
D03*
Y12776D02*
D03*
X3317Y9924D02*
D03*
Y10318D02*
D03*
X4619Y9924D02*
D03*
Y10318D02*
D03*
X5743Y9931D02*
D03*
Y10325D02*
D03*
X5158Y8033D02*
D03*
Y8427D02*
D03*
X6558Y8427D02*
D03*
Y8033D02*
D03*
X19508Y18209D02*
D03*
Y18602D02*
D03*
X5226Y19252D02*
D03*
Y18858D02*
D03*
X11486Y19587D02*
D03*
Y19980D02*
D03*
X13927Y19980D02*
D03*
Y19587D02*
D03*
X22894Y17569D02*
D03*
Y17963D02*
D03*
D52*
X6143Y8457D02*
D03*
Y8004D02*
D03*
X5572D02*
D03*
Y8457D02*
D03*
D53*
X6453Y11909D02*
D03*
X6650D02*
D03*
X6846D02*
D03*
X7043D02*
D03*
X7240D02*
D03*
X7437D02*
D03*
X7634D02*
D03*
X7831D02*
D03*
X8028D02*
D03*
X8224D02*
D03*
X8421D02*
D03*
X8618D02*
D03*
X6256Y11713D02*
D03*
X6748D02*
D03*
X6945D02*
D03*
X7142D02*
D03*
X7339D02*
D03*
X7535D02*
D03*
X7732D02*
D03*
X7929D02*
D03*
X8323D02*
D03*
X8618Y11614D02*
D03*
X6256Y11516D02*
D03*
X6453Y11417D02*
D03*
X8618D02*
D03*
X6256Y11319D02*
D03*
X8815D02*
D03*
X6453Y11220D02*
D03*
X6256Y11122D02*
D03*
X8815D02*
D03*
X6453Y11024D02*
D03*
X8618D02*
D03*
X6256Y10925D02*
D03*
X8815D02*
D03*
X6453Y10827D02*
D03*
X8618D02*
D03*
X6256Y10728D02*
D03*
X8815D02*
D03*
X8618Y10630D02*
D03*
X6256Y10532D02*
D03*
X8815D02*
D03*
X8618Y10433D02*
D03*
X6256Y10335D02*
D03*
X8815D02*
D03*
X6453Y10236D02*
D03*
X8618D02*
D03*
X8815Y10138D02*
D03*
X6453Y10039D02*
D03*
X8618D02*
D03*
X6256Y9941D02*
D03*
X8618Y9843D02*
D03*
X8815Y9744D02*
D03*
X6453Y9843D02*
D03*
X6256Y9547D02*
D03*
X6945D02*
D03*
X7142D02*
D03*
X7339D02*
D03*
X7535D02*
D03*
X7732D02*
D03*
X7929D02*
D03*
X8126D02*
D03*
X8323D02*
D03*
X8520D02*
D03*
X8815D02*
D03*
X6453Y9350D02*
D03*
X6846D02*
D03*
X7043D02*
D03*
X7240D02*
D03*
X7437D02*
D03*
X7634D02*
D03*
X7831D02*
D03*
X8028D02*
D03*
X6650D02*
D03*
X27807Y7153D02*
D03*
X28063D02*
D03*
X27807Y6897D02*
D03*
X28063D02*
D03*
X27807Y6641D02*
D03*
X28063D02*
D03*
X25345Y6380D02*
D03*
Y6125D02*
D03*
X25089Y6380D02*
D03*
Y6125D02*
D03*
X24833Y6380D02*
D03*
Y6125D02*
D03*
X26345Y6380D02*
D03*
Y6125D02*
D03*
X26089Y6380D02*
D03*
Y6125D02*
D03*
X25833Y6380D02*
D03*
Y6125D02*
D03*
D54*
X10856Y6348D02*
D03*
D55*
X11742Y6447D02*
D03*
Y6250D02*
D03*
X9970D02*
D03*
Y6447D02*
D03*
D56*
X31608Y7675D02*
D03*
Y7872D02*
D03*
Y8068D02*
D03*
Y8265D02*
D03*
Y8462D02*
D03*
X30510Y7675D02*
D03*
Y7872D02*
D03*
Y8068D02*
D03*
Y8265D02*
D03*
Y8462D02*
D03*
D57*
X31059Y8068D02*
D03*
D58*
X20039Y18632D02*
D03*
Y18789D02*
D03*
Y18947D02*
D03*
Y19104D02*
D03*
X20197Y18632D02*
D03*
Y18789D02*
D03*
Y18947D02*
D03*
Y19104D02*
D03*
X20354Y18632D02*
D03*
Y18789D02*
D03*
Y18947D02*
D03*
Y19104D02*
D03*
X20512Y18632D02*
D03*
Y18789D02*
D03*
Y18947D02*
D03*
Y19104D02*
D03*
X20669Y18632D02*
D03*
Y18789D02*
D03*
Y18947D02*
D03*
Y19104D02*
D03*
D59*
X29567Y14983D02*
D03*
X29311D02*
D03*
X29055D02*
D03*
X28799D02*
D03*
Y13506D02*
D03*
X29055D02*
D03*
X29311D02*
D03*
X29567D02*
D03*
X24999Y13506D02*
D03*
X25254D02*
D03*
X25510D02*
D03*
X25766D02*
D03*
Y14983D02*
D03*
X25510D02*
D03*
X25254D02*
D03*
X24999D02*
D03*
D60*
X28445Y14628D02*
D03*
Y14372D02*
D03*
Y14117D02*
D03*
Y13861D02*
D03*
X29921D02*
D03*
Y14117D02*
D03*
Y14372D02*
D03*
Y14628D02*
D03*
X24644Y14628D02*
D03*
Y14373D02*
D03*
Y14117D02*
D03*
Y13861D02*
D03*
X26121D02*
D03*
Y14117D02*
D03*
Y14373D02*
D03*
Y14628D02*
D03*
D61*
X29183Y14244D02*
D03*
D62*
X25382Y14245D02*
D03*
D63*
X30488Y6070D02*
D03*
X30882D02*
D03*
X2565Y10328D02*
D03*
X2959D02*
D03*
X25077Y7621D02*
D03*
X24684D02*
D03*
Y8782D02*
D03*
X25077D02*
D03*
X24684Y9950D02*
D03*
X25077D02*
D03*
X24684Y11115D02*
D03*
X25077D02*
D03*
X24684Y11961D02*
D03*
X25077D02*
D03*
X24418Y11538D02*
D03*
X24024D02*
D03*
Y9222D02*
D03*
X24418D02*
D03*
D64*
X19508Y18986D02*
D03*
Y19380D02*
D03*
D65*
X23579Y8022D02*
D03*
X24189D02*
D03*
D66*
X16033Y4606D02*
D03*
X18356D02*
D03*
X18012Y16535D02*
D03*
X15689D02*
D03*
D67*
X17195Y4488D02*
D03*
X16486D02*
D03*
X16841D02*
D03*
X17549D02*
D03*
X17904D02*
D03*
X16850Y16654D02*
D03*
X17559D02*
D03*
X17205D02*
D03*
X16496D02*
D03*
X16142D02*
D03*
D68*
X5370Y10328D02*
D03*
X4996D02*
D03*
D69*
X32565Y7638D02*
D03*
Y8504D02*
D03*
D70*
X21407Y19656D02*
D03*
Y19124D02*
D03*
D71*
X22008Y18248D02*
D03*
X21476D02*
D03*
D72*
X8976Y19134D02*
D03*
X9232D02*
D03*
X9488D02*
D03*
X8720D02*
D03*
X8465D02*
D03*
X24724D02*
D03*
X24980D02*
D03*
X25236D02*
D03*
X24469D02*
D03*
X24213D02*
D03*
D73*
X9449Y20187D02*
D03*
X8504D02*
D03*
X25197D02*
D03*
X24252D02*
D03*
D74*
X7717Y19222D02*
D03*
X10236D02*
D03*
X23465D02*
D03*
X25984D02*
D03*
D75*
X8701Y18109D02*
D03*
D76*
Y17440D02*
D03*
X9508D02*
D03*
Y18188D02*
D03*
D77*
X5409Y11417D02*
D03*
X5016D02*
D03*
X9524Y9262D02*
D03*
X9917D02*
D03*
X8264Y8671D02*
D03*
X8657D02*
D03*
X21742Y15738D02*
D03*
X22136D02*
D03*
X20955D02*
D03*
X21348D02*
D03*
X6063Y18080D02*
D03*
X5669D02*
D03*
X26770Y12247D02*
D03*
X27164D02*
D03*
D78*
X31659Y5509D02*
D03*
X31128D02*
D03*
X31659Y6631D02*
D03*
X31128D02*
D03*
X31659Y7104D02*
D03*
X31128D02*
D03*
X31610Y9003D02*
D03*
X31079D02*
D03*
X21654Y20325D02*
D03*
X22185D02*
D03*
X26663Y5591D02*
D03*
X27195D02*
D03*
D79*
X30026Y4683D02*
D03*
Y5214D02*
D03*
X20512Y19636D02*
D03*
Y20167D02*
D03*
X20630Y18179D02*
D03*
Y17648D02*
D03*
M02*
